<?xml version="1.0" encoding="us-ascii" standalone="no"?><svg xmlns="http://www.w3.org/2000/svg" xmlns:xlink="http://www.w3.org/1999/xlink" contentStyleType="text/css" height="632px" preserveAspectRatio="none" style="width:172px;height:632px;" version="1.1" viewBox="0 0 172 632" width="172px" zoomAndPan="magnify"><defs/><g><!--class guarantor_type--><g id="elem_guarantor_type"><rect codeLine="13" fill="#FFFFCC" height="545.2031" id="guarantor_type" rx="2.5" ry="2.5" style="stroke:#181818;stroke-width:0.5;" width="159" x="6" y="80"/><ellipse cx="31.35" cy="96" fill="#86B0BE" rx="11" ry="11" style="stroke:#181818;stroke-width:1.0;"/><path d="M35.4594,102 L27.7406,102 L27.7406,89.6094 L35.4594,89.6094 L35.4594,91.7656 L30.1938,91.7656 L30.1938,94.4375 L34.9594,94.4375 L34.9594,96.5938 L30.1938,96.5938 L30.1938,99.8438 L35.4594,99.8438 L35.4594,102 Z " fill="#000000"/><text fill="#000000" font-family="sans-serif" font-size="14" lengthAdjust="spacing" textLength="104" x="47.65" y="100.8467">guarantor_type</text><line style="stroke:#181818;stroke-width:0.5;" x1="7" x2="164" y1="112" y2="112"/><text fill="#000000" font-family="sans-serif" font-size="14" lengthAdjust="spacing" textLength="110" x="12" y="128.9951">building_society</text><text fill="#000000" font-family="sans-serif" font-size="14" lengthAdjust="spacing" textLength="25" x="12" y="145.292">ccp</text><text fill="#000000" font-family="sans-serif" font-size="14" lengthAdjust="spacing" textLength="88" x="12" y="161.5889">central_bank</text><text fill="#000000" font-family="sans-serif" font-size="14" lengthAdjust="spacing" textLength="84" x="12" y="177.8857">central_govt</text><text fill="#000000" font-family="sans-serif" font-size="14" lengthAdjust="spacing" textLength="45" x="12" y="194.1826">charity</text><text fill="#000000" font-family="sans-serif" font-size="14" lengthAdjust="spacing" textLength="20" x="12" y="210.4795">ciu</text><text fill="#000000" font-family="sans-serif" font-size="14" lengthAdjust="spacing" textLength="128" x="12" y="226.7764">community_charity</text><text fill="#000000" font-family="sans-serif" font-size="14" lengthAdjust="spacing" textLength="67" x="12" y="243.0732">corporate</text><text fill="#000000" font-family="sans-serif" font-size="14" lengthAdjust="spacing" textLength="114" x="12" y="259.3701">credit_institution</text><text fill="#000000" font-family="sans-serif" font-size="14" lengthAdjust="spacing" textLength="85" x="12" y="275.667">credit_union</text><text fill="#000000" font-family="sans-serif" font-size="14" lengthAdjust="spacing" textLength="104" x="12" y="291.9639">deposit_broker</text><text fill="#000000" font-family="sans-serif" font-size="14" lengthAdjust="spacing" textLength="147" x="12" y="308.2607">export_credit_agency</text><text fill="#000000" font-family="sans-serif" font-size="14" lengthAdjust="spacing" textLength="55" x="12" y="324.5576">financial</text><text fill="#000000" font-family="sans-serif" font-size="14" lengthAdjust="spacing" textLength="113" x="12" y="340.8545">financial_holding</text><text fill="#000000" font-family="sans-serif" font-size="14" lengthAdjust="spacing" textLength="31" x="12" y="357.1514">fund</text><text fill="#000000" font-family="sans-serif" font-size="14" lengthAdjust="spacing" textLength="83" x="12" y="373.4482">hedge_fund</text><text fill="#000000" font-family="sans-serif" font-size="14" lengthAdjust="spacing" textLength="63" x="12" y="389.7451">individual</text><text fill="#000000" font-family="sans-serif" font-size="14" lengthAdjust="spacing" textLength="48" x="12" y="406.042">insurer</text><text fill="#000000" font-family="sans-serif" font-size="14" lengthAdjust="spacing" textLength="50" x="12" y="422.3389">intl_org</text><text fill="#000000" font-family="sans-serif" font-size="14" lengthAdjust="spacing" textLength="109" x="12" y="438.6357">investment_firm</text><text fill="#000000" font-family="sans-serif" font-size="14" lengthAdjust="spacing" textLength="98" x="12" y="454.9326">local_authority</text><text fill="#000000" font-family="sans-serif" font-size="14" lengthAdjust="spacing" textLength="31" x="12" y="471.2295">mdb</text><text fill="#000000" font-family="sans-serif" font-size="14" lengthAdjust="spacing" textLength="77" x="12" y="487.5264">mmkt_fund</text><text fill="#000000" font-family="sans-serif" font-size="14" lengthAdjust="spacing" textLength="103" x="12" y="503.8232">natural_person</text><text fill="#000000" font-family="sans-serif" font-size="14" lengthAdjust="spacing" textLength="37" x="12" y="520.1201">other</text><text fill="#000000" font-family="sans-serif" font-size="14" lengthAdjust="spacing" textLength="99" x="12" y="536.417">other_financial</text><text fill="#000000" font-family="sans-serif" font-size="14" lengthAdjust="spacing" textLength="70" x="12" y="552.7139">other_pse</text><text fill="#000000" font-family="sans-serif" font-size="14" lengthAdjust="spacing" textLength="79" x="12" y="569.0107">partnership</text><text fill="#000000" font-family="sans-serif" font-size="14" lengthAdjust="spacing" textLength="94" x="12" y="585.3076">pension_fund</text><text fill="#000000" font-family="sans-serif" font-size="14" lengthAdjust="spacing" textLength="20" x="12" y="601.6045">pic</text><text fill="#000000" font-family="sans-serif" font-size="14" lengthAdjust="spacing" textLength="110" x="12" y="617.9014">...20 more fields</text></g><!--class guarantor--><g id="elem_guarantor"><rect codeLine="52" fill="#FFFFCC" height="32" id="guarantor" rx="2.5" ry="2.5" style="stroke:#181818;stroke-width:0.5;" width="99" x="36" y="12"/><ellipse cx="51" cy="28" fill="#D9B01C" rx="11" ry="11" style="stroke:#181818;stroke-width:1.0;"/><path d="M52.2031,28.1406 Q52.5625,28.2188 52.8281,28.5 Q53.1094,28.7656 53.5,29.5469 L55.7344,34 L53.0469,34 L51.5469,30.875 Q51.4844,30.7344 51.375,30.5 Q50.7188,29.1094 49.8281,29.1094 L49.0469,29.1094 L49.0469,34 L46.6094,34 L46.6094,21.6094 L50.1406,21.6094 Q52.5313,21.6094 53.5625,22.4531 Q54.6094,23.2969 54.6094,25.2031 Q54.6094,26.4844 53.9844,27.25 Q53.375,28 52.2031,28.1406 Z M49.0469,23.6719 L49.0469,27.0469 L50.2031,27.0469 Q51.2188,27.0469 51.6406,26.6563 Q52.0781,26.25 52.0781,25.3438 Q52.0781,24.4531 51.6406,24.0625 Q51.2188,23.6719 50.2031,23.6719 L49.0469,23.6719 Z " fill="#000000"/><text fill="#000000" font-family="sans-serif" font-size="14" lengthAdjust="spacing" textLength="67" x="65" y="32.8467">guarantor</text></g><polygon fill="#181818" points="85.5,79.894,89.5,70.894,85.5,74.894,81.5,70.894,85.5,79.894" style="stroke:#181818;stroke-width:1.0;"/><path d="M85.5,44.1223 C85.5,52.9639 85.5,59.2642 85.5,73.894 " fill="none" style="stroke:#181818;stroke-width:1.0;"/><!--SRC=[NL9DZnCn3BtFhmZQ2qYxLU60G5hrCAK7BXoeE4UPn9snPk94YLDH8VuxJhPLX-RWsCz-ZZ_oBYOpUgCMSmc5LVR0XapNvHafccIysYycvzxOUKoXaDk79IJrrFywVlznE1wx2Hqey94lIhXJS7aDdH0MGUxPXeT4d0nbSG5nbu4L6GzYMpX29R24K23ewh6r4ZKMmKaScYyHrEkhUdzu_lAvt_Q73sgtKt-wJgcXuEAGHfs3HU2BGDR6AkMXP1Oz69fNvXZENCt997oBnb9byBwG87hb2Ia6gGogdi0XQwJCo8Knq1qKNZCTn9357bAO8Ga0luNF-XfcHY1RyvwG35aqorhNKsXzL4nc9jS4RWHzDP0Sdj6LHf8gIcel8F6YGngRUeRCNjhK9qnUa2LOoMkAxEhQaNT3bNxcMruoNEfO8gJScWWyjSpjrkjItv2OwpXaOqn2cR2EEW9b6S4jPqGhShFPVDeg7nBS_aOzVyNJpkEEstf_Fd_xscy_xc_h_PznZtrvsJtyZcjGzmy0]--></g></svg>