<?xml version="1.0" encoding="us-ascii" standalone="no"?><svg xmlns="http://www.w3.org/2000/svg" xmlns:xlink="http://www.w3.org/1999/xlink" contentStyleType="text/css" height="159px" preserveAspectRatio="none" style="width:160px;height:159px;" version="1.1" viewBox="0 0 160 159" width="160px" zoomAndPan="magnify"><defs/><g><!--class derivative_status--><g id="elem_derivative_status"><rect codeLine="13" fill="#FFFFCC" height="72.5938" id="derivative_status" rx="2.5" ry="2.5" style="stroke:#181818;stroke-width:0.5;" width="147" x="6" y="80"/><ellipse cx="21" cy="96" fill="#86B0BE" rx="11" ry="11" style="stroke:#181818;stroke-width:1.0;"/><path d="M25.1094,102 L17.3906,102 L17.3906,89.6094 L25.1094,89.6094 L25.1094,91.7656 L19.8438,91.7656 L19.8438,94.4375 L24.6094,94.4375 L24.6094,96.5938 L19.8438,96.5938 L19.8438,99.8438 L25.1094,99.8438 L25.1094,102 Z " fill="#000000"/><text fill="#000000" font-family="sans-serif" font-size="14" lengthAdjust="spacing" textLength="115" x="35" y="100.8467">derivative_status</text><line style="stroke:#181818;stroke-width:0.5;" x1="7" x2="152" y1="112" y2="112"/><text fill="#000000" font-family="sans-serif" font-size="14" lengthAdjust="spacing" textLength="99" x="12" y="128.9951">free_deliveries</text><text fill="#000000" font-family="sans-serif" font-size="14" lengthAdjust="spacing" textLength="66" x="12" y="145.292">unsettled</text></g><!--class derivative--><g id="elem_derivative"><rect codeLine="22" fill="#FFFFCC" height="32" id="derivative" rx="2.5" ry="2.5" style="stroke:#181818;stroke-width:0.5;" width="97" x="31" y="12"/><ellipse cx="46" cy="28" fill="#D9B01C" rx="11" ry="11" style="stroke:#181818;stroke-width:1.0;"/><path d="M47.2031,28.1406 Q47.5625,28.2188 47.8281,28.5 Q48.1094,28.7656 48.5,29.5469 L50.7344,34 L48.0469,34 L46.5469,30.875 Q46.4844,30.7344 46.375,30.5 Q45.7188,29.1094 44.8281,29.1094 L44.0469,29.1094 L44.0469,34 L41.6094,34 L41.6094,21.6094 L45.1406,21.6094 Q47.5313,21.6094 48.5625,22.4531 Q49.6094,23.2969 49.6094,25.2031 Q49.6094,26.4844 48.9844,27.25 Q48.375,28 47.2031,28.1406 Z M44.0469,23.6719 L44.0469,27.0469 L45.2031,27.0469 Q46.2188,27.0469 46.6406,26.6563 Q47.0781,26.25 47.0781,25.3438 Q47.0781,24.4531 46.6406,24.0625 Q46.2188,23.6719 45.2031,23.6719 L44.0469,23.6719 Z " fill="#000000"/><text fill="#000000" font-family="sans-serif" font-size="14" lengthAdjust="spacing" textLength="65" x="60" y="32.8467">derivative</text></g><polygon fill="#181818" points="79.5,79.7709,83.5,70.7709,79.5,74.7709,75.5,70.7709,79.5,79.7709" style="stroke:#181818;stroke-width:1.0;"/><path d="M79.5,44.0672 C79.5,53.9416 79.5,61.2874 79.5,73.7709 " fill="none" style="stroke:#181818;stroke-width:1.0;"/><!--SRC=[POvFQm913CNlyoaYlLXGi9VIWknXjdlmug5BpvBkH1sSFyiaAqZnkpShBRNwRdbvxvTC-eAxY13mb0S1ZYIOq1W- -DHZmGXrG6QBtM5Nyf1SdKCky60_sjMwQLkpzuw0OYydqEu-Exwsjfw2Ed-qpnkG54oiAqfYc0GIHjAvevR6WcWavKHcL3T-0ewAFwBu8srOK0Q6vHAcpUpbsIviymXL1L_606mBqSPHq63nnEeCIIz883V2pcfST8UzyDvdRwzsyLJ_ylvNhiBpUNN_qa_GV0C0]--></g></svg>