<?xml version="1.0" encoding="us-ascii" standalone="no"?><svg xmlns="http://www.w3.org/2000/svg" xmlns:xlink="http://www.w3.org/1999/xlink" contentStyleType="text/css" height="632px" preserveAspectRatio="none" style="width:175px;height:632px;" version="1.1" viewBox="0 0 175 632" width="175px" zoomAndPan="magnify"><defs/><g><!--class loan_type--><g id="elem_loan_type"><rect codeLine="13" fill="#FFFFCC" height="545.2031" id="loan_type" rx="2.5" ry="2.5" style="stroke:#181818;stroke-width:0.5;" width="162" x="6" y="80"/><ellipse cx="49.8" cy="96" fill="#86B0BE" rx="11" ry="11" style="stroke:#181818;stroke-width:1.0;"/><path d="M53.9094,102 L46.1906,102 L46.1906,89.6094 L53.9094,89.6094 L53.9094,91.7656 L48.6438,91.7656 L48.6438,94.4375 L53.4094,94.4375 L53.4094,96.5938 L48.6438,96.5938 L48.6438,99.8438 L53.9094,99.8438 L53.9094,102 Z " fill="#000000"/><text fill="#000000" font-family="sans-serif" font-size="14" lengthAdjust="spacing" textLength="66" x="70.2" y="100.8467">loan_type</text><line style="stroke:#181818;stroke-width:0.5;" x1="7" x2="167" y1="112" y2="112"/><text fill="#000000" font-family="sans-serif" font-size="14" lengthAdjust="spacing" textLength="31" x="12" y="128.9951">auto</text><text fill="#000000" font-family="sans-serif" font-size="14" lengthAdjust="spacing" textLength="17" x="12" y="145.292">cd</text><text fill="#000000" font-family="sans-serif" font-size="14" lengthAdjust="spacing" textLength="85" x="12" y="161.5889">charge_card</text><text fill="#000000" font-family="sans-serif" font-size="14" lengthAdjust="spacing" textLength="79" x="12" y="177.8857">commercial</text><text fill="#000000" font-family="sans-serif" font-size="14" lengthAdjust="spacing" textLength="144" x="12" y="194.1826">commercial_property</text><text fill="#000000" font-family="sans-serif" font-size="14" lengthAdjust="spacing" textLength="104" x="12" y="210.4795">corporate_card</text><text fill="#000000" font-family="sans-serif" font-size="14" lengthAdjust="spacing" textLength="76" x="12" y="226.7764">credit_card</text><text fill="#000000" font-family="sans-serif" font-size="14" lengthAdjust="spacing" textLength="87" x="12" y="243.0732">credit_facility</text><text fill="#000000" font-family="sans-serif" font-size="14" lengthAdjust="spacing" textLength="69" x="12" y="259.3701">education</text><text fill="#000000" font-family="sans-serif" font-size="14" lengthAdjust="spacing" textLength="99" x="12" y="275.667">financial_lease</text><text fill="#000000" font-family="sans-serif" font-size="14" lengthAdjust="spacing" textLength="47" x="12" y="291.9639">heloan</text><text fill="#000000" font-family="sans-serif" font-size="14" lengthAdjust="spacing" textLength="38" x="12" y="308.2607">heloc</text><text fill="#000000" font-family="sans-serif" font-size="14" lengthAdjust="spacing" textLength="96" x="12" y="324.5576">heloc_lockout</text><text fill="#000000" font-family="sans-serif" font-size="14" lengthAdjust="spacing" textLength="99" x="12" y="340.8545">liquidity_facility</text><text fill="#000000" font-family="sans-serif" font-size="14" lengthAdjust="spacing" textLength="67" x="12" y="357.1514">mortgage</text><text fill="#000000" font-family="sans-serif" font-size="14" lengthAdjust="spacing" textLength="123" x="12" y="373.4482">mortgage_charter</text><text fill="#000000" font-family="sans-serif" font-size="14" lengthAdjust="spacing" textLength="95" x="12" y="389.7451">mortgage_cra</text><text fill="#000000" font-family="sans-serif" font-size="14" lengthAdjust="spacing" textLength="150" x="12" y="406.042">mortgage_fha_project</text><text fill="#000000" font-family="sans-serif" font-size="14" lengthAdjust="spacing" textLength="124" x="12" y="422.3389">mortgage_fha_res</text><text fill="#000000" font-family="sans-serif" font-size="14" lengthAdjust="spacing" textLength="128" x="12" y="438.6357">mortgage_hud235</text><text fill="#000000" font-family="sans-serif" font-size="14" lengthAdjust="spacing" textLength="124" x="12" y="454.9326">mortgage_no_pmi</text><text fill="#000000" font-family="sans-serif" font-size="14" lengthAdjust="spacing" textLength="99" x="12" y="471.2295">mortgage_pmi</text><text fill="#000000" font-family="sans-serif" font-size="14" lengthAdjust="spacing" textLength="89" x="12" y="487.5264">mortgage_va</text><text fill="#000000" font-family="sans-serif" font-size="14" lengthAdjust="spacing" textLength="104" x="12" y="503.8232">multiccy_facility</text><text fill="#000000" font-family="sans-serif" font-size="14" lengthAdjust="spacing" textLength="67" x="12" y="520.1201">new_auto</text><text fill="#000000" font-family="sans-serif" font-size="14" lengthAdjust="spacing" textLength="45" x="12" y="536.417">nostro</text><text fill="#000000" font-family="sans-serif" font-size="14" lengthAdjust="spacing" textLength="37" x="12" y="552.7139">other</text><text fill="#000000" font-family="sans-serif" font-size="14" lengthAdjust="spacing" textLength="60" x="12" y="569.0107">personal</text><text fill="#000000" font-family="sans-serif" font-size="14" lengthAdjust="spacing" textLength="142" x="12" y="585.3076">q_reverse_mortgage</text><text fill="#000000" font-family="sans-serif" font-size="14" lengthAdjust="spacing" textLength="126" x="12" y="601.6045">reverse_mortgage</text><text fill="#000000" font-family="sans-serif" font-size="14" lengthAdjust="spacing" textLength="101" x="12" y="617.9014">...2 more fields</text></g><!--class loan--><g id="elem_loan"><rect codeLine="52" fill="#FFFFCC" height="32" id="loan" rx="2.5" ry="2.5" style="stroke:#181818;stroke-width:0.5;" width="61" x="56.5" y="12"/><ellipse cx="71.5" cy="28" fill="#D9B01C" rx="11" ry="11" style="stroke:#181818;stroke-width:1.0;"/><path d="M72.7031,28.1406 Q73.0625,28.2188 73.3281,28.5 Q73.6094,28.7656 74,29.5469 L76.2344,34 L73.5469,34 L72.0469,30.875 Q71.9844,30.7344 71.875,30.5 Q71.2188,29.1094 70.3281,29.1094 L69.5469,29.1094 L69.5469,34 L67.1094,34 L67.1094,21.6094 L70.6406,21.6094 Q73.0313,21.6094 74.0625,22.4531 Q75.1094,23.2969 75.1094,25.2031 Q75.1094,26.4844 74.4844,27.25 Q73.875,28 72.7031,28.1406 Z M69.5469,23.6719 L69.5469,27.0469 L70.7031,27.0469 Q71.7188,27.0469 72.1406,26.6563 Q72.5781,26.25 72.5781,25.3438 Q72.5781,24.4531 72.1406,24.0625 Q71.7188,23.6719 70.7031,23.6719 L69.5469,23.6719 Z " fill="#000000"/><text fill="#000000" font-family="sans-serif" font-size="14" lengthAdjust="spacing" textLength="29" x="85.5" y="32.8467">loan</text></g><polygon fill="#181818" points="87,79.894,91,70.894,87,74.894,83,70.894,87,79.894" style="stroke:#181818;stroke-width:1.0;"/><path d="M87,44.1223 C87,52.9639 87,59.2642 87,73.894 " fill="none" style="stroke:#181818;stroke-width:1.0;"/><!--SRC=[RL9DRzim3BtxLsZOPGFQeEkmOGEA79pbiCiE3NOsE9cnjKYYIz4jZAB_VPIG84em0RRu7hyflfiOXW36mqApc1HG84BJf8EB4p04i_6GKWlsC33DiT-G9pRlsz-xdx-skrqpkXuDXaaMexuZzQcczWwzCkTeVwu22KDCgi8eJK8n4G8gjhZ3x21g4YbYau_DbHXF43jP9ZGF3-R3zkRRr_QktNuqwxLvRHfZO1RIo_RvDm8Fs5dWWYW4PEl0Nu1kOfgGPIaiJwHfppwClPChj0Vhl2iEsCyMn55KUUyYn1BH8oHKPiHSxL6mfxlJxw3JLkpTq-mqv5B73CGom82LsELE1Fc2OgZXVeJSoL-qSaqpffeQv_x-yvUQYTHDmTNC5NmkgMOlpjgBMYE-TCU9Hqh2MI0PIwKwr4InJFj9QtXMY5tLt7-erMfrdxFYQNFoULD5ETK6bCT_lFdnlRtxj3az_gLnCRkzNPytvgXg_W40]--></g></svg>