<?xml version="1.0" encoding="us-ascii" standalone="no"?><svg xmlns="http://www.w3.org/2000/svg" xmlns:xlink="http://www.w3.org/1999/xlink" contentStyleType="text/css" height="159px" preserveAspectRatio="none" style="width:700px;height:159px;" version="1.1" viewBox="0 0 700 159" width="700px" zoomAndPan="magnify"><defs/><g><!--class regulatory_book--><g id="elem_regulatory_book"><rect codeLine="13" fill="#FFFFCC" height="72.5938" id="regulatory_book" rx="2.5" ry="2.5" style="stroke:#181818;stroke-width:0.5;" width="143" x="276.5" y="80"/><ellipse cx="291.5" cy="96" fill="#86B0BE" rx="11" ry="11" style="stroke:#181818;stroke-width:1.0;"/><path d="M295.6094,102 L287.8906,102 L287.8906,89.6094 L295.6094,89.6094 L295.6094,91.7656 L290.3438,91.7656 L290.3438,94.4375 L295.1094,94.4375 L295.1094,96.5938 L290.3438,96.5938 L290.3438,99.8438 L295.6094,99.8438 L295.6094,102 Z " fill="#000000"/><text fill="#000000" font-family="sans-serif" font-size="14" lengthAdjust="spacing" textLength="111" x="305.5" y="100.8467">regulatory_book</text><line style="stroke:#181818;stroke-width:0.5;" x1="277.5" x2="418.5" y1="112" y2="112"/><text fill="#000000" font-family="sans-serif" font-size="14" lengthAdjust="spacing" textLength="97" x="282.5" y="128.9951">banking_book</text><text fill="#000000" font-family="sans-serif" font-size="14" lengthAdjust="spacing" textLength="90" x="282.5" y="145.292">trading_book</text></g><!--class account--><g id="elem_account"><rect codeLine="22" fill="#FFFFCC" height="32" id="account" rx="2.5" ry="2.5" style="stroke:#181818;stroke-width:0.5;" width="88" x="6" y="12"/><ellipse cx="21" cy="28" fill="#D9B01C" rx="11" ry="11" style="stroke:#181818;stroke-width:1.0;"/><path d="M22.2031,28.1406 Q22.5625,28.2188 22.8281,28.5 Q23.1094,28.7656 23.5,29.5469 L25.7344,34 L23.0469,34 L21.5469,30.875 Q21.4844,30.7344 21.375,30.5 Q20.7188,29.1094 19.8281,29.1094 L19.0469,29.1094 L19.0469,34 L16.6094,34 L16.6094,21.6094 L20.1406,21.6094 Q22.5313,21.6094 23.5625,22.4531 Q24.6094,23.2969 24.6094,25.2031 Q24.6094,26.4844 23.9844,27.25 Q23.375,28 22.2031,28.1406 Z M19.0469,23.6719 L19.0469,27.0469 L20.2031,27.0469 Q21.2188,27.0469 21.6406,26.6563 Q22.0781,26.25 22.0781,25.3438 Q22.0781,24.4531 21.6406,24.0625 Q21.2188,23.6719 20.2031,23.6719 L19.0469,23.6719 Z " fill="#000000"/><text fill="#000000" font-family="sans-serif" font-size="14" lengthAdjust="spacing" textLength="56" x="35" y="32.8467">account</text></g><!--class collateral--><g id="elem_collateral"><rect codeLine="30" fill="#FFFFCC" height="32" id="collateral" rx="2.5" ry="2.5" style="stroke:#181818;stroke-width:0.5;" width="93" x="112.5" y="12"/><ellipse cx="127.5" cy="28" fill="#D9B01C" rx="11" ry="11" style="stroke:#181818;stroke-width:1.0;"/><path d="M128.7031,28.1406 Q129.0625,28.2188 129.3281,28.5 Q129.6094,28.7656 130,29.5469 L132.2344,34 L129.5469,34 L128.0469,30.875 Q127.9844,30.7344 127.875,30.5 Q127.2188,29.1094 126.3281,29.1094 L125.5469,29.1094 L125.5469,34 L123.1094,34 L123.1094,21.6094 L126.6406,21.6094 Q129.0313,21.6094 130.0625,22.4531 Q131.1094,23.2969 131.1094,25.2031 Q131.1094,26.4844 130.4844,27.25 Q129.875,28 128.7031,28.1406 Z M125.5469,23.6719 L125.5469,27.0469 L126.7031,27.0469 Q127.7188,27.0469 128.1406,26.6563 Q128.5781,26.25 128.5781,25.3438 Q128.5781,24.4531 128.1406,24.0625 Q127.7188,23.6719 126.7031,23.6719 L125.5469,23.6719 Z " fill="#000000"/><text fill="#000000" font-family="sans-serif" font-size="14" lengthAdjust="spacing" textLength="61" x="141.5" y="32.8467">collateral</text></g><!--class derivative--><g id="elem_derivative"><rect codeLine="38" fill="#FFFFCC" height="32" id="derivative" rx="2.5" ry="2.5" style="stroke:#181818;stroke-width:0.5;" width="97" x="223.5" y="12"/><ellipse cx="238.5" cy="28" fill="#D9B01C" rx="11" ry="11" style="stroke:#181818;stroke-width:1.0;"/><path d="M239.7031,28.1406 Q240.0625,28.2188 240.3281,28.5 Q240.6094,28.7656 241,29.5469 L243.2344,34 L240.5469,34 L239.0469,30.875 Q238.9844,30.7344 238.875,30.5 Q238.2188,29.1094 237.3281,29.1094 L236.5469,29.1094 L236.5469,34 L234.1094,34 L234.1094,21.6094 L237.6406,21.6094 Q240.0313,21.6094 241.0625,22.4531 Q242.1094,23.2969 242.1094,25.2031 Q242.1094,26.4844 241.4844,27.25 Q240.875,28 239.7031,28.1406 Z M236.5469,23.6719 L236.5469,27.0469 L237.7031,27.0469 Q238.7188,27.0469 239.1406,26.6563 Q239.5781,26.25 239.5781,25.3438 Q239.5781,24.4531 239.1406,24.0625 Q238.7188,23.6719 237.7031,23.6719 L236.5469,23.6719 Z " fill="#000000"/><text fill="#000000" font-family="sans-serif" font-size="14" lengthAdjust="spacing" textLength="65" x="252.5" y="32.8467">derivative</text></g><!--class derivative_cash_flow--><g id="elem_derivative_cash_flow"><rect codeLine="46" fill="#FFFFCC" height="32" id="derivative_cash_flow" rx="2.5" ry="2.5" style="stroke:#181818;stroke-width:0.5;" width="171" x="338.5" y="12"/><ellipse cx="353.5" cy="28" fill="#D9B01C" rx="11" ry="11" style="stroke:#181818;stroke-width:1.0;"/><path d="M354.7031,28.1406 Q355.0625,28.2188 355.3281,28.5 Q355.6094,28.7656 356,29.5469 L358.2344,34 L355.5469,34 L354.0469,30.875 Q353.9844,30.7344 353.875,30.5 Q353.2188,29.1094 352.3281,29.1094 L351.5469,29.1094 L351.5469,34 L349.1094,34 L349.1094,21.6094 L352.6406,21.6094 Q355.0313,21.6094 356.0625,22.4531 Q357.1094,23.2969 357.1094,25.2031 Q357.1094,26.4844 356.4844,27.25 Q355.875,28 354.7031,28.1406 Z M351.5469,23.6719 L351.5469,27.0469 L352.7031,27.0469 Q353.7188,27.0469 354.1406,26.6563 Q354.5781,26.25 354.5781,25.3438 Q354.5781,24.4531 354.1406,24.0625 Q353.7188,23.6719 352.7031,23.6719 L351.5469,23.6719 Z " fill="#000000"/><text fill="#000000" font-family="sans-serif" font-size="14" lengthAdjust="spacing" textLength="139" x="367.5" y="32.8467">derivative_cash_flow</text></g><!--class loan--><g id="elem_loan"><rect codeLine="54" fill="#FFFFCC" height="32" id="loan" rx="2.5" ry="2.5" style="stroke:#181818;stroke-width:0.5;" width="61" x="527.5" y="12"/><ellipse cx="542.5" cy="28" fill="#D9B01C" rx="11" ry="11" style="stroke:#181818;stroke-width:1.0;"/><path d="M543.7031,28.1406 Q544.0625,28.2188 544.3281,28.5 Q544.6094,28.7656 545,29.5469 L547.2344,34 L544.5469,34 L543.0469,30.875 Q542.9844,30.7344 542.875,30.5 Q542.2188,29.1094 541.3281,29.1094 L540.5469,29.1094 L540.5469,34 L538.1094,34 L538.1094,21.6094 L541.6406,21.6094 Q544.0313,21.6094 545.0625,22.4531 Q546.1094,23.2969 546.1094,25.2031 Q546.1094,26.4844 545.4844,27.25 Q544.875,28 543.7031,28.1406 Z M540.5469,23.6719 L540.5469,27.0469 L541.7031,27.0469 Q542.7188,27.0469 543.1406,26.6563 Q543.5781,26.25 543.5781,25.3438 Q543.5781,24.4531 543.1406,24.0625 Q542.7188,23.6719 541.7031,23.6719 L540.5469,23.6719 Z " fill="#000000"/><text fill="#000000" font-family="sans-serif" font-size="14" lengthAdjust="spacing" textLength="29" x="556.5" y="32.8467">loan</text></g><!--class security--><g id="elem_security"><rect codeLine="62" fill="#FFFFCC" height="32" id="security" rx="2.5" ry="2.5" style="stroke:#181818;stroke-width:0.5;" width="86" x="607" y="12"/><ellipse cx="622" cy="28" fill="#D9B01C" rx="11" ry="11" style="stroke:#181818;stroke-width:1.0;"/><path d="M623.2031,28.1406 Q623.5625,28.2188 623.8281,28.5 Q624.1094,28.7656 624.5,29.5469 L626.7344,34 L624.0469,34 L622.5469,30.875 Q622.4844,30.7344 622.375,30.5 Q621.7188,29.1094 620.8281,29.1094 L620.0469,29.1094 L620.0469,34 L617.6094,34 L617.6094,21.6094 L621.1406,21.6094 Q623.5313,21.6094 624.5625,22.4531 Q625.6094,23.2969 625.6094,25.2031 Q625.6094,26.4844 624.9844,27.25 Q624.375,28 623.2031,28.1406 Z M620.0469,23.6719 L620.0469,27.0469 L621.2031,27.0469 Q622.2188,27.0469 622.6406,26.6563 Q623.0781,26.25 623.0781,25.3438 Q623.0781,24.4531 622.6406,24.0625 Q622.2188,23.6719 621.2031,23.6719 L620.0469,23.6719 Z " fill="#000000"/><text fill="#000000" font-family="sans-serif" font-size="14" lengthAdjust="spacing" textLength="54" x="636" y="32.8467">security</text></g><polygon fill="#181818" points="276.2601,94.6762,268.7319,88.3259,271.4583,93.2824,266.5019,96.0088,276.2601,94.6762" style="stroke:#181818;stroke-width:1.0;"/><path d="M94.2918,41.8565 C142.2841,55.7872 213.8196,76.5517 270.498,93.0036 " fill="none" style="stroke:#181818;stroke-width:1.0;"/><polygon fill="#181818" points="276.3114,82.6901,269.7924,75.3076,271.7649,80.6094,266.4631,82.5819,276.3114,82.6901" style="stroke:#181818;stroke-width:1.0;"/><path d="M191.9213,44.0672 C215.1888,54.716 241.822,66.9053 270.8557,80.1932 " fill="none" style="stroke:#181818;stroke-width:1.0;"/><polygon fill="#181818" points="316.6079,79.7709,313.6725,70.3696,313.3077,76.0147,307.6626,75.65,316.6079,79.7709" style="stroke:#181818;stroke-width:1.0;"/><path d="M285.2382,44.0672 C293.914,53.9416 301.6796,62.7801 312.6477,75.2635 " fill="none" style="stroke:#181818;stroke-width:1.0;"/><polygon fill="#181818" points="379.3921,79.7709,388.3374,75.65,382.6923,76.0147,382.3275,70.3696,379.3921,79.7709" style="stroke:#181818;stroke-width:1.0;"/><path d="M410.7618,44.0672 C402.086,53.9416 394.3204,62.7801 383.3523,75.2635 " fill="none" style="stroke:#181818;stroke-width:1.0;"/><polygon fill="#181818" points="419.8811,85.8918,429.7262,86.1626,424.5042,83.9875,426.6793,78.7656,419.8811,85.8918" style="stroke:#181818;stroke-width:1.0;"/><path d="M527.4642,41.5778 C499.3665,53.1514 462.1596,68.4771 425.4289,83.6067 " fill="none" style="stroke:#181818;stroke-width:1.0;"/><polygon fill="#181818" points="419.6747,95.0478,429.4271,96.4226,424.4825,93.6748,427.2303,88.7301,419.6747,95.0478" style="stroke:#181818;stroke-width:1.0;"/><path d="M606.872,41.449 C603.8697,42.313 600.8898,43.17 598,44 C537.9067,61.2606 475.4311,79.125 425.4441,93.4002 " fill="none" style="stroke:#181818;stroke-width:1.0;"/><!--SRC=[dL5BIyD04BxlhnZnej12lOX2oI4n1oyU39x3T3DDbcnsm-wc4iJ_xYIqDPIWeNER-HxpkcaTbWs2njvs0Nn30GqAuMjbMdJOGABH-nXbNJhRcIAnsZguZJ-orxSqoqIb2W9gsj03QojR-6bfhqXpvTTjTs4K71hF49aWF0Kms13daZ8Q184fnXeIGyXX4d1KTde0-dndRGtRBTobgwV7U1Edzn15y2K4S1_3FSkHmYctASufnpVNnZYQefGyKnZDtbSlp_7c8JcPpV6brJm3ETIB9GKvTS2W3dI599VegtolxUTYiRPe5fCzoSufVjZ_WjEfrkleyXTYSfOvU7A2l-79kdF4SRKvuBp677YS_mS0]--></g></svg>