<?xml version="1.0" encoding="us-ascii" standalone="no"?><svg xmlns="http://www.w3.org/2000/svg" xmlns:xlink="http://www.w3.org/1999/xlink" contentStyleType="text/css" height="534px" preserveAspectRatio="none" style="width:225px;height:534px;" version="1.1" viewBox="0 0 225 534" width="225px" zoomAndPan="magnify"><defs/><g><!--class loan_arrears_arrangement--><g id="elem_loan_arrears_arrangement"><rect codeLine="13" fill="#FFFFCC" height="447.4219" id="loan_arrears_arrangement" rx="2.5" ry="2.5" style="stroke:#181818;stroke-width:0.5;" width="212" x="6" y="80"/><ellipse cx="21" cy="96" fill="#86B0BE" rx="11" ry="11" style="stroke:#181818;stroke-width:1.0;"/><path d="M25.1094,102 L17.3906,102 L17.3906,89.6094 L25.1094,89.6094 L25.1094,91.7656 L19.8438,91.7656 L19.8438,94.4375 L24.6094,94.4375 L24.6094,96.5938 L19.8438,96.5938 L19.8438,99.8438 L25.1094,99.8438 L25.1094,102 Z " fill="#000000"/><text fill="#000000" font-family="sans-serif" font-size="14" lengthAdjust="spacing" textLength="180" x="35" y="100.8467">loan_arrears_arrangement</text><line style="stroke:#181818;stroke-width:0.5;" x1="7" x2="217" y1="112" y2="112"/><text fill="#000000" font-family="sans-serif" font-size="14" lengthAdjust="spacing" textLength="42" x="12" y="128.9951">formal</text><text fill="#000000" font-family="sans-serif" font-size="14" lengthAdjust="spacing" textLength="150" x="12" y="145.292">interest_grace_period</text><text fill="#000000" font-family="sans-serif" font-size="14" lengthAdjust="spacing" textLength="89" x="12" y="161.5889">mi_claim_adv</text><text fill="#000000" font-family="sans-serif" font-size="14" lengthAdjust="spacing" textLength="88" x="12" y="177.8857">modified_tnc</text><text fill="#000000" font-family="sans-serif" font-size="14" lengthAdjust="spacing" textLength="36" x="12" y="194.1826">none</text><text fill="#000000" font-family="sans-serif" font-size="14" lengthAdjust="spacing" textLength="77" x="12" y="210.4795">possessed</text><text fill="#000000" font-family="sans-serif" font-size="14" lengthAdjust="spacing" textLength="89" x="12" y="226.7764">prin_def_rate</text><text fill="#000000" font-family="sans-serif" font-size="14" lengthAdjust="spacing" textLength="128" x="12" y="243.0732">prin_def_rate_term</text><text fill="#000000" font-family="sans-serif" font-size="14" lengthAdjust="spacing" textLength="94" x="12" y="259.3701">prin_def_term</text><text fill="#000000" font-family="sans-serif" font-size="14" lengthAdjust="spacing" textLength="100" x="12" y="275.667">principal_defer</text><text fill="#000000" font-family="sans-serif" font-size="14" lengthAdjust="spacing" textLength="110" x="12" y="291.9639">principal_forgive</text><text fill="#000000" font-family="sans-serif" font-size="14" lengthAdjust="spacing" textLength="113" x="12" y="308.2607">rate_prin_forgive</text><text fill="#000000" font-family="sans-serif" font-size="14" lengthAdjust="spacing" textLength="108" x="12" y="324.5576">rate_red_frozen</text><text fill="#000000" font-family="sans-serif" font-size="14" lengthAdjust="spacing" textLength="66" x="12" y="340.8545">rate_term</text><text fill="#000000" font-family="sans-serif" font-size="14" lengthAdjust="spacing" textLength="152" x="12" y="357.1514">rate_term_prin_forgive</text><text fill="#000000" font-family="sans-serif" font-size="14" lengthAdjust="spacing" textLength="39" x="12" y="373.4482">recap</text><text fill="#000000" font-family="sans-serif" font-size="14" lengthAdjust="spacing" textLength="76" x="12" y="389.7451">refinancing</text><text fill="#000000" font-family="sans-serif" font-size="14" lengthAdjust="spacing" textLength="54" x="12" y="406.042">renewal</text><text fill="#000000" font-family="sans-serif" font-size="14" lengthAdjust="spacing" textLength="23" x="12" y="422.3389">reo</text><text fill="#000000" font-family="sans-serif" font-size="14" lengthAdjust="spacing" textLength="75" x="12" y="438.6357">settlement</text><text fill="#000000" font-family="sans-serif" font-size="14" lengthAdjust="spacing" textLength="71" x="12" y="454.9326">short_sale</text><text fill="#000000" font-family="sans-serif" font-size="14" lengthAdjust="spacing" textLength="70" x="12" y="471.2295">temporary</text><text fill="#000000" font-family="sans-serif" font-size="14" lengthAdjust="spacing" textLength="60" x="12" y="487.5264">term_ext</text><text fill="#000000" font-family="sans-serif" font-size="14" lengthAdjust="spacing" textLength="118" x="12" y="503.8232">term_prin_forgive</text><text fill="#000000" font-family="sans-serif" font-size="14" lengthAdjust="spacing" textLength="78" x="12" y="520.1201">term_recap</text></g><!--class loan--><g id="elem_loan"><rect codeLine="45" fill="#FFFFCC" height="32" id="loan" rx="2.5" ry="2.5" style="stroke:#181818;stroke-width:0.5;" width="61" x="81.5" y="12"/><ellipse cx="96.5" cy="28" fill="#D9B01C" rx="11" ry="11" style="stroke:#181818;stroke-width:1.0;"/><path d="M97.7031,28.1406 Q98.0625,28.2188 98.3281,28.5 Q98.6094,28.7656 99,29.5469 L101.2344,34 L98.5469,34 L97.0469,30.875 Q96.9844,30.7344 96.875,30.5 Q96.2188,29.1094 95.3281,29.1094 L94.5469,29.1094 L94.5469,34 L92.1094,34 L92.1094,21.6094 L95.6406,21.6094 Q98.0313,21.6094 99.0625,22.4531 Q100.1094,23.2969 100.1094,25.2031 Q100.1094,26.4844 99.4844,27.25 Q98.875,28 97.7031,28.1406 Z M94.5469,23.6719 L94.5469,27.0469 L95.7031,27.0469 Q96.7188,27.0469 97.1406,26.6563 Q97.5781,26.25 97.5781,25.3438 Q97.5781,24.4531 97.1406,24.0625 Q96.7188,23.6719 95.7031,23.6719 L94.5469,23.6719 Z " fill="#000000"/><text fill="#000000" font-family="sans-serif" font-size="14" lengthAdjust="spacing" textLength="29" x="110.5" y="32.8467">loan</text></g><polygon fill="#181818" points="112,79.9079,116,70.9079,112,74.9079,108,70.9079,112,79.9079" style="stroke:#181818;stroke-width:1.0;"/><path d="M112,44.0941 C112,52.9969 112,59.3651 112,73.9079 " fill="none" style="stroke:#181818;stroke-width:1.0;"/><!--SRC=[TL71JiCm3BtdAuAuWCIaSK4WJJjqxC250nNdoBHk5ornAYSR3CI_uuGDkY6Ygl5xyNksxBE1eVUW7Up29kdeCG61Kd5jQG06hnSEOgoWMVSSDjGkWWkipwld-k5nMTTgPLlKw8Uqqw9TXJQEgSwY4-RNxUN4A35Gb2Uaf28cJU1HS8CrPa6I50g4AfycTw9T03B0ZC0ntq0zUf7hsKnVBAzkRwffjRpKyxd-K4hhBh079u6bX8mncPx5tWp8DhJ2Usl4s7e3xJR3q5hfkZM96e6bkDP3Y17bouA1BPaMEoFjuIasKiIFoH5kx00kayX7ZBJOssssAWv5UiAnDDHnU4SwC7lVd_YF31iOojrP0gb4VK64hsKSZ47-ClBaolWoM0LE9eBB-YGB30oyAx7uuriwX2Ub2lTTJywdCEMCzbLsytHrVrTDhnU7tHmdbxJ9PFxlVlUPwWi0]--></g></svg>