<?xml version="1.0" encoding="us-ascii" standalone="no"?><svg xmlns="http://www.w3.org/2000/svg" xmlns:xlink="http://www.w3.org/1999/xlink" contentStyleType="text/css" height="436px" preserveAspectRatio="none" style="width:400px;height:436px;" version="1.1" viewBox="0 0 400 436" width="400px" zoomAndPan="magnify"><defs/><g><!--class accounting_treatment--><g id="elem_accounting_treatment"><rect codeLine="13" fill="#FFFFCC" height="349.6406" id="accounting_treatment" rx="2.5" ry="2.5" style="stroke:#181818;stroke-width:0.5;" width="184" x="117" y="80"/><ellipse cx="132" cy="96" fill="#86B0BE" rx="11" ry="11" style="stroke:#181818;stroke-width:1.0;"/><path d="M136.1094,102 L128.3906,102 L128.3906,89.6094 L136.1094,89.6094 L136.1094,91.7656 L130.8438,91.7656 L130.8438,94.4375 L135.6094,94.4375 L135.6094,96.5938 L130.8438,96.5938 L130.8438,99.8438 L136.1094,99.8438 L136.1094,102 Z " fill="#000000"/><text fill="#000000" font-family="sans-serif" font-size="14" lengthAdjust="spacing" textLength="152" x="146" y="100.8467">accounting_treatment</text><line style="stroke:#181818;stroke-width:0.5;" x1="118" x2="300" y1="112" y2="112"/><text fill="#000000" font-family="sans-serif" font-size="14" lengthAdjust="spacing" textLength="106" x="123" y="128.9951">amortised_cost</text><text fill="#000000" font-family="sans-serif" font-size="14" lengthAdjust="spacing" textLength="118" x="123" y="145.292">available_for_sale</text><text fill="#000000" font-family="sans-serif" font-size="14" lengthAdjust="spacing" textLength="102" x="123" y="161.5889">cb_or_demand</text><text fill="#000000" font-family="sans-serif" font-size="14" lengthAdjust="spacing" textLength="86" x="123" y="177.8857">deed_in_lieu</text><text fill="#000000" font-family="sans-serif" font-size="14" lengthAdjust="spacing" textLength="97" x="123" y="194.1826">fv_mandatorily</text><text fill="#000000" font-family="sans-serif" font-size="14" lengthAdjust="spacing" textLength="38" x="123" y="210.4795">fv_oci</text><text fill="#000000" font-family="sans-serif" font-size="14" lengthAdjust="spacing" textLength="74" x="123" y="226.7764">fv_thru_pnl</text><text fill="#000000" font-family="sans-serif" font-size="14" lengthAdjust="spacing" textLength="107" x="123" y="243.0732">held_for_hedge</text><text fill="#000000" font-family="sans-serif" font-size="14" lengthAdjust="spacing" textLength="103" x="123" y="259.3701">held_for_invest</text><text fill="#000000" font-family="sans-serif" font-size="14" lengthAdjust="spacing" textLength="130" x="123" y="275.667">held_for_invest_fvo</text><text fill="#000000" font-family="sans-serif" font-size="14" lengthAdjust="spacing" textLength="90" x="123" y="291.9639">held_for_sale</text><text fill="#000000" font-family="sans-serif" font-size="14" lengthAdjust="spacing" textLength="110" x="123" y="308.2607">held_for_trading</text><text fill="#000000" font-family="sans-serif" font-size="14" lengthAdjust="spacing" textLength="113" x="123" y="324.5576">held_to_maturity</text><text fill="#000000" font-family="sans-serif" font-size="14" lengthAdjust="spacing" textLength="107" x="123" y="340.8545">loans_and_recs</text><text fill="#000000" font-family="sans-serif" font-size="14" lengthAdjust="spacing" textLength="119" x="123" y="357.1514">ntnd_cost_based</text><text fill="#000000" font-family="sans-serif" font-size="14" lengthAdjust="spacing" textLength="99" x="123" y="373.4482">ntnd_fv_equity</text><text fill="#000000" font-family="sans-serif" font-size="14" lengthAdjust="spacing" textLength="69" x="123" y="389.7451">ntnd_fv_pl</text><text fill="#000000" font-family="sans-serif" font-size="14" lengthAdjust="spacing" textLength="78" x="123" y="406.042">other_gaap</text><text fill="#000000" font-family="sans-serif" font-size="14" lengthAdjust="spacing" textLength="89" x="123" y="422.3389">trading_gaap</text></g><!--class account--><g id="elem_account"><rect codeLine="39" fill="#FFFFCC" height="32" id="account" rx="2.5" ry="2.5" style="stroke:#181818;stroke-width:0.5;" width="88" x="6" y="12"/><ellipse cx="21" cy="28" fill="#D9B01C" rx="11" ry="11" style="stroke:#181818;stroke-width:1.0;"/><path d="M22.2031,28.1406 Q22.5625,28.2188 22.8281,28.5 Q23.1094,28.7656 23.5,29.5469 L25.7344,34 L23.0469,34 L21.5469,30.875 Q21.4844,30.7344 21.375,30.5 Q20.7188,29.1094 19.8281,29.1094 L19.0469,29.1094 L19.0469,34 L16.6094,34 L16.6094,21.6094 L20.1406,21.6094 Q22.5313,21.6094 23.5625,22.4531 Q24.6094,23.2969 24.6094,25.2031 Q24.6094,26.4844 23.9844,27.25 Q23.375,28 22.2031,28.1406 Z M19.0469,23.6719 L19.0469,27.0469 L20.2031,27.0469 Q21.2188,27.0469 21.6406,26.6563 Q22.0781,26.25 22.0781,25.3438 Q22.0781,24.4531 21.6406,24.0625 Q21.2188,23.6719 20.2031,23.6719 L19.0469,23.6719 Z " fill="#000000"/><text fill="#000000" font-family="sans-serif" font-size="14" lengthAdjust="spacing" textLength="56" x="35" y="32.8467">account</text></g><!--class derivative--><g id="elem_derivative"><rect codeLine="47" fill="#FFFFCC" height="32" id="derivative" rx="2.5" ry="2.5" style="stroke:#181818;stroke-width:0.5;" width="97" x="112.5" y="12"/><ellipse cx="127.5" cy="28" fill="#D9B01C" rx="11" ry="11" style="stroke:#181818;stroke-width:1.0;"/><path d="M128.7031,28.1406 Q129.0625,28.2188 129.3281,28.5 Q129.6094,28.7656 130,29.5469 L132.2344,34 L129.5469,34 L128.0469,30.875 Q127.9844,30.7344 127.875,30.5 Q127.2188,29.1094 126.3281,29.1094 L125.5469,29.1094 L125.5469,34 L123.1094,34 L123.1094,21.6094 L126.6406,21.6094 Q129.0313,21.6094 130.0625,22.4531 Q131.1094,23.2969 131.1094,25.2031 Q131.1094,26.4844 130.4844,27.25 Q129.875,28 128.7031,28.1406 Z M125.5469,23.6719 L125.5469,27.0469 L126.7031,27.0469 Q127.7188,27.0469 128.1406,26.6563 Q128.5781,26.25 128.5781,25.3438 Q128.5781,24.4531 128.1406,24.0625 Q127.7188,23.6719 126.7031,23.6719 L125.5469,23.6719 Z " fill="#000000"/><text fill="#000000" font-family="sans-serif" font-size="14" lengthAdjust="spacing" textLength="65" x="141.5" y="32.8467">derivative</text></g><!--class loan--><g id="elem_loan"><rect codeLine="55" fill="#FFFFCC" height="32" id="loan" rx="2.5" ry="2.5" style="stroke:#181818;stroke-width:0.5;" width="61" x="227.5" y="12"/><ellipse cx="242.5" cy="28" fill="#D9B01C" rx="11" ry="11" style="stroke:#181818;stroke-width:1.0;"/><path d="M243.7031,28.1406 Q244.0625,28.2188 244.3281,28.5 Q244.6094,28.7656 245,29.5469 L247.2344,34 L244.5469,34 L243.0469,30.875 Q242.9844,30.7344 242.875,30.5 Q242.2188,29.1094 241.3281,29.1094 L240.5469,29.1094 L240.5469,34 L238.1094,34 L238.1094,21.6094 L241.6406,21.6094 Q244.0313,21.6094 245.0625,22.4531 Q246.1094,23.2969 246.1094,25.2031 Q246.1094,26.4844 245.4844,27.25 Q244.875,28 243.7031,28.1406 Z M240.5469,23.6719 L240.5469,27.0469 L241.7031,27.0469 Q242.7188,27.0469 243.1406,26.6563 Q243.5781,26.25 243.5781,25.3438 Q243.5781,24.4531 243.1406,24.0625 Q242.7188,23.6719 241.7031,23.6719 L240.5469,23.6719 Z " fill="#000000"/><text fill="#000000" font-family="sans-serif" font-size="14" lengthAdjust="spacing" textLength="29" x="256.5" y="32.8467">loan</text></g><!--class security--><g id="elem_security"><rect codeLine="63" fill="#FFFFCC" height="32" id="security" rx="2.5" ry="2.5" style="stroke:#181818;stroke-width:0.5;" width="86" x="307" y="12"/><ellipse cx="322" cy="28" fill="#D9B01C" rx="11" ry="11" style="stroke:#181818;stroke-width:1.0;"/><path d="M323.2031,28.1406 Q323.5625,28.2188 323.8281,28.5 Q324.1094,28.7656 324.5,29.5469 L326.7344,34 L324.0469,34 L322.5469,30.875 Q322.4844,30.7344 322.375,30.5 Q321.7188,29.1094 320.8281,29.1094 L320.0469,29.1094 L320.0469,34 L317.6094,34 L317.6094,21.6094 L321.1406,21.6094 Q323.5313,21.6094 324.5625,22.4531 Q325.6094,23.2969 325.6094,25.2031 Q325.6094,26.4844 324.9844,27.25 Q324.375,28 323.2031,28.1406 Z M320.0469,23.6719 L320.0469,27.0469 L321.2031,27.0469 Q322.2188,27.0469 322.6406,26.6563 Q323.0781,26.25 323.0781,25.3438 Q323.0781,24.4531 322.6406,24.0625 Q322.2188,23.6719 321.2031,23.6719 L320.0469,23.6719 Z " fill="#000000"/><text fill="#000000" font-family="sans-serif" font-size="14" lengthAdjust="spacing" textLength="54" x="336" y="32.8467">security</text></g><polygon fill="#181818" points="116.8476,123.5956,114.9203,113.9372,113.962,119.5123,108.3869,118.5541,116.8476,123.5956" style="stroke:#181818;stroke-width:1.0;"/><path d="M60.6793,44.1123 C72.8991,61.4044 90.7057,86.6025 113.3849,118.6957 " fill="none" style="stroke:#181818;stroke-width:1.0;"/><polygon fill="#181818" points="171.8444,79.8331,173.8786,70.1966,170.8012,74.9431,166.0547,71.8657,171.8444,79.8331" style="stroke:#181818;stroke-width:1.0;"/><path d="M164.2239,44.1123 C166.1368,53.0786 167.5323,59.6199 170.5926,73.9651 " fill="none" style="stroke:#181818;stroke-width:1.0;"/><polygon fill="#181818" points="246.9297,79.8331,252.7532,71.8904,247.9936,74.9476,244.9364,70.188,246.9297,79.8331" style="stroke:#181818;stroke-width:1.0;"/><path d="M254.7089,44.1123 C252.7562,53.0786 251.3305,59.6253 248.2064,73.9705 " fill="none" style="stroke:#181818;stroke-width:1.0;"/><polygon fill="#181818" points="301.0568,107.1008,309.2254,101.5986,303.7119,102.864,302.4465,97.3505,301.0568,107.1008" style="stroke:#181818;stroke-width:1.0;"/><path d="M340.5297,44.1123 C331.5765,58.3992 320.3313,76.3436 304.2429,102.0167 " fill="none" style="stroke:#181818;stroke-width:1.0;"/><!--SRC=[ZP8nJyCm48Nt_0eZ5f2eL1O4KjKXfGCB0nMpTR6lYLN73lObKeNuxvoJfeIgbUefx_EzyxjJRfe0PGt2mjwt96AD10woBEwCQo10BLOMOin1xShWMwTNtleWRlFFpTlxUhF9AgDHODtGNh2tyZfEqTQWPVBNhJXfH05Sv2jqb4KauQ16rWetc0p49SuxpD9HAOa0fTXEnfMI0WBLR1MBXRXRFpm_vVDyVI-MI_6TPK90xGEPY5eg7oc13eo5mgBS-Y0ZM6Ie2ib2OmrEizJ8zSP9Qx1bkUrakaX9ZDqFm2ipV50LMjauowhYGVkk5UeIfy2u3llNJuZSTdvA3t6EcbUZUSeHaUSWr0P3AONrl3V9mMH05HauSiEOiW2UU2GS4h_QmJE29kNrL66G9K33ul3K8FdyCElF_vttQ_vuU7t9vu-hSStdwZK6qm6P3g-sf86kBewe-aLSOHYZpsRBixzEDibwiQOFT_7scEPYnI7BBm00]--></g></svg>