<?xml version="1.0" encoding="us-ascii" standalone="no"?><svg xmlns="http://www.w3.org/2000/svg" xmlns:xlink="http://www.w3.org/1999/xlink" contentStyleType="text/css" height="632px" preserveAspectRatio="none" style="width:174px;height:632px;" version="1.1" viewBox="0 0 174 632" width="174px" zoomAndPan="magnify"><defs/><g><!--class security_type--><g id="elem_security_type"><rect codeLine="13" fill="#FFFFCC" height="545.2031" id="security_type" rx="2.5" ry="2.5" style="stroke:#181818;stroke-width:0.5;" width="161" x="6" y="80"/><ellipse cx="38.1" cy="96" fill="#86B0BE" rx="11" ry="11" style="stroke:#181818;stroke-width:1.0;"/><path d="M42.2094,102 L34.4906,102 L34.4906,89.6094 L42.2094,89.6094 L42.2094,91.7656 L36.9438,91.7656 L36.9438,94.4375 L41.7094,94.4375 L41.7094,96.5938 L36.9438,96.5938 L36.9438,99.8438 L42.2094,99.8438 L42.2094,102 Z " fill="#000000"/><text fill="#000000" font-family="sans-serif" font-size="14" lengthAdjust="spacing" textLength="91" x="55.9" y="100.8467">security_type</text><line style="stroke:#181818;stroke-width:0.5;" x1="7" x2="166" y1="112" y2="112"/><text fill="#000000" font-family="sans-serif" font-size="14" lengthAdjust="spacing" textLength="25" x="12" y="128.9951">abs</text><text fill="#000000" font-family="sans-serif" font-size="14" lengthAdjust="spacing" textLength="63" x="12" y="145.292">abs_auto</text><text fill="#000000" font-family="sans-serif" font-size="14" lengthAdjust="spacing" textLength="48" x="12" y="161.5889">abs_cc</text><text fill="#000000" font-family="sans-serif" font-size="14" lengthAdjust="spacing" textLength="102" x="12" y="177.8857">abs_consumer</text><text fill="#000000" font-family="sans-serif" font-size="14" lengthAdjust="spacing" textLength="63" x="12" y="194.1826">abs_corp</text><text fill="#000000" font-family="sans-serif" font-size="14" lengthAdjust="spacing" textLength="69" x="12" y="210.4795">abs_lease</text><text fill="#000000" font-family="sans-serif" font-size="14" lengthAdjust="spacing" textLength="69" x="12" y="226.7764">abs_other</text><text fill="#000000" font-family="sans-serif" font-size="14" lengthAdjust="spacing" textLength="62" x="12" y="243.0732">abs_sme</text><text fill="#000000" font-family="sans-serif" font-size="14" lengthAdjust="spacing" textLength="100" x="12" y="259.3701">abs_sme_corp</text><text fill="#000000" font-family="sans-serif" font-size="14" lengthAdjust="spacing" textLength="102" x="12" y="275.667">abs_sme_retail</text><text fill="#000000" font-family="sans-serif" font-size="14" lengthAdjust="spacing" textLength="97" x="12" y="291.9639">abs_trade_rec</text><text fill="#000000" font-family="sans-serif" font-size="14" lengthAdjust="spacing" textLength="101" x="12" y="308.2607">abs_wholesale</text><text fill="#000000" font-family="sans-serif" font-size="14" lengthAdjust="spacing" textLength="81" x="12" y="324.5576">acceptance</text><text fill="#000000" font-family="sans-serif" font-size="14" lengthAdjust="spacing" textLength="113" x="12" y="340.8545">bill_of_exchange</text><text fill="#000000" font-family="sans-serif" font-size="14" lengthAdjust="spacing" textLength="36" x="12" y="357.1514">bond</text><text fill="#000000" font-family="sans-serif" font-size="14" lengthAdjust="spacing" textLength="33" x="12" y="373.4482">cash</text><text fill="#000000" font-family="sans-serif" font-size="14" lengthAdjust="spacing" textLength="129" x="12" y="389.7451">cash_ratio_deposit</text><text fill="#000000" font-family="sans-serif" font-size="14" lengthAdjust="spacing" textLength="65" x="12" y="406.042">cb_facility</text><text fill="#000000" font-family="sans-serif" font-size="14" lengthAdjust="spacing" textLength="76" x="12" y="422.3389">cb_reserve</text><text fill="#000000" font-family="sans-serif" font-size="14" lengthAdjust="spacing" textLength="149" x="12" y="438.6357">cb_restricted_reserve</text><text fill="#000000" font-family="sans-serif" font-size="14" lengthAdjust="spacing" textLength="17" x="12" y="454.9326">cd</text><text fill="#000000" font-family="sans-serif" font-size="14" lengthAdjust="spacing" textLength="38" x="12" y="471.2295">cmbs</text><text fill="#000000" font-family="sans-serif" font-size="14" lengthAdjust="spacing" textLength="96" x="12" y="487.5264">cmbs_income</text><text fill="#000000" font-family="sans-serif" font-size="14" lengthAdjust="spacing" textLength="126" x="12" y="503.8232">commercial_paper</text><text fill="#000000" font-family="sans-serif" font-size="14" lengthAdjust="spacing" textLength="119" x="12" y="520.1201">convertible_bond</text><text fill="#000000" font-family="sans-serif" font-size="14" lengthAdjust="spacing" textLength="99" x="12" y="536.417">covered_bond</text><text fill="#000000" font-family="sans-serif" font-size="14" lengthAdjust="spacing" textLength="32" x="12" y="552.7139">debt</text><text fill="#000000" font-family="sans-serif" font-size="14" lengthAdjust="spacing" textLength="58" x="12" y="569.0107">dividend</text><text fill="#000000" font-family="sans-serif" font-size="14" lengthAdjust="spacing" textLength="36" x="12" y="585.3076">emtn</text><text fill="#000000" font-family="sans-serif" font-size="14" lengthAdjust="spacing" textLength="42" x="12" y="601.6045">equity</text><text fill="#000000" font-family="sans-serif" font-size="14" lengthAdjust="spacing" textLength="110" x="12" y="617.9014">...29 more fields</text></g><!--class security--><g id="elem_security"><rect codeLine="52" fill="#FFFFCC" height="32" id="security" rx="2.5" ry="2.5" style="stroke:#181818;stroke-width:0.5;" width="86" x="43.5" y="12"/><ellipse cx="58.5" cy="28" fill="#D9B01C" rx="11" ry="11" style="stroke:#181818;stroke-width:1.0;"/><path d="M59.7031,28.1406 Q60.0625,28.2188 60.3281,28.5 Q60.6094,28.7656 61,29.5469 L63.2344,34 L60.5469,34 L59.0469,30.875 Q58.9844,30.7344 58.875,30.5 Q58.2188,29.1094 57.3281,29.1094 L56.5469,29.1094 L56.5469,34 L54.1094,34 L54.1094,21.6094 L57.6406,21.6094 Q60.0313,21.6094 61.0625,22.4531 Q62.1094,23.2969 62.1094,25.2031 Q62.1094,26.4844 61.4844,27.25 Q60.875,28 59.7031,28.1406 Z M56.5469,23.6719 L56.5469,27.0469 L57.7031,27.0469 Q58.7188,27.0469 59.1406,26.6563 Q59.5781,26.25 59.5781,25.3438 Q59.5781,24.4531 59.1406,24.0625 Q58.7188,23.6719 57.7031,23.6719 L56.5469,23.6719 Z " fill="#000000"/><text fill="#000000" font-family="sans-serif" font-size="14" lengthAdjust="spacing" textLength="54" x="72.5" y="32.8467">security</text></g><polygon fill="#181818" points="86.5,79.894,90.5,70.894,86.5,74.894,82.5,70.894,86.5,79.894" style="stroke:#181818;stroke-width:1.0;"/><path d="M86.5,44.1223 C86.5,52.9639 86.5,59.2642 86.5,73.894 " fill="none" style="stroke:#181818;stroke-width:1.0;"/><!--SRC=[NL6nJWCn3DtlAu9OG88A6118gCEL3YmCLCoHBt5x4KaSaboXGlmxJdfN2XxEVY-sptu-2H4s3eI57GrP98SPF3HDUZC-G0Gd5XPIQa6zRI8DNY_8KXIdxUlgwNcvMZMzqIZGXRmJNDkJJiVKsg1bvhTRzwzHZk0JFw7FJS8iF3Xah725fI1pYYUFJJ5L9X49rH1Dticy2oWU7iJPykBkjhrgb-TYFXTVJIC4T6d_bJ1a6aEbfe1y6Xp60unX32r2mZ6ct1zIM9RVwBYWmCYI6JiIl8ykrFIlZvui9h2rNYaCBAyge3FMIbfB_5Gz-4sbo6js2b8_EiaA698Q0oMJ2zd9DIXZUVyzYfWmRl40SZGgepxcQqzN5IbE6g-exiEELL06h0mGwh8ipHPZDfr5EOr3p7374MhioY3QRFdAbK6NVN7lmtwgsMnsSoySHPpEN-oRNwhzEsEzuCl5utrxTRsOBlYtu91wUJd_U_unfVa1]--></g></svg>