<?xml version="1.0" encoding="us-ascii" standalone="no"?><svg xmlns="http://www.w3.org/2000/svg" xmlns:xlink="http://www.w3.org/1999/xlink" contentStyleType="text/css" height="632px" preserveAspectRatio="none" style="width:172px;height:632px;" version="1.1" viewBox="0 0 172 632" width="172px" zoomAndPan="magnify"><defs/><g><!--class customer_type--><g id="elem_customer_type"><rect codeLine="13" fill="#FFFFCC" height="545.2031" id="customer_type" rx="2.5" ry="2.5" style="stroke:#181818;stroke-width:0.5;" width="159" x="6" y="80"/><ellipse cx="31.8" cy="96" fill="#86B0BE" rx="11" ry="11" style="stroke:#181818;stroke-width:1.0;"/><path d="M35.9094,102 L28.1906,102 L28.1906,89.6094 L35.9094,89.6094 L35.9094,91.7656 L30.6438,91.7656 L30.6438,94.4375 L35.4094,94.4375 L35.4094,96.5938 L30.6438,96.5938 L30.6438,99.8438 L35.9094,99.8438 L35.9094,102 Z " fill="#000000"/><text fill="#000000" font-family="sans-serif" font-size="14" lengthAdjust="spacing" textLength="103" x="48.2" y="100.8467">customer_type</text><line style="stroke:#181818;stroke-width:0.5;" x1="7" x2="164" y1="112" y2="112"/><text fill="#000000" font-family="sans-serif" font-size="14" lengthAdjust="spacing" textLength="110" x="12" y="128.9951">building_society</text><text fill="#000000" font-family="sans-serif" font-size="14" lengthAdjust="spacing" textLength="25" x="12" y="145.292">ccp</text><text fill="#000000" font-family="sans-serif" font-size="14" lengthAdjust="spacing" textLength="88" x="12" y="161.5889">central_bank</text><text fill="#000000" font-family="sans-serif" font-size="14" lengthAdjust="spacing" textLength="84" x="12" y="177.8857">central_govt</text><text fill="#000000" font-family="sans-serif" font-size="14" lengthAdjust="spacing" textLength="45" x="12" y="194.1826">charity</text><text fill="#000000" font-family="sans-serif" font-size="14" lengthAdjust="spacing" textLength="20" x="12" y="210.4795">ciu</text><text fill="#000000" font-family="sans-serif" font-size="14" lengthAdjust="spacing" textLength="128" x="12" y="226.7764">community_charity</text><text fill="#000000" font-family="sans-serif" font-size="14" lengthAdjust="spacing" textLength="67" x="12" y="243.0732">corporate</text><text fill="#000000" font-family="sans-serif" font-size="14" lengthAdjust="spacing" textLength="114" x="12" y="259.3701">credit_institution</text><text fill="#000000" font-family="sans-serif" font-size="14" lengthAdjust="spacing" textLength="85" x="12" y="275.667">credit_union</text><text fill="#000000" font-family="sans-serif" font-size="14" lengthAdjust="spacing" textLength="104" x="12" y="291.9639">deposit_broker</text><text fill="#000000" font-family="sans-serif" font-size="14" lengthAdjust="spacing" textLength="147" x="12" y="308.2607">export_credit_agency</text><text fill="#000000" font-family="sans-serif" font-size="14" lengthAdjust="spacing" textLength="139" x="12" y="324.5576">federal_credit_union</text><text fill="#000000" font-family="sans-serif" font-size="14" lengthAdjust="spacing" textLength="55" x="12" y="340.8545">financial</text><text fill="#000000" font-family="sans-serif" font-size="14" lengthAdjust="spacing" textLength="113" x="12" y="357.1514">financial_holding</text><text fill="#000000" font-family="sans-serif" font-size="14" lengthAdjust="spacing" textLength="31" x="12" y="373.4482">fund</text><text fill="#000000" font-family="sans-serif" font-size="14" lengthAdjust="spacing" textLength="83" x="12" y="389.7451">hedge_fund</text><text fill="#000000" font-family="sans-serif" font-size="14" lengthAdjust="spacing" textLength="63" x="12" y="406.042">individual</text><text fill="#000000" font-family="sans-serif" font-size="14" lengthAdjust="spacing" textLength="48" x="12" y="422.3389">insurer</text><text fill="#000000" font-family="sans-serif" font-size="14" lengthAdjust="spacing" textLength="50" x="12" y="438.6357">intl_org</text><text fill="#000000" font-family="sans-serif" font-size="14" lengthAdjust="spacing" textLength="109" x="12" y="454.9326">investment_firm</text><text fill="#000000" font-family="sans-serif" font-size="14" lengthAdjust="spacing" textLength="98" x="12" y="471.2295">local_authority</text><text fill="#000000" font-family="sans-serif" font-size="14" lengthAdjust="spacing" textLength="31" x="12" y="487.5264">mdb</text><text fill="#000000" font-family="sans-serif" font-size="14" lengthAdjust="spacing" textLength="77" x="12" y="503.8232">mmkt_fund</text><text fill="#000000" font-family="sans-serif" font-size="14" lengthAdjust="spacing" textLength="95" x="12" y="520.1201">national_bank</text><text fill="#000000" font-family="sans-serif" font-size="14" lengthAdjust="spacing" textLength="103" x="12" y="536.417">natural_person</text><text fill="#000000" font-family="sans-serif" font-size="14" lengthAdjust="spacing" textLength="133" x="12" y="552.7139">non_member_bank</text><text fill="#000000" font-family="sans-serif" font-size="14" lengthAdjust="spacing" textLength="37" x="12" y="569.0107">other</text><text fill="#000000" font-family="sans-serif" font-size="14" lengthAdjust="spacing" textLength="99" x="12" y="585.3076">other_financial</text><text fill="#000000" font-family="sans-serif" font-size="14" lengthAdjust="spacing" textLength="70" x="12" y="601.6045">other_pse</text><text fill="#000000" font-family="sans-serif" font-size="14" lengthAdjust="spacing" textLength="110" x="12" y="617.9014">...25 more fields</text></g><!--class customer--><g id="elem_customer"><rect codeLine="52" fill="#FFFFCC" height="32" id="customer" rx="2.5" ry="2.5" style="stroke:#181818;stroke-width:0.5;" width="98" x="36.5" y="12"/><ellipse cx="51.5" cy="28" fill="#D9B01C" rx="11" ry="11" style="stroke:#181818;stroke-width:1.0;"/><path d="M52.7031,28.1406 Q53.0625,28.2188 53.3281,28.5 Q53.6094,28.7656 54,29.5469 L56.2344,34 L53.5469,34 L52.0469,30.875 Q51.9844,30.7344 51.875,30.5 Q51.2188,29.1094 50.3281,29.1094 L49.5469,29.1094 L49.5469,34 L47.1094,34 L47.1094,21.6094 L50.6406,21.6094 Q53.0313,21.6094 54.0625,22.4531 Q55.1094,23.2969 55.1094,25.2031 Q55.1094,26.4844 54.4844,27.25 Q53.875,28 52.7031,28.1406 Z M49.5469,23.6719 L49.5469,27.0469 L50.7031,27.0469 Q51.7188,27.0469 52.1406,26.6563 Q52.5781,26.25 52.5781,25.3438 Q52.5781,24.4531 52.1406,24.0625 Q51.7188,23.6719 50.7031,23.6719 L49.5469,23.6719 Z " fill="#000000"/><text fill="#000000" font-family="sans-serif" font-size="14" lengthAdjust="spacing" textLength="66" x="65.5" y="32.8467">customer</text></g><polygon fill="#181818" points="85.5,79.894,89.5,70.894,85.5,74.894,81.5,70.894,85.5,79.894" style="stroke:#181818;stroke-width:1.0;"/><path d="M85.5,44.1223 C85.5,52.9639 85.5,59.2642 85.5,73.894 " fill="none" style="stroke:#181818;stroke-width:1.0;"/><!--SRC=[NLB1Rjim3BtxApJiqW5jq0xOi0553avpwAM71JiBiiJOX2tHaAYWmR1_7wKwY1SU9Br7FeeKzMcEflT6JUPCcLNom2QOfaaZXjb4uzLkCYcrnevzf1pSZYQAwdFx-_3wjZyScW4TAF0pdvLe1t9fJHqH9c6ksRgRH1nDIEA2m4q2Li5u46pX04N04X8eG5FCbagKpOd9GzHyda4zFwkx_VsFx-rZk_-YjblrfscKwZ9E3aEl4ra4FWjbxLnMkIUQINScZ2lOquaB74p4ZsZCPINlSn16hpmKPvB2e9mZE6ID8J5oPgHm9KLNeOEPak0kqWXH27WNFUibpFGGRCbx10Ubb1lv4OC95isqFkk1Qdk5avUKRG3NWru01eSdTBcAfBWSwyKOUD8K-teyGM8ltUiZHY_CH5RocYmJN1hrhYkh7_cIDvZIulNr1ETIyWmnrM9bKjg3xsGuImZnKE-kkrutyy7CgRpZPhFv-arvYd3vCCN-YgVQpU3hp7_Tl_ni7vzsbvdV22wX3m_R_p_C4jBy0m00]--></g></svg>