<?xml version="1.0" encoding="us-ascii" standalone="no"?><svg xmlns="http://www.w3.org/2000/svg" xmlns:xlink="http://www.w3.org/1999/xlink" contentStyleType="text/css" height="632px" preserveAspectRatio="none" style="width:371px;height:632px;" version="1.1" viewBox="0 0 371 632" width="371px" zoomAndPan="magnify"><defs/><g><!--class security--><g id="elem_security"><rect codeLine="13" fill="#FFFFCC" height="545.2031" id="security" rx="2.5" ry="2.5" style="stroke:#181818;stroke-width:0.5;" width="222" x="47.5" y="80"/><ellipse cx="127.25" cy="96" fill="#D9B01C" rx="11" ry="11" style="stroke:#181818;stroke-width:1.0;"/><path d="M128.4531,96.1406 Q128.8125,96.2188 129.0781,96.5 Q129.3594,96.7656 129.75,97.5469 L131.9844,102 L129.2969,102 L127.7969,98.875 Q127.7344,98.7344 127.625,98.5 Q126.9688,97.1094 126.0781,97.1094 L125.2969,97.1094 L125.2969,102 L122.8594,102 L122.8594,89.6094 L126.3906,89.6094 Q128.7813,89.6094 129.8125,90.4531 Q130.8594,91.2969 130.8594,93.2031 Q130.8594,94.4844 130.2344,95.25 Q129.625,96 128.4531,96.1406 Z M125.2969,91.6719 L125.2969,95.0469 L126.4531,95.0469 Q127.4688,95.0469 127.8906,94.6563 Q128.3281,94.25 128.3281,93.3438 Q128.3281,92.4531 127.8906,92.0625 Q127.4688,91.6719 126.4531,91.6719 L125.2969,91.6719 Z " fill="#000000"/><text fill="#000000" font-family="sans-serif" font-size="14" lengthAdjust="spacing" textLength="54" x="147.75" y="100.8467">security</text><line style="stroke:#181818;stroke-width:0.5;" x1="48.5" x2="268.5" y1="112" y2="112"/><text fill="#000000" font-family="sans-serif" font-size="14" lengthAdjust="spacing" textLength="152" x="53.5" y="128.9951">accounting_treatment</text><text fill="#000000" font-family="sans-serif" font-size="14" lengthAdjust="spacing" textLength="20" x="53.5" y="145.292">ccf</text><text fill="#000000" font-family="sans-serif" font-size="14" lengthAdjust="spacing" textLength="137" x="53.5" y="161.5889">impairment_amount</text><text fill="#000000" font-family="sans-serif" font-size="14" lengthAdjust="spacing" textLength="154" x="53.5" y="177.8857">reporting_entity_name</text><text fill="#000000" font-family="sans-serif" font-size="14" lengthAdjust="spacing" textLength="155" x="53.5" y="194.1826">day_count_convention</text><text fill="#000000" font-family="sans-serif" font-size="14" lengthAdjust="spacing" textLength="30" x="53.5" y="210.4795">type</text><text fill="#000000" font-family="sans-serif" font-size="14" lengthAdjust="spacing" textLength="75" x="53.5" y="226.7764">moodys_st</text><text fill="#000000" font-family="sans-serif" font-size="14" lengthAdjust="spacing" textLength="54" x="53.5" y="243.0732">balance</text><text fill="#000000" font-family="sans-serif" font-size="14" lengthAdjust="spacing" textLength="46" x="53.5" y="259.3701">snp_st</text><text fill="#000000" font-family="sans-serif" font-size="14" lengthAdjust="spacing" textLength="12" x="53.5" y="275.667">id</text><text fill="#000000" font-family="sans-serif" font-size="14" lengthAdjust="spacing" textLength="48" x="53.5" y="291.9639">deal_id</text><text fill="#000000" font-family="sans-serif" font-size="14" lengthAdjust="spacing" textLength="113" x="53.5" y="308.2607">rehypothecation</text><text fill="#000000" font-family="sans-serif" font-size="14" lengthAdjust="spacing" textLength="76" x="53.5" y="324.5576">lgd_floored</text><text fill="#000000" font-family="sans-serif" font-size="14" lengthAdjust="spacing" textLength="68" x="53.5" y="340.8545">call_dates</text><text fill="#000000" font-family="sans-serif" font-size="14" lengthAdjust="spacing" textLength="84" x="53.5" y="357.1514">originator_id</text><text fill="#000000" font-family="sans-serif" font-size="14" lengthAdjust="spacing" textLength="70" x="53.5" y="373.4482">moodys_lt</text><text fill="#000000" font-family="sans-serif" font-size="14" lengthAdjust="spacing" textLength="46" x="53.5" y="389.7451">dbrs_lt</text><text fill="#000000" font-family="sans-serif" font-size="14" lengthAdjust="spacing" textLength="121" x="53.5" y="406.042">attachment_point</text><text fill="#000000" font-family="sans-serif" font-size="14" lengthAdjust="spacing" textLength="68" x="53.5" y="422.3389">base_rate</text><text fill="#000000" font-family="sans-serif" font-size="14" lengthAdjust="spacing" textLength="89" x="53.5" y="438.6357">asset_liability</text><text fill="#000000" font-family="sans-serif" font-size="14" lengthAdjust="spacing" textLength="102" x="53.5" y="454.9326">reversion_date</text><text fill="#000000" font-family="sans-serif" font-size="14" lengthAdjust="spacing" textLength="124" x="53.5" y="471.2295">cost_center_code</text><text fill="#000000" font-family="sans-serif" font-size="14" lengthAdjust="spacing" textLength="71" x="53.5" y="487.5264">hqla_class</text><text fill="#000000" font-family="sans-serif" font-size="14" lengthAdjust="spacing" textLength="43" x="53.5" y="503.8232">status</text><text fill="#000000" font-family="sans-serif" font-size="14" lengthAdjust="spacing" textLength="65" x="53.5" y="520.1201">end_date</text><text fill="#000000" font-family="sans-serif" font-size="14" lengthAdjust="spacing" textLength="66" x="53.5" y="536.417">mic_code</text><text fill="#000000" font-family="sans-serif" font-size="14" lengthAdjust="spacing" textLength="42" x="53.5" y="552.7139">pd_irb</text><text fill="#000000" font-family="sans-serif" font-size="14" lengthAdjust="spacing" textLength="45" x="53.5" y="569.0107">kbra_lt</text><text fill="#000000" font-family="sans-serif" font-size="14" lengthAdjust="spacing" textLength="210" x="53.5" y="585.3076">interest_repayment_frequency</text><text fill="#000000" font-family="sans-serif" font-size="14" lengthAdjust="spacing" textLength="115" x="53.5" y="601.6045">notional_amount</text><text fill="#000000" font-family="sans-serif" font-size="14" lengthAdjust="spacing" textLength="110" x="53.5" y="617.9014">...74 more fields</text></g><!--class batch--><g id="elem_batch"><rect codeLine="52" fill="#FFFFCC" height="32" id="batch" rx="2.5" ry="2.5" style="stroke:#181818;stroke-width:0.5;" width="71" x="6" y="12"/><ellipse cx="21" cy="28" fill="#D9B01C" rx="11" ry="11" style="stroke:#181818;stroke-width:1.0;"/><path d="M22.2031,28.1406 Q22.5625,28.2188 22.8281,28.5 Q23.1094,28.7656 23.5,29.5469 L25.7344,34 L23.0469,34 L21.5469,30.875 Q21.4844,30.7344 21.375,30.5 Q20.7188,29.1094 19.8281,29.1094 L19.0469,29.1094 L19.0469,34 L16.6094,34 L16.6094,21.6094 L20.1406,21.6094 Q22.5313,21.6094 23.5625,22.4531 Q24.6094,23.2969 24.6094,25.2031 Q24.6094,26.4844 23.9844,27.25 Q23.375,28 22.2031,28.1406 Z M19.0469,23.6719 L19.0469,27.0469 L20.2031,27.0469 Q21.2188,27.0469 21.6406,26.6563 Q22.0781,26.25 22.0781,25.3438 Q22.0781,24.4531 21.6406,24.0625 Q21.2188,23.6719 20.2031,23.6719 L19.0469,23.6719 Z " fill="#000000"/><text fill="#000000" font-family="sans-serif" font-size="14" lengthAdjust="spacing" textLength="39" x="35" y="32.8467">batch</text></g><!--class example_data--><g id="elem_example_data"><rect codeLine="60" fill="#FFFFCC" height="32" id="example_data" rx="2.5" ry="2.5" style="stroke:#181818;stroke-width:0.5;" width="127" x="95" y="12"/><ellipse cx="110" cy="28" fill="#D9B01C" rx="11" ry="11" style="stroke:#181818;stroke-width:1.0;"/><path d="M111.2031,28.1406 Q111.5625,28.2188 111.8281,28.5 Q112.1094,28.7656 112.5,29.5469 L114.7344,34 L112.0469,34 L110.5469,30.875 Q110.4844,30.7344 110.375,30.5 Q109.7188,29.1094 108.8281,29.1094 L108.0469,29.1094 L108.0469,34 L105.6094,34 L105.6094,21.6094 L109.1406,21.6094 Q111.5313,21.6094 112.5625,22.4531 Q113.6094,23.2969 113.6094,25.2031 Q113.6094,26.4844 112.9844,27.25 Q112.375,28 111.2031,28.1406 Z M108.0469,23.6719 L108.0469,27.0469 L109.2031,27.0469 Q110.2188,27.0469 110.6406,26.6563 Q111.0781,26.25 111.0781,25.3438 Q111.0781,24.4531 110.6406,24.0625 Q110.2188,23.6719 109.2031,23.6719 L108.0469,23.6719 Z " fill="#000000"/><text fill="#000000" font-family="sans-serif" font-size="14" lengthAdjust="spacing" textLength="95" x="124" y="32.8467">example_data</text></g><!--class batch__data1--><g id="elem_batch__data1"><rect fill="#FFFFCC" height="32" id="batch__data1" rx="2.5" ry="2.5" style="stroke:#181818;stroke-width:0.5;" width="124" x="240.5" y="12"/><ellipse cx="255.5" cy="28" fill="#ADD1B2" rx="11" ry="11" style="stroke:#181818;stroke-width:1.0;"/><path d="M258.4688,33.6406 Q257.8906,33.9375 257.25,34.0781 Q256.6094,34.2344 255.9063,34.2344 Q253.4063,34.2344 252.0781,32.5938 Q250.7656,30.9375 250.7656,27.8125 Q250.7656,24.6875 252.0781,23.0313 Q253.4063,21.375 255.9063,21.375 Q256.6094,21.375 257.25,21.5313 Q257.9063,21.6875 258.4688,21.9844 L258.4688,24.7031 Q257.8438,24.125 257.25,23.8594 Q256.6563,23.5781 256.0313,23.5781 Q254.6875,23.5781 254,24.6563 Q253.3125,25.7188 253.3125,27.8125 Q253.3125,29.9063 254,30.9844 Q254.6875,32.0469 256.0313,32.0469 Q256.6563,32.0469 257.25,31.7813 Q257.8438,31.5 258.4688,30.9219 L258.4688,33.6406 Z " fill="#000000"/><text fill="#000000" font-family="sans-serif" font-size="14" lengthAdjust="spacing" textLength="92" x="269.5" y="32.8467">batch__data1</text></g><polygon fill="#181818" points="59.9639,79.894,60.6547,70.0694,58.2586,75.1937,53.1343,72.7977,59.9639,79.894" style="stroke:#181818;stroke-width:1.0;"/><path d="M46.9862,44.1223 C50.1939,52.9639 52.6101,59.6239 57.9176,74.2537 " fill="none" style="stroke:#181818;stroke-width:1.0;"/><polygon fill="#181818" points="269.5739,102.7408,276.8957,96.1537,271.6124,98.1753,269.5909,92.892,269.5739,102.7408" style="stroke:#181818;stroke-width:1.0;"/><path d="M295.7477,44.1223 C289.8815,57.2602 283.0517,72.556 272.0202,97.2622 " fill="none" style="stroke:#181818;stroke-width:1.0;"/><polygon fill="#181818" points="158.5,79.894,162.5,70.894,158.5,74.894,154.5,70.894,158.5,79.894" style="stroke:#181818;stroke-width:1.0;"/><path d="M158.5,44.1223 C158.5,52.9639 158.5,59.2642 158.5,73.894 " fill="none" style="stroke:#181818;stroke-width:1.0;"/><!--SRC=[ZP9DQnmn38RlyojSUacXMHeeb4BOmsvpoAM7B3qRZQsTCUklo9wG8VI_L_BCfjsIGtmOFA-anwzaVyW4Gm3bOKvJLILWXGXTLqukPY08Qk-Xb1sOqq1fYdQVV2BrSVVhSF_pxd3eHcTHOSXrLbmx9bl-bOuEFIj_QVr_e4eG2uSmrgvWLH42yh_10qf1vPIO8dQoZ3XH1Sr4Zjctj-hguVEFxxilD_jFQhjLBrsd51Z3zEhYe2iXr21afOmvyjU538v4qX0aZJN2dAZbiynSBHPOjp3hXk9lV99OYYpNEKiqf6JdeeiGUl0GZQWbvaLoLWW8NhSTuJZdL4Sqi6ByOFNHfqGeSGFUQmiL2_yaSeEBqlfIl1xbXMjxMdTGAvYnjPAJYukFWffd9avuKbYrTz0xpqqr3qz8XKzl1ycXgN1l343Y5gr8uwC7tSOipLIeasmmsdDDSEQScwrsrFFcr1CidfomaAayKvYRjoFXuuJHY8EOf7cUoUliDvlDjw_S8E7vfSZwpP6srXllePhnpUj-AnkV8MIFuXZUKRJ0hw-thmzhaNG3t5n6BjWNaPNs1m00]--></g></svg>