<?xml version="1.0" encoding="us-ascii" standalone="no"?><svg xmlns="http://www.w3.org/2000/svg" xmlns:xlink="http://www.w3.org/1999/xlink" contentStyleType="text/css" height="632px" preserveAspectRatio="none" style="width:159px;height:632px;" version="1.1" viewBox="0 0 159 632" width="159px" zoomAndPan="magnify"><defs/><g><!--class account_type--><g id="elem_account_type"><rect codeLine="13" fill="#FFFFCC" height="545.2031" id="account_type" rx="2.5" ry="2.5" style="stroke:#181818;stroke-width:0.5;" width="146" x="6" y="80"/><ellipse cx="30.45" cy="96" fill="#86B0BE" rx="11" ry="11" style="stroke:#181818;stroke-width:1.0;"/><path d="M34.5594,102 L26.8406,102 L26.8406,89.6094 L34.5594,89.6094 L34.5594,91.7656 L29.2938,91.7656 L29.2938,94.4375 L34.0594,94.4375 L34.0594,96.5938 L29.2938,96.5938 L29.2938,99.8438 L34.5594,99.8438 L34.5594,102 Z " fill="#000000"/><text fill="#000000" font-family="sans-serif" font-size="14" lengthAdjust="spacing" textLength="93" x="46.55" y="100.8467">account_type</text><line style="stroke:#181818;stroke-width:0.5;" x1="7" x2="151" y1="112" y2="112"/><text fill="#000000" font-family="sans-serif" font-size="14" lengthAdjust="spacing" textLength="57" x="12" y="128.9951">accruals</text><text fill="#000000" font-family="sans-serif" font-size="14" lengthAdjust="spacing" textLength="85" x="12" y="145.292">amortisation</text><text fill="#000000" font-family="sans-serif" font-size="14" lengthAdjust="spacing" textLength="44" x="12" y="161.5889">bonds</text><text fill="#000000" font-family="sans-serif" font-size="14" lengthAdjust="spacing" textLength="22" x="12" y="177.8857">call</text><text fill="#000000" font-family="sans-serif" font-size="14" lengthAdjust="spacing" textLength="17" x="12" y="194.1826">cd</text><text fill="#000000" font-family="sans-serif" font-size="14" lengthAdjust="spacing" textLength="76" x="12" y="210.4795">credit_card</text><text fill="#000000" font-family="sans-serif" font-size="14" lengthAdjust="spacing" textLength="50" x="12" y="226.7764">current</text><text fill="#000000" font-family="sans-serif" font-size="14" lengthAdjust="spacing" textLength="69" x="12" y="243.0732">current_io</text><text fill="#000000" font-family="sans-serif" font-size="14" lengthAdjust="spacing" textLength="59" x="12" y="259.3701">deferred</text><text fill="#000000" font-family="sans-serif" font-size="14" lengthAdjust="spacing" textLength="86" x="12" y="275.667">deferred_tax</text><text fill="#000000" font-family="sans-serif" font-size="14" lengthAdjust="spacing" textLength="86" x="12" y="291.9639">depreciation</text><text fill="#000000" font-family="sans-serif" font-size="14" lengthAdjust="spacing" textLength="60" x="12" y="308.2607">expense</text><text fill="#000000" font-family="sans-serif" font-size="14" lengthAdjust="spacing" textLength="51" x="12" y="324.5576">income</text><text fill="#000000" font-family="sans-serif" font-size="14" lengthAdjust="spacing" textLength="67" x="12" y="340.8545">intangible</text><text fill="#000000" font-family="sans-serif" font-size="14" lengthAdjust="spacing" textLength="89" x="12" y="357.1514">internet_only</text><text fill="#000000" font-family="sans-serif" font-size="14" lengthAdjust="spacing" textLength="16" x="12" y="373.4482">ira</text><text fill="#000000" font-family="sans-serif" font-size="14" lengthAdjust="spacing" textLength="19" x="12" y="389.7451">isa</text><text fill="#000000" font-family="sans-serif" font-size="14" lengthAdjust="spacing" textLength="76" x="12" y="406.042">isa_current</text><text fill="#000000" font-family="sans-serif" font-size="14" lengthAdjust="spacing" textLength="95" x="12" y="422.3389">isa_current_io</text><text fill="#000000" font-family="sans-serif" font-size="14" lengthAdjust="spacing" textLength="38" x="12" y="438.6357">isa_io</text><text fill="#000000" font-family="sans-serif" font-size="14" lengthAdjust="spacing" textLength="115" x="12" y="454.9326">isa_time_deposit</text><text fill="#000000" font-family="sans-serif" font-size="14" lengthAdjust="spacing" textLength="134" x="12" y="471.2295">isa_time_deposit_io</text><text fill="#000000" font-family="sans-serif" font-size="14" lengthAdjust="spacing" textLength="102" x="12" y="487.5264">money_market</text><text fill="#000000" font-family="sans-serif" font-size="14" lengthAdjust="spacing" textLength="93" x="12" y="503.8232">non_deferred</text><text fill="#000000" font-family="sans-serif" font-size="14" lengthAdjust="spacing" textLength="88" x="12" y="520.1201">non_product</text><text fill="#000000" font-family="sans-serif" font-size="14" lengthAdjust="spacing" textLength="37" x="12" y="536.417">other</text><text fill="#000000" font-family="sans-serif" font-size="14" lengthAdjust="spacing" textLength="89" x="12" y="552.7139">prepaid_card</text><text fill="#000000" font-family="sans-serif" font-size="14" lengthAdjust="spacing" textLength="91" x="12" y="569.0107">prepayments</text><text fill="#000000" font-family="sans-serif" font-size="14" lengthAdjust="spacing" textLength="62" x="12" y="585.3076">provision</text><text fill="#000000" font-family="sans-serif" font-size="14" lengthAdjust="spacing" textLength="52" x="12" y="601.6045">reserve</text><text fill="#000000" font-family="sans-serif" font-size="14" lengthAdjust="spacing" textLength="110" x="12" y="617.9014">...10 more fields</text></g><!--class account--><g id="elem_account"><rect codeLine="52" fill="#FFFFCC" height="32" id="account" rx="2.5" ry="2.5" style="stroke:#181818;stroke-width:0.5;" width="88" x="35" y="12"/><ellipse cx="50" cy="28" fill="#D9B01C" rx="11" ry="11" style="stroke:#181818;stroke-width:1.0;"/><path d="M51.2031,28.1406 Q51.5625,28.2188 51.8281,28.5 Q52.1094,28.7656 52.5,29.5469 L54.7344,34 L52.0469,34 L50.5469,30.875 Q50.4844,30.7344 50.375,30.5 Q49.7188,29.1094 48.8281,29.1094 L48.0469,29.1094 L48.0469,34 L45.6094,34 L45.6094,21.6094 L49.1406,21.6094 Q51.5313,21.6094 52.5625,22.4531 Q53.6094,23.2969 53.6094,25.2031 Q53.6094,26.4844 52.9844,27.25 Q52.375,28 51.2031,28.1406 Z M48.0469,23.6719 L48.0469,27.0469 L49.2031,27.0469 Q50.2188,27.0469 50.6406,26.6563 Q51.0781,26.25 51.0781,25.3438 Q51.0781,24.4531 50.6406,24.0625 Q50.2188,23.6719 49.2031,23.6719 L48.0469,23.6719 Z " fill="#000000"/><text fill="#000000" font-family="sans-serif" font-size="14" lengthAdjust="spacing" textLength="56" x="64" y="32.8467">account</text></g><polygon fill="#181818" points="79,79.894,83,70.894,79,74.894,75,70.894,79,79.894" style="stroke:#181818;stroke-width:1.0;"/><path d="M79,44.1223 C79,52.9639 79,59.2642 79,73.894 " fill="none" style="stroke:#181818;stroke-width:1.0;"/><!--SRC=[RL4xJmCn3DxlLmInW0HLko2GgWvNEh0mK357RcBQg7cS75_L4-A_urnxVI0yEFxip_7hfY5O1r0UkjIooW4P8bHLthhO045GSmyvrs2sQqfjjFFa4wdR-dFvzhvOBgkDiwWmDDmfoTqacozTNmwzUCw_hVvyn0GnImWZLnbPHGWesE0IIm8B9QQ8LH5JEb5WZAIpvgv1DPsgkyN3yrCzhXVtQZPJtrMb2eLQyBcO8H6x3EnI5BXAqHQt0U_BOuiYj8wr0UfHItqp9qkx9C3Y5mgq5wPcsFUm8JHkg83x1cD6iLmqAHmCsUdQhVmH84LadQBl2YOeEX-rFjU_G8SUYkDai0kefNRAZlzn7OX1LjVf0BJ5Gf9Dwej12cmesTQKOE8DahmoJGFE3lleOHUaYToZj7FvC2bXHjgLcKQZqMGinGY7WnVvaKWlruVhR_RnyFfIZoVpuMRN_87v-3YxElUHKFq2]--></g></svg>