<?xml version="1.0" encoding="us-ascii" standalone="no"?><svg xmlns="http://www.w3.org/2000/svg" xmlns:xlink="http://www.w3.org/1999/xlink" contentStyleType="text/css" height="632px" preserveAspectRatio="none" style="width:371px;height:632px;" version="1.1" viewBox="0 0 371 632" width="371px" zoomAndPan="magnify"><defs/><g><!--class loan--><g id="elem_loan"><rect codeLine="13" fill="#FFFFCC" height="545.2031" id="loan" rx="2.5" ry="2.5" style="stroke:#181818;stroke-width:0.5;" width="182" x="67.5" y="80"/><ellipse cx="139.75" cy="96" fill="#D9B01C" rx="11" ry="11" style="stroke:#181818;stroke-width:1.0;"/><path d="M140.9531,96.1406 Q141.3125,96.2188 141.5781,96.5 Q141.8594,96.7656 142.25,97.5469 L144.4844,102 L141.7969,102 L140.2969,98.875 Q140.2344,98.7344 140.125,98.5 Q139.4688,97.1094 138.5781,97.1094 L137.7969,97.1094 L137.7969,102 L135.3594,102 L135.3594,89.6094 L138.8906,89.6094 Q141.2813,89.6094 142.3125,90.4531 Q143.3594,91.2969 143.3594,93.2031 Q143.3594,94.4844 142.7344,95.25 Q142.125,96 140.9531,96.1406 Z M137.7969,91.6719 L137.7969,95.0469 L138.9531,95.0469 Q139.9688,95.0469 140.3906,94.6563 Q140.8281,94.25 140.8281,93.3438 Q140.8281,92.4531 140.3906,92.0625 Q139.9688,91.6719 138.9531,91.6719 L137.7969,91.6719 Z " fill="#000000"/><text fill="#000000" font-family="sans-serif" font-size="14" lengthAdjust="spacing" textLength="29" x="160.25" y="100.8467">loan</text><line style="stroke:#181818;stroke-width:0.5;" x1="68.5" x2="248.5" y1="112" y2="112"/><text fill="#000000" font-family="sans-serif" font-size="14" lengthAdjust="spacing" textLength="152" x="73.5" y="128.9951">accounting_treatment</text><text fill="#000000" font-family="sans-serif" font-size="14" lengthAdjust="spacing" textLength="66" x="73.5" y="145.292">regulated</text><text fill="#000000" font-family="sans-serif" font-size="14" lengthAdjust="spacing" textLength="20" x="73.5" y="161.5889">ccf</text><text fill="#000000" font-family="sans-serif" font-size="14" lengthAdjust="spacing" textLength="137" x="73.5" y="177.8857">impairment_amount</text><text fill="#000000" font-family="sans-serif" font-size="14" lengthAdjust="spacing" textLength="154" x="73.5" y="194.1826">reporting_entity_name</text><text fill="#000000" font-family="sans-serif" font-size="14" lengthAdjust="spacing" textLength="144" x="73.5" y="210.4795">arrears_arrangement</text><text fill="#000000" font-family="sans-serif" font-size="14" lengthAdjust="spacing" textLength="118" x="73.5" y="226.7764">orig_credit_score</text><text fill="#000000" font-family="sans-serif" font-size="14" lengthAdjust="spacing" textLength="155" x="73.5" y="243.0732">day_count_convention</text><text fill="#000000" font-family="sans-serif" font-size="14" lengthAdjust="spacing" textLength="96" x="73.5" y="259.3701">deferred_fees</text><text fill="#000000" font-family="sans-serif" font-size="14" lengthAdjust="spacing" textLength="30" x="73.5" y="275.667">type</text><text fill="#000000" font-family="sans-serif" font-size="14" lengthAdjust="spacing" textLength="54" x="73.5" y="291.9639">balance</text><text fill="#000000" font-family="sans-serif" font-size="14" lengthAdjust="spacing" textLength="87" x="73.5" y="308.2607">limit_amount</text><text fill="#000000" font-family="sans-serif" font-size="14" lengthAdjust="spacing" textLength="107" x="73.5" y="324.5576">resolution_date</text><text fill="#000000" font-family="sans-serif" font-size="14" lengthAdjust="spacing" textLength="66" x="73.5" y="340.8545">pd_irb_ec</text><text fill="#000000" font-family="sans-serif" font-size="14" lengthAdjust="spacing" textLength="12" x="73.5" y="357.1514">id</text><text fill="#000000" font-family="sans-serif" font-size="14" lengthAdjust="spacing" textLength="48" x="73.5" y="373.4482">deal_id</text><text fill="#000000" font-family="sans-serif" font-size="14" lengthAdjust="spacing" textLength="76" x="73.5" y="389.7451">lgd_floored</text><text fill="#000000" font-family="sans-serif" font-size="14" lengthAdjust="spacing" textLength="170" x="73.5" y="406.042">servicing_currency_code</text><text fill="#000000" font-family="sans-serif" font-size="14" lengthAdjust="spacing" textLength="102" x="73.5" y="422.3389">originator_type</text><text fill="#000000" font-family="sans-serif" font-size="14" lengthAdjust="spacing" textLength="73" x="73.5" y="438.6357">servicer_id</text><text fill="#000000" font-family="sans-serif" font-size="14" lengthAdjust="spacing" textLength="120" x="73.5" y="454.9326">orig_limit_amount</text><text fill="#000000" font-family="sans-serif" font-size="14" lengthAdjust="spacing" textLength="84" x="73.5" y="471.2295">originator_id</text><text fill="#000000" font-family="sans-serif" font-size="14" lengthAdjust="spacing" textLength="121" x="73.5" y="487.5264">participation_type</text><text fill="#000000" font-family="sans-serif" font-size="14" lengthAdjust="spacing" textLength="82" x="73.5" y="503.8232">review_date</text><text fill="#000000" font-family="sans-serif" font-size="14" lengthAdjust="spacing" textLength="68" x="73.5" y="520.1201">base_rate</text><text fill="#000000" font-family="sans-serif" font-size="14" lengthAdjust="spacing" textLength="89" x="73.5" y="536.417">asset_liability</text><text fill="#000000" font-family="sans-serif" font-size="14" lengthAdjust="spacing" textLength="102" x="73.5" y="552.7139">reversion_date</text><text fill="#000000" font-family="sans-serif" font-size="14" lengthAdjust="spacing" textLength="124" x="73.5" y="569.0107">cost_center_code</text><text fill="#000000" font-family="sans-serif" font-size="14" lengthAdjust="spacing" textLength="43" x="73.5" y="585.3076">status</text><text fill="#000000" font-family="sans-serif" font-size="14" lengthAdjust="spacing" textLength="65" x="73.5" y="601.6045">end_date</text><text fill="#000000" font-family="sans-serif" font-size="14" lengthAdjust="spacing" textLength="110" x="73.5" y="617.9014">...93 more fields</text></g><!--class batch--><g id="elem_batch"><rect codeLine="52" fill="#FFFFCC" height="32" id="batch" rx="2.5" ry="2.5" style="stroke:#181818;stroke-width:0.5;" width="71" x="6" y="12"/><ellipse cx="21" cy="28" fill="#D9B01C" rx="11" ry="11" style="stroke:#181818;stroke-width:1.0;"/><path d="M22.2031,28.1406 Q22.5625,28.2188 22.8281,28.5 Q23.1094,28.7656 23.5,29.5469 L25.7344,34 L23.0469,34 L21.5469,30.875 Q21.4844,30.7344 21.375,30.5 Q20.7188,29.1094 19.8281,29.1094 L19.0469,29.1094 L19.0469,34 L16.6094,34 L16.6094,21.6094 L20.1406,21.6094 Q22.5313,21.6094 23.5625,22.4531 Q24.6094,23.2969 24.6094,25.2031 Q24.6094,26.4844 23.9844,27.25 Q23.375,28 22.2031,28.1406 Z M19.0469,23.6719 L19.0469,27.0469 L20.2031,27.0469 Q21.2188,27.0469 21.6406,26.6563 Q22.0781,26.25 22.0781,25.3438 Q22.0781,24.4531 21.6406,24.0625 Q21.2188,23.6719 20.2031,23.6719 L19.0469,23.6719 Z " fill="#000000"/><text fill="#000000" font-family="sans-serif" font-size="14" lengthAdjust="spacing" textLength="39" x="35" y="32.8467">batch</text></g><!--class example_data--><g id="elem_example_data"><rect codeLine="60" fill="#FFFFCC" height="32" id="example_data" rx="2.5" ry="2.5" style="stroke:#181818;stroke-width:0.5;" width="127" x="95" y="12"/><ellipse cx="110" cy="28" fill="#D9B01C" rx="11" ry="11" style="stroke:#181818;stroke-width:1.0;"/><path d="M111.2031,28.1406 Q111.5625,28.2188 111.8281,28.5 Q112.1094,28.7656 112.5,29.5469 L114.7344,34 L112.0469,34 L110.5469,30.875 Q110.4844,30.7344 110.375,30.5 Q109.7188,29.1094 108.8281,29.1094 L108.0469,29.1094 L108.0469,34 L105.6094,34 L105.6094,21.6094 L109.1406,21.6094 Q111.5313,21.6094 112.5625,22.4531 Q113.6094,23.2969 113.6094,25.2031 Q113.6094,26.4844 112.9844,27.25 Q112.375,28 111.2031,28.1406 Z M108.0469,23.6719 L108.0469,27.0469 L109.2031,27.0469 Q110.2188,27.0469 110.6406,26.6563 Q111.0781,26.25 111.0781,25.3438 Q111.0781,24.4531 110.6406,24.0625 Q110.2188,23.6719 109.2031,23.6719 L108.0469,23.6719 Z " fill="#000000"/><text fill="#000000" font-family="sans-serif" font-size="14" lengthAdjust="spacing" textLength="95" x="124" y="32.8467">example_data</text></g><!--class batch__data1--><g id="elem_batch__data1"><rect fill="#FFFFCC" height="32" id="batch__data1" rx="2.5" ry="2.5" style="stroke:#181818;stroke-width:0.5;" width="124" x="240.5" y="12"/><ellipse cx="255.5" cy="28" fill="#ADD1B2" rx="11" ry="11" style="stroke:#181818;stroke-width:1.0;"/><path d="M258.4688,33.6406 Q257.8906,33.9375 257.25,34.0781 Q256.6094,34.2344 255.9063,34.2344 Q253.4063,34.2344 252.0781,32.5938 Q250.7656,30.9375 250.7656,27.8125 Q250.7656,24.6875 252.0781,23.0313 Q253.4063,21.375 255.9063,21.375 Q256.6094,21.375 257.25,21.5313 Q257.9063,21.6875 258.4688,21.9844 L258.4688,24.7031 Q257.8438,24.125 257.25,23.8594 Q256.6563,23.5781 256.0313,23.5781 Q254.6875,23.5781 254,24.6563 Q253.3125,25.7188 253.3125,27.8125 Q253.3125,29.9063 254,30.9844 Q254.6875,32.0469 256.0313,32.0469 Q256.6563,32.0469 257.25,31.7813 Q257.8438,31.5 258.4688,30.9219 L258.4688,33.6406 Z " fill="#000000"/><text fill="#000000" font-family="sans-serif" font-size="14" lengthAdjust="spacing" textLength="92" x="269.5" y="32.8467">batch__data1</text></g><polygon fill="#181818" points="67.4913,100.6428,68.1822,90.8182,65.7861,95.9426,60.6618,93.5465,67.4913,100.6428" style="stroke:#181818;stroke-width:1.0;"/><path d="M46.9862,44.1223 C51.617,56.8866 56.8167,71.2191 65.4451,95.0025 " fill="none" style="stroke:#181818;stroke-width:1.0;"/><polygon fill="#181818" points="249.5307,147.6292,256.8526,141.0421,251.5693,143.0636,249.5477,137.7803,249.5307,147.6292" style="stroke:#181818;stroke-width:1.0;"/><path d="M295.7477,44.1223 C286.573,64.6698 271.5041,98.4179 251.977,142.1505 " fill="none" style="stroke:#181818;stroke-width:1.0;"/><polygon fill="#181818" points="158.5,79.894,162.5,70.894,158.5,74.894,154.5,70.894,158.5,79.894" style="stroke:#181818;stroke-width:1.0;"/><path d="M158.5,44.1223 C158.5,52.9639 158.5,59.2642 158.5,73.894 " fill="none" style="stroke:#181818;stroke-width:1.0;"/><!--SRC=[ZP8zRzmm38Pt_meLMLgWEJJe522uuQuPkdJeeRD0IpoV47qO57sjKVI_bvHzpIN8K0soHBryz8hckv5WI60Yp6LYKnCoPEYw-XJo20J9x2FKkWFtD52Pij-NMCZSx7uSldvxF1owK_1eC8qy6yaz5L-lGyU0KIBFjFuLY0bobIFCt5Laao6Xx1qUK1DO9Bbax7GuTM9YWMmU7ipxxn-_tEy-tUq_cEtM_EuwOy0v8NF8WsL2uAHKOmY7AGAZbxLpHvb36Y6G7bj8cj9KOw6MA-70irKh2YL1KRNoXJpWoYmK1ki8VM1RNI5LUfXjCo1pFYkbP0tZ4ONXxH6nofxdKTKzHCXELp6ayC98BN7IPEl5jKH6RmFr5frQzmq9qRPL78GRYnZGNKKw1wTlS9DScPqQyhZw3LdhQTVx5otImcdlUMNaAgTfv8Umq4TetbOCuJdWpulJ7YfQMjRoiv252Ns8Kiz5YrIl7kPAbM99fSJ6QhGoyAHbmkmliircS__P97dafQ5q_96JDjR6w87TwStEU4kDlo2D4VKA-8-a1NvxkstzjsnjIxvxZhvW_ekkXBy0]--></g></svg>