<?xml version="1.0" encoding="us-ascii" standalone="no"?><svg xmlns="http://www.w3.org/2000/svg" xmlns:xlink="http://www.w3.org/1999/xlink" contentStyleType="text/css" height="632px" preserveAspectRatio="none" style="width:1053px;height:632px;" version="1.1" viewBox="0 0 1053 632" width="1053px" zoomAndPan="magnify"><defs/><g><!--class country_code--><g id="elem_country_code"><rect codeLine="13" fill="#FFFFCC" height="545.2031" id="country_code" rx="2.5" ry="2.5" style="stroke:#181818;stroke-width:0.5;" width="131" x="500.5" y="80"/><ellipse cx="517.75" cy="96" fill="#86B0BE" rx="11" ry="11" style="stroke:#181818;stroke-width:1.0;"/><path d="M521.8594,102 L514.1406,102 L514.1406,89.6094 L521.8594,89.6094 L521.8594,91.7656 L516.5938,91.7656 L516.5938,94.4375 L521.3594,94.4375 L521.3594,96.5938 L516.5938,96.5938 L516.5938,99.8438 L521.8594,99.8438 L521.8594,102 Z " fill="#000000"/><text fill="#000000" font-family="sans-serif" font-size="14" lengthAdjust="spacing" textLength="94" x="532.25" y="100.8467">country_code</text><line style="stroke:#181818;stroke-width:0.5;" x1="501.5" x2="630.5" y1="112" y2="112"/><text fill="#000000" font-family="sans-serif" font-size="14" lengthAdjust="spacing" textLength="18" x="506.5" y="128.9951">AA</text><text fill="#000000" font-family="sans-serif" font-size="14" lengthAdjust="spacing" textLength="20" x="506.5" y="145.292">AD</text><text fill="#000000" font-family="sans-serif" font-size="14" lengthAdjust="spacing" textLength="18" x="506.5" y="161.5889">AE</text><text fill="#000000" font-family="sans-serif" font-size="14" lengthAdjust="spacing" textLength="35" x="506.5" y="177.8857">AE-AJ</text><text fill="#000000" font-family="sans-serif" font-size="14" lengthAdjust="spacing" textLength="42" x="506.5" y="194.1826">AE-AZ</text><text fill="#000000" font-family="sans-serif" font-size="14" lengthAdjust="spacing" textLength="44" x="506.5" y="210.4795">AE-DU</text><text fill="#000000" font-family="sans-serif" font-size="14" lengthAdjust="spacing" textLength="41" x="506.5" y="226.7764">AE-FU</text><text fill="#000000" font-family="sans-serif" font-size="14" lengthAdjust="spacing" textLength="42" x="506.5" y="243.0732">AE-RK</text><text fill="#000000" font-family="sans-serif" font-size="14" lengthAdjust="spacing" textLength="42" x="506.5" y="259.3701">AE-SH</text><text fill="#000000" font-family="sans-serif" font-size="14" lengthAdjust="spacing" textLength="44" x="506.5" y="275.667">AE-UQ</text><text fill="#000000" font-family="sans-serif" font-size="14" lengthAdjust="spacing" textLength="17" x="506.5" y="291.9639">AF</text><text fill="#000000" font-family="sans-serif" font-size="14" lengthAdjust="spacing" textLength="20" x="506.5" y="308.2607">AG</text><text fill="#000000" font-family="sans-serif" font-size="14" lengthAdjust="spacing" textLength="12" x="506.5" y="324.5576">AI</text><text fill="#000000" font-family="sans-serif" font-size="14" lengthAdjust="spacing" textLength="16" x="506.5" y="340.8545">AL</text><text fill="#000000" font-family="sans-serif" font-size="14" lengthAdjust="spacing" textLength="21" x="506.5" y="357.1514">AM</text><text fill="#000000" font-family="sans-serif" font-size="14" lengthAdjust="spacing" textLength="20" x="506.5" y="373.4482">AO</text><text fill="#000000" font-family="sans-serif" font-size="14" lengthAdjust="spacing" textLength="20" x="506.5" y="389.7451">AQ</text><text fill="#000000" font-family="sans-serif" font-size="14" lengthAdjust="spacing" textLength="19" x="506.5" y="406.042">AR</text><text fill="#000000" font-family="sans-serif" font-size="14" lengthAdjust="spacing" textLength="18" x="506.5" y="422.3389">AS</text><text fill="#000000" font-family="sans-serif" font-size="14" lengthAdjust="spacing" textLength="18" x="506.5" y="438.6357">AT</text><text fill="#000000" font-family="sans-serif" font-size="14" lengthAdjust="spacing" textLength="19" x="506.5" y="454.9326">AU</text><text fill="#000000" font-family="sans-serif" font-size="14" lengthAdjust="spacing" textLength="22" x="506.5" y="471.2295">AW</text><text fill="#000000" font-family="sans-serif" font-size="14" lengthAdjust="spacing" textLength="18" x="506.5" y="487.5264">AX</text><text fill="#000000" font-family="sans-serif" font-size="14" lengthAdjust="spacing" textLength="19" x="506.5" y="503.8232">AZ</text><text fill="#000000" font-family="sans-serif" font-size="14" lengthAdjust="spacing" textLength="19" x="506.5" y="520.1201">BA</text><text fill="#000000" font-family="sans-serif" font-size="14" lengthAdjust="spacing" textLength="20" x="506.5" y="536.417">BB</text><text fill="#000000" font-family="sans-serif" font-size="14" lengthAdjust="spacing" textLength="21" x="506.5" y="552.7139">BD</text><text fill="#000000" font-family="sans-serif" font-size="14" lengthAdjust="spacing" textLength="19" x="506.5" y="569.0107">BE</text><text fill="#000000" font-family="sans-serif" font-size="14" lengthAdjust="spacing" textLength="18" x="506.5" y="585.3076">BF</text><text fill="#000000" font-family="sans-serif" font-size="14" lengthAdjust="spacing" textLength="21" x="506.5" y="601.6045">BG</text><text fill="#000000" font-family="sans-serif" font-size="14" lengthAdjust="spacing" textLength="119" x="506.5" y="617.9014">...332 more fields</text></g><!--class account--><g id="elem_account"><rect codeLine="52" fill="#FFFFCC" height="32" id="account" rx="2.5" ry="2.5" style="stroke:#181818;stroke-width:0.5;" width="88" x="6" y="12"/><ellipse cx="21" cy="28" fill="#D9B01C" rx="11" ry="11" style="stroke:#181818;stroke-width:1.0;"/><path d="M22.2031,28.1406 Q22.5625,28.2188 22.8281,28.5 Q23.1094,28.7656 23.5,29.5469 L25.7344,34 L23.0469,34 L21.5469,30.875 Q21.4844,30.7344 21.375,30.5 Q20.7188,29.1094 19.8281,29.1094 L19.0469,29.1094 L19.0469,34 L16.6094,34 L16.6094,21.6094 L20.1406,21.6094 Q22.5313,21.6094 23.5625,22.4531 Q24.6094,23.2969 24.6094,25.2031 Q24.6094,26.4844 23.9844,27.25 Q23.375,28 22.2031,28.1406 Z M19.0469,23.6719 L19.0469,27.0469 L20.2031,27.0469 Q21.2188,27.0469 21.6406,26.6563 Q22.0781,26.25 22.0781,25.3438 Q22.0781,24.4531 21.6406,24.0625 Q21.2188,23.6719 20.2031,23.6719 L19.0469,23.6719 Z " fill="#000000"/><text fill="#000000" font-family="sans-serif" font-size="14" lengthAdjust="spacing" textLength="56" x="35" y="32.8467">account</text></g><!--class agreement--><g id="elem_agreement"><rect codeLine="60" fill="#FFFFCC" height="32" id="agreement" rx="2.5" ry="2.5" style="stroke:#181818;stroke-width:0.5;" width="108" x="112" y="12"/><ellipse cx="127" cy="28" fill="#D9B01C" rx="11" ry="11" style="stroke:#181818;stroke-width:1.0;"/><path d="M128.2031,28.1406 Q128.5625,28.2188 128.8281,28.5 Q129.1094,28.7656 129.5,29.5469 L131.7344,34 L129.0469,34 L127.5469,30.875 Q127.4844,30.7344 127.375,30.5 Q126.7188,29.1094 125.8281,29.1094 L125.0469,29.1094 L125.0469,34 L122.6094,34 L122.6094,21.6094 L126.1406,21.6094 Q128.5313,21.6094 129.5625,22.4531 Q130.6094,23.2969 130.6094,25.2031 Q130.6094,26.4844 129.9844,27.25 Q129.375,28 128.2031,28.1406 Z M125.0469,23.6719 L125.0469,27.0469 L126.2031,27.0469 Q127.2188,27.0469 127.6406,26.6563 Q128.0781,26.25 128.0781,25.3438 Q128.0781,24.4531 127.6406,24.0625 Q127.2188,23.6719 126.2031,23.6719 L125.0469,23.6719 Z " fill="#000000"/><text fill="#000000" font-family="sans-serif" font-size="14" lengthAdjust="spacing" textLength="76" x="141" y="32.8467">agreement</text></g><!--class collateral--><g id="elem_collateral"><rect codeLine="68" fill="#FFFFCC" height="32" id="collateral" rx="2.5" ry="2.5" style="stroke:#181818;stroke-width:0.5;" width="93" x="238.5" y="12"/><ellipse cx="253.5" cy="28" fill="#D9B01C" rx="11" ry="11" style="stroke:#181818;stroke-width:1.0;"/><path d="M254.7031,28.1406 Q255.0625,28.2188 255.3281,28.5 Q255.6094,28.7656 256,29.5469 L258.2344,34 L255.5469,34 L254.0469,30.875 Q253.9844,30.7344 253.875,30.5 Q253.2188,29.1094 252.3281,29.1094 L251.5469,29.1094 L251.5469,34 L249.1094,34 L249.1094,21.6094 L252.6406,21.6094 Q255.0313,21.6094 256.0625,22.4531 Q257.1094,23.2969 257.1094,25.2031 Q257.1094,26.4844 256.4844,27.25 Q255.875,28 254.7031,28.1406 Z M251.5469,23.6719 L251.5469,27.0469 L252.7031,27.0469 Q253.7188,27.0469 254.1406,26.6563 Q254.5781,26.25 254.5781,25.3438 Q254.5781,24.4531 254.1406,24.0625 Q253.7188,23.6719 252.7031,23.6719 L251.5469,23.6719 Z " fill="#000000"/><text fill="#000000" font-family="sans-serif" font-size="14" lengthAdjust="spacing" textLength="61" x="267.5" y="32.8467">collateral</text></g><!--class customer--><g id="elem_customer"><rect codeLine="76" fill="#FFFFCC" height="32" id="customer" rx="2.5" ry="2.5" style="stroke:#181818;stroke-width:0.5;" width="98" x="350" y="12"/><ellipse cx="365" cy="28" fill="#D9B01C" rx="11" ry="11" style="stroke:#181818;stroke-width:1.0;"/><path d="M366.2031,28.1406 Q366.5625,28.2188 366.8281,28.5 Q367.1094,28.7656 367.5,29.5469 L369.7344,34 L367.0469,34 L365.5469,30.875 Q365.4844,30.7344 365.375,30.5 Q364.7188,29.1094 363.8281,29.1094 L363.0469,29.1094 L363.0469,34 L360.6094,34 L360.6094,21.6094 L364.1406,21.6094 Q366.5313,21.6094 367.5625,22.4531 Q368.6094,23.2969 368.6094,25.2031 Q368.6094,26.4844 367.9844,27.25 Q367.375,28 366.2031,28.1406 Z M363.0469,23.6719 L363.0469,27.0469 L364.2031,27.0469 Q365.2188,27.0469 365.6406,26.6563 Q366.0781,26.25 366.0781,25.3438 Q366.0781,24.4531 365.6406,24.0625 Q365.2188,23.6719 364.2031,23.6719 L363.0469,23.6719 Z " fill="#000000"/><text fill="#000000" font-family="sans-serif" font-size="14" lengthAdjust="spacing" textLength="66" x="379" y="32.8467">customer</text></g><!--class derivative--><g id="elem_derivative"><rect codeLine="84" fill="#FFFFCC" height="32" id="derivative" rx="2.5" ry="2.5" style="stroke:#181818;stroke-width:0.5;" width="97" x="466.5" y="12"/><ellipse cx="481.5" cy="28" fill="#D9B01C" rx="11" ry="11" style="stroke:#181818;stroke-width:1.0;"/><path d="M482.7031,28.1406 Q483.0625,28.2188 483.3281,28.5 Q483.6094,28.7656 484,29.5469 L486.2344,34 L483.5469,34 L482.0469,30.875 Q481.9844,30.7344 481.875,30.5 Q481.2188,29.1094 480.3281,29.1094 L479.5469,29.1094 L479.5469,34 L477.1094,34 L477.1094,21.6094 L480.6406,21.6094 Q483.0313,21.6094 484.0625,22.4531 Q485.1094,23.2969 485.1094,25.2031 Q485.1094,26.4844 484.4844,27.25 Q483.875,28 482.7031,28.1406 Z M479.5469,23.6719 L479.5469,27.0469 L480.7031,27.0469 Q481.7188,27.0469 482.1406,26.6563 Q482.5781,26.25 482.5781,25.3438 Q482.5781,24.4531 482.1406,24.0625 Q481.7188,23.6719 480.7031,23.6719 L479.5469,23.6719 Z " fill="#000000"/><text fill="#000000" font-family="sans-serif" font-size="14" lengthAdjust="spacing" textLength="65" x="495.5" y="32.8467">derivative</text></g><!--class entity--><g id="elem_entity"><rect codeLine="92" fill="#FFFFCC" height="32" id="entity" rx="2.5" ry="2.5" style="stroke:#181818;stroke-width:0.5;" width="70" x="582" y="12"/><ellipse cx="597" cy="28" fill="#D9B01C" rx="11" ry="11" style="stroke:#181818;stroke-width:1.0;"/><path d="M598.2031,28.1406 Q598.5625,28.2188 598.8281,28.5 Q599.1094,28.7656 599.5,29.5469 L601.7344,34 L599.0469,34 L597.5469,30.875 Q597.4844,30.7344 597.375,30.5 Q596.7188,29.1094 595.8281,29.1094 L595.0469,29.1094 L595.0469,34 L592.6094,34 L592.6094,21.6094 L596.1406,21.6094 Q598.5313,21.6094 599.5625,22.4531 Q600.6094,23.2969 600.6094,25.2031 Q600.6094,26.4844 599.9844,27.25 Q599.375,28 598.2031,28.1406 Z M595.0469,23.6719 L595.0469,27.0469 L596.2031,27.0469 Q597.2188,27.0469 597.6406,26.6563 Q598.0781,26.25 598.0781,25.3438 Q598.0781,24.4531 597.6406,24.0625 Q597.2188,23.6719 596.2031,23.6719 L595.0469,23.6719 Z " fill="#000000"/><text fill="#000000" font-family="sans-serif" font-size="14" lengthAdjust="spacing" textLength="38" x="611" y="32.8467">entity</text></g><!--class guarantor--><g id="elem_guarantor"><rect codeLine="100" fill="#FFFFCC" height="32" id="guarantor" rx="2.5" ry="2.5" style="stroke:#181818;stroke-width:0.5;" width="99" x="670.5" y="12"/><ellipse cx="685.5" cy="28" fill="#D9B01C" rx="11" ry="11" style="stroke:#181818;stroke-width:1.0;"/><path d="M686.7031,28.1406 Q687.0625,28.2188 687.3281,28.5 Q687.6094,28.7656 688,29.5469 L690.2344,34 L687.5469,34 L686.0469,30.875 Q685.9844,30.7344 685.875,30.5 Q685.2188,29.1094 684.3281,29.1094 L683.5469,29.1094 L683.5469,34 L681.1094,34 L681.1094,21.6094 L684.6406,21.6094 Q687.0313,21.6094 688.0625,22.4531 Q689.1094,23.2969 689.1094,25.2031 Q689.1094,26.4844 688.4844,27.25 Q687.875,28 686.7031,28.1406 Z M683.5469,23.6719 L683.5469,27.0469 L684.7031,27.0469 Q685.7188,27.0469 686.1406,26.6563 Q686.5781,26.25 686.5781,25.3438 Q686.5781,24.4531 686.1406,24.0625 Q685.7188,23.6719 684.7031,23.6719 L683.5469,23.6719 Z " fill="#000000"/><text fill="#000000" font-family="sans-serif" font-size="14" lengthAdjust="spacing" textLength="67" x="699.5" y="32.8467">guarantor</text></g><!--class issuer--><g id="elem_issuer"><rect codeLine="108" fill="#FFFFCC" height="32" id="issuer" rx="2.5" ry="2.5" style="stroke:#181818;stroke-width:0.5;" width="74" x="788" y="12"/><ellipse cx="803" cy="28" fill="#D9B01C" rx="11" ry="11" style="stroke:#181818;stroke-width:1.0;"/><path d="M804.2031,28.1406 Q804.5625,28.2188 804.8281,28.5 Q805.1094,28.7656 805.5,29.5469 L807.7344,34 L805.0469,34 L803.5469,30.875 Q803.4844,30.7344 803.375,30.5 Q802.7188,29.1094 801.8281,29.1094 L801.0469,29.1094 L801.0469,34 L798.6094,34 L798.6094,21.6094 L802.1406,21.6094 Q804.5313,21.6094 805.5625,22.4531 Q806.6094,23.2969 806.6094,25.2031 Q806.6094,26.4844 805.9844,27.25 Q805.375,28 804.2031,28.1406 Z M801.0469,23.6719 L801.0469,27.0469 L802.2031,27.0469 Q803.2188,27.0469 803.6406,26.6563 Q804.0781,26.25 804.0781,25.3438 Q804.0781,24.4531 803.6406,24.0625 Q803.2188,23.6719 802.2031,23.6719 L801.0469,23.6719 Z " fill="#000000"/><text fill="#000000" font-family="sans-serif" font-size="14" lengthAdjust="spacing" textLength="42" x="817" y="32.8467">issuer</text></g><!--class loan--><g id="elem_loan"><rect codeLine="116" fill="#FFFFCC" height="32" id="loan" rx="2.5" ry="2.5" style="stroke:#181818;stroke-width:0.5;" width="61" x="880.5" y="12"/><ellipse cx="895.5" cy="28" fill="#D9B01C" rx="11" ry="11" style="stroke:#181818;stroke-width:1.0;"/><path d="M896.7031,28.1406 Q897.0625,28.2188 897.3281,28.5 Q897.6094,28.7656 898,29.5469 L900.2344,34 L897.5469,34 L896.0469,30.875 Q895.9844,30.7344 895.875,30.5 Q895.2188,29.1094 894.3281,29.1094 L893.5469,29.1094 L893.5469,34 L891.1094,34 L891.1094,21.6094 L894.6406,21.6094 Q897.0313,21.6094 898.0625,22.4531 Q899.1094,23.2969 899.1094,25.2031 Q899.1094,26.4844 898.4844,27.25 Q897.875,28 896.7031,28.1406 Z M893.5469,23.6719 L893.5469,27.0469 L894.7031,27.0469 Q895.7188,27.0469 896.1406,26.6563 Q896.5781,26.25 896.5781,25.3438 Q896.5781,24.4531 896.1406,24.0625 Q895.7188,23.6719 894.7031,23.6719 L893.5469,23.6719 Z " fill="#000000"/><text fill="#000000" font-family="sans-serif" font-size="14" lengthAdjust="spacing" textLength="29" x="909.5" y="32.8467">loan</text></g><!--class security--><g id="elem_security"><rect codeLine="124" fill="#FFFFCC" height="32" id="security" rx="2.5" ry="2.5" style="stroke:#181818;stroke-width:0.5;" width="86" x="960" y="12"/><ellipse cx="975" cy="28" fill="#D9B01C" rx="11" ry="11" style="stroke:#181818;stroke-width:1.0;"/><path d="M976.2031,28.1406 Q976.5625,28.2188 976.8281,28.5 Q977.1094,28.7656 977.5,29.5469 L979.7344,34 L977.0469,34 L975.5469,30.875 Q975.4844,30.7344 975.375,30.5 Q974.7188,29.1094 973.8281,29.1094 L973.0469,29.1094 L973.0469,34 L970.6094,34 L970.6094,21.6094 L974.1406,21.6094 Q976.5313,21.6094 977.5625,22.4531 Q978.6094,23.2969 978.6094,25.2031 Q978.6094,26.4844 977.9844,27.25 Q977.375,28 976.2031,28.1406 Z M973.0469,23.6719 L973.0469,27.0469 L974.2031,27.0469 Q975.2188,27.0469 975.6406,26.6563 Q976.0781,26.25 976.0781,25.3438 Q976.0781,24.4531 975.6406,24.0625 Q975.2188,23.6719 974.2031,23.6719 L973.0469,23.6719 Z " fill="#000000"/><text fill="#000000" font-family="sans-serif" font-size="14" lengthAdjust="spacing" textLength="54" x="989" y="32.8467">security</text></g><polygon fill="#181818" points="500.3424,310.464,494.8304,302.302,496.1024,307.814,490.5904,309.086,500.3424,310.464" style="stroke:#181818;stroke-width:1.0;"/><path d="M74.1957,44.1223 C150.0096,91.506 379.6712,235.0445 495.2544,307.284 " fill="none" style="stroke:#181818;stroke-width:1.0;"/><polygon fill="#181818" points="500.2396,298.4807,495.7438,289.7178,496.3471,295.3424,490.7225,295.9457,500.2396,298.4807" style="stroke:#181818;stroke-width:1.0;"/><path d="M184.7563,44.1223 C240.4377,89.0154 402.0425,219.3092 495.5686,294.7147 " fill="none" style="stroke:#181818;stroke-width:1.0;"/><polygon fill="#181818" points="500.2663,276.0583,497.3697,266.645,496.9816,272.2885,491.3381,271.9004,500.2663,276.0583" style="stroke:#181818;stroke-width:1.0;"/><path d="M298.1763,44.1223 C333.6576,84.8437 429.1212,194.406 496.3247,271.5346 " fill="none" style="stroke:#181818;stroke-width:1.0;"/><polygon fill="#181818" points="500.4653,224.9434,499.8788,215.112,498.1661,220.5034,492.7747,218.7907,500.4653,224.9434" style="stroke:#181818;stroke-width:1.0;"/><path d="M406.8308,44.1223 C423.597,76.5001 461.6215,149.9308 497.7063,219.6154 " fill="none" style="stroke:#181818;stroke-width:1.0;"/><polygon fill="#181818" points="523.0483,79.894,525.5935,70.3796,522.2674,74.9553,517.6917,71.6292,523.0483,79.894" style="stroke:#181818;stroke-width:1.0;"/><path d="M517.3914,44.1223 C518.7896,52.9639 519.7976,59.3379 522.1112,73.9676 " fill="none" style="stroke:#181818;stroke-width:1.0;"/><polygon fill="#181818" points="608.9517,79.894,614.3083,71.6292,609.7326,74.9553,606.4065,70.3796,608.9517,79.894" style="stroke:#181818;stroke-width:1.0;"/><path d="M614.6086,44.1223 C613.2104,52.9639 612.2024,59.3379 609.8888,73.9676 " fill="none" style="stroke:#181818;stroke-width:1.0;"/><polygon fill="#181818" points="631.6479,214.0231,639.1357,207.6251,633.8025,209.5111,631.9165,204.1779,631.6479,214.0231" style="stroke:#181818;stroke-width:1.0;"/><path d="M712.7788,44.1223 C698.1205,74.819 666.1403,141.7907 634.2334,208.6087 " fill="none" style="stroke:#181818;stroke-width:1.0;"/><polygon fill="#181818" points="631.7674,269.6082,640.5216,265.0957,634.8982,265.7097,634.2841,260.0863,631.7674,269.6082" style="stroke:#181818;stroke-width:1.0;"/><path d="M812.8553,44.1223 C781.052,83.7229 697.2851,188.0272 635.5244,264.9301 " fill="none" style="stroke:#181818;stroke-width:1.0;"/><polygon fill="#181818" points="631.6825,290.1012,640.9887,286.8773,635.3351,286.6868,635.5257,281.0331,631.6825,290.1012" style="stroke:#181818;stroke-width:1.0;"/><path d="M894.8227,44.1223 C848.5293,87.3965 717.987,209.4252 636.0656,286.0039 " fill="none" style="stroke:#181818;stroke-width:1.0;"/><polygon fill="#181818" points="631.571,303.1095,641.1878,300.9838,635.5941,300.1405,636.4374,294.5469,631.571,303.1095" style="stroke:#181818;stroke-width:1.0;"/><path d="M982.5087,44.1223 C920.4112,89.9494 737.2375,225.1291 636.3987,299.5467 " fill="none" style="stroke:#181818;stroke-width:1.0;"/><!--SRC=[bLBRIWCn47tFLqHyKMXBjI0AfT2qMwrNx5eKNoHcn-tItQGasK8H_ztCNcmrFcppS8QTCsTsRWShpUECqvHlL6wfoS1ooGanoqIkkEOP7QNS6CR5CjOgbz58fKhJGpOFf_T169954W65R6Ktr6aNAZAxhey4KkVPPdl_ayXgBesZG5fYm5B9Ct3V0a90WNKXKaaW-0HMGeKJMxrv4yhzfT-dHq7h_8nrMN1C1mFwIGYbmo72624ee3syhknhQSVpqaugExifRNXLslaZsWd29S8KuHRX3k41eGYP8OG8JmX5kcU45mJy6yDY64F0YXXMn30pmyoTJgVNEwMPqb0F2z-NeufNDSr5qNRHxwmrlc3Tar7Txx_niGR8O0-5K6dABMYUDfVangeCT6D113fPSvkieR74jP2uEseQ7kVkQ2HUJLD5Oao-Hmkfuh9ni06HwsRbrmjkjmU_BfniD-bHEolpkNet7hEp18-hfktvjsFrg6f-dhyObEVzcOZ7L7Fu1W00]--></g></svg>