<?xml version="1.0" encoding="us-ascii" standalone="no"?><svg xmlns="http://www.w3.org/2000/svg" xmlns:xlink="http://www.w3.org/1999/xlink" contentStyleType="text/css" height="632px" preserveAspectRatio="none" style="width:172px;height:632px;" version="1.1" viewBox="0 0 172 632" width="172px" zoomAndPan="magnify"><defs/><g><!--class issuer_type--><g id="elem_issuer_type"><rect codeLine="13" fill="#FFFFCC" height="545.2031" id="issuer_type" rx="2.5" ry="2.5" style="stroke:#181818;stroke-width:0.5;" width="159" x="6" y="80"/><ellipse cx="42.6" cy="96" fill="#86B0BE" rx="11" ry="11" style="stroke:#181818;stroke-width:1.0;"/><path d="M46.7094,102 L38.9906,102 L38.9906,89.6094 L46.7094,89.6094 L46.7094,91.7656 L41.4438,91.7656 L41.4438,94.4375 L46.2094,94.4375 L46.2094,96.5938 L41.4438,96.5938 L41.4438,99.8438 L46.7094,99.8438 L46.7094,102 Z " fill="#000000"/><text fill="#000000" font-family="sans-serif" font-size="14" lengthAdjust="spacing" textLength="79" x="61.4" y="100.8467">issuer_type</text><line style="stroke:#181818;stroke-width:0.5;" x1="7" x2="164" y1="112" y2="112"/><text fill="#000000" font-family="sans-serif" font-size="14" lengthAdjust="spacing" textLength="110" x="12" y="128.9951">building_society</text><text fill="#000000" font-family="sans-serif" font-size="14" lengthAdjust="spacing" textLength="25" x="12" y="145.292">ccp</text><text fill="#000000" font-family="sans-serif" font-size="14" lengthAdjust="spacing" textLength="88" x="12" y="161.5889">central_bank</text><text fill="#000000" font-family="sans-serif" font-size="14" lengthAdjust="spacing" textLength="84" x="12" y="177.8857">central_govt</text><text fill="#000000" font-family="sans-serif" font-size="14" lengthAdjust="spacing" textLength="45" x="12" y="194.1826">charity</text><text fill="#000000" font-family="sans-serif" font-size="14" lengthAdjust="spacing" textLength="20" x="12" y="210.4795">ciu</text><text fill="#000000" font-family="sans-serif" font-size="14" lengthAdjust="spacing" textLength="128" x="12" y="226.7764">community_charity</text><text fill="#000000" font-family="sans-serif" font-size="14" lengthAdjust="spacing" textLength="67" x="12" y="243.0732">corporate</text><text fill="#000000" font-family="sans-serif" font-size="14" lengthAdjust="spacing" textLength="114" x="12" y="259.3701">credit_institution</text><text fill="#000000" font-family="sans-serif" font-size="14" lengthAdjust="spacing" textLength="85" x="12" y="275.667">credit_union</text><text fill="#000000" font-family="sans-serif" font-size="14" lengthAdjust="spacing" textLength="104" x="12" y="291.9639">deposit_broker</text><text fill="#000000" font-family="sans-serif" font-size="14" lengthAdjust="spacing" textLength="147" x="12" y="308.2607">export_credit_agency</text><text fill="#000000" font-family="sans-serif" font-size="14" lengthAdjust="spacing" textLength="55" x="12" y="324.5576">financial</text><text fill="#000000" font-family="sans-serif" font-size="14" lengthAdjust="spacing" textLength="113" x="12" y="340.8545">financial_holding</text><text fill="#000000" font-family="sans-serif" font-size="14" lengthAdjust="spacing" textLength="31" x="12" y="357.1514">fund</text><text fill="#000000" font-family="sans-serif" font-size="14" lengthAdjust="spacing" textLength="83" x="12" y="373.4482">hedge_fund</text><text fill="#000000" font-family="sans-serif" font-size="14" lengthAdjust="spacing" textLength="63" x="12" y="389.7451">individual</text><text fill="#000000" font-family="sans-serif" font-size="14" lengthAdjust="spacing" textLength="48" x="12" y="406.042">insurer</text><text fill="#000000" font-family="sans-serif" font-size="14" lengthAdjust="spacing" textLength="50" x="12" y="422.3389">intl_org</text><text fill="#000000" font-family="sans-serif" font-size="14" lengthAdjust="spacing" textLength="109" x="12" y="438.6357">investment_firm</text><text fill="#000000" font-family="sans-serif" font-size="14" lengthAdjust="spacing" textLength="98" x="12" y="454.9326">local_authority</text><text fill="#000000" font-family="sans-serif" font-size="14" lengthAdjust="spacing" textLength="31" x="12" y="471.2295">mdb</text><text fill="#000000" font-family="sans-serif" font-size="14" lengthAdjust="spacing" textLength="77" x="12" y="487.5264">mmkt_fund</text><text fill="#000000" font-family="sans-serif" font-size="14" lengthAdjust="spacing" textLength="103" x="12" y="503.8232">natural_person</text><text fill="#000000" font-family="sans-serif" font-size="14" lengthAdjust="spacing" textLength="37" x="12" y="520.1201">other</text><text fill="#000000" font-family="sans-serif" font-size="14" lengthAdjust="spacing" textLength="99" x="12" y="536.417">other_financial</text><text fill="#000000" font-family="sans-serif" font-size="14" lengthAdjust="spacing" textLength="70" x="12" y="552.7139">other_pse</text><text fill="#000000" font-family="sans-serif" font-size="14" lengthAdjust="spacing" textLength="79" x="12" y="569.0107">partnership</text><text fill="#000000" font-family="sans-serif" font-size="14" lengthAdjust="spacing" textLength="94" x="12" y="585.3076">pension_fund</text><text fill="#000000" font-family="sans-serif" font-size="14" lengthAdjust="spacing" textLength="20" x="12" y="601.6045">pic</text><text fill="#000000" font-family="sans-serif" font-size="14" lengthAdjust="spacing" textLength="110" x="12" y="617.9014">...20 more fields</text></g><!--class issuer--><g id="elem_issuer"><rect codeLine="52" fill="#FFFFCC" height="32" id="issuer" rx="2.5" ry="2.5" style="stroke:#181818;stroke-width:0.5;" width="74" x="48.5" y="12"/><ellipse cx="63.5" cy="28" fill="#D9B01C" rx="11" ry="11" style="stroke:#181818;stroke-width:1.0;"/><path d="M64.7031,28.1406 Q65.0625,28.2188 65.3281,28.5 Q65.6094,28.7656 66,29.5469 L68.2344,34 L65.5469,34 L64.0469,30.875 Q63.9844,30.7344 63.875,30.5 Q63.2188,29.1094 62.3281,29.1094 L61.5469,29.1094 L61.5469,34 L59.1094,34 L59.1094,21.6094 L62.6406,21.6094 Q65.0313,21.6094 66.0625,22.4531 Q67.1094,23.2969 67.1094,25.2031 Q67.1094,26.4844 66.4844,27.25 Q65.875,28 64.7031,28.1406 Z M61.5469,23.6719 L61.5469,27.0469 L62.7031,27.0469 Q63.7188,27.0469 64.1406,26.6563 Q64.5781,26.25 64.5781,25.3438 Q64.5781,24.4531 64.1406,24.0625 Q63.7188,23.6719 62.7031,23.6719 L61.5469,23.6719 Z " fill="#000000"/><text fill="#000000" font-family="sans-serif" font-size="14" lengthAdjust="spacing" textLength="42" x="77.5" y="32.8467">issuer</text></g><polygon fill="#181818" points="85.5,79.894,89.5,70.894,85.5,74.894,81.5,70.894,85.5,79.894" style="stroke:#181818;stroke-width:1.0;"/><path d="M85.5,44.1223 C85.5,52.9639 85.5,59.2642 85.5,73.894 " fill="none" style="stroke:#181818;stroke-width:1.0;"/><!--SRC=[NL8zZzim3DtzArJSqW9tGTgXQ8531gSPkdHeq5cG9SOcR562H0KDYlxtKZe7vwi6Ydmad_YXTp6PqHkrc5iehB87DcIwBiz8qIJZrN4nEVV6pcCAXTmnB26fX_xN-VkFq_dSJUX0WOzyKv8x1PUtq0LX4UILRVYFY9EXB2uWxZAm8kD1R0jdg0ai8HG8kdfihKHXpWMIvbi4zVoitfyUltpkz_tfWpeSr9-kKseek3YaKUTW4VWcaBMnIdabcKKFXkQDEOOhLtCo2L-YiLGPl2yaYDvuGef1oeAg9t386YapSc4Cz0fANZCTn9357bAO8Ga0loMVzHfcHY1RUIz8XYoQPQlhARG-AYO3asi2Du9U3II7LtIb9KaL9RKNa7ZH8OrDlK9cBstg2oOlo1Aiy9eYYrexycweqizyvoN3fOubGigjYS1JOswttfRwWiHSno7hOfAK2Uke8r2M4Tmv8rgHkztkqrxvaE3-CUhvAvvstYouxVRduxUl_VxZyRxRj-5huDFJOVifLdVt3m00]--></g></svg>