<?xml version="1.0" encoding="us-ascii" standalone="no"?><svg xmlns="http://www.w3.org/2000/svg" xmlns:xlink="http://www.w3.org/1999/xlink" contentStyleType="text/css" height="632px" preserveAspectRatio="none" style="width:1926px;height:632px;" version="1.1" viewBox="0 0 1926 632" width="1926px" zoomAndPan="magnify"><defs/><g><!--class currency_code--><g id="elem_currency_code"><rect codeLine="13" fill="#FFFFCC" height="545.2031" id="currency_code" rx="2.5" ry="2.5" style="stroke:#181818;stroke-width:0.5;" width="134" x="885" y="80"/><ellipse cx="900" cy="96" fill="#86B0BE" rx="11" ry="11" style="stroke:#181818;stroke-width:1.0;"/><path d="M904.1094,102 L896.3906,102 L896.3906,89.6094 L904.1094,89.6094 L904.1094,91.7656 L898.8438,91.7656 L898.8438,94.4375 L903.6094,94.4375 L903.6094,96.5938 L898.8438,96.5938 L898.8438,99.8438 L904.1094,99.8438 L904.1094,102 Z " fill="#000000"/><text fill="#000000" font-family="sans-serif" font-size="14" lengthAdjust="spacing" textLength="102" x="914" y="100.8467">currency_code</text><line style="stroke:#181818;stroke-width:0.5;" x1="886" x2="1018" y1="112" y2="112"/><text fill="#000000" font-family="sans-serif" font-size="14" lengthAdjust="spacing" textLength="29" x="891" y="128.9951">AED</text><text fill="#000000" font-family="sans-serif" font-size="14" lengthAdjust="spacing" textLength="27" x="891" y="145.292">AFN</text><text fill="#000000" font-family="sans-serif" font-size="14" lengthAdjust="spacing" textLength="23" x="891" y="161.5889">ALL</text><text fill="#000000" font-family="sans-serif" font-size="14" lengthAdjust="spacing" textLength="32" x="891" y="177.8857">AMD</text><text fill="#000000" font-family="sans-serif" font-size="14" lengthAdjust="spacing" textLength="30" x="891" y="194.1826">ANG</text><text fill="#000000" font-family="sans-serif" font-size="14" lengthAdjust="spacing" textLength="29" x="891" y="210.4795">AOA</text><text fill="#000000" font-family="sans-serif" font-size="14" lengthAdjust="spacing" textLength="28" x="891" y="226.7764">ARS</text><text fill="#000000" font-family="sans-serif" font-size="14" lengthAdjust="spacing" textLength="30" x="891" y="243.0732">AUD</text><text fill="#000000" font-family="sans-serif" font-size="14" lengthAdjust="spacing" textLength="33" x="891" y="259.3701">AWG</text><text fill="#000000" font-family="sans-serif" font-size="14" lengthAdjust="spacing" textLength="29" x="891" y="275.667">AZN</text><text fill="#000000" font-family="sans-serif" font-size="14" lengthAdjust="spacing" textLength="31" x="891" y="291.9639">BAM</text><text fill="#000000" font-family="sans-serif" font-size="14" lengthAdjust="spacing" textLength="31" x="891" y="308.2607">BBD</text><text fill="#000000" font-family="sans-serif" font-size="14" lengthAdjust="spacing" textLength="30" x="891" y="324.5576">BDT</text><text fill="#000000" font-family="sans-serif" font-size="14" lengthAdjust="spacing" textLength="31" x="891" y="340.8545">BGN</text><text fill="#000000" font-family="sans-serif" font-size="14" lengthAdjust="spacing" textLength="31" x="891" y="357.1514">BHD</text><text fill="#000000" font-family="sans-serif" font-size="14" lengthAdjust="spacing" textLength="21" x="891" y="373.4482">BIF</text><text fill="#000000" font-family="sans-serif" font-size="14" lengthAdjust="spacing" textLength="33" x="891" y="389.7451">BMD</text><text fill="#000000" font-family="sans-serif" font-size="14" lengthAdjust="spacing" textLength="31" x="891" y="406.042">BND</text><text fill="#000000" font-family="sans-serif" font-size="14" lengthAdjust="spacing" textLength="31" x="891" y="422.3389">BOB</text><text fill="#000000" font-family="sans-serif" font-size="14" lengthAdjust="spacing" textLength="30" x="891" y="438.6357">BOV</text><text fill="#000000" font-family="sans-serif" font-size="14" lengthAdjust="spacing" textLength="27" x="891" y="454.9326">BRL</text><text fill="#000000" font-family="sans-serif" font-size="14" lengthAdjust="spacing" textLength="30" x="891" y="471.2295">BSD</text><text fill="#000000" font-family="sans-serif" font-size="14" lengthAdjust="spacing" textLength="29" x="891" y="487.5264">BTN</text><text fill="#000000" font-family="sans-serif" font-size="14" lengthAdjust="spacing" textLength="32" x="891" y="503.8232">BWP</text><text fill="#000000" font-family="sans-serif" font-size="14" lengthAdjust="spacing" textLength="29" x="891" y="520.1201">BYN</text><text fill="#000000" font-family="sans-serif" font-size="14" lengthAdjust="spacing" textLength="31" x="891" y="536.417">BZD</text><text fill="#000000" font-family="sans-serif" font-size="14" lengthAdjust="spacing" textLength="30" x="891" y="552.7139">CAD</text><text fill="#000000" font-family="sans-serif" font-size="14" lengthAdjust="spacing" textLength="29" x="891" y="569.0107">CDF</text><text fill="#000000" font-family="sans-serif" font-size="14" lengthAdjust="spacing" textLength="29" x="891" y="585.3076">CHE</text><text fill="#000000" font-family="sans-serif" font-size="14" lengthAdjust="spacing" textLength="28" x="891" y="601.6045">CHF</text><text fill="#000000" font-family="sans-serif" font-size="14" lengthAdjust="spacing" textLength="119" x="891" y="617.9014">...149 more fields</text></g><!--class account--><g id="elem_account"><rect codeLine="52" fill="#FFFFCC" height="32" id="account" rx="2.5" ry="2.5" style="stroke:#181818;stroke-width:0.5;" width="88" x="6" y="12"/><ellipse cx="21" cy="28" fill="#D9B01C" rx="11" ry="11" style="stroke:#181818;stroke-width:1.0;"/><path d="M22.2031,28.1406 Q22.5625,28.2188 22.8281,28.5 Q23.1094,28.7656 23.5,29.5469 L25.7344,34 L23.0469,34 L21.5469,30.875 Q21.4844,30.7344 21.375,30.5 Q20.7188,29.1094 19.8281,29.1094 L19.0469,29.1094 L19.0469,34 L16.6094,34 L16.6094,21.6094 L20.1406,21.6094 Q22.5313,21.6094 23.5625,22.4531 Q24.6094,23.2969 24.6094,25.2031 Q24.6094,26.4844 23.9844,27.25 Q23.375,28 22.2031,28.1406 Z M19.0469,23.6719 L19.0469,27.0469 L20.2031,27.0469 Q21.2188,27.0469 21.6406,26.6563 Q22.0781,26.25 22.0781,25.3438 Q22.0781,24.4531 21.6406,24.0625 Q21.2188,23.6719 20.2031,23.6719 L19.0469,23.6719 Z " fill="#000000"/><text fill="#000000" font-family="sans-serif" font-size="14" lengthAdjust="spacing" textLength="56" x="35" y="32.8467">account</text></g><!--class adjustment--><g id="elem_adjustment"><rect codeLine="60" fill="#FFFFCC" height="32" id="adjustment" rx="2.5" ry="2.5" style="stroke:#181818;stroke-width:0.5;" width="110" x="112" y="12"/><ellipse cx="127" cy="28" fill="#D9B01C" rx="11" ry="11" style="stroke:#181818;stroke-width:1.0;"/><path d="M128.2031,28.1406 Q128.5625,28.2188 128.8281,28.5 Q129.1094,28.7656 129.5,29.5469 L131.7344,34 L129.0469,34 L127.5469,30.875 Q127.4844,30.7344 127.375,30.5 Q126.7188,29.1094 125.8281,29.1094 L125.0469,29.1094 L125.0469,34 L122.6094,34 L122.6094,21.6094 L126.1406,21.6094 Q128.5313,21.6094 129.5625,22.4531 Q130.6094,23.2969 130.6094,25.2031 Q130.6094,26.4844 129.9844,27.25 Q129.375,28 128.2031,28.1406 Z M125.0469,23.6719 L125.0469,27.0469 L126.2031,27.0469 Q127.2188,27.0469 127.6406,26.6563 Q128.0781,26.25 128.0781,25.3438 Q128.0781,24.4531 127.6406,24.0625 Q127.2188,23.6719 126.2031,23.6719 L125.0469,23.6719 Z " fill="#000000"/><text fill="#000000" font-family="sans-serif" font-size="14" lengthAdjust="spacing" textLength="78" x="141" y="32.8467">adjustment</text></g><!--class agreement--><g id="elem_agreement"><rect codeLine="68" fill="#FFFFCC" height="32" id="agreement" rx="2.5" ry="2.5" style="stroke:#181818;stroke-width:0.5;" width="108" x="240" y="12"/><ellipse cx="255" cy="28" fill="#D9B01C" rx="11" ry="11" style="stroke:#181818;stroke-width:1.0;"/><path d="M256.2031,28.1406 Q256.5625,28.2188 256.8281,28.5 Q257.1094,28.7656 257.5,29.5469 L259.7344,34 L257.0469,34 L255.5469,30.875 Q255.4844,30.7344 255.375,30.5 Q254.7188,29.1094 253.8281,29.1094 L253.0469,29.1094 L253.0469,34 L250.6094,34 L250.6094,21.6094 L254.1406,21.6094 Q256.5313,21.6094 257.5625,22.4531 Q258.6094,23.2969 258.6094,25.2031 Q258.6094,26.4844 257.9844,27.25 Q257.375,28 256.2031,28.1406 Z M253.0469,23.6719 L253.0469,27.0469 L254.2031,27.0469 Q255.2188,27.0469 255.6406,26.6563 Q256.0781,26.25 256.0781,25.3438 Q256.0781,24.4531 255.6406,24.0625 Q255.2188,23.6719 254.2031,23.6719 L253.0469,23.6719 Z " fill="#000000"/><text fill="#000000" font-family="sans-serif" font-size="14" lengthAdjust="spacing" textLength="76" x="269" y="32.8467">agreement</text></g><!--class collateral--><g id="elem_collateral"><rect codeLine="76" fill="#FFFFCC" height="32" id="collateral" rx="2.5" ry="2.5" style="stroke:#181818;stroke-width:0.5;" width="93" x="366.5" y="12"/><ellipse cx="381.5" cy="28" fill="#D9B01C" rx="11" ry="11" style="stroke:#181818;stroke-width:1.0;"/><path d="M382.7031,28.1406 Q383.0625,28.2188 383.3281,28.5 Q383.6094,28.7656 384,29.5469 L386.2344,34 L383.5469,34 L382.0469,30.875 Q381.9844,30.7344 381.875,30.5 Q381.2188,29.1094 380.3281,29.1094 L379.5469,29.1094 L379.5469,34 L377.1094,34 L377.1094,21.6094 L380.6406,21.6094 Q383.0313,21.6094 384.0625,22.4531 Q385.1094,23.2969 385.1094,25.2031 Q385.1094,26.4844 384.4844,27.25 Q383.875,28 382.7031,28.1406 Z M379.5469,23.6719 L379.5469,27.0469 L380.7031,27.0469 Q381.7188,27.0469 382.1406,26.6563 Q382.5781,26.25 382.5781,25.3438 Q382.5781,24.4531 382.1406,24.0625 Q381.7188,23.6719 380.7031,23.6719 L379.5469,23.6719 Z " fill="#000000"/><text fill="#000000" font-family="sans-serif" font-size="14" lengthAdjust="spacing" textLength="61" x="395.5" y="32.8467">collateral</text></g><!--class curve--><g id="elem_curve"><rect codeLine="84" fill="#FFFFCC" height="32" id="curve" rx="2.5" ry="2.5" style="stroke:#181818;stroke-width:0.5;" width="70" x="478" y="12"/><ellipse cx="493" cy="28" fill="#D9B01C" rx="11" ry="11" style="stroke:#181818;stroke-width:1.0;"/><path d="M494.2031,28.1406 Q494.5625,28.2188 494.8281,28.5 Q495.1094,28.7656 495.5,29.5469 L497.7344,34 L495.0469,34 L493.5469,30.875 Q493.4844,30.7344 493.375,30.5 Q492.7188,29.1094 491.8281,29.1094 L491.0469,29.1094 L491.0469,34 L488.6094,34 L488.6094,21.6094 L492.1406,21.6094 Q494.5313,21.6094 495.5625,22.4531 Q496.6094,23.2969 496.6094,25.2031 Q496.6094,26.4844 495.9844,27.25 Q495.375,28 494.2031,28.1406 Z M491.0469,23.6719 L491.0469,27.0469 L492.2031,27.0469 Q493.2188,27.0469 493.6406,26.6563 Q494.0781,26.25 494.0781,25.3438 Q494.0781,24.4531 493.6406,24.0625 Q493.2188,23.6719 492.2031,23.6719 L491.0469,23.6719 Z " fill="#000000"/><text fill="#000000" font-family="sans-serif" font-size="14" lengthAdjust="spacing" textLength="38" x="507" y="32.8467">curve</text></g><!--class customer--><g id="elem_customer"><rect codeLine="92" fill="#FFFFCC" height="32" id="customer" rx="2.5" ry="2.5" style="stroke:#181818;stroke-width:0.5;" width="98" x="566" y="12"/><ellipse cx="581" cy="28" fill="#D9B01C" rx="11" ry="11" style="stroke:#181818;stroke-width:1.0;"/><path d="M582.2031,28.1406 Q582.5625,28.2188 582.8281,28.5 Q583.1094,28.7656 583.5,29.5469 L585.7344,34 L583.0469,34 L581.5469,30.875 Q581.4844,30.7344 581.375,30.5 Q580.7188,29.1094 579.8281,29.1094 L579.0469,29.1094 L579.0469,34 L576.6094,34 L576.6094,21.6094 L580.1406,21.6094 Q582.5313,21.6094 583.5625,22.4531 Q584.6094,23.2969 584.6094,25.2031 Q584.6094,26.4844 583.9844,27.25 Q583.375,28 582.2031,28.1406 Z M579.0469,23.6719 L579.0469,27.0469 L580.2031,27.0469 Q581.2188,27.0469 581.6406,26.6563 Q582.0781,26.25 582.0781,25.3438 Q582.0781,24.4531 581.6406,24.0625 Q581.2188,23.6719 580.2031,23.6719 L579.0469,23.6719 Z " fill="#000000"/><text fill="#000000" font-family="sans-serif" font-size="14" lengthAdjust="spacing" textLength="66" x="595" y="32.8467">customer</text></g><!--class derivative--><g id="elem_derivative"><rect codeLine="100" fill="#FFFFCC" height="32" id="derivative" rx="2.5" ry="2.5" style="stroke:#181818;stroke-width:0.5;" width="97" x="682.5" y="12"/><ellipse cx="697.5" cy="28" fill="#D9B01C" rx="11" ry="11" style="stroke:#181818;stroke-width:1.0;"/><path d="M698.7031,28.1406 Q699.0625,28.2188 699.3281,28.5 Q699.6094,28.7656 700,29.5469 L702.2344,34 L699.5469,34 L698.0469,30.875 Q697.9844,30.7344 697.875,30.5 Q697.2188,29.1094 696.3281,29.1094 L695.5469,29.1094 L695.5469,34 L693.1094,34 L693.1094,21.6094 L696.6406,21.6094 Q699.0313,21.6094 700.0625,22.4531 Q701.1094,23.2969 701.1094,25.2031 Q701.1094,26.4844 700.4844,27.25 Q699.875,28 698.7031,28.1406 Z M695.5469,23.6719 L695.5469,27.0469 L696.7031,27.0469 Q697.7188,27.0469 698.1406,26.6563 Q698.5781,26.25 698.5781,25.3438 Q698.5781,24.4531 698.1406,24.0625 Q697.7188,23.6719 696.7031,23.6719 L695.5469,23.6719 Z " fill="#000000"/><text fill="#000000" font-family="sans-serif" font-size="14" lengthAdjust="spacing" textLength="65" x="711.5" y="32.8467">derivative</text></g><!--class derivative_cash_flow--><g id="elem_derivative_cash_flow"><rect codeLine="108" fill="#FFFFCC" height="32" id="derivative_cash_flow" rx="2.5" ry="2.5" style="stroke:#181818;stroke-width:0.5;" width="171" x="797.5" y="12"/><ellipse cx="812.5" cy="28" fill="#D9B01C" rx="11" ry="11" style="stroke:#181818;stroke-width:1.0;"/><path d="M813.7031,28.1406 Q814.0625,28.2188 814.3281,28.5 Q814.6094,28.7656 815,29.5469 L817.2344,34 L814.5469,34 L813.0469,30.875 Q812.9844,30.7344 812.875,30.5 Q812.2188,29.1094 811.3281,29.1094 L810.5469,29.1094 L810.5469,34 L808.1094,34 L808.1094,21.6094 L811.6406,21.6094 Q814.0313,21.6094 815.0625,22.4531 Q816.1094,23.2969 816.1094,25.2031 Q816.1094,26.4844 815.4844,27.25 Q814.875,28 813.7031,28.1406 Z M810.5469,23.6719 L810.5469,27.0469 L811.7031,27.0469 Q812.7188,27.0469 813.1406,26.6563 Q813.5781,26.25 813.5781,25.3438 Q813.5781,24.4531 813.1406,24.0625 Q812.7188,23.6719 811.7031,23.6719 L810.5469,23.6719 Z " fill="#000000"/><text fill="#000000" font-family="sans-serif" font-size="14" lengthAdjust="spacing" textLength="139" x="826.5" y="32.8467">derivative_cash_flow</text></g><!--class entity--><g id="elem_entity"><rect codeLine="116" fill="#FFFFCC" height="32" id="entity" rx="2.5" ry="2.5" style="stroke:#181818;stroke-width:0.5;" width="70" x="987" y="12"/><ellipse cx="1002" cy="28" fill="#D9B01C" rx="11" ry="11" style="stroke:#181818;stroke-width:1.0;"/><path d="M1003.2031,28.1406 Q1003.5625,28.2188 1003.8281,28.5 Q1004.1094,28.7656 1004.5,29.5469 L1006.7344,34 L1004.0469,34 L1002.5469,30.875 Q1002.4844,30.7344 1002.375,30.5 Q1001.7188,29.1094 1000.8281,29.1094 L1000.0469,29.1094 L1000.0469,34 L997.6094,34 L997.6094,21.6094 L1001.1406,21.6094 Q1003.5313,21.6094 1004.5625,22.4531 Q1005.6094,23.2969 1005.6094,25.2031 Q1005.6094,26.4844 1004.9844,27.25 Q1004.375,28 1003.2031,28.1406 Z M1000.0469,23.6719 L1000.0469,27.0469 L1001.2031,27.0469 Q1002.2188,27.0469 1002.6406,26.6563 Q1003.0781,26.25 1003.0781,25.3438 Q1003.0781,24.4531 1002.6406,24.0625 Q1002.2188,23.6719 1001.2031,23.6719 L1000.0469,23.6719 Z " fill="#000000"/><text fill="#000000" font-family="sans-serif" font-size="14" lengthAdjust="spacing" textLength="38" x="1016" y="32.8467">entity</text></g><!--class exchange_rate--><g id="elem_exchange_rate"><rect codeLine="124" fill="#FFFFCC" height="32" id="exchange_rate" rx="2.5" ry="2.5" style="stroke:#181818;stroke-width:0.5;" width="134" x="1075" y="12"/><ellipse cx="1090" cy="28" fill="#D9B01C" rx="11" ry="11" style="stroke:#181818;stroke-width:1.0;"/><path d="M1091.2031,28.1406 Q1091.5625,28.2188 1091.8281,28.5 Q1092.1094,28.7656 1092.5,29.5469 L1094.7344,34 L1092.0469,34 L1090.5469,30.875 Q1090.4844,30.7344 1090.375,30.5 Q1089.7188,29.1094 1088.8281,29.1094 L1088.0469,29.1094 L1088.0469,34 L1085.6094,34 L1085.6094,21.6094 L1089.1406,21.6094 Q1091.5313,21.6094 1092.5625,22.4531 Q1093.6094,23.2969 1093.6094,25.2031 Q1093.6094,26.4844 1092.9844,27.25 Q1092.375,28 1091.2031,28.1406 Z M1088.0469,23.6719 L1088.0469,27.0469 L1089.2031,27.0469 Q1090.2188,27.0469 1090.6406,26.6563 Q1091.0781,26.25 1091.0781,25.3438 Q1091.0781,24.4531 1090.6406,24.0625 Q1090.2188,23.6719 1089.2031,23.6719 L1088.0469,23.6719 Z " fill="#000000"/><text fill="#000000" font-family="sans-serif" font-size="14" lengthAdjust="spacing" textLength="102" x="1104" y="32.8467">exchange_rate</text></g><!--class guarantor--><g id="elem_guarantor"><rect codeLine="132" fill="#FFFFCC" height="32" id="guarantor" rx="2.5" ry="2.5" style="stroke:#181818;stroke-width:0.5;" width="99" x="1227.5" y="12"/><ellipse cx="1242.5" cy="28" fill="#D9B01C" rx="11" ry="11" style="stroke:#181818;stroke-width:1.0;"/><path d="M1243.7031,28.1406 Q1244.0625,28.2188 1244.3281,28.5 Q1244.6094,28.7656 1245,29.5469 L1247.2344,34 L1244.5469,34 L1243.0469,30.875 Q1242.9844,30.7344 1242.875,30.5 Q1242.2188,29.1094 1241.3281,29.1094 L1240.5469,29.1094 L1240.5469,34 L1238.1094,34 L1238.1094,21.6094 L1241.6406,21.6094 Q1244.0313,21.6094 1245.0625,22.4531 Q1246.1094,23.2969 1246.1094,25.2031 Q1246.1094,26.4844 1245.4844,27.25 Q1244.875,28 1243.7031,28.1406 Z M1240.5469,23.6719 L1240.5469,27.0469 L1241.7031,27.0469 Q1242.7188,27.0469 1243.1406,26.6563 Q1243.5781,26.25 1243.5781,25.3438 Q1243.5781,24.4531 1243.1406,24.0625 Q1242.7188,23.6719 1241.7031,23.6719 L1240.5469,23.6719 Z " fill="#000000"/><text fill="#000000" font-family="sans-serif" font-size="14" lengthAdjust="spacing" textLength="67" x="1256.5" y="32.8467">guarantor</text></g><!--class issuer--><g id="elem_issuer"><rect codeLine="140" fill="#FFFFCC" height="32" id="issuer" rx="2.5" ry="2.5" style="stroke:#181818;stroke-width:0.5;" width="74" x="1345" y="12"/><ellipse cx="1360" cy="28" fill="#D9B01C" rx="11" ry="11" style="stroke:#181818;stroke-width:1.0;"/><path d="M1361.2031,28.1406 Q1361.5625,28.2188 1361.8281,28.5 Q1362.1094,28.7656 1362.5,29.5469 L1364.7344,34 L1362.0469,34 L1360.5469,30.875 Q1360.4844,30.7344 1360.375,30.5 Q1359.7188,29.1094 1358.8281,29.1094 L1358.0469,29.1094 L1358.0469,34 L1355.6094,34 L1355.6094,21.6094 L1359.1406,21.6094 Q1361.5313,21.6094 1362.5625,22.4531 Q1363.6094,23.2969 1363.6094,25.2031 Q1363.6094,26.4844 1362.9844,27.25 Q1362.375,28 1361.2031,28.1406 Z M1358.0469,23.6719 L1358.0469,27.0469 L1359.2031,27.0469 Q1360.2188,27.0469 1360.6406,26.6563 Q1361.0781,26.25 1361.0781,25.3438 Q1361.0781,24.4531 1360.6406,24.0625 Q1360.2188,23.6719 1359.2031,23.6719 L1358.0469,23.6719 Z " fill="#000000"/><text fill="#000000" font-family="sans-serif" font-size="14" lengthAdjust="spacing" textLength="42" x="1374" y="32.8467">issuer</text></g><!--class loan--><g id="elem_loan"><rect codeLine="148" fill="#FFFFCC" height="32" id="loan" rx="2.5" ry="2.5" style="stroke:#181818;stroke-width:0.5;" width="61" x="1437.5" y="12"/><ellipse cx="1452.5" cy="28" fill="#D9B01C" rx="11" ry="11" style="stroke:#181818;stroke-width:1.0;"/><path d="M1453.7031,28.1406 Q1454.0625,28.2188 1454.3281,28.5 Q1454.6094,28.7656 1455,29.5469 L1457.2344,34 L1454.5469,34 L1453.0469,30.875 Q1452.9844,30.7344 1452.875,30.5 Q1452.2188,29.1094 1451.3281,29.1094 L1450.5469,29.1094 L1450.5469,34 L1448.1094,34 L1448.1094,21.6094 L1451.6406,21.6094 Q1454.0313,21.6094 1455.0625,22.4531 Q1456.1094,23.2969 1456.1094,25.2031 Q1456.1094,26.4844 1455.4844,27.25 Q1454.875,28 1453.7031,28.1406 Z M1450.5469,23.6719 L1450.5469,27.0469 L1451.7031,27.0469 Q1452.7188,27.0469 1453.1406,26.6563 Q1453.5781,26.25 1453.5781,25.3438 Q1453.5781,24.4531 1453.1406,24.0625 Q1452.7188,23.6719 1451.7031,23.6719 L1450.5469,23.6719 Z " fill="#000000"/><text fill="#000000" font-family="sans-serif" font-size="14" lengthAdjust="spacing" textLength="29" x="1466.5" y="32.8467">loan</text></g><!--class loan_cash_flow--><g id="elem_loan_cash_flow"><rect codeLine="156" fill="#FFFFCC" height="32" id="loan_cash_flow" rx="2.5" ry="2.5" style="stroke:#181818;stroke-width:0.5;" width="135" x="1516.5" y="12"/><ellipse cx="1531.5" cy="28" fill="#D9B01C" rx="11" ry="11" style="stroke:#181818;stroke-width:1.0;"/><path d="M1532.7031,28.1406 Q1533.0625,28.2188 1533.3281,28.5 Q1533.6094,28.7656 1534,29.5469 L1536.2344,34 L1533.5469,34 L1532.0469,30.875 Q1531.9844,30.7344 1531.875,30.5 Q1531.2188,29.1094 1530.3281,29.1094 L1529.5469,29.1094 L1529.5469,34 L1527.1094,34 L1527.1094,21.6094 L1530.6406,21.6094 Q1533.0313,21.6094 1534.0625,22.4531 Q1535.1094,23.2969 1535.1094,25.2031 Q1535.1094,26.4844 1534.4844,27.25 Q1533.875,28 1532.7031,28.1406 Z M1529.5469,23.6719 L1529.5469,27.0469 L1530.7031,27.0469 Q1531.7188,27.0469 1532.1406,26.6563 Q1532.5781,26.25 1532.5781,25.3438 Q1532.5781,24.4531 1532.1406,24.0625 Q1531.7188,23.6719 1530.7031,23.6719 L1529.5469,23.6719 Z " fill="#000000"/><text fill="#000000" font-family="sans-serif" font-size="14" lengthAdjust="spacing" textLength="103" x="1545.5" y="32.8467">loan_cash_flow</text></g><!--class loan_transaction--><g id="elem_loan_transaction"><rect codeLine="164" fill="#FFFFCC" height="32" id="loan_transaction" rx="2.5" ry="2.5" style="stroke:#181818;stroke-width:0.5;" width="145" x="1669.5" y="12"/><ellipse cx="1684.5" cy="28" fill="#D9B01C" rx="11" ry="11" style="stroke:#181818;stroke-width:1.0;"/><path d="M1685.7031,28.1406 Q1686.0625,28.2188 1686.3281,28.5 Q1686.6094,28.7656 1687,29.5469 L1689.2344,34 L1686.5469,34 L1685.0469,30.875 Q1684.9844,30.7344 1684.875,30.5 Q1684.2188,29.1094 1683.3281,29.1094 L1682.5469,29.1094 L1682.5469,34 L1680.1094,34 L1680.1094,21.6094 L1683.6406,21.6094 Q1686.0313,21.6094 1687.0625,22.4531 Q1688.1094,23.2969 1688.1094,25.2031 Q1688.1094,26.4844 1687.4844,27.25 Q1686.875,28 1685.7031,28.1406 Z M1682.5469,23.6719 L1682.5469,27.0469 L1683.7031,27.0469 Q1684.7188,27.0469 1685.1406,26.6563 Q1685.5781,26.25 1685.5781,25.3438 Q1685.5781,24.4531 1685.1406,24.0625 Q1684.7188,23.6719 1683.7031,23.6719 L1682.5469,23.6719 Z " fill="#000000"/><text fill="#000000" font-family="sans-serif" font-size="14" lengthAdjust="spacing" textLength="113" x="1698.5" y="32.8467">loan_transaction</text></g><!--class security--><g id="elem_security"><rect codeLine="172" fill="#FFFFCC" height="32" id="security" rx="2.5" ry="2.5" style="stroke:#181818;stroke-width:0.5;" width="86" x="1833" y="12"/><ellipse cx="1848" cy="28" fill="#D9B01C" rx="11" ry="11" style="stroke:#181818;stroke-width:1.0;"/><path d="M1849.2031,28.1406 Q1849.5625,28.2188 1849.8281,28.5 Q1850.1094,28.7656 1850.5,29.5469 L1852.7344,34 L1850.0469,34 L1848.5469,30.875 Q1848.4844,30.7344 1848.375,30.5 Q1847.7188,29.1094 1846.8281,29.1094 L1846.0469,29.1094 L1846.0469,34 L1843.6094,34 L1843.6094,21.6094 L1847.1406,21.6094 Q1849.5313,21.6094 1850.5625,22.4531 Q1851.6094,23.2969 1851.6094,25.2031 Q1851.6094,26.4844 1850.9844,27.25 Q1850.375,28 1849.2031,28.1406 Z M1846.0469,23.6719 L1846.0469,27.0469 L1847.2031,27.0469 Q1848.2188,27.0469 1848.6406,26.6563 Q1849.0781,26.25 1849.0781,25.3438 Q1849.0781,24.4531 1848.6406,24.0625 Q1848.2188,23.6719 1847.2031,23.6719 L1846.0469,23.6719 Z " fill="#000000"/><text fill="#000000" font-family="sans-serif" font-size="14" lengthAdjust="spacing" textLength="54" x="1862" y="32.8467">security</text></g><polygon fill="#181818" points="884.7072,327.4402,877.5792,320.6437,879.999,325.7569,874.8859,328.1767,884.7072,327.4402" style="stroke:#181818;stroke-width:1.0;"/><path d="M91.9954,44.015 C235.6407,95.3738 702.5496,262.3118 879.0574,325.4202 " fill="none" style="stroke:#181818;stroke-width:1.0;"/><polygon fill="#181818" points="884.8262,323.9031,878.0214,316.7831,880.2013,322.0031,874.9813,324.183,884.8262,323.9031" style="stroke:#181818;stroke-width:1.0;"/><path d="M203.5481,44.015 C326.2935,94.4422 719.4486,255.9614 879.2763,321.6231 " fill="none" style="stroke:#181818;stroke-width:1.0;"/><polygon fill="#181818" points="884.9748,318.6495,878.6537,311.0968,880.4851,316.449,875.1329,318.2804,884.9748,318.6495" style="stroke:#181818;stroke-width:1.0;"/><path d="M324.8542,44.1223 C425.3429,93.374 739.412,247.3061 879.5872,316.0089 " fill="none" style="stroke:#181818;stroke-width:1.0;"/><polygon fill="#181818" points="884.8378,311.3148,879.1685,303.2614,880.5472,308.7476,875.0609,310.1264,884.8378,311.3148" style="stroke:#181818;stroke-width:1.0;"/><path d="M438.2741,44.1223 C517.7796,91.6928 759.4678,236.3022 879.6891,308.2342 " fill="none" style="stroke:#181818;stroke-width:1.0;"/><polygon fill="#181818" points="884.8858,302.1963,880.0008,293.6443,880.8562,299.2361,875.2645,300.0916,884.8858,302.1963" style="stroke:#181818;stroke-width:1.0;"/><path d="M533.5851,44.1223 C595.7125,89.7626 778.4556,224.0101 880.0503,298.644 " fill="none" style="stroke:#181818;stroke-width:1.0;"/><polygon fill="#181818" points="884.7061,287.1015,880.9694,277.9891,881.0937,283.6446,875.4382,283.7689,884.7061,287.1015" style="stroke:#181818;stroke-width:1.0;"/><path d="M630.8022,44.1223 C675.4365,86.8361 800.085,206.1214 880.3712,282.9532 " fill="none" style="stroke:#181818;stroke-width:1.0;"/><polygon fill="#181818" points="884.9129,253.6014,883.125,243.9162,882.0865,249.4769,876.5258,248.4384,884.9129,253.6014" style="stroke:#181818;stroke-width:1.0;"/><path d="M741.3629,44.1223 C766.6653,81.0455 829.9097,173.3365 881.5212,248.652 " fill="none" style="stroke:#181818;stroke-width:1.0;"/><polygon fill="#181818" points="893.8889,79.894,895.9174,70.2563,892.8428,75.0046,888.0945,71.93,893.8889,79.894" style="stroke:#181818;stroke-width:1.0;"/><path d="M886.2355,44.1223 C888.1272,52.9639 889.5035,59.397 892.6336,74.0267 " fill="none" style="stroke:#181818;stroke-width:1.0;"/><polygon fill="#181818" points="1010.9533,79.894,1016.7713,71.9472,1012.0138,75.0077,1008.9533,70.2503,1010.9533,79.894" style="stroke:#181818;stroke-width:1.0;"/><path d="M1018.7176,44.1223 C1016.7985,52.9639 1015.4014,59.4008 1012.2259,74.0305 " fill="none" style="stroke:#181818;stroke-width:1.0;"/><polygon fill="#181818" points="1019.0495,237.6922,1027.0643,231.9683,1021.5876,233.3843,1020.1716,227.9075,1019.0495,237.6922" style="stroke:#181818;stroke-width:1.0;"/><path d="M1133.0907,44.1223 C1112.8416,78.4926 1064.8463,159.9583 1022.0952,232.5227 " fill="none" style="stroke:#181818;stroke-width:1.0;"/><polygon fill="#181818" points="1019.2824,284.7351,1028.4884,281.2351,1022.8316,281.2133,1022.8534,275.5565,1019.2824,284.7351" style="stroke:#181818;stroke-width:1.0;"/><path d="M1261.7605,44.1223 C1219.1547,86.4003 1101.1141,203.5329 1023.5414,280.5089 " fill="none" style="stroke:#181818;stroke-width:1.0;"/><polygon fill="#181818" points="1019.3749,300.9688,1028.9749,298.7688,1023.3749,297.9688,1024.1749,292.3688,1019.3749,300.9688" style="stroke:#181818;stroke-width:1.0;"/><path d="M1361.837,44.1223 C1301.3153,89.5135 1124.0518,222.4611 1024.1749,297.3688 " fill="none" style="stroke:#181818;stroke-width:1.0;"/><polygon fill="#181818" points="1019.0301,309.6062,1028.7821,308.2282,1023.2701,306.9562,1024.5421,301.4442,1019.0301,309.6062" style="stroke:#181818;stroke-width:1.0;"/><path d="M1443.8043,44.1223 C1368.2892,91.3192 1140.1772,233.8893 1024.1181,306.4262 " fill="none" style="stroke:#181818;stroke-width:1.0;"/><polygon fill="#181818" points="1019.2101,317.2037,1029.0448,316.6759,1023.6637,314.9311,1025.4085,309.5501,1019.2101,317.2037" style="stroke:#181818;stroke-width:1.0;"/><path d="M1554.365,44.1223 C1458.5181,93.0315 1160.6142,245.0473 1024.5545,314.4766 " fill="none" style="stroke:#181818;stroke-width:1.0;"/><polygon fill="#181818" points="1019.0085,324.1453,1028.8527,324.447,1023.6376,322.2555,1025.8292,317.0404,1019.0085,324.1453" style="stroke:#181818;stroke-width:1.0;"/><path d="M1705.2191,44.015 C1581.5398,94.5043 1185.0136,256.3773 1024.5635,321.8776 " fill="none" style="stroke:#181818;stroke-width:1.0;"/><polygon fill="#181818" points="1019.3027,328.0096,1029.1181,328.8204,1024.0234,326.362,1026.4819,321.2673,1019.3027,328.0096" style="stroke:#181818;stroke-width:1.0;"/><path d="M1832.9803,44.015 C1685.3866,95.529 1204.4821,263.3772 1024.9676,326.0324 " fill="none" style="stroke:#181818;stroke-width:1.0;"/><!--SRC=[dLHTQzim57tthz3eomPjQ66C5KeWSjmFQDCHjoljIxYJRnsljXGakLie- -_JlIIDEvjYJmy7vvnxz75rb0yh2ta5eeIrgRrm5NhG44NkgT0hi529k0Jd9AYdt9fQPx4fZHLxyZQzc2Lf6YsB30LMAxyMmRiqcMjIZmMMWTdDzkEVYRm5xOA4saSElT1GOVYjC4Ko-52YZSQ8XgAT25NRKAtM2sN2CYSducEo__MBF9J99p4UYvSe4cAIJ0bFPuINbuHNpCpE2AydXFEKy9RvE-OVg5vEhWWbyN9wGtZ6_3ap5wU4F9kSCLvBnk-4SrfBfipViElk6-4zVpyG7qyOfpHFV9umqlTeD3hwV2mgOt7RDXf_WiHZStnGAdJFyy7d-zDZUNWKRm_UMP_zh9slS8WbjuY37CgK9NYqKFQtrFOP1rGxRogqlGqPsk8PV35WZPrbeS0j5u-b-TNR7BfLXBptBl-jbg1pN8I8zzzXNeSdeUbDz7KKpjK3kbOQq8EA_wDJREDd3yeNflzw3aDc-ZLv-qWE3iPl_o-YndFe45-3tzOQ4UyGESnT_2QsRQaHqFV4HeFRPPlGTGXlujNMTq5gQvl8j0KEHpVzxYvR5zukURtQjhIvqRy0]--></g></svg>