<?xml version="1.0" encoding="us-ascii" standalone="no"?><svg xmlns="http://www.w3.org/2000/svg" xmlns:xlink="http://www.w3.org/1999/xlink" contentStyleType="text/css" height="241px" preserveAspectRatio="none" style="width:371px;height:241px;" version="1.1" viewBox="0 0 371 241" width="371px" zoomAndPan="magnify"><defs/><g><!--class exchange_rate--><g id="elem_exchange_rate"><rect codeLine="13" fill="#FFFFCC" height="154.0781" id="exchange_rate" rx="2.5" ry="2.5" style="stroke:#181818;stroke-width:0.5;" width="162" x="77.5" y="80"/><ellipse cx="105.1" cy="96" fill="#D9B01C" rx="11" ry="11" style="stroke:#181818;stroke-width:1.0;"/><path d="M106.3031,96.1406 Q106.6625,96.2188 106.9281,96.5 Q107.2094,96.7656 107.6,97.5469 L109.8344,102 L107.1469,102 L105.6469,98.875 Q105.5844,98.7344 105.475,98.5 Q104.8188,97.1094 103.9281,97.1094 L103.1469,97.1094 L103.1469,102 L100.7094,102 L100.7094,89.6094 L104.2406,89.6094 Q106.6313,89.6094 107.6625,90.4531 Q108.7094,91.2969 108.7094,93.2031 Q108.7094,94.4844 108.0844,95.25 Q107.475,96 106.3031,96.1406 Z M103.1469,91.6719 L103.1469,95.0469 L104.3031,95.0469 Q105.3188,95.0469 105.7406,94.6563 Q106.1781,94.25 106.1781,93.3438 Q106.1781,92.4531 105.7406,92.0625 Q105.3188,91.6719 104.3031,91.6719 L103.1469,91.6719 Z " fill="#000000"/><text fill="#000000" font-family="sans-serif" font-size="14" lengthAdjust="spacing" textLength="102" x="121.9" y="100.8467">exchange_rate</text><line style="stroke:#181818;stroke-width:0.5;" x1="78.5" x2="238.5" y1="112" y2="112"/><text fill="#000000" font-family="sans-serif" font-size="14" lengthAdjust="spacing" textLength="31" x="83.5" y="128.9951">date</text><text fill="#000000" font-family="sans-serif" font-size="14" lengthAdjust="spacing" textLength="41" x="83.5" y="145.292">quote</text><text fill="#000000" font-family="sans-serif" font-size="14" lengthAdjust="spacing" textLength="12" x="83.5" y="161.5889">id</text><text fill="#000000" font-family="sans-serif" font-size="14" lengthAdjust="spacing" textLength="48" x="83.5" y="177.8857">source</text><text fill="#000000" font-family="sans-serif" font-size="14" lengthAdjust="spacing" textLength="69" x="83.5" y="194.1826">version_id</text><text fill="#000000" font-family="sans-serif" font-size="14" lengthAdjust="spacing" textLength="143" x="83.5" y="210.4795">base_currency_code</text><text fill="#000000" font-family="sans-serif" font-size="14" lengthAdjust="spacing" textLength="150" x="83.5" y="226.7764">quote_currency_code</text></g><!--class batch--><g id="elem_batch"><rect codeLine="27" fill="#FFFFCC" height="32" id="batch" rx="2.5" ry="2.5" style="stroke:#181818;stroke-width:0.5;" width="71" x="6" y="12"/><ellipse cx="21" cy="28" fill="#D9B01C" rx="11" ry="11" style="stroke:#181818;stroke-width:1.0;"/><path d="M22.2031,28.1406 Q22.5625,28.2188 22.8281,28.5 Q23.1094,28.7656 23.5,29.5469 L25.7344,34 L23.0469,34 L21.5469,30.875 Q21.4844,30.7344 21.375,30.5 Q20.7188,29.1094 19.8281,29.1094 L19.0469,29.1094 L19.0469,34 L16.6094,34 L16.6094,21.6094 L20.1406,21.6094 Q22.5313,21.6094 23.5625,22.4531 Q24.6094,23.2969 24.6094,25.2031 Q24.6094,26.4844 23.9844,27.25 Q23.375,28 22.2031,28.1406 Z M19.0469,23.6719 L19.0469,27.0469 L20.2031,27.0469 Q21.2188,27.0469 21.6406,26.6563 Q22.0781,26.25 22.0781,25.3438 Q22.0781,24.4531 21.6406,24.0625 Q21.2188,23.6719 20.2031,23.6719 L19.0469,23.6719 Z " fill="#000000"/><text fill="#000000" font-family="sans-serif" font-size="14" lengthAdjust="spacing" textLength="39" x="35" y="32.8467">batch</text></g><!--class example_data--><g id="elem_example_data"><rect codeLine="35" fill="#FFFFCC" height="32" id="example_data" rx="2.5" ry="2.5" style="stroke:#181818;stroke-width:0.5;" width="127" x="95" y="12"/><ellipse cx="110" cy="28" fill="#D9B01C" rx="11" ry="11" style="stroke:#181818;stroke-width:1.0;"/><path d="M111.2031,28.1406 Q111.5625,28.2188 111.8281,28.5 Q112.1094,28.7656 112.5,29.5469 L114.7344,34 L112.0469,34 L110.5469,30.875 Q110.4844,30.7344 110.375,30.5 Q109.7188,29.1094 108.8281,29.1094 L108.0469,29.1094 L108.0469,34 L105.6094,34 L105.6094,21.6094 L109.1406,21.6094 Q111.5313,21.6094 112.5625,22.4531 Q113.6094,23.2969 113.6094,25.2031 Q113.6094,26.4844 112.9844,27.25 Q112.375,28 111.2031,28.1406 Z M108.0469,23.6719 L108.0469,27.0469 L109.2031,27.0469 Q110.2188,27.0469 110.6406,26.6563 Q111.0781,26.25 111.0781,25.3438 Q111.0781,24.4531 110.6406,24.0625 Q110.2188,23.6719 109.2031,23.6719 L108.0469,23.6719 Z " fill="#000000"/><text fill="#000000" font-family="sans-serif" font-size="14" lengthAdjust="spacing" textLength="95" x="124" y="32.8467">example_data</text></g><!--class batch__data1--><g id="elem_batch__data1"><rect fill="#FFFFCC" height="32" id="batch__data1" rx="2.5" ry="2.5" style="stroke:#181818;stroke-width:0.5;" width="124" x="240.5" y="12"/><ellipse cx="255.5" cy="28" fill="#ADD1B2" rx="11" ry="11" style="stroke:#181818;stroke-width:1.0;"/><path d="M258.4688,33.6406 Q257.8906,33.9375 257.25,34.0781 Q256.6094,34.2344 255.9063,34.2344 Q253.4063,34.2344 252.0781,32.5938 Q250.7656,30.9375 250.7656,27.8125 Q250.7656,24.6875 252.0781,23.0313 Q253.4063,21.375 255.9063,21.375 Q256.6094,21.375 257.25,21.5313 Q257.9063,21.6875 258.4688,21.9844 L258.4688,24.7031 Q257.8438,24.125 257.25,23.8594 Q256.6563,23.5781 256.0313,23.5781 Q254.6875,23.5781 254,24.6563 Q253.3125,25.7188 253.3125,27.8125 Q253.3125,29.9063 254,30.9844 Q254.6875,32.0469 256.0313,32.0469 Q256.6563,32.0469 257.25,31.7813 Q257.8438,31.5 258.4688,30.9219 L258.4688,33.6406 Z " fill="#000000"/><text fill="#000000" font-family="sans-serif" font-size="14" lengthAdjust="spacing" textLength="92" x="269.5" y="32.8467">batch__data1</text></g><polygon fill="#181818" points="88.2433,79.7384,85.0871,70.409,84.8555,76.0611,79.2034,75.8294,88.2433,79.7384" style="stroke:#181818;stroke-width:1.0;"/><path d="M55.3809,44.0673 C63.9763,53.3974 71.6705,61.7492 84.1779,75.3256 " fill="none" style="stroke:#181818;stroke-width:1.0;"/><polygon fill="#181818" points="239.7355,84.3548,249.1312,81.4017,243.4854,81.0476,243.8396,75.4018,239.7355,84.3548" style="stroke:#181818;stroke-width:1.0;"/><path d="M285.4158,44.0673 C273.6448,54.4487 261.5524,65.1135 244.2354,80.3861 " fill="none" style="stroke:#181818;stroke-width:1.0;"/><polygon fill="#181818" points="158.5,79.7384,162.5,70.7384,158.5,74.7384,154.5,70.7384,158.5,79.7384" style="stroke:#181818;stroke-width:1.0;"/><path d="M158.5,44.0673 C158.5,53.3974 158.5,60.162 158.5,73.7384 " fill="none" style="stroke:#181818;stroke-width:1.0;"/><!--SRC=[ZKyzJyCm4DtzAmwnW4IbTaIgCYGmi7GWOhOkzf5OzKUm7TG8yT-vf1NGae4RVBhtxhrxlkeZjWx1uXY63CbHHez2fBtnFKPqK5bCgKIrRsCOlAw23H6kovVwQVTOrw8pce1SdqTWRHTq-Wsz6hAC_BWr5qOveazCaSyYKGQFZdXMLDCaoBpYWoSnbPgI01rKXxuboIp1TWitptSFz-LwKzr2KS27402QAMvlGvYxqVoaC4GrJUyKambUpcY3YQGQ8WTGerH1V-ikKAvFfkOw9MamgsunmT8s7T3rbYHdmt-8ZkQhLN7-uICkPvVD0drsvIzzCly2]--></g></svg>