<?xml version="1.0" encoding="us-ascii" standalone="no"?><svg xmlns="http://www.w3.org/2000/svg" xmlns:xlink="http://www.w3.org/1999/xlink" contentStyleType="text/css" height="632px" preserveAspectRatio="none" style="width:371px;height:632px;" version="1.1" viewBox="0 0 371 632" width="371px" zoomAndPan="magnify"><defs/><g><!--class guarantor--><g id="elem_guarantor"><rect codeLine="13" fill="#FFFFCC" height="545.2031" id="guarantor" rx="2.5" ry="2.5" style="stroke:#181818;stroke-width:0.5;" width="178" x="69.5" y="80"/><ellipse cx="120.75" cy="96" fill="#D9B01C" rx="11" ry="11" style="stroke:#181818;stroke-width:1.0;"/><path d="M121.9531,96.1406 Q122.3125,96.2188 122.5781,96.5 Q122.8594,96.7656 123.25,97.5469 L125.4844,102 L122.7969,102 L121.2969,98.875 Q121.2344,98.7344 121.125,98.5 Q120.4688,97.1094 119.5781,97.1094 L118.7969,97.1094 L118.7969,102 L116.3594,102 L116.3594,89.6094 L119.8906,89.6094 Q122.2813,89.6094 123.3125,90.4531 Q124.3594,91.2969 124.3594,93.2031 Q124.3594,94.4844 123.7344,95.25 Q123.125,96 121.9531,96.1406 Z M118.7969,91.6719 L118.7969,95.0469 L119.9531,95.0469 Q120.9688,95.0469 121.3906,94.6563 Q121.8281,94.25 121.8281,93.3438 Q121.8281,92.4531 121.3906,92.0625 Q120.9688,91.6719 119.9531,91.6719 L118.7969,91.6719 Z " fill="#000000"/><text fill="#000000" font-family="sans-serif" font-size="14" lengthAdjust="spacing" textLength="67" x="141.25" y="100.8467">guarantor</text><line style="stroke:#181818;stroke-width:0.5;" x1="70.5" x2="246.5" y1="112" y2="112"/><text fill="#000000" font-family="sans-serif" font-size="14" lengthAdjust="spacing" textLength="31" x="75.5" y="128.9951">date</text><text fill="#000000" font-family="sans-serif" font-size="14" lengthAdjust="spacing" textLength="78" x="75.5" y="145.292">intra_group</text><text fill="#000000" font-family="sans-serif" font-size="14" lengthAdjust="spacing" textLength="78" x="75.5" y="161.5889">naics_code</text><text fill="#000000" font-family="sans-serif" font-size="14" lengthAdjust="spacing" textLength="49" x="75.5" y="177.8857">cqs_irb</text><text fill="#000000" font-family="sans-serif" font-size="14" lengthAdjust="spacing" textLength="42" x="75.5" y="194.1826">pd_irb</text><text fill="#000000" font-family="sans-serif" font-size="14" lengthAdjust="spacing" textLength="75" x="75.5" y="210.4795">headcount</text><text fill="#000000" font-family="sans-serif" font-size="14" lengthAdjust="spacing" textLength="83" x="75.5" y="226.7764">total_assets</text><text fill="#000000" font-family="sans-serif" font-size="14" lengthAdjust="spacing" textLength="125" x="75.5" y="243.0732">risk_country_code</text><text fill="#000000" font-family="sans-serif" font-size="14" lengthAdjust="spacing" textLength="97" x="75.5" y="259.3701">internal_rating</text><text fill="#000000" font-family="sans-serif" font-size="14" lengthAdjust="spacing" textLength="51" x="75.5" y="275.667">dbrs_st</text><text fill="#000000" font-family="sans-serif" font-size="14" lengthAdjust="spacing" textLength="45" x="75.5" y="291.9639">kbra_lt</text><text fill="#000000" font-family="sans-serif" font-size="14" lengthAdjust="spacing" textLength="29" x="75.5" y="308.2607">scra</text><text fill="#000000" font-family="sans-serif" font-size="14" lengthAdjust="spacing" textLength="48" x="75.5" y="324.5576">source</text><text fill="#000000" font-family="sans-serif" font-size="14" lengthAdjust="spacing" textLength="30" x="75.5" y="340.8545">type</text><text fill="#000000" font-family="sans-serif" font-size="14" lengthAdjust="spacing" textLength="44" x="75.5" y="357.1514">fitch_lt</text><text fill="#000000" font-family="sans-serif" font-size="14" lengthAdjust="spacing" textLength="102" x="75.5" y="373.4482">currency_code</text><text fill="#000000" font-family="sans-serif" font-size="14" lengthAdjust="spacing" textLength="76" x="75.5" y="389.7451">nace_code</text><text fill="#000000" font-family="sans-serif" font-size="14" lengthAdjust="spacing" textLength="50" x="75.5" y="406.042">kbra_st</text><text fill="#000000" font-family="sans-serif" font-size="14" lengthAdjust="spacing" textLength="75" x="75.5" y="422.3389">moodys_st</text><text fill="#000000" font-family="sans-serif" font-size="14" lengthAdjust="spacing" textLength="105" x="75.5" y="438.6357">credit_impaired</text><text fill="#000000" font-family="sans-serif" font-size="14" lengthAdjust="spacing" textLength="46" x="75.5" y="454.9326">snp_st</text><text fill="#000000" font-family="sans-serif" font-size="14" lengthAdjust="spacing" textLength="57" x="75.5" y="471.2295">lei_code</text><text fill="#000000" font-family="sans-serif" font-size="14" lengthAdjust="spacing" textLength="122" x="75.5" y="487.5264">cqs_standardised</text><text fill="#000000" font-family="sans-serif" font-size="14" lengthAdjust="spacing" textLength="166" x="75.5" y="503.8232">national_reporting_code</text><text fill="#000000" font-family="sans-serif" font-size="14" lengthAdjust="spacing" textLength="12" x="75.5" y="520.1201">id</text><text fill="#000000" font-family="sans-serif" font-size="14" lengthAdjust="spacing" textLength="80" x="75.5" y="536.417">relationship</text><text fill="#000000" font-family="sans-serif" font-size="14" lengthAdjust="spacing" textLength="58" x="75.5" y="552.7139">turnover</text><text fill="#000000" font-family="sans-serif" font-size="14" lengthAdjust="spacing" textLength="120" x="75.5" y="569.0107">boe_sector_code</text><text fill="#000000" font-family="sans-serif" font-size="14" lengthAdjust="spacing" textLength="40" x="75.5" y="585.3076">count</text><text fill="#000000" font-family="sans-serif" font-size="14" lengthAdjust="spacing" textLength="131" x="75.5" y="601.6045">boe_industry_code</text><text fill="#000000" font-family="sans-serif" font-size="14" lengthAdjust="spacing" textLength="110" x="75.5" y="617.9014">...16 more fields</text></g><!--class batch--><g id="elem_batch"><rect codeLine="52" fill="#FFFFCC" height="32" id="batch" rx="2.5" ry="2.5" style="stroke:#181818;stroke-width:0.5;" width="71" x="6" y="12"/><ellipse cx="21" cy="28" fill="#D9B01C" rx="11" ry="11" style="stroke:#181818;stroke-width:1.0;"/><path d="M22.2031,28.1406 Q22.5625,28.2188 22.8281,28.5 Q23.1094,28.7656 23.5,29.5469 L25.7344,34 L23.0469,34 L21.5469,30.875 Q21.4844,30.7344 21.375,30.5 Q20.7188,29.1094 19.8281,29.1094 L19.0469,29.1094 L19.0469,34 L16.6094,34 L16.6094,21.6094 L20.1406,21.6094 Q22.5313,21.6094 23.5625,22.4531 Q24.6094,23.2969 24.6094,25.2031 Q24.6094,26.4844 23.9844,27.25 Q23.375,28 22.2031,28.1406 Z M19.0469,23.6719 L19.0469,27.0469 L20.2031,27.0469 Q21.2188,27.0469 21.6406,26.6563 Q22.0781,26.25 22.0781,25.3438 Q22.0781,24.4531 21.6406,24.0625 Q21.2188,23.6719 20.2031,23.6719 L19.0469,23.6719 Z " fill="#000000"/><text fill="#000000" font-family="sans-serif" font-size="14" lengthAdjust="spacing" textLength="39" x="35" y="32.8467">batch</text></g><!--class example_data--><g id="elem_example_data"><rect codeLine="60" fill="#FFFFCC" height="32" id="example_data" rx="2.5" ry="2.5" style="stroke:#181818;stroke-width:0.5;" width="127" x="95" y="12"/><ellipse cx="110" cy="28" fill="#D9B01C" rx="11" ry="11" style="stroke:#181818;stroke-width:1.0;"/><path d="M111.2031,28.1406 Q111.5625,28.2188 111.8281,28.5 Q112.1094,28.7656 112.5,29.5469 L114.7344,34 L112.0469,34 L110.5469,30.875 Q110.4844,30.7344 110.375,30.5 Q109.7188,29.1094 108.8281,29.1094 L108.0469,29.1094 L108.0469,34 L105.6094,34 L105.6094,21.6094 L109.1406,21.6094 Q111.5313,21.6094 112.5625,22.4531 Q113.6094,23.2969 113.6094,25.2031 Q113.6094,26.4844 112.9844,27.25 Q112.375,28 111.2031,28.1406 Z M108.0469,23.6719 L108.0469,27.0469 L109.2031,27.0469 Q110.2188,27.0469 110.6406,26.6563 Q111.0781,26.25 111.0781,25.3438 Q111.0781,24.4531 110.6406,24.0625 Q110.2188,23.6719 109.2031,23.6719 L108.0469,23.6719 Z " fill="#000000"/><text fill="#000000" font-family="sans-serif" font-size="14" lengthAdjust="spacing" textLength="95" x="124" y="32.8467">example_data</text></g><!--class batch__data1--><g id="elem_batch__data1"><rect fill="#FFFFCC" height="32" id="batch__data1" rx="2.5" ry="2.5" style="stroke:#181818;stroke-width:0.5;" width="124" x="240.5" y="12"/><ellipse cx="255.5" cy="28" fill="#ADD1B2" rx="11" ry="11" style="stroke:#181818;stroke-width:1.0;"/><path d="M258.4688,33.6406 Q257.8906,33.9375 257.25,34.0781 Q256.6094,34.2344 255.9063,34.2344 Q253.4063,34.2344 252.0781,32.5938 Q250.7656,30.9375 250.7656,27.8125 Q250.7656,24.6875 252.0781,23.0313 Q253.4063,21.375 255.9063,21.375 Q256.6094,21.375 257.25,21.5313 Q257.9063,21.6875 258.4688,21.9844 L258.4688,24.7031 Q257.8438,24.125 257.25,23.8594 Q256.6563,23.5781 256.0313,23.5781 Q254.6875,23.5781 254,24.6563 Q253.3125,25.7188 253.3125,27.8125 Q253.3125,29.9063 254,30.9844 Q254.6875,32.0469 256.0313,32.0469 Q256.6563,32.0469 257.25,31.7813 Q257.8438,31.5 258.4688,30.9219 L258.4688,33.6406 Z " fill="#000000"/><text fill="#000000" font-family="sans-serif" font-size="14" lengthAdjust="spacing" textLength="92" x="269.5" y="32.8467">batch__data1</text></g><polygon fill="#181818" points="69.4071,105.9234,70.0979,96.0988,67.7019,101.2232,62.5775,98.8272,69.4071,105.9234" style="stroke:#181818;stroke-width:1.0;"/><path d="M46.9862,44.1223 C51.9558,57.8206 57.8911,74.1805 67.3609,100.2831 " fill="none" style="stroke:#181818;stroke-width:1.0;"/><polygon fill="#181818" points="247.5715,152.0169,254.8934,145.4298,249.6101,147.4514,247.5885,142.1681,247.5715,152.0169" style="stroke:#181818;stroke-width:1.0;"/><path d="M295.7477,44.1223 C286.2672,65.3547 270.3272,101.0537 250.0178,146.5383 " fill="none" style="stroke:#181818;stroke-width:1.0;"/><polygon fill="#181818" points="158.5,79.894,162.5,70.894,158.5,74.894,154.5,70.894,158.5,79.894" style="stroke:#181818;stroke-width:1.0;"/><path d="M158.5,44.1223 C158.5,52.9639 158.5,59.2642 158.5,73.894 " fill="none" style="stroke:#181818;stroke-width:1.0;"/><!--SRC=[ZL8zRnin3DtlLwZeaWAD4Iy52WGUx7ReqY56Pu4dCJx1TvHAweeUWlxtakUpumGPeaLFVEJZbpuKXiC0heSfZzN9W1K8caQEYGem36xNWyWMml70UQIuotrczt7xQ__Zv_VzlkbIH8T3gPFJs2v7kJOz9kpLygpMlXAg32HA8TL6i3g20VKTS8yMKDM5Cc5Z9rWbxZ2gdOoultSt3v-_VTtUhNUVt6RZdfh6kGWLzKgaqjvI5NqHf20-v6XK-2q-SQken0Lq235eLLLnpHLwhwcmYZuvoT7F74zd1HL79lNI2XCTB6lBuiN2ZwtcxGr9OB0hZnmigax5hiTKGtVo22Dhv-6YIzhu6Sywi-AGSvmMzS0OK_LfA90KcZoL4zLZkkvGT94HE2QPtKWhpNF9M39RrPTcZ6RiPmVfaishZapv3xB2DgCN33hmY_eoA6CInL6k9hDQhTPVj6B6y-xj_5DcFiiEMz0HlBc_jxpnBmobHw-RXNS4dSHlRpVFN-LayxF2-XNrGlqbjGZ-1m00]--></g></svg>