<?xml version="1.0" encoding="us-ascii" standalone="no"?><svg xmlns="http://www.w3.org/2000/svg" xmlns:xlink="http://www.w3.org/1999/xlink" contentStyleType="text/css" height="632px" preserveAspectRatio="none" style="width:194px;height:632px;" version="1.1" viewBox="0 0 194 632" width="194px" zoomAndPan="magnify"><defs/><g><!--class customer_nace_code--><g id="elem_customer_nace_code"><rect codeLine="13" fill="#FFFFCC" height="545.2031" id="customer_nace_code" rx="2.5" ry="2.5" style="stroke:#181818;stroke-width:0.5;" width="181" x="6" y="80"/><ellipse cx="21" cy="96" fill="#86B0BE" rx="11" ry="11" style="stroke:#181818;stroke-width:1.0;"/><path d="M25.1094,102 L17.3906,102 L17.3906,89.6094 L25.1094,89.6094 L25.1094,91.7656 L19.8438,91.7656 L19.8438,94.4375 L24.6094,94.4375 L24.6094,96.5938 L19.8438,96.5938 L19.8438,99.8438 L25.1094,99.8438 L25.1094,102 Z " fill="#000000"/><text fill="#000000" font-family="sans-serif" font-size="14" lengthAdjust="spacing" textLength="149" x="35" y="100.8467">customer_nace_code</text><line style="stroke:#181818;stroke-width:0.5;" x1="7" x2="186" y1="112" y2="112"/><text fill="#000000" font-family="sans-serif" font-size="14" lengthAdjust="spacing" textLength="53" x="12" y="128.9951">A.01.10</text><text fill="#000000" font-family="sans-serif" font-size="14" lengthAdjust="spacing" textLength="53" x="12" y="145.292">A.01.11</text><text fill="#000000" font-family="sans-serif" font-size="14" lengthAdjust="spacing" textLength="53" x="12" y="161.5889">A.01.12</text><text fill="#000000" font-family="sans-serif" font-size="14" lengthAdjust="spacing" textLength="53" x="12" y="177.8857">A.01.13</text><text fill="#000000" font-family="sans-serif" font-size="14" lengthAdjust="spacing" textLength="53" x="12" y="194.1826">A.01.14</text><text fill="#000000" font-family="sans-serif" font-size="14" lengthAdjust="spacing" textLength="53" x="12" y="210.4795">A.01.15</text><text fill="#000000" font-family="sans-serif" font-size="14" lengthAdjust="spacing" textLength="53" x="12" y="226.7764">A.01.16</text><text fill="#000000" font-family="sans-serif" font-size="14" lengthAdjust="spacing" textLength="53" x="12" y="243.0732">A.01.19</text><text fill="#000000" font-family="sans-serif" font-size="14" lengthAdjust="spacing" textLength="53" x="12" y="259.3701">A.01.20</text><text fill="#000000" font-family="sans-serif" font-size="14" lengthAdjust="spacing" textLength="53" x="12" y="275.667">A.01.21</text><text fill="#000000" font-family="sans-serif" font-size="14" lengthAdjust="spacing" textLength="53" x="12" y="291.9639">A.01.22</text><text fill="#000000" font-family="sans-serif" font-size="14" lengthAdjust="spacing" textLength="53" x="12" y="308.2607">A.01.23</text><text fill="#000000" font-family="sans-serif" font-size="14" lengthAdjust="spacing" textLength="53" x="12" y="324.5576">A.01.24</text><text fill="#000000" font-family="sans-serif" font-size="14" lengthAdjust="spacing" textLength="53" x="12" y="340.8545">A.01.25</text><text fill="#000000" font-family="sans-serif" font-size="14" lengthAdjust="spacing" textLength="53" x="12" y="357.1514">A.01.26</text><text fill="#000000" font-family="sans-serif" font-size="14" lengthAdjust="spacing" textLength="53" x="12" y="373.4482">A.01.27</text><text fill="#000000" font-family="sans-serif" font-size="14" lengthAdjust="spacing" textLength="53" x="12" y="389.7451">A.01.28</text><text fill="#000000" font-family="sans-serif" font-size="14" lengthAdjust="spacing" textLength="53" x="12" y="406.042">A.01.29</text><text fill="#000000" font-family="sans-serif" font-size="14" lengthAdjust="spacing" textLength="53" x="12" y="422.3389">A.01.30</text><text fill="#000000" font-family="sans-serif" font-size="14" lengthAdjust="spacing" textLength="53" x="12" y="438.6357">A.01.40</text><text fill="#000000" font-family="sans-serif" font-size="14" lengthAdjust="spacing" textLength="53" x="12" y="454.9326">A.01.41</text><text fill="#000000" font-family="sans-serif" font-size="14" lengthAdjust="spacing" textLength="53" x="12" y="471.2295">A.01.42</text><text fill="#000000" font-family="sans-serif" font-size="14" lengthAdjust="spacing" textLength="53" x="12" y="487.5264">A.01.43</text><text fill="#000000" font-family="sans-serif" font-size="14" lengthAdjust="spacing" textLength="53" x="12" y="503.8232">A.01.44</text><text fill="#000000" font-family="sans-serif" font-size="14" lengthAdjust="spacing" textLength="53" x="12" y="520.1201">A.01.45</text><text fill="#000000" font-family="sans-serif" font-size="14" lengthAdjust="spacing" textLength="53" x="12" y="536.417">A.01.46</text><text fill="#000000" font-family="sans-serif" font-size="14" lengthAdjust="spacing" textLength="53" x="12" y="552.7139">A.01.47</text><text fill="#000000" font-family="sans-serif" font-size="14" lengthAdjust="spacing" textLength="53" x="12" y="569.0107">A.01.49</text><text fill="#000000" font-family="sans-serif" font-size="14" lengthAdjust="spacing" textLength="53" x="12" y="585.3076">A.01.50</text><text fill="#000000" font-family="sans-serif" font-size="14" lengthAdjust="spacing" textLength="53" x="12" y="601.6045">A.01.60</text><text fill="#000000" font-family="sans-serif" font-size="14" lengthAdjust="spacing" textLength="119" x="12" y="617.9014">...718 more fields</text></g><!--class customer--><g id="elem_customer"><rect codeLine="52" fill="#FFFFCC" height="32" id="customer" rx="2.5" ry="2.5" style="stroke:#181818;stroke-width:0.5;" width="98" x="47.5" y="12"/><ellipse cx="62.5" cy="28" fill="#D9B01C" rx="11" ry="11" style="stroke:#181818;stroke-width:1.0;"/><path d="M63.7031,28.1406 Q64.0625,28.2188 64.3281,28.5 Q64.6094,28.7656 65,29.5469 L67.2344,34 L64.5469,34 L63.0469,30.875 Q62.9844,30.7344 62.875,30.5 Q62.2188,29.1094 61.3281,29.1094 L60.5469,29.1094 L60.5469,34 L58.1094,34 L58.1094,21.6094 L61.6406,21.6094 Q64.0313,21.6094 65.0625,22.4531 Q66.1094,23.2969 66.1094,25.2031 Q66.1094,26.4844 65.4844,27.25 Q64.875,28 63.7031,28.1406 Z M60.5469,23.6719 L60.5469,27.0469 L61.7031,27.0469 Q62.7188,27.0469 63.1406,26.6563 Q63.5781,26.25 63.5781,25.3438 Q63.5781,24.4531 63.1406,24.0625 Q62.7188,23.6719 61.7031,23.6719 L60.5469,23.6719 Z " fill="#000000"/><text fill="#000000" font-family="sans-serif" font-size="14" lengthAdjust="spacing" textLength="66" x="76.5" y="32.8467">customer</text></g><polygon fill="#181818" points="96.5,79.894,100.5,70.894,96.5,74.894,92.5,70.894,96.5,79.894" style="stroke:#181818;stroke-width:1.0;"/><path d="M96.5,44.1223 C96.5,52.9639 96.5,59.2642 96.5,73.894 " fill="none" style="stroke:#181818;stroke-width:1.0;"/><!--SRC=[RP6nRi8m48PtFyLLNLe9eiIO42I4rD0CNJeqwepSn0L4R4Us6L3LTw-3cfyAzQOlzjt_HUUxticTbjJ9ipq5ybe5QIHZ_dWmlNHIqwQJtfUoEUwSFPbsOplhwBvyhrzUgxfc-qEhIEa-d2dExcth_nvz7bGNJwvf7pT1mKdZuvKoWNaLo4YjudUZQZKCXDXYh55ig6Ru4sfEFbYjtDR4hcrZeskreeTgKkHbMbQFj5xJ5sD4JqcQ9LaAoa0SD0C9q1oKWvOZSUHnv77aSUHnv77aSUJn1QW0mJ63Grm9DW6RW4t09c0Ji0dO11np9ES39Kcoo0hIrgdnpORwZbUNkjdzPUDla-TbcMQRSUCt0sFhTBh-vyr- -zWF]--></g></svg>