<?xml version="1.0" encoding="us-ascii" standalone="no"?><svg xmlns="http://www.w3.org/2000/svg" xmlns:xlink="http://www.w3.org/1999/xlink" contentStyleType="text/css" height="567px" preserveAspectRatio="none" style="width:299px;height:567px;" version="1.1" viewBox="0 0 299 567" width="299px" zoomAndPan="magnify"><defs/><g><!--class asset_class--><g id="elem_asset_class"><rect codeLine="13" fill="#FFFFCC" height="480.0156" id="asset_class" rx="2.5" ry="2.5" style="stroke:#181818;stroke-width:0.5;" width="125" x="68" y="80"/><ellipse cx="88.85" cy="96" fill="#86B0BE" rx="11" ry="11" style="stroke:#181818;stroke-width:1.0;"/><path d="M92.9594,102 L85.2406,102 L85.2406,89.6094 L92.9594,89.6094 L92.9594,91.7656 L87.6938,91.7656 L87.6938,94.4375 L92.4594,94.4375 L92.4594,96.5938 L87.6938,96.5938 L87.6938,99.8438 L92.9594,99.8438 L92.9594,102 Z " fill="#000000"/><text fill="#000000" font-family="sans-serif" font-size="14" lengthAdjust="spacing" textLength="80" x="104.15" y="100.8467">asset_class</text><line style="stroke:#181818;stroke-width:0.5;" x1="69" x2="192" y1="112" y2="112"/><text fill="#000000" font-family="sans-serif" font-size="14" lengthAdjust="spacing" textLength="25" x="74" y="128.9951">agri</text><text fill="#000000" font-family="sans-serif" font-size="14" lengthAdjust="spacing" textLength="17" x="74" y="145.292">co</text><text fill="#000000" font-family="sans-serif" font-size="14" lengthAdjust="spacing" textLength="61" x="74" y="161.5889">co_other</text><text fill="#000000" font-family="sans-serif" font-size="14" lengthAdjust="spacing" textLength="28" x="74" y="177.8857">coal</text><text fill="#000000" font-family="sans-serif" font-size="14" lengthAdjust="spacing" textLength="43" x="74" y="194.1826">coffee</text><text fill="#000000" font-family="sans-serif" font-size="14" lengthAdjust="spacing" textLength="31" x="74" y="210.4795">corn</text><text fill="#000000" font-family="sans-serif" font-size="14" lengthAdjust="spacing" textLength="13" x="74" y="226.7764">cr</text><text fill="#000000" font-family="sans-serif" font-size="14" lengthAdjust="spacing" textLength="57" x="74" y="243.0732">cr_index</text><text fill="#000000" font-family="sans-serif" font-size="14" lengthAdjust="spacing" textLength="61" x="74" y="259.3701">cr_single</text><text fill="#000000" font-family="sans-serif" font-size="14" lengthAdjust="spacing" textLength="65" x="74" y="275.667">electricity</text><text fill="#000000" font-family="sans-serif" font-size="14" lengthAdjust="spacing" textLength="48" x="74" y="291.9639">energy</text><text fill="#000000" font-family="sans-serif" font-size="14" lengthAdjust="spacing" textLength="18" x="74" y="308.2607">eq</text><text fill="#000000" font-family="sans-serif" font-size="14" lengthAdjust="spacing" textLength="62" x="74" y="324.5576">eq_index</text><text fill="#000000" font-family="sans-serif" font-size="14" lengthAdjust="spacing" textLength="66" x="74" y="340.8545">eq_single</text><text fill="#000000" font-family="sans-serif" font-size="14" lengthAdjust="spacing" textLength="11" x="74" y="357.1514">fx</text><text fill="#000000" font-family="sans-serif" font-size="14" lengthAdjust="spacing" textLength="25" x="74" y="373.4482">gas</text><text fill="#000000" font-family="sans-serif" font-size="14" lengthAdjust="spacing" textLength="30" x="74" y="389.7451">gold</text><text fill="#000000" font-family="sans-serif" font-size="14" lengthAdjust="spacing" textLength="53" x="74" y="406.042">inflation</text><text fill="#000000" font-family="sans-serif" font-size="14" lengthAdjust="spacing" textLength="8" x="74" y="422.3389">ir</text><text fill="#000000" font-family="sans-serif" font-size="14" lengthAdjust="spacing" textLength="46" x="74" y="438.6357">metals</text><text fill="#000000" font-family="sans-serif" font-size="14" lengthAdjust="spacing" textLength="15" x="74" y="454.9326">oil</text><text fill="#000000" font-family="sans-serif" font-size="14" lengthAdjust="spacing" textLength="37" x="74" y="471.2295">other</text><text fill="#000000" font-family="sans-serif" font-size="14" lengthAdjust="spacing" textLength="65" x="74" y="487.5264">palladium</text><text fill="#000000" font-family="sans-serif" font-size="14" lengthAdjust="spacing" textLength="59" x="74" y="503.8232">platinum</text><text fill="#000000" font-family="sans-serif" font-size="14" lengthAdjust="spacing" textLength="113" x="74" y="520.1201">precious_metals</text><text fill="#000000" font-family="sans-serif" font-size="14" lengthAdjust="spacing" textLength="35" x="74" y="536.417">silver</text><text fill="#000000" font-family="sans-serif" font-size="14" lengthAdjust="spacing" textLength="39" x="74" y="552.7139">sugar</text></g><!--class derivative--><g id="elem_derivative"><rect codeLine="47" fill="#FFFFCC" height="32" id="derivative" rx="2.5" ry="2.5" style="stroke:#181818;stroke-width:0.5;" width="97" x="6" y="12"/><ellipse cx="21" cy="28" fill="#D9B01C" rx="11" ry="11" style="stroke:#181818;stroke-width:1.0;"/><path d="M22.2031,28.1406 Q22.5625,28.2188 22.8281,28.5 Q23.1094,28.7656 23.5,29.5469 L25.7344,34 L23.0469,34 L21.5469,30.875 Q21.4844,30.7344 21.375,30.5 Q20.7188,29.1094 19.8281,29.1094 L19.0469,29.1094 L19.0469,34 L16.6094,34 L16.6094,21.6094 L20.1406,21.6094 Q22.5313,21.6094 23.5625,22.4531 Q24.6094,23.2969 24.6094,25.2031 Q24.6094,26.4844 23.9844,27.25 Q23.375,28 22.2031,28.1406 Z M19.0469,23.6719 L19.0469,27.0469 L20.2031,27.0469 Q21.2188,27.0469 21.6406,26.6563 Q22.0781,26.25 22.0781,25.3438 Q22.0781,24.4531 21.6406,24.0625 Q21.2188,23.6719 20.2031,23.6719 L19.0469,23.6719 Z " fill="#000000"/><text fill="#000000" font-family="sans-serif" font-size="14" lengthAdjust="spacing" textLength="65" x="35" y="32.8467">derivative</text></g><!--class derivative_cash_flow--><g id="elem_derivative_cash_flow"><rect codeLine="55" fill="#FFFFCC" height="32" id="derivative_cash_flow" rx="2.5" ry="2.5" style="stroke:#181818;stroke-width:0.5;" width="171" x="121" y="12"/><ellipse cx="136" cy="28" fill="#D9B01C" rx="11" ry="11" style="stroke:#181818;stroke-width:1.0;"/><path d="M137.2031,28.1406 Q137.5625,28.2188 137.8281,28.5 Q138.1094,28.7656 138.5,29.5469 L140.7344,34 L138.0469,34 L136.5469,30.875 Q136.4844,30.7344 136.375,30.5 Q135.7188,29.1094 134.8281,29.1094 L134.0469,29.1094 L134.0469,34 L131.6094,34 L131.6094,21.6094 L135.1406,21.6094 Q137.5313,21.6094 138.5625,22.4531 Q139.6094,23.2969 139.6094,25.2031 Q139.6094,26.4844 138.9844,27.25 Q138.375,28 137.2031,28.1406 Z M134.0469,23.6719 L134.0469,27.0469 L135.2031,27.0469 Q136.2188,27.0469 136.6406,26.6563 Q137.0781,26.25 137.0781,25.3438 Q137.0781,24.4531 136.6406,24.0625 Q136.2188,23.6719 135.2031,23.6719 L134.0469,23.6719 Z " fill="#000000"/><text fill="#000000" font-family="sans-serif" font-size="14" lengthAdjust="spacing" textLength="139" x="150" y="32.8467">derivative_cash_flow</text></g><polygon fill="#181818" points="67.9686,80.3934,69.5564,70.6734,66.7011,75.5568,61.8177,72.7015,67.9686,80.3934" style="stroke:#181818;stroke-width:1.0;"/><path d="M58.4791,44.1833 C60.8308,53.1571 62.5831,59.8434 66.4476,74.5894 " fill="none" style="stroke:#181818;stroke-width:1.0;"/><polygon fill="#181818" points="193.0314,80.3934,199.1823,72.7015,194.2989,75.5568,191.4436,70.6734,193.0314,80.3934" style="stroke:#181818;stroke-width:1.0;"/><path d="M202.5209,44.1833 C200.1692,53.1571 198.4169,59.8434 194.5524,74.5894 " fill="none" style="stroke:#181818;stroke-width:1.0;"/><!--SRC=[ZL5DImCn4BtdLqIyABHGBw9GUjZQWnSFBfwNCPdD3iqcQvAj5l6_cqa_B4N4G6RUJERD32yNGm3JWxImzMEIiSS43eI8Qt831EZbqaAC5QYr2NvqUkcj3_AoUgaVdrPrBJhIAB4VqbPcRkTrF4srX3PdVhgzdZLA0LpCJ-YIY9YaWnvphB169gHSuhn3mKVn9Z9VJCqEp-VoQZMvkwrcrUfQBXRoKmWfmGJAJlbY6fyw30M2BQvj4Gi8Zbrv2mqvZHyx6CaPooLeKQL0YjAM8uV15F1Mp96IuP7ISi90PEkjpevSQo6Hvs74mrXZomMUUA73VWDO2vh6dZ4pt0u6LEJ7s1nfaUocCE9e8B0oNpaePw-Hna2Rt663HQBdoSDzDRjP7YJwcz8eY5tJMl_-3_B9fEbqSVevujUEvqNxDjy0]--></g></svg>