<?xml version="1.0" encoding="us-ascii" standalone="no"?><svg xmlns="http://www.w3.org/2000/svg" xmlns:xlink="http://www.w3.org/1999/xlink" contentStyleType="text/css" height="632px" preserveAspectRatio="none" style="width:242px;height:632px;" version="1.1" viewBox="0 0 242 632" width="242px" zoomAndPan="magnify"><defs/><g><!--class account_guarantee_scheme--><g id="elem_account_guarantee_scheme"><rect codeLine="13" fill="#FFFFCC" height="545.2031" id="account_guarantee_scheme" rx="2.5" ry="2.5" style="stroke:#181818;stroke-width:0.5;" width="229" x="6" y="80"/><ellipse cx="21" cy="96" fill="#86B0BE" rx="11" ry="11" style="stroke:#181818;stroke-width:1.0;"/><path d="M25.1094,102 L17.3906,102 L17.3906,89.6094 L25.1094,89.6094 L25.1094,91.7656 L19.8438,91.7656 L19.8438,94.4375 L24.6094,94.4375 L24.6094,96.5938 L19.8438,96.5938 L19.8438,99.8438 L25.1094,99.8438 L25.1094,102 Z " fill="#000000"/><text fill="#000000" font-family="sans-serif" font-size="14" lengthAdjust="spacing" textLength="197" x="35" y="100.8467">account_guarantee_scheme</text><line style="stroke:#181818;stroke-width:0.5;" x1="7" x2="234" y1="112" y2="112"/><text fill="#000000" font-family="sans-serif" font-size="14" lengthAdjust="spacing" textLength="38" x="12" y="128.9951">be_pf</text><text fill="#000000" font-family="sans-serif" font-size="14" lengthAdjust="spacing" textLength="41" x="12" y="145.292">bg_dif</text><text fill="#000000" font-family="sans-serif" font-size="14" lengthAdjust="spacing" textLength="51" x="12" y="161.5889">ca_cdic</text><text fill="#000000" font-family="sans-serif" font-size="14" lengthAdjust="spacing" textLength="48" x="12" y="177.8857">cy_dps</text><text fill="#000000" font-family="sans-serif" font-size="14" lengthAdjust="spacing" textLength="39" x="12" y="194.1826">cz_dif</text><text fill="#000000" font-family="sans-serif" font-size="14" lengthAdjust="spacing" textLength="52" x="12" y="210.4795">de_edb</text><text fill="#000000" font-family="sans-serif" font-size="14" lengthAdjust="spacing" textLength="52" x="12" y="226.7764">de_edo</text><text fill="#000000" font-family="sans-serif" font-size="14" lengthAdjust="spacing" textLength="54" x="12" y="243.0732">de_edw</text><text fill="#000000" font-family="sans-serif" font-size="14" lengthAdjust="spacing" textLength="49" x="12" y="259.3701">dk_gdfi</text><text fill="#000000" font-family="sans-serif" font-size="14" lengthAdjust="spacing" textLength="51" x="12" y="275.667">ee_dgs</text><text fill="#000000" font-family="sans-serif" font-size="14" lengthAdjust="spacing" textLength="46" x="12" y="291.9639">es_fgd</text><text fill="#000000" font-family="sans-serif" font-size="14" lengthAdjust="spacing" textLength="36" x="12" y="308.2607">fi_dgf</text><text fill="#000000" font-family="sans-serif" font-size="14" lengthAdjust="spacing" textLength="38" x="12" y="324.5576">fr_fdg</text><text fill="#000000" font-family="sans-serif" font-size="14" lengthAdjust="spacing" textLength="53" x="12" y="340.8545">gb_fscs</text><text fill="#000000" font-family="sans-serif" font-size="14" lengthAdjust="spacing" textLength="47" x="12" y="357.1514">gr_dgs</text><text fill="#000000" font-family="sans-serif" font-size="14" lengthAdjust="spacing" textLength="50" x="12" y="373.4482">hk_dps</text><text fill="#000000" font-family="sans-serif" font-size="14" lengthAdjust="spacing" textLength="33" x="12" y="389.7451">hr_di</text><text fill="#000000" font-family="sans-serif" font-size="14" lengthAdjust="spacing" textLength="50" x="12" y="406.042">hu_ndif</text><text fill="#000000" font-family="sans-serif" font-size="14" lengthAdjust="spacing" textLength="45" x="12" y="422.3389">ie_dgs</text><text fill="#000000" font-family="sans-serif" font-size="14" lengthAdjust="spacing" textLength="36" x="12" y="438.6357">it_fitd</text><text fill="#000000" font-family="sans-serif" font-size="14" lengthAdjust="spacing" textLength="25" x="12" y="454.9326">lt_vi</text><text fill="#000000" font-family="sans-serif" font-size="14" lengthAdjust="spacing" textLength="44" x="12" y="471.2295">lu_fgdl</text><text fill="#000000" font-family="sans-serif" font-size="14" lengthAdjust="spacing" textLength="39" x="12" y="487.5264">lv_dgf</text><text fill="#000000" font-family="sans-serif" font-size="14" lengthAdjust="spacing" textLength="50" x="12" y="503.8232">mt_dcs</text><text fill="#000000" font-family="sans-serif" font-size="14" lengthAdjust="spacing" textLength="45" x="12" y="520.1201">nl_dgs</text><text fill="#000000" font-family="sans-serif" font-size="14" lengthAdjust="spacing" textLength="41" x="12" y="536.417">pl_bfg</text><text fill="#000000" font-family="sans-serif" font-size="14" lengthAdjust="spacing" textLength="43" x="12" y="552.7139">pt_fgd</text><text fill="#000000" font-family="sans-serif" font-size="14" lengthAdjust="spacing" textLength="52" x="12" y="569.0107">ro_fgdb</text><text fill="#000000" font-family="sans-serif" font-size="14" lengthAdjust="spacing" textLength="51" x="12" y="585.3076">se_ndo</text><text fill="#000000" font-family="sans-serif" font-size="14" lengthAdjust="spacing" textLength="44" x="12" y="601.6045">si_dgs</text><text fill="#000000" font-family="sans-serif" font-size="14" lengthAdjust="spacing" textLength="101" x="12" y="617.9014">...2 more fields</text></g><!--class account--><g id="elem_account"><rect codeLine="52" fill="#FFFFCC" height="32" id="account" rx="2.5" ry="2.5" style="stroke:#181818;stroke-width:0.5;" width="88" x="76.5" y="12"/><ellipse cx="91.5" cy="28" fill="#D9B01C" rx="11" ry="11" style="stroke:#181818;stroke-width:1.0;"/><path d="M92.7031,28.1406 Q93.0625,28.2188 93.3281,28.5 Q93.6094,28.7656 94,29.5469 L96.2344,34 L93.5469,34 L92.0469,30.875 Q91.9844,30.7344 91.875,30.5 Q91.2188,29.1094 90.3281,29.1094 L89.5469,29.1094 L89.5469,34 L87.1094,34 L87.1094,21.6094 L90.6406,21.6094 Q93.0313,21.6094 94.0625,22.4531 Q95.1094,23.2969 95.1094,25.2031 Q95.1094,26.4844 94.4844,27.25 Q93.875,28 92.7031,28.1406 Z M89.5469,23.6719 L89.5469,27.0469 L90.7031,27.0469 Q91.7188,27.0469 92.1406,26.6563 Q92.5781,26.25 92.5781,25.3438 Q92.5781,24.4531 92.1406,24.0625 Q91.7188,23.6719 90.7031,23.6719 L89.5469,23.6719 Z " fill="#000000"/><text fill="#000000" font-family="sans-serif" font-size="14" lengthAdjust="spacing" textLength="56" x="105.5" y="32.8467">account</text></g><polygon fill="#181818" points="120.5,79.894,124.5,70.894,120.5,74.894,116.5,70.894,120.5,79.894" style="stroke:#181818;stroke-width:1.0;"/><path d="M120.5,44.1223 C120.5,52.9639 120.5,59.2642 120.5,73.894 " fill="none" style="stroke:#181818;stroke-width:1.0;"/><!--SRC=[TL4xJyCm4DxzAunOG6ghme10gZgaT61X86As7FliMF4ZifsYWlZl-8eZA1AtvClTzx3F5sFasd5g-J5CcIO7cNjEI1gC7tdaZkuiJwdXOj0nJ5xkWWsHNZQlxTFplcr9RoHGS6C-qgBjWqo_Myg0BPqVj-wFKOxSfp82dqc2J3rtKFu5j822N2W-U21O0az2kH15dfcUojnd09P43mxePaElzelxksRTxA_fTai_2A6q0pOg_6ec3GB1cP1683eoEIO4xtKcWO7iPX1cy8PWO5egKr19b1fba9ZIiW1bIWVrAZ8bTG6wOoe99EbOsVrGq_hIGPz-OluxrioE9ZDbCbhQp0v8iXDcM4I76k8oaoThRwjijAnJ63lcUg8O4E1D4fGKl4aobRrQhMwf2n7cry7wB8DJdM_vjDINnUD3ixxPpKizvy_CvNBxxzjKCla2]--></g></svg>