<?xml version="1.0" encoding="us-ascii" standalone="no"?><svg xmlns="http://www.w3.org/2000/svg" xmlns:xlink="http://www.w3.org/1999/xlink" contentStyleType="text/css" height="518px" preserveAspectRatio="none" style="width:371px;height:518px;" version="1.1" viewBox="0 0 371 518" width="371px" zoomAndPan="magnify"><defs/><g><!--class collateral--><g id="elem_collateral"><rect codeLine="13" fill="#FFFFCC" height="431.125" id="collateral" rx="2.5" ry="2.5" style="stroke:#181818;stroke-width:0.5;" width="168" x="74.5" y="80"/><ellipse cx="123.75" cy="96" fill="#D9B01C" rx="11" ry="11" style="stroke:#181818;stroke-width:1.0;"/><path d="M124.9531,96.1406 Q125.3125,96.2188 125.5781,96.5 Q125.8594,96.7656 126.25,97.5469 L128.4844,102 L125.7969,102 L124.2969,98.875 Q124.2344,98.7344 124.125,98.5 Q123.4688,97.1094 122.5781,97.1094 L121.7969,97.1094 L121.7969,102 L119.3594,102 L119.3594,89.6094 L122.8906,89.6094 Q125.2813,89.6094 126.3125,90.4531 Q127.3594,91.2969 127.3594,93.2031 Q127.3594,94.4844 126.7344,95.25 Q126.125,96 124.9531,96.1406 Z M121.7969,91.6719 L121.7969,95.0469 L122.9531,95.0469 Q123.9688,95.0469 124.3906,94.6563 Q124.8281,94.25 124.8281,93.3438 Q124.8281,92.4531 124.3906,92.0625 Q123.9688,91.6719 122.9531,91.6719 L121.7969,91.6719 Z " fill="#000000"/><text fill="#000000" font-family="sans-serif" font-size="14" lengthAdjust="spacing" textLength="61" x="144.25" y="100.8467">collateral</text><line style="stroke:#181818;stroke-width:0.5;" x1="75.5" x2="241.5" y1="112" y2="112"/><text fill="#000000" font-family="sans-serif" font-size="14" lengthAdjust="spacing" textLength="31" x="80.5" y="128.9951">date</text><text fill="#000000" font-family="sans-serif" font-size="14" lengthAdjust="spacing" textLength="65" x="80.5" y="145.292">end_date</text><text fill="#000000" font-family="sans-serif" font-size="14" lengthAdjust="spacing" textLength="104" x="80.5" y="161.5889">street_address</text><text fill="#000000" font-family="sans-serif" font-size="14" lengthAdjust="spacing" textLength="83" x="80.5" y="177.8857">account_ids</text><text fill="#000000" font-family="sans-serif" font-size="14" lengthAdjust="spacing" textLength="48" x="80.5" y="194.1826">charge</text><text fill="#000000" font-family="sans-serif" font-size="14" lengthAdjust="spacing" textLength="69" x="80.5" y="210.4795">orig_value</text><text fill="#000000" font-family="sans-serif" font-size="14" lengthAdjust="spacing" textLength="23" x="80.5" y="226.7764">city</text><text fill="#000000" font-family="sans-serif" font-size="14" lengthAdjust="spacing" textLength="133" x="80.5" y="243.0732">encumbrance_type</text><text fill="#000000" font-family="sans-serif" font-size="14" lengthAdjust="spacing" textLength="111" x="80.5" y="259.3701">regulatory_book</text><text fill="#000000" font-family="sans-serif" font-size="14" lengthAdjust="spacing" textLength="48" x="80.5" y="275.667">source</text><text fill="#000000" font-family="sans-serif" font-size="14" lengthAdjust="spacing" textLength="69" x="80.5" y="291.9639">version_id</text><text fill="#000000" font-family="sans-serif" font-size="14" lengthAdjust="spacing" textLength="30" x="80.5" y="308.2607">type</text><text fill="#000000" font-family="sans-serif" font-size="14" lengthAdjust="spacing" textLength="102" x="80.5" y="324.5576">currency_code</text><text fill="#000000" font-family="sans-serif" font-size="14" lengthAdjust="spacing" textLength="94" x="80.5" y="340.8545">country_code</text><text fill="#000000" font-family="sans-serif" font-size="14" lengthAdjust="spacing" textLength="64" x="80.5" y="357.1514">vol_adj_fx</text><text fill="#000000" font-family="sans-serif" font-size="14" lengthAdjust="spacing" textLength="56" x="80.5" y="373.4482">loan_ids</text><text fill="#000000" font-family="sans-serif" font-size="14" lengthAdjust="spacing" textLength="12" x="80.5" y="389.7451">id</text><text fill="#000000" font-family="sans-serif" font-size="14" lengthAdjust="spacing" textLength="156" x="80.5" y="406.042">encumbrance_amount</text><text fill="#000000" font-family="sans-serif" font-size="14" lengthAdjust="spacing" textLength="84" x="80.5" y="422.3389">postal_code</text><text fill="#000000" font-family="sans-serif" font-size="14" lengthAdjust="spacing" textLength="46" x="80.5" y="438.6357">vol_adj</text><text fill="#000000" font-family="sans-serif" font-size="14" lengthAdjust="spacing" textLength="36" x="80.5" y="454.9326">value</text><text fill="#000000" font-family="sans-serif" font-size="14" lengthAdjust="spacing" textLength="73" x="80.5" y="471.2295">security_id</text><text fill="#000000" font-family="sans-serif" font-size="14" lengthAdjust="spacing" textLength="69" x="80.5" y="487.5264">start_date</text><text fill="#000000" font-family="sans-serif" font-size="14" lengthAdjust="spacing" textLength="74" x="80.5" y="503.8232">value_date</text></g><!--class batch--><g id="elem_batch"><rect codeLine="44" fill="#FFFFCC" height="32" id="batch" rx="2.5" ry="2.5" style="stroke:#181818;stroke-width:0.5;" width="71" x="6" y="12"/><ellipse cx="21" cy="28" fill="#D9B01C" rx="11" ry="11" style="stroke:#181818;stroke-width:1.0;"/><path d="M22.2031,28.1406 Q22.5625,28.2188 22.8281,28.5 Q23.1094,28.7656 23.5,29.5469 L25.7344,34 L23.0469,34 L21.5469,30.875 Q21.4844,30.7344 21.375,30.5 Q20.7188,29.1094 19.8281,29.1094 L19.0469,29.1094 L19.0469,34 L16.6094,34 L16.6094,21.6094 L20.1406,21.6094 Q22.5313,21.6094 23.5625,22.4531 Q24.6094,23.2969 24.6094,25.2031 Q24.6094,26.4844 23.9844,27.25 Q23.375,28 22.2031,28.1406 Z M19.0469,23.6719 L19.0469,27.0469 L20.2031,27.0469 Q21.2188,27.0469 21.6406,26.6563 Q22.0781,26.25 22.0781,25.3438 Q22.0781,24.4531 21.6406,24.0625 Q21.2188,23.6719 20.2031,23.6719 L19.0469,23.6719 Z " fill="#000000"/><text fill="#000000" font-family="sans-serif" font-size="14" lengthAdjust="spacing" textLength="39" x="35" y="32.8467">batch</text></g><!--class example_data--><g id="elem_example_data"><rect codeLine="52" fill="#FFFFCC" height="32" id="example_data" rx="2.5" ry="2.5" style="stroke:#181818;stroke-width:0.5;" width="127" x="95" y="12"/><ellipse cx="110" cy="28" fill="#D9B01C" rx="11" ry="11" style="stroke:#181818;stroke-width:1.0;"/><path d="M111.2031,28.1406 Q111.5625,28.2188 111.8281,28.5 Q112.1094,28.7656 112.5,29.5469 L114.7344,34 L112.0469,34 L110.5469,30.875 Q110.4844,30.7344 110.375,30.5 Q109.7188,29.1094 108.8281,29.1094 L108.0469,29.1094 L108.0469,34 L105.6094,34 L105.6094,21.6094 L109.1406,21.6094 Q111.5313,21.6094 112.5625,22.4531 Q113.6094,23.2969 113.6094,25.2031 Q113.6094,26.4844 112.9844,27.25 Q112.375,28 111.2031,28.1406 Z M108.0469,23.6719 L108.0469,27.0469 L109.2031,27.0469 Q110.2188,27.0469 110.6406,26.6563 Q111.0781,26.25 111.0781,25.3438 Q111.0781,24.4531 110.6406,24.0625 Q110.2188,23.6719 109.2031,23.6719 L108.0469,23.6719 Z " fill="#000000"/><text fill="#000000" font-family="sans-serif" font-size="14" lengthAdjust="spacing" textLength="95" x="124" y="32.8467">example_data</text></g><!--class batch__data1--><g id="elem_batch__data1"><rect fill="#FFFFCC" height="32" id="batch__data1" rx="2.5" ry="2.5" style="stroke:#181818;stroke-width:0.5;" width="124" x="240.5" y="12"/><ellipse cx="255.5" cy="28" fill="#ADD1B2" rx="11" ry="11" style="stroke:#181818;stroke-width:1.0;"/><path d="M258.4688,33.6406 Q257.8906,33.9375 257.25,34.0781 Q256.6094,34.2344 255.9063,34.2344 Q253.4063,34.2344 252.0781,32.5938 Q250.7656,30.9375 250.7656,27.8125 Q250.7656,24.6875 252.0781,23.0313 Q253.4063,21.375 255.9063,21.375 Q256.6094,21.375 257.25,21.5313 Q257.9063,21.6875 258.4688,21.9844 L258.4688,24.7031 Q257.8438,24.125 257.25,23.8594 Q256.6563,23.5781 256.0313,23.5781 Q254.6875,23.5781 254,24.6563 Q253.3125,25.7188 253.3125,27.8125 Q253.3125,29.9063 254,30.9844 Q254.6875,32.0469 256.0313,32.0469 Q256.6563,32.0469 257.25,31.7813 Q257.8438,31.5 258.4688,30.9219 L258.4688,33.6406 Z " fill="#000000"/><text fill="#000000" font-family="sans-serif" font-size="14" lengthAdjust="spacing" textLength="92" x="269.5" y="32.8467">batch__data1</text></g><polygon fill="#181818" points="74.4718,103.8207,74.5028,93.9719,72.4555,99.2452,67.1821,97.1979,74.4718,103.8207" style="stroke:#181818;stroke-width:1.0;"/><path d="M48.1257,44.0351 C54.0716,57.5279 61.1111,73.5022 72.0523,98.3301 " fill="none" style="stroke:#181818;stroke-width:1.0;"/><polygon fill="#181818" points="242.6284,139.3883,250.4353,133.3841,245.0122,134.9932,243.4031,129.57,242.6284,139.3883" style="stroke:#181818;stroke-width:1.0;"/><path d="M294.3453,44.0351 C283.6954,63.6709 266.7488,94.9163 245.4889,134.1142 " fill="none" style="stroke:#181818;stroke-width:1.0;"/><polygon fill="#181818" points="158.5,79.747,162.5,70.747,158.5,74.747,154.5,70.747,158.5,79.747" style="stroke:#181818;stroke-width:1.0;"/><path d="M158.5,44.0351 C158.5,52.9206 158.5,59.2633 158.5,73.747 " fill="none" style="stroke:#181818;stroke-width:1.0;"/><!--SRC=[ZL6nJiCm4Dtp5KOi8569ZaXLXnO65WOYPkjYNvDGsnUTdQeHujyv9m5ArO5RxFVUtRiNvwfZg3qe1mFrIKMF2G8KHToteGC6hxOEOjo0sTTCVR1RSiJgUlDMFhyybMNHj1OL-YuDIcORil6KshNeXFbrgywC4aE88c58HSIa0dWKRB34F92a9L308fV9IPGXvo0XWrEhbRfvlNjysDmljxTglLOVHQ6K5LKE35RFrvWOCMcmbZ568S0OYP1qQpCo3N2T-uZRMX_0zHcODWsZZUbz9IaDwZHqMM6iUvUZ3ReYskS5rBF9qW4vjXJ4MC3SRdgMppE3DcH7d5Vp3poGasJlUdSKu0Z2d6gqEDqEFWyAsL5CuCxcysrE7b5MIlefXVHo-dw9iMK2Kf_2Z3K_RGN9D1TVzL8t7i5tRdI3VmnDvel5-kGFJgGUBPRdsX__Csts_080]--></g></svg>