<?xml version="1.0" encoding="us-ascii" standalone="no"?><svg xmlns="http://www.w3.org/2000/svg" xmlns:xlink="http://www.w3.org/1999/xlink" contentStyleType="text/css" height="273px" preserveAspectRatio="none" style="width:371px;height:273px;" version="1.1" viewBox="0 0 371 273" width="371px" zoomAndPan="magnify"><defs/><g><!--class loan_transaction--><g id="elem_loan_transaction"><rect codeLine="13" fill="#FFFFCC" height="186.6719" id="loan_transaction" rx="2.5" ry="2.5" style="stroke:#181818;stroke-width:0.5;" width="145" x="86" y="80"/><ellipse cx="101" cy="96" fill="#D9B01C" rx="11" ry="11" style="stroke:#181818;stroke-width:1.0;"/><path d="M102.2031,96.1406 Q102.5625,96.2188 102.8281,96.5 Q103.1094,96.7656 103.5,97.5469 L105.7344,102 L103.0469,102 L101.5469,98.875 Q101.4844,98.7344 101.375,98.5 Q100.7188,97.1094 99.8281,97.1094 L99.0469,97.1094 L99.0469,102 L96.6094,102 L96.6094,89.6094 L100.1406,89.6094 Q102.5313,89.6094 103.5625,90.4531 Q104.6094,91.2969 104.6094,93.2031 Q104.6094,94.4844 103.9844,95.25 Q103.375,96 102.2031,96.1406 Z M99.0469,91.6719 L99.0469,95.0469 L100.2031,95.0469 Q101.2188,95.0469 101.6406,94.6563 Q102.0781,94.25 102.0781,93.3438 Q102.0781,92.4531 101.6406,92.0625 Q101.2188,91.6719 100.2031,91.6719 L99.0469,91.6719 Z " fill="#000000"/><text fill="#000000" font-family="sans-serif" font-size="14" lengthAdjust="spacing" textLength="113" x="115" y="100.8467">loan_transaction</text><line style="stroke:#181818;stroke-width:0.5;" x1="87" x2="230" y1="112" y2="112"/><text fill="#000000" font-family="sans-serif" font-size="14" lengthAdjust="spacing" textLength="31" x="92" y="128.9951">date</text><text fill="#000000" font-family="sans-serif" font-size="14" lengthAdjust="spacing" textLength="53" x="92" y="145.292">amount</text><text fill="#000000" font-family="sans-serif" font-size="14" lengthAdjust="spacing" textLength="12" x="92" y="161.5889">id</text><text fill="#000000" font-family="sans-serif" font-size="14" lengthAdjust="spacing" textLength="48" x="92" y="177.8857">source</text><text fill="#000000" font-family="sans-serif" font-size="14" lengthAdjust="spacing" textLength="69" x="92" y="194.1826">version_id</text><text fill="#000000" font-family="sans-serif" font-size="14" lengthAdjust="spacing" textLength="30" x="92" y="210.4795">type</text><text fill="#000000" font-family="sans-serif" font-size="14" lengthAdjust="spacing" textLength="102" x="92" y="226.7764">currency_code</text><text fill="#000000" font-family="sans-serif" font-size="14" lengthAdjust="spacing" textLength="48" x="92" y="243.0732">loan_id</text><text fill="#000000" font-family="sans-serif" font-size="14" lengthAdjust="spacing" textLength="74" x="92" y="259.3701">value_date</text></g><!--class batch--><g id="elem_batch"><rect codeLine="29" fill="#FFFFCC" height="32" id="batch" rx="2.5" ry="2.5" style="stroke:#181818;stroke-width:0.5;" width="71" x="6" y="12"/><ellipse cx="21" cy="28" fill="#D9B01C" rx="11" ry="11" style="stroke:#181818;stroke-width:1.0;"/><path d="M22.2031,28.1406 Q22.5625,28.2188 22.8281,28.5 Q23.1094,28.7656 23.5,29.5469 L25.7344,34 L23.0469,34 L21.5469,30.875 Q21.4844,30.7344 21.375,30.5 Q20.7188,29.1094 19.8281,29.1094 L19.0469,29.1094 L19.0469,34 L16.6094,34 L16.6094,21.6094 L20.1406,21.6094 Q22.5313,21.6094 23.5625,22.4531 Q24.6094,23.2969 24.6094,25.2031 Q24.6094,26.4844 23.9844,27.25 Q23.375,28 22.2031,28.1406 Z M19.0469,23.6719 L19.0469,27.0469 L20.2031,27.0469 Q21.2188,27.0469 21.6406,26.6563 Q22.0781,26.25 22.0781,25.3438 Q22.0781,24.4531 21.6406,24.0625 Q21.2188,23.6719 20.2031,23.6719 L19.0469,23.6719 Z " fill="#000000"/><text fill="#000000" font-family="sans-serif" font-size="14" lengthAdjust="spacing" textLength="39" x="35" y="32.8467">batch</text></g><!--class example_data--><g id="elem_example_data"><rect codeLine="37" fill="#FFFFCC" height="32" id="example_data" rx="2.5" ry="2.5" style="stroke:#181818;stroke-width:0.5;" width="127" x="95" y="12"/><ellipse cx="110" cy="28" fill="#D9B01C" rx="11" ry="11" style="stroke:#181818;stroke-width:1.0;"/><path d="M111.2031,28.1406 Q111.5625,28.2188 111.8281,28.5 Q112.1094,28.7656 112.5,29.5469 L114.7344,34 L112.0469,34 L110.5469,30.875 Q110.4844,30.7344 110.375,30.5 Q109.7188,29.1094 108.8281,29.1094 L108.0469,29.1094 L108.0469,34 L105.6094,34 L105.6094,21.6094 L109.1406,21.6094 Q111.5313,21.6094 112.5625,22.4531 Q113.6094,23.2969 113.6094,25.2031 Q113.6094,26.4844 112.9844,27.25 Q112.375,28 111.2031,28.1406 Z M108.0469,23.6719 L108.0469,27.0469 L109.2031,27.0469 Q110.2188,27.0469 110.6406,26.6563 Q111.0781,26.25 111.0781,25.3438 Q111.0781,24.4531 110.6406,24.0625 Q110.2188,23.6719 109.2031,23.6719 L108.0469,23.6719 Z " fill="#000000"/><text fill="#000000" font-family="sans-serif" font-size="14" lengthAdjust="spacing" textLength="95" x="124" y="32.8467">example_data</text></g><!--class batch__data1--><g id="elem_batch__data1"><rect fill="#FFFFCC" height="32" id="batch__data1" rx="2.5" ry="2.5" style="stroke:#181818;stroke-width:0.5;" width="124" x="240.5" y="12"/><ellipse cx="255.5" cy="28" fill="#ADD1B2" rx="11" ry="11" style="stroke:#181818;stroke-width:1.0;"/><path d="M258.4688,33.6406 Q257.8906,33.9375 257.25,34.0781 Q256.6094,34.2344 255.9063,34.2344 Q253.4063,34.2344 252.0781,32.5938 Q250.7656,30.9375 250.7656,27.8125 Q250.7656,24.6875 252.0781,23.0313 Q253.4063,21.375 255.9063,21.375 Q256.6094,21.375 257.25,21.5313 Q257.9063,21.6875 258.4688,21.9844 L258.4688,24.7031 Q257.8438,24.125 257.25,23.8594 Q256.6563,23.5781 256.0313,23.5781 Q254.6875,23.5781 254,24.6563 Q253.3125,25.7188 253.3125,27.8125 Q253.3125,29.9063 254,30.9844 Q254.6875,32.0469 256.0313,32.0469 Q256.6563,32.0469 257.25,31.7813 Q257.8438,31.5 258.4688,30.9219 L258.4688,33.6406 Z " fill="#000000"/><text fill="#000000" font-family="sans-serif" font-size="14" lengthAdjust="spacing" textLength="92" x="269.5" y="32.8467">batch__data1</text></g><polygon fill="#181818" points="85.7451,83.2664,83.158,73.7634,82.5855,79.3912,76.9577,78.8187,85.7451,83.2664" style="stroke:#181818;stroke-width:1.0;"/><path d="M53.7999,44.0858 C61.9551,54.0881 69.6076,63.4739 81.9536,78.6161 " fill="none" style="stroke:#181818;stroke-width:1.0;"/><polygon fill="#181818" points="231.0158,100.236,240.2143,96.7164,234.5575,96.7066,234.5673,91.0498,231.0158,100.236" style="stroke:#181818;stroke-width:1.0;"/><path d="M287.3616,44.0858 C273.6418,57.758 256.609,74.7316 235.2658,96.0007 " fill="none" style="stroke:#181818;stroke-width:1.0;"/><polygon fill="#181818" points="158.5,79.6937,162.5,70.6937,158.5,74.6937,154.5,70.6937,158.5,79.6937" style="stroke:#181818;stroke-width:1.0;"/><path d="M158.5,44.0858 C158.5,53.2966 158.5,59.9278 158.5,73.6937 " fill="none" style="stroke:#181818;stroke-width:1.0;"/><!--SRC=[ZKyxJyCm4DxzAmvr0ObAxOXKPKXWO64WOewkzj54zIEoBnKHuhzpTYlnoi0Djk-xxt6-6YCU78B5EKmCoH6ZHwNISV0ZHdJGM4ofHdqyn31vqmGR8gpgb_RnwQ5jLJyO0d8Zpo3QFfZq7NeTo0hovRR_PSGHVP8HULQ963mwabvJIrd0Gl71aygbyoPW0_gko53p43piTd3zV7j_Ls-spGrK5Rmh1M2GIIvqaiNo68mSAKnHP_X4COcsAoZFOyRq56KDFNSwcDoNe48uePseAuvI7uAKkYoqHzRzuXPBR7f3DzhYXlyGdStNw-hFly-ZhXXjbna_iXOPbvHF]--></g></svg>