<?xml version="1.0" encoding="us-ascii" standalone="no"?><svg xmlns="http://www.w3.org/2000/svg" xmlns:xlink="http://www.w3.org/1999/xlink" contentStyleType="text/css" height="632px" preserveAspectRatio="none" style="width:371px;height:632px;" version="1.1" viewBox="0 0 371 632" width="371px" zoomAndPan="magnify"><defs/><g><!--class account--><g id="elem_account"><rect codeLine="13" fill="#FFFFCC" height="545.2031" id="account" rx="2.5" ry="2.5" style="stroke:#181818;stroke-width:0.5;" width="167" x="75" y="80"/><ellipse cx="126.25" cy="96" fill="#D9B01C" rx="11" ry="11" style="stroke:#181818;stroke-width:1.0;"/><path d="M127.4531,96.1406 Q127.8125,96.2188 128.0781,96.5 Q128.3594,96.7656 128.75,97.5469 L130.9844,102 L128.2969,102 L126.7969,98.875 Q126.7344,98.7344 126.625,98.5 Q125.9688,97.1094 125.0781,97.1094 L124.2969,97.1094 L124.2969,102 L121.8594,102 L121.8594,89.6094 L125.3906,89.6094 Q127.7813,89.6094 128.8125,90.4531 Q129.8594,91.2969 129.8594,93.2031 Q129.8594,94.4844 129.2344,95.25 Q128.625,96 127.4531,96.1406 Z M124.2969,91.6719 L124.2969,95.0469 L125.4531,95.0469 Q126.4688,95.0469 126.8906,94.6563 Q127.3281,94.25 127.3281,93.3438 Q127.3281,92.4531 126.8906,92.0625 Q126.4688,91.6719 125.4531,91.6719 L124.2969,91.6719 Z " fill="#000000"/><text fill="#000000" font-family="sans-serif" font-size="14" lengthAdjust="spacing" textLength="56" x="146.75" y="100.8467">account</text><line style="stroke:#181818;stroke-width:0.5;" x1="76" x2="241" y1="112" y2="112"/><text fill="#000000" font-family="sans-serif" font-size="14" lengthAdjust="spacing" textLength="31" x="81" y="128.9951">date</text><text fill="#000000" font-family="sans-serif" font-size="14" lengthAdjust="spacing" textLength="106" x="81" y="145.292">risk_weight_std</text><text fill="#000000" font-family="sans-serif" font-size="14" lengthAdjust="spacing" textLength="152" x="81" y="161.5889">accounting_treatment</text><text fill="#000000" font-family="sans-serif" font-size="14" lengthAdjust="spacing" textLength="127" x="81" y="177.8857">impairment_status</text><text fill="#000000" font-family="sans-serif" font-size="14" lengthAdjust="spacing" textLength="20" x="81" y="194.1826">ccf</text><text fill="#000000" font-family="sans-serif" font-size="14" lengthAdjust="spacing" textLength="137" x="81" y="210.4795">impairment_amount</text><text fill="#000000" font-family="sans-serif" font-size="14" lengthAdjust="spacing" textLength="154" x="81" y="226.7764">reporting_entity_name</text><text fill="#000000" font-family="sans-serif" font-size="14" lengthAdjust="spacing" textLength="118" x="81" y="243.0732">orig_credit_score</text><text fill="#000000" font-family="sans-serif" font-size="14" lengthAdjust="spacing" textLength="48" x="81" y="259.3701">source</text><text fill="#000000" font-family="sans-serif" font-size="14" lengthAdjust="spacing" textLength="155" x="81" y="275.667">day_count_convention</text><text fill="#000000" font-family="sans-serif" font-size="14" lengthAdjust="spacing" textLength="30" x="81" y="291.9639">type</text><text fill="#000000" font-family="sans-serif" font-size="14" lengthAdjust="spacing" textLength="109" x="81" y="308.2607">arrears_balance</text><text fill="#000000" font-family="sans-serif" font-size="14" lengthAdjust="spacing" textLength="86" x="81" y="324.5576">ledger_code</text><text fill="#000000" font-family="sans-serif" font-size="14" lengthAdjust="spacing" textLength="54" x="81" y="340.8545">balance</text><text fill="#000000" font-family="sans-serif" font-size="14" lengthAdjust="spacing" textLength="87" x="81" y="357.1514">limit_amount</text><text fill="#000000" font-family="sans-serif" font-size="14" lengthAdjust="spacing" textLength="12" x="81" y="373.4482">id</text><text fill="#000000" font-family="sans-serif" font-size="14" lengthAdjust="spacing" textLength="129" x="81" y="389.7451">withdrawal_penalty</text><text fill="#000000" font-family="sans-serif" font-size="14" lengthAdjust="spacing" textLength="76" x="81" y="406.042">lgd_floored</text><text fill="#000000" font-family="sans-serif" font-size="14" lengthAdjust="spacing" textLength="68" x="81" y="422.3389">call_dates</text><text fill="#000000" font-family="sans-serif" font-size="14" lengthAdjust="spacing" textLength="123" x="81" y="438.6357">mtd_interest_paid</text><text fill="#000000" font-family="sans-serif" font-size="14" lengthAdjust="spacing" textLength="40" x="81" y="454.9326">count</text><text fill="#000000" font-family="sans-serif" font-size="14" lengthAdjust="spacing" textLength="129" x="81" y="471.2295">last_payment_date</text><text fill="#000000" font-family="sans-serif" font-size="14" lengthAdjust="spacing" textLength="100" x="81" y="487.5264">product_name</text><text fill="#000000" font-family="sans-serif" font-size="14" lengthAdjust="spacing" textLength="94" x="81" y="503.8232">country_code</text><text fill="#000000" font-family="sans-serif" font-size="14" lengthAdjust="spacing" textLength="68" x="81" y="520.1201">base_rate</text><text fill="#000000" font-family="sans-serif" font-size="14" lengthAdjust="spacing" textLength="89" x="81" y="536.417">asset_liability</text><text fill="#000000" font-family="sans-serif" font-size="14" lengthAdjust="spacing" textLength="130" x="81" y="552.7139">first_payment_date</text><text fill="#000000" font-family="sans-serif" font-size="14" lengthAdjust="spacing" textLength="140" x="81" y="569.0107">last_drawdown_date</text><text fill="#000000" font-family="sans-serif" font-size="14" lengthAdjust="spacing" textLength="124" x="81" y="585.3076">cost_center_code</text><text fill="#000000" font-family="sans-serif" font-size="14" lengthAdjust="spacing" textLength="43" x="81" y="601.6045">status</text><text fill="#000000" font-family="sans-serif" font-size="14" lengthAdjust="spacing" textLength="110" x="81" y="617.9014">...42 more fields</text></g><!--class batch--><g id="elem_batch"><rect codeLine="52" fill="#FFFFCC" height="32" id="batch" rx="2.5" ry="2.5" style="stroke:#181818;stroke-width:0.5;" width="71" x="6" y="12"/><ellipse cx="21" cy="28" fill="#D9B01C" rx="11" ry="11" style="stroke:#181818;stroke-width:1.0;"/><path d="M22.2031,28.1406 Q22.5625,28.2188 22.8281,28.5 Q23.1094,28.7656 23.5,29.5469 L25.7344,34 L23.0469,34 L21.5469,30.875 Q21.4844,30.7344 21.375,30.5 Q20.7188,29.1094 19.8281,29.1094 L19.0469,29.1094 L19.0469,34 L16.6094,34 L16.6094,21.6094 L20.1406,21.6094 Q22.5313,21.6094 23.5625,22.4531 Q24.6094,23.2969 24.6094,25.2031 Q24.6094,26.4844 23.9844,27.25 Q23.375,28 22.2031,28.1406 Z M19.0469,23.6719 L19.0469,27.0469 L20.2031,27.0469 Q21.2188,27.0469 21.6406,26.6563 Q22.0781,26.25 22.0781,25.3438 Q22.0781,24.4531 21.6406,24.0625 Q21.2188,23.6719 20.2031,23.6719 L19.0469,23.6719 Z " fill="#000000"/><text fill="#000000" font-family="sans-serif" font-size="14" lengthAdjust="spacing" textLength="39" x="35" y="32.8467">batch</text></g><!--class example_data--><g id="elem_example_data"><rect codeLine="60" fill="#FFFFCC" height="32" id="example_data" rx="2.5" ry="2.5" style="stroke:#181818;stroke-width:0.5;" width="127" x="95" y="12"/><ellipse cx="110" cy="28" fill="#D9B01C" rx="11" ry="11" style="stroke:#181818;stroke-width:1.0;"/><path d="M111.2031,28.1406 Q111.5625,28.2188 111.8281,28.5 Q112.1094,28.7656 112.5,29.5469 L114.7344,34 L112.0469,34 L110.5469,30.875 Q110.4844,30.7344 110.375,30.5 Q109.7188,29.1094 108.8281,29.1094 L108.0469,29.1094 L108.0469,34 L105.6094,34 L105.6094,21.6094 L109.1406,21.6094 Q111.5313,21.6094 112.5625,22.4531 Q113.6094,23.2969 113.6094,25.2031 Q113.6094,26.4844 112.9844,27.25 Q112.375,28 111.2031,28.1406 Z M108.0469,23.6719 L108.0469,27.0469 L109.2031,27.0469 Q110.2188,27.0469 110.6406,26.6563 Q111.0781,26.25 111.0781,25.3438 Q111.0781,24.4531 110.6406,24.0625 Q110.2188,23.6719 109.2031,23.6719 L108.0469,23.6719 Z " fill="#000000"/><text fill="#000000" font-family="sans-serif" font-size="14" lengthAdjust="spacing" textLength="95" x="124" y="32.8467">example_data</text></g><!--class batch__data1--><g id="elem_batch__data1"><rect fill="#FFFFCC" height="32" id="batch__data1" rx="2.5" ry="2.5" style="stroke:#181818;stroke-width:0.5;" width="124" x="240.5" y="12"/><ellipse cx="255.5" cy="28" fill="#ADD1B2" rx="11" ry="11" style="stroke:#181818;stroke-width:1.0;"/><path d="M258.4688,33.6406 Q257.8906,33.9375 257.25,34.0781 Q256.6094,34.2344 255.9063,34.2344 Q253.4063,34.2344 252.0781,32.5938 Q250.7656,30.9375 250.7656,27.8125 Q250.7656,24.6875 252.0781,23.0313 Q253.4063,21.375 255.9063,21.375 Q256.6094,21.375 257.25,21.5313 Q257.9063,21.6875 258.4688,21.9844 L258.4688,24.7031 Q257.8438,24.125 257.25,23.8594 Q256.6563,23.5781 256.0313,23.5781 Q254.6875,23.5781 254,24.6563 Q253.3125,25.7188 253.3125,27.8125 Q253.3125,29.9063 254,30.9844 Q254.6875,32.0469 256.0313,32.0469 Q256.6563,32.0469 257.25,31.7813 Q257.8438,31.5 258.4688,30.9219 L258.4688,33.6406 Z " fill="#000000"/><text fill="#000000" font-family="sans-serif" font-size="14" lengthAdjust="spacing" textLength="92" x="269.5" y="32.8467">batch__data1</text></g><polygon fill="#181818" points="74.9828,121.2924,75.6737,111.4678,73.2776,116.5922,68.1533,114.1962,74.9828,121.2924" style="stroke:#181818;stroke-width:1.0;"/><path d="M46.9862,44.1223 C52.9046,60.4357 61.0483,82.8832 72.9366,115.6521 " fill="none" style="stroke:#181818;stroke-width:1.0;"/><polygon fill="#181818" points="242.1714,164.111,249.4932,157.5239,244.2099,159.5455,242.1883,154.2622,242.1714,164.111" style="stroke:#181818;stroke-width:1.0;"/><path d="M295.7477,44.1223 C285.4331,67.2226 267.0231,108.4534 244.6176,158.6324 " fill="none" style="stroke:#181818;stroke-width:1.0;"/><polygon fill="#181818" points="158.5,79.894,162.5,70.894,158.5,74.894,154.5,70.894,158.5,79.894" style="stroke:#181818;stroke-width:1.0;"/><path d="M158.5,44.1223 C158.5,52.9639 158.5,59.2642 158.5,73.894 " fill="none" style="stroke:#181818;stroke-width:1.0;"/><!--SRC=[ZL8zZnCn4EttLnZHWCH57A91EgL8kE8Q2Y9gQs9FTgtuOpMU9QmG_vqPPyCbS0KkTkKtxps_iUVLID0dC17cCh6f2HaoT5qzXZm2GJBR2BLkm1rxAbFssn8BcTURRxkdBu-xNJS4ZmRJoBCHxL1ylOOE0QCWpsxxluoO85SfOUQk8fiC2MNlS8SgOA7aah7JvJI90UT4pkRXmRpv-kxpfytx- -rRirwRdrrdZ0T6-L6eHtl2q0ziAtj15bd8lML2uAGd6XFI285q8ppWgGhctE6s0acbQejZeUOXSE3PQbp12uNUEa8VnCOLKgoMYHosIBDjPyitVrTXoGBpF6eLID9GjNk8a1i_ek-HXEnrTuM75Awo1Etg57Zm12U8TiGCaMSbzjuUOf4OId4GezLhqTOIUnio8s5bA_qrmc8ejwlOt5fUxd6auYV7bpuRbURdR1KjdPdoDCWs1jY765gCGw1_3TiXcjYNKxw0hWZeK7DThFyyncgr-lZ196dcCaowVacbhMKezi1kU74aNcBZ3qXZH3qU_aDqDh-xMr-6w8pOfh-_ATmuNnSMgzy0]--></g></svg>