<?xml version="1.0" encoding="us-ascii" standalone="no"?><svg xmlns="http://www.w3.org/2000/svg" xmlns:xlink="http://www.w3.org/1999/xlink" contentStyleType="text/css" height="208px" preserveAspectRatio="none" style="width:285px;height:208px;" version="1.1" viewBox="0 0 285 208" width="285px" zoomAndPan="magnify"><defs/><g><!--class day_count_convention--><g id="elem_day_count_convention"><rect codeLine="13" fill="#FFFFCC" height="121.4844" id="day_count_convention" rx="2.5" ry="2.5" style="stroke:#181818;stroke-width:0.5;" width="187" x="49.5" y="80"/><ellipse cx="64.5" cy="96" fill="#86B0BE" rx="11" ry="11" style="stroke:#181818;stroke-width:1.0;"/><path d="M68.6094,102 L60.8906,102 L60.8906,89.6094 L68.6094,89.6094 L68.6094,91.7656 L63.3438,91.7656 L63.3438,94.4375 L68.1094,94.4375 L68.1094,96.5938 L63.3438,96.5938 L63.3438,99.8438 L68.6094,99.8438 L68.6094,102 Z " fill="#000000"/><text fill="#000000" font-family="sans-serif" font-size="14" lengthAdjust="spacing" textLength="155" x="78.5" y="100.8467">day_count_convention</text><line style="stroke:#181818;stroke-width:0.5;" x1="50.5" x2="235.5" y1="112" y2="112"/><text fill="#000000" font-family="sans-serif" font-size="14" lengthAdjust="spacing" textLength="55" x="55.5" y="128.9951">act_360</text><text fill="#000000" font-family="sans-serif" font-size="14" lengthAdjust="spacing" textLength="55" x="55.5" y="145.292">act_365</text><text fill="#000000" font-family="sans-serif" font-size="14" lengthAdjust="spacing" textLength="49" x="55.5" y="161.5889">act_act</text><text fill="#000000" font-family="sans-serif" font-size="14" lengthAdjust="spacing" textLength="81" x="55.5" y="177.8857">std_30_360</text><text fill="#000000" font-family="sans-serif" font-size="14" lengthAdjust="spacing" textLength="81" x="55.5" y="194.1826">std_30_365</text></g><!--class account--><g id="elem_account"><rect codeLine="25" fill="#FFFFCC" height="32" id="account" rx="2.5" ry="2.5" style="stroke:#181818;stroke-width:0.5;" width="88" x="6" y="12"/><ellipse cx="21" cy="28" fill="#D9B01C" rx="11" ry="11" style="stroke:#181818;stroke-width:1.0;"/><path d="M22.2031,28.1406 Q22.5625,28.2188 22.8281,28.5 Q23.1094,28.7656 23.5,29.5469 L25.7344,34 L23.0469,34 L21.5469,30.875 Q21.4844,30.7344 21.375,30.5 Q20.7188,29.1094 19.8281,29.1094 L19.0469,29.1094 L19.0469,34 L16.6094,34 L16.6094,21.6094 L20.1406,21.6094 Q22.5313,21.6094 23.5625,22.4531 Q24.6094,23.2969 24.6094,25.2031 Q24.6094,26.4844 23.9844,27.25 Q23.375,28 22.2031,28.1406 Z M19.0469,23.6719 L19.0469,27.0469 L20.2031,27.0469 Q21.2188,27.0469 21.6406,26.6563 Q22.0781,26.25 22.0781,25.3438 Q22.0781,24.4531 21.6406,24.0625 Q21.2188,23.6719 20.2031,23.6719 L19.0469,23.6719 Z " fill="#000000"/><text fill="#000000" font-family="sans-serif" font-size="14" lengthAdjust="spacing" textLength="56" x="35" y="32.8467">account</text></g><!--class loan--><g id="elem_loan"><rect codeLine="33" fill="#FFFFCC" height="32" id="loan" rx="2.5" ry="2.5" style="stroke:#181818;stroke-width:0.5;" width="61" x="112.5" y="12"/><ellipse cx="127.5" cy="28" fill="#D9B01C" rx="11" ry="11" style="stroke:#181818;stroke-width:1.0;"/><path d="M128.7031,28.1406 Q129.0625,28.2188 129.3281,28.5 Q129.6094,28.7656 130,29.5469 L132.2344,34 L129.5469,34 L128.0469,30.875 Q127.9844,30.7344 127.875,30.5 Q127.2188,29.1094 126.3281,29.1094 L125.5469,29.1094 L125.5469,34 L123.1094,34 L123.1094,21.6094 L126.6406,21.6094 Q129.0313,21.6094 130.0625,22.4531 Q131.1094,23.2969 131.1094,25.2031 Q131.1094,26.4844 130.4844,27.25 Q129.875,28 128.7031,28.1406 Z M125.5469,23.6719 L125.5469,27.0469 L126.7031,27.0469 Q127.7188,27.0469 128.1406,26.6563 Q128.5781,26.25 128.5781,25.3438 Q128.5781,24.4531 128.1406,24.0625 Q127.7188,23.6719 126.7031,23.6719 L125.5469,23.6719 Z " fill="#000000"/><text fill="#000000" font-family="sans-serif" font-size="14" lengthAdjust="spacing" textLength="29" x="141.5" y="32.8467">loan</text></g><!--class security--><g id="elem_security"><rect codeLine="41" fill="#FFFFCC" height="32" id="security" rx="2.5" ry="2.5" style="stroke:#181818;stroke-width:0.5;" width="86" x="192" y="12"/><ellipse cx="207" cy="28" fill="#D9B01C" rx="11" ry="11" style="stroke:#181818;stroke-width:1.0;"/><path d="M208.2031,28.1406 Q208.5625,28.2188 208.8281,28.5 Q209.1094,28.7656 209.5,29.5469 L211.7344,34 L209.0469,34 L207.5469,30.875 Q207.4844,30.7344 207.375,30.5 Q206.7188,29.1094 205.8281,29.1094 L205.0469,29.1094 L205.0469,34 L202.6094,34 L202.6094,21.6094 L206.1406,21.6094 Q208.5313,21.6094 209.5625,22.4531 Q210.6094,23.2969 210.6094,25.2031 Q210.6094,26.4844 209.9844,27.25 Q209.375,28 208.2031,28.1406 Z M205.0469,23.6719 L205.0469,27.0469 L206.2031,27.0469 Q207.2188,27.0469 207.6406,26.6563 Q208.0781,26.25 208.0781,25.3438 Q208.0781,24.4531 207.6406,24.0625 Q207.2188,23.6719 206.2031,23.6719 L205.0469,23.6719 Z " fill="#000000"/><text fill="#000000" font-family="sans-serif" font-size="14" lengthAdjust="spacing" textLength="54" x="221" y="32.8467">security</text></g><polygon fill="#181818" points="92.8252,79.8837,90.0902,70.4222,89.6056,76.0582,83.9695,75.5736,92.8252,79.8837" style="stroke:#181818;stroke-width:1.0;"/><path d="M62.9313,44.3646 C70.9168,53.8528 77.8671,62.1109 88.9617,75.2931 " fill="none" style="stroke:#181818;stroke-width:1.0;"/><polygon fill="#181818" points="143,79.8837,147,70.8837,143,74.8837,139,70.8837,143,79.8837" style="stroke:#181818;stroke-width:1.0;"/><path d="M143,44.3646 C143,53.8528 143,60.7015 143,73.8837 " fill="none" style="stroke:#181818;stroke-width:1.0;"/><polygon fill="#181818" points="192.6353,79.8837,201.4679,75.5265,195.8345,76.0412,195.3199,70.4078,192.6353,79.8837" style="stroke:#181818;stroke-width:1.0;"/><path d="M222.2078,44.3646 C214.3081,53.8528 207.4496,62.0904 196.4744,75.2727 " fill="none" style="stroke:#181818;stroke-width:1.0;"/><!--SRC=[ZP1DIyD048Rl-oj6l2Yq42aj2YM7ZJbuyM3m7CRDs8PkPiFkHWZYVtSIqYZIOWTscOztvXdcglMuQn0izgwB41gAoAXKEDJSeiS6CeiXQ3I7dNSTLvcppiErVYsUdlEYKFkw8g2cZJr8xzvLuNVglIOhcPzfRty6HOySf4GSLQ08Z0r9RAYWeI6AX1sJ6imCcq25VMbaG9IVFwIlTWpRBTpaY_kDJdH-2saAdqe1e8dbQfFCtdhov8aNObMkaaam1-k1z2MPqIOccf4uObuMZmywkSkEc5Dwwv0l5WSodQ_bMFyt7FTOBjEJTr0Z-6nr9frLJ9nl]--></g></svg>