<?xml version="1.0" encoding="us-ascii" standalone="no"?><svg xmlns="http://www.w3.org/2000/svg" xmlns:xlink="http://www.w3.org/1999/xlink" contentStyleType="text/css" height="599px" preserveAspectRatio="none" style="width:371px;height:599px;" version="1.1" viewBox="0 0 371 599" width="371px" zoomAndPan="magnify"><defs/><g><!--class derivative_cash_flow--><g id="elem_derivative_cash_flow"><rect codeLine="13" fill="#FFFFCC" height="512.6094" id="derivative_cash_flow" rx="2.5" ry="2.5" style="stroke:#181818;stroke-width:0.5;" width="171" x="73" y="80"/><ellipse cx="88" cy="96" fill="#D9B01C" rx="11" ry="11" style="stroke:#181818;stroke-width:1.0;"/><path d="M89.2031,96.1406 Q89.5625,96.2188 89.8281,96.5 Q90.1094,96.7656 90.5,97.5469 L92.7344,102 L90.0469,102 L88.5469,98.875 Q88.4844,98.7344 88.375,98.5 Q87.7188,97.1094 86.8281,97.1094 L86.0469,97.1094 L86.0469,102 L83.6094,102 L83.6094,89.6094 L87.1406,89.6094 Q89.5313,89.6094 90.5625,90.4531 Q91.6094,91.2969 91.6094,93.2031 Q91.6094,94.4844 90.9844,95.25 Q90.375,96 89.2031,96.1406 Z M86.0469,91.6719 L86.0469,95.0469 L87.2031,95.0469 Q88.2188,95.0469 88.6406,94.6563 Q89.0781,94.25 89.0781,93.3438 Q89.0781,92.4531 88.6406,92.0625 Q88.2188,91.6719 87.2031,91.6719 L86.0469,91.6719 Z " fill="#000000"/><text fill="#000000" font-family="sans-serif" font-size="14" lengthAdjust="spacing" textLength="139" x="102" y="100.8467">derivative_cash_flow</text><line style="stroke:#181818;stroke-width:0.5;" x1="74" x2="243" y1="112" y2="112"/><text fill="#000000" font-family="sans-serif" font-size="14" lengthAdjust="spacing" textLength="31" x="79" y="128.9951">date</text><text fill="#000000" font-family="sans-serif" font-size="14" lengthAdjust="spacing" textLength="75" x="79" y="145.292">mtm_clean</text><text fill="#000000" font-family="sans-serif" font-size="14" lengthAdjust="spacing" textLength="58" x="79" y="161.5889">purpose</text><text fill="#000000" font-family="sans-serif" font-size="14" lengthAdjust="spacing" textLength="154" x="79" y="177.8857">reporting_entity_name</text><text fill="#000000" font-family="sans-serif" font-size="14" lengthAdjust="spacing" textLength="115" x="79" y="194.1826">notional_amount</text><text fill="#000000" font-family="sans-serif" font-size="14" lengthAdjust="spacing" textLength="111" x="79" y="210.4795">regulatory_book</text><text fill="#000000" font-family="sans-serif" font-size="14" lengthAdjust="spacing" textLength="48" x="79" y="226.7764">source</text><text fill="#000000" font-family="sans-serif" font-size="14" lengthAdjust="spacing" textLength="102" x="79" y="243.0732">currency_code</text><text fill="#000000" font-family="sans-serif" font-size="14" lengthAdjust="spacing" textLength="21" x="79" y="259.3701">leg</text><text fill="#000000" font-family="sans-serif" font-size="14" lengthAdjust="spacing" textLength="74" x="79" y="275.667">reset_date</text><text fill="#000000" font-family="sans-serif" font-size="14" lengthAdjust="spacing" textLength="126" x="79" y="291.9639">on_balance_sheet</text><text fill="#000000" font-family="sans-serif" font-size="14" lengthAdjust="spacing" textLength="54" x="79" y="308.2607">balance</text><text fill="#000000" font-family="sans-serif" font-size="14" lengthAdjust="spacing" textLength="84" x="79" y="324.5576">derivative_id</text><text fill="#000000" font-family="sans-serif" font-size="14" lengthAdjust="spacing" textLength="43" x="79" y="340.8545">csa_id</text><text fill="#000000" font-family="sans-serif" font-size="14" lengthAdjust="spacing" textLength="12" x="79" y="357.1514">id</text><text fill="#000000" font-family="sans-serif" font-size="14" lengthAdjust="spacing" textLength="98" x="79" y="373.4482">payment_date</text><text fill="#000000" font-family="sans-serif" font-size="14" lengthAdjust="spacing" textLength="49" x="79" y="389.7451">mna_id</text><text fill="#000000" font-family="sans-serif" font-size="14" lengthAdjust="spacing" textLength="80" x="79" y="406.042">asset_class</text><text fill="#000000" font-family="sans-serif" font-size="14" lengthAdjust="spacing" textLength="82" x="79" y="422.3389">reporting_id</text><text fill="#000000" font-family="sans-serif" font-size="14" lengthAdjust="spacing" textLength="69" x="79" y="438.6357">version_id</text><text fill="#000000" font-family="sans-serif" font-size="14" lengthAdjust="spacing" textLength="100" x="79" y="454.9326">product_name</text><text fill="#000000" font-family="sans-serif" font-size="14" lengthAdjust="spacing" textLength="74" x="79" y="471.2295">trade_date</text><text fill="#000000" font-family="sans-serif" font-size="14" lengthAdjust="spacing" textLength="85" x="79" y="487.5264">forward_rate</text><text fill="#000000" font-family="sans-serif" font-size="14" lengthAdjust="spacing" textLength="67" x="79" y="503.8232">mtm_dirty</text><text fill="#000000" font-family="sans-serif" font-size="14" lengthAdjust="spacing" textLength="89" x="79" y="520.1201">asset_liability</text><text fill="#000000" font-family="sans-serif" font-size="14" lengthAdjust="spacing" textLength="116" x="79" y="536.417">accrued_interest</text><text fill="#000000" font-family="sans-serif" font-size="14" lengthAdjust="spacing" textLength="85" x="79" y="552.7139">customer_id</text><text fill="#000000" font-family="sans-serif" font-size="14" lengthAdjust="spacing" textLength="112" x="79" y="569.0107">settlement_type</text><text fill="#000000" font-family="sans-serif" font-size="14" lengthAdjust="spacing" textLength="74" x="79" y="585.3076">value_date</text></g><!--class batch--><g id="elem_batch"><rect codeLine="49" fill="#FFFFCC" height="32" id="batch" rx="2.5" ry="2.5" style="stroke:#181818;stroke-width:0.5;" width="71" x="6" y="12"/><ellipse cx="21" cy="28" fill="#D9B01C" rx="11" ry="11" style="stroke:#181818;stroke-width:1.0;"/><path d="M22.2031,28.1406 Q22.5625,28.2188 22.8281,28.5 Q23.1094,28.7656 23.5,29.5469 L25.7344,34 L23.0469,34 L21.5469,30.875 Q21.4844,30.7344 21.375,30.5 Q20.7188,29.1094 19.8281,29.1094 L19.0469,29.1094 L19.0469,34 L16.6094,34 L16.6094,21.6094 L20.1406,21.6094 Q22.5313,21.6094 23.5625,22.4531 Q24.6094,23.2969 24.6094,25.2031 Q24.6094,26.4844 23.9844,27.25 Q23.375,28 22.2031,28.1406 Z M19.0469,23.6719 L19.0469,27.0469 L20.2031,27.0469 Q21.2188,27.0469 21.6406,26.6563 Q22.0781,26.25 22.0781,25.3438 Q22.0781,24.4531 21.6406,24.0625 Q21.2188,23.6719 20.2031,23.6719 L19.0469,23.6719 Z " fill="#000000"/><text fill="#000000" font-family="sans-serif" font-size="14" lengthAdjust="spacing" textLength="39" x="35" y="32.8467">batch</text></g><!--class example_data--><g id="elem_example_data"><rect codeLine="57" fill="#FFFFCC" height="32" id="example_data" rx="2.5" ry="2.5" style="stroke:#181818;stroke-width:0.5;" width="127" x="95" y="12"/><ellipse cx="110" cy="28" fill="#D9B01C" rx="11" ry="11" style="stroke:#181818;stroke-width:1.0;"/><path d="M111.2031,28.1406 Q111.5625,28.2188 111.8281,28.5 Q112.1094,28.7656 112.5,29.5469 L114.7344,34 L112.0469,34 L110.5469,30.875 Q110.4844,30.7344 110.375,30.5 Q109.7188,29.1094 108.8281,29.1094 L108.0469,29.1094 L108.0469,34 L105.6094,34 L105.6094,21.6094 L109.1406,21.6094 Q111.5313,21.6094 112.5625,22.4531 Q113.6094,23.2969 113.6094,25.2031 Q113.6094,26.4844 112.9844,27.25 Q112.375,28 111.2031,28.1406 Z M108.0469,23.6719 L108.0469,27.0469 L109.2031,27.0469 Q110.2188,27.0469 110.6406,26.6563 Q111.0781,26.25 111.0781,25.3438 Q111.0781,24.4531 110.6406,24.0625 Q110.2188,23.6719 109.2031,23.6719 L108.0469,23.6719 Z " fill="#000000"/><text fill="#000000" font-family="sans-serif" font-size="14" lengthAdjust="spacing" textLength="95" x="124" y="32.8467">example_data</text></g><!--class batch__data1--><g id="elem_batch__data1"><rect fill="#FFFFCC" height="32" id="batch__data1" rx="2.5" ry="2.5" style="stroke:#181818;stroke-width:0.5;" width="124" x="240.5" y="12"/><ellipse cx="255.5" cy="28" fill="#ADD1B2" rx="11" ry="11" style="stroke:#181818;stroke-width:1.0;"/><path d="M258.4688,33.6406 Q257.8906,33.9375 257.25,34.0781 Q256.6094,34.2344 255.9063,34.2344 Q253.4063,34.2344 252.0781,32.5938 Q250.7656,30.9375 250.7656,27.8125 Q250.7656,24.6875 252.0781,23.0313 Q253.4063,21.375 255.9063,21.375 Q256.6094,21.375 257.25,21.5313 Q257.9063,21.6875 258.4688,21.9844 L258.4688,24.7031 Q257.8438,24.125 257.25,23.8594 Q256.6563,23.5781 256.0313,23.5781 Q254.6875,23.5781 254,24.6563 Q253.3125,25.7188 253.3125,27.8125 Q253.3125,29.9063 254,30.9844 Q254.6875,32.0469 256.0313,32.0469 Q256.6563,32.0469 257.25,31.7813 Q257.8438,31.5 258.4688,30.9219 L258.4688,33.6406 Z " fill="#000000"/><text fill="#000000" font-family="sans-serif" font-size="14" lengthAdjust="spacing" textLength="92" x="269.5" y="32.8467">batch__data1</text></g><polygon fill="#181818" points="72.8926,111.2379,73.4199,101.4032,71.1095,106.5667,65.946,104.2562,72.8926,111.2379" style="stroke:#181818;stroke-width:1.0;"/><path d="M47.302,44.1994 C52.9044,58.8756 59.97,77.385 70.7528,105.6324 " fill="none" style="stroke:#181818;stroke-width:1.0;"/><polygon fill="#181818" points="244.1604,153.1743,251.6078,146.7294,246.2865,148.6488,244.3671,143.3276,244.1604,153.1743" style="stroke:#181818;stroke-width:1.0;"/><path d="M295.359,44.1994 C285.2291,65.7607 268.0792,102.2636 246.7118,147.7437 " fill="none" style="stroke:#181818;stroke-width:1.0;"/><polygon fill="#181818" points="158.5,79.7237,162.5,70.7237,158.5,74.7237,154.5,70.7237,158.5,79.7237" style="stroke:#181818;stroke-width:1.0;"/><path d="M158.5,44.1994 C158.5,53.0172 158.5,59.2422 158.5,73.7237 " fill="none" style="stroke:#181818;stroke-width:1.0;"/><!--SRC=[ZL8xRzim4DxrArXqQO46ICO0WGSx6R9agD6PE95dYJ398yYJKo7eV- -HakkcS81oa7Ylxt7IfvHX2A0yp3InAW4P8dHTERgO84DGEm-bRC4SXqnJj3lobDNdxO_zyylJVj-DpgB2a7XMCZkIBN-d3WwzP2ve_Jz0d24MAM7ahY2h204bDhZ7Ei3I4YbYLu-fIfJ5x4x0xeJQG1drmTEhUdXGNxv_UxpVtjxjlghDHhrrdL8M6EKLE6ZZ4QBSqvGJbPhDc2YpYuCMRiUphjIIZyIE8dWDGMHownmcNwNCkYSwIgRGb4rjDbCMwMRMXcoDFGvjGApebPsYxi53DAZBY5W1rxWgl9Xnjk8LM2xjaM0E8kwC5E9Qb3K8Vbl7EoEjUC9SnC0If4nsCdps9jksU8OxK7w5R7M-RCcwpFCV0k-WTzuj6MFoX5Qxo2Zsk7alJ07pmYG3xB79vJbLm1FuQIMJyqioxQoViGSsuzNlTgqRVq98lg71Vmmju3Stcwj_orBM3Upkuwvtd1zshOo_0G00]--></g></svg>