<?xml version="1.0" encoding="us-ascii" standalone="no"?><svg xmlns="http://www.w3.org/2000/svg" xmlns:xlink="http://www.w3.org/1999/xlink" contentStyleType="text/css" height="567px" preserveAspectRatio="none" style="width:400px;height:567px;" version="1.1" viewBox="0 0 400 567" width="400px" zoomAndPan="magnify"><defs/><g><!--class impairment_status--><g id="elem_impairment_status"><rect codeLine="13" fill="#FFFFCC" height="480.0156" id="impairment_status" rx="2.5" ry="2.5" style="stroke:#181818;stroke-width:0.5;" width="161" x="128.5" y="80"/><ellipse cx="144.4" cy="96" fill="#86B0BE" rx="11" ry="11" style="stroke:#181818;stroke-width:1.0;"/><path d="M148.5094,102 L140.7906,102 L140.7906,89.6094 L148.5094,89.6094 L148.5094,91.7656 L143.2438,91.7656 L143.2438,94.4375 L148.0094,94.4375 L148.0094,96.5938 L143.2438,96.5938 L143.2438,99.8438 L148.5094,99.8438 L148.5094,102 Z " fill="#000000"/><text fill="#000000" font-family="sans-serif" font-size="14" lengthAdjust="spacing" textLength="127" x="158.6" y="100.8467">impairment_status</text><line style="stroke:#181818;stroke-width:0.5;" x1="129.5" x2="288.5" y1="112" y2="112"/><text fill="#000000" font-family="sans-serif" font-size="14" lengthAdjust="spacing" textLength="57" x="134.5" y="128.9951">doubtful</text><text fill="#000000" font-family="sans-serif" font-size="14" lengthAdjust="spacing" textLength="76" x="134.5" y="145.292">in_litigation</text><text fill="#000000" font-family="sans-serif" font-size="14" lengthAdjust="spacing" textLength="28" x="134.5" y="161.5889">loss</text><text fill="#000000" font-family="sans-serif" font-size="14" lengthAdjust="spacing" textLength="109" x="134.5" y="177.8857">non_performing</text><text fill="#000000" font-family="sans-serif" font-size="14" lengthAdjust="spacing" textLength="47" x="134.5" y="194.1826">normal</text><text fill="#000000" font-family="sans-serif" font-size="14" lengthAdjust="spacing" textLength="75" x="134.5" y="210.4795">performing</text><text fill="#000000" font-family="sans-serif" font-size="14" lengthAdjust="spacing" textLength="87" x="134.5" y="226.7764">pre_litigation</text><text fill="#000000" font-family="sans-serif" font-size="14" lengthAdjust="spacing" textLength="55" x="134.5" y="243.0732">stage_1</text><text fill="#000000" font-family="sans-serif" font-size="14" lengthAdjust="spacing" textLength="119" x="134.5" y="259.3701">stage_1_doubtful</text><text fill="#000000" font-family="sans-serif" font-size="14" lengthAdjust="spacing" textLength="90" x="134.5" y="275.667">stage_1_loss</text><text fill="#000000" font-family="sans-serif" font-size="14" lengthAdjust="spacing" textLength="109" x="134.5" y="291.9639">stage_1_normal</text><text fill="#000000" font-family="sans-serif" font-size="14" lengthAdjust="spacing" textLength="149" x="134.5" y="308.2607">stage_1_substandard</text><text fill="#000000" font-family="sans-serif" font-size="14" lengthAdjust="spacing" textLength="103" x="134.5" y="324.5576">stage_1_watch</text><text fill="#000000" font-family="sans-serif" font-size="14" lengthAdjust="spacing" textLength="55" x="134.5" y="340.8545">stage_2</text><text fill="#000000" font-family="sans-serif" font-size="14" lengthAdjust="spacing" textLength="119" x="134.5" y="357.1514">stage_2_doubtful</text><text fill="#000000" font-family="sans-serif" font-size="14" lengthAdjust="spacing" textLength="90" x="134.5" y="373.4482">stage_2_loss</text><text fill="#000000" font-family="sans-serif" font-size="14" lengthAdjust="spacing" textLength="109" x="134.5" y="389.7451">stage_2_normal</text><text fill="#000000" font-family="sans-serif" font-size="14" lengthAdjust="spacing" textLength="149" x="134.5" y="406.042">stage_2_substandard</text><text fill="#000000" font-family="sans-serif" font-size="14" lengthAdjust="spacing" textLength="103" x="134.5" y="422.3389">stage_2_watch</text><text fill="#000000" font-family="sans-serif" font-size="14" lengthAdjust="spacing" textLength="55" x="134.5" y="438.6357">stage_3</text><text fill="#000000" font-family="sans-serif" font-size="14" lengthAdjust="spacing" textLength="119" x="134.5" y="454.9326">stage_3_doubtful</text><text fill="#000000" font-family="sans-serif" font-size="14" lengthAdjust="spacing" textLength="90" x="134.5" y="471.2295">stage_3_loss</text><text fill="#000000" font-family="sans-serif" font-size="14" lengthAdjust="spacing" textLength="109" x="134.5" y="487.5264">stage_3_normal</text><text fill="#000000" font-family="sans-serif" font-size="14" lengthAdjust="spacing" textLength="149" x="134.5" y="503.8232">stage_3_substandard</text><text fill="#000000" font-family="sans-serif" font-size="14" lengthAdjust="spacing" textLength="103" x="134.5" y="520.1201">stage_3_watch</text><text fill="#000000" font-family="sans-serif" font-size="14" lengthAdjust="spacing" textLength="87" x="134.5" y="536.417">substandard</text><text fill="#000000" font-family="sans-serif" font-size="14" lengthAdjust="spacing" textLength="41" x="134.5" y="552.7139">watch</text></g><!--class account--><g id="elem_account"><rect codeLine="47" fill="#FFFFCC" height="32" id="account" rx="2.5" ry="2.5" style="stroke:#181818;stroke-width:0.5;" width="88" x="6" y="12"/><ellipse cx="21" cy="28" fill="#D9B01C" rx="11" ry="11" style="stroke:#181818;stroke-width:1.0;"/><path d="M22.2031,28.1406 Q22.5625,28.2188 22.8281,28.5 Q23.1094,28.7656 23.5,29.5469 L25.7344,34 L23.0469,34 L21.5469,30.875 Q21.4844,30.7344 21.375,30.5 Q20.7188,29.1094 19.8281,29.1094 L19.0469,29.1094 L19.0469,34 L16.6094,34 L16.6094,21.6094 L20.1406,21.6094 Q22.5313,21.6094 23.5625,22.4531 Q24.6094,23.2969 24.6094,25.2031 Q24.6094,26.4844 23.9844,27.25 Q23.375,28 22.2031,28.1406 Z M19.0469,23.6719 L19.0469,27.0469 L20.2031,27.0469 Q21.2188,27.0469 21.6406,26.6563 Q22.0781,26.25 22.0781,25.3438 Q22.0781,24.4531 21.6406,24.0625 Q21.2188,23.6719 20.2031,23.6719 L19.0469,23.6719 Z " fill="#000000"/><text fill="#000000" font-family="sans-serif" font-size="14" lengthAdjust="spacing" textLength="56" x="35" y="32.8467">account</text></g><!--class derivative--><g id="elem_derivative"><rect codeLine="55" fill="#FFFFCC" height="32" id="derivative" rx="2.5" ry="2.5" style="stroke:#181818;stroke-width:0.5;" width="97" x="112.5" y="12"/><ellipse cx="127.5" cy="28" fill="#D9B01C" rx="11" ry="11" style="stroke:#181818;stroke-width:1.0;"/><path d="M128.7031,28.1406 Q129.0625,28.2188 129.3281,28.5 Q129.6094,28.7656 130,29.5469 L132.2344,34 L129.5469,34 L128.0469,30.875 Q127.9844,30.7344 127.875,30.5 Q127.2188,29.1094 126.3281,29.1094 L125.5469,29.1094 L125.5469,34 L123.1094,34 L123.1094,21.6094 L126.6406,21.6094 Q129.0313,21.6094 130.0625,22.4531 Q131.1094,23.2969 131.1094,25.2031 Q131.1094,26.4844 130.4844,27.25 Q129.875,28 128.7031,28.1406 Z M125.5469,23.6719 L125.5469,27.0469 L126.7031,27.0469 Q127.7188,27.0469 128.1406,26.6563 Q128.5781,26.25 128.5781,25.3438 Q128.5781,24.4531 128.1406,24.0625 Q127.7188,23.6719 126.7031,23.6719 L125.5469,23.6719 Z " fill="#000000"/><text fill="#000000" font-family="sans-serif" font-size="14" lengthAdjust="spacing" textLength="65" x="141.5" y="32.8467">derivative</text></g><!--class loan--><g id="elem_loan"><rect codeLine="63" fill="#FFFFCC" height="32" id="loan" rx="2.5" ry="2.5" style="stroke:#181818;stroke-width:0.5;" width="61" x="227.5" y="12"/><ellipse cx="242.5" cy="28" fill="#D9B01C" rx="11" ry="11" style="stroke:#181818;stroke-width:1.0;"/><path d="M243.7031,28.1406 Q244.0625,28.2188 244.3281,28.5 Q244.6094,28.7656 245,29.5469 L247.2344,34 L244.5469,34 L243.0469,30.875 Q242.9844,30.7344 242.875,30.5 Q242.2188,29.1094 241.3281,29.1094 L240.5469,29.1094 L240.5469,34 L238.1094,34 L238.1094,21.6094 L241.6406,21.6094 Q244.0313,21.6094 245.0625,22.4531 Q246.1094,23.2969 246.1094,25.2031 Q246.1094,26.4844 245.4844,27.25 Q244.875,28 243.7031,28.1406 Z M240.5469,23.6719 L240.5469,27.0469 L241.7031,27.0469 Q242.7188,27.0469 243.1406,26.6563 Q243.5781,26.25 243.5781,25.3438 Q243.5781,24.4531 243.1406,24.0625 Q242.7188,23.6719 241.7031,23.6719 L240.5469,23.6719 Z " fill="#000000"/><text fill="#000000" font-family="sans-serif" font-size="14" lengthAdjust="spacing" textLength="29" x="256.5" y="32.8467">loan</text></g><!--class security--><g id="elem_security"><rect codeLine="71" fill="#FFFFCC" height="32" id="security" rx="2.5" ry="2.5" style="stroke:#181818;stroke-width:0.5;" width="86" x="307" y="12"/><ellipse cx="322" cy="28" fill="#D9B01C" rx="11" ry="11" style="stroke:#181818;stroke-width:1.0;"/><path d="M323.2031,28.1406 Q323.5625,28.2188 323.8281,28.5 Q324.1094,28.7656 324.5,29.5469 L326.7344,34 L324.0469,34 L322.5469,30.875 Q322.4844,30.7344 322.375,30.5 Q321.7188,29.1094 320.8281,29.1094 L320.0469,29.1094 L320.0469,34 L317.6094,34 L317.6094,21.6094 L321.1406,21.6094 Q323.5313,21.6094 324.5625,22.4531 Q325.6094,23.2969 325.6094,25.2031 Q325.6094,26.4844 324.9844,27.25 Q324.375,28 323.2031,28.1406 Z M320.0469,23.6719 L320.0469,27.0469 L321.2031,27.0469 Q322.2188,27.0469 322.6406,26.6563 Q323.0781,26.25 323.0781,25.3438 Q323.0781,24.4531 322.6406,24.0625 Q322.2188,23.6719 321.2031,23.6719 L320.0469,23.6719 Z " fill="#000000"/><text fill="#000000" font-family="sans-serif" font-size="14" lengthAdjust="spacing" textLength="54" x="336" y="32.8467">security</text></g><polygon fill="#181818" points="128.3828,171.9623,127.5634,162.1476,125.979,167.5781,120.5486,165.9937,128.3828,171.9623" style="stroke:#181818;stroke-width:1.0;"/><path d="M58.3247,44.1833 C71.8709,68.8903 97.1476,114.9924 125.4982,166.7012 " fill="none" style="stroke:#181818;stroke-width:1.0;"/><polygon fill="#181818" points="169.4116,79.82,171.8882,70.2877,168.5951,74.8872,163.9956,71.594,169.4116,79.82" style="stroke:#181818;stroke-width:1.0;"/><path d="M163.5131,44.1833 C164.9791,53.0406 166.0324,59.4041 168.4318,73.9006 " fill="none" style="stroke:#181818;stroke-width:1.0;"/><polygon fill="#181818" points="249.4132,79.82,254.8567,71.6122,250.2462,74.8899,246.9685,70.2794,249.4132,79.82" style="stroke:#181818;stroke-width:1.0;"/><path d="M255.4345,44.1833 C253.938,53.0406 252.8622,59.4074 250.4128,73.9039 " fill="none" style="stroke:#181818;stroke-width:1.0;"/><polygon fill="#181818" points="289.5333,153.364,297.066,147.0191,291.7197,148.8674,289.8714,143.521,289.5333,153.364" style="stroke:#181818;stroke-width:1.0;"/><path d="M342.6178,44.1833 C332.05,65.9185 314.0757,102.8869 292.1569,147.968 " fill="none" style="stroke:#181818;stroke-width:1.0;"/><!--SRC=[ZP9BQyCm3CVl_XGUkspGGfl0sA3qaAw7NNPOs3ceYPgQ-X5ifwECVVSfMTCyOTN5qb-Fdq2-Aopa2hY4ioazTmezQ63C7OKkm8BY6mdEHP0USsjAdMsCD9RVHv_ns_isZjb1PCXH5VxCgVTWCjULzW8bAUsqtM2Gjw0TfL1xvj1p3GefJZ76gi5JYJOQMMLfjGaNgW1X5JKapeCl7L-j-CDszlmKBQBj8r-l-JTZd6UctFbzASaLEf72YnoyC9fYQPoZXmOd1TgziKhel1QiWggXfnOM- -s4pJ5PjbxIOJNIXT64rz6DuCeTkJe3ctNKB_3fuHe7hJT617r4C4G4auXWW0XRRum8-uXmY0Wd4M6Bw6N_LB8V2cgxN1JIb3w4h-_uCNjzYHRBJNF7gVeChJZHCKvuSuiqe6ykTfYMLj3l_R-XMNq-Nuy_9kiiEbrGhpMTkYundRxmVm40]--></g></svg>