<?xml version="1.0" encoding="us-ascii" standalone="no"?><svg xmlns="http://www.w3.org/2000/svg" xmlns:xlink="http://www.w3.org/1999/xlink" contentStyleType="text/css" height="632px" preserveAspectRatio="none" style="width:172px;height:632px;" version="1.1" viewBox="0 0 172 632" width="172px" zoomAndPan="magnify"><defs/><g><!--class entity_type--><g id="elem_entity_type"><rect codeLine="13" fill="#FFFFCC" height="545.2031" id="entity_type" rx="2.5" ry="2.5" style="stroke:#181818;stroke-width:0.5;" width="159" x="6" y="80"/><ellipse cx="44.4" cy="96" fill="#86B0BE" rx="11" ry="11" style="stroke:#181818;stroke-width:1.0;"/><path d="M48.5094,102 L40.7906,102 L40.7906,89.6094 L48.5094,89.6094 L48.5094,91.7656 L43.2438,91.7656 L43.2438,94.4375 L48.0094,94.4375 L48.0094,96.5938 L43.2438,96.5938 L43.2438,99.8438 L48.5094,99.8438 L48.5094,102 Z " fill="#000000"/><text fill="#000000" font-family="sans-serif" font-size="14" lengthAdjust="spacing" textLength="75" x="63.6" y="100.8467">entity_type</text><line style="stroke:#181818;stroke-width:0.5;" x1="7" x2="164" y1="112" y2="112"/><text fill="#000000" font-family="sans-serif" font-size="14" lengthAdjust="spacing" textLength="110" x="12" y="128.9951">building_society</text><text fill="#000000" font-family="sans-serif" font-size="14" lengthAdjust="spacing" textLength="25" x="12" y="145.292">ccp</text><text fill="#000000" font-family="sans-serif" font-size="14" lengthAdjust="spacing" textLength="88" x="12" y="161.5889">central_bank</text><text fill="#000000" font-family="sans-serif" font-size="14" lengthAdjust="spacing" textLength="84" x="12" y="177.8857">central_govt</text><text fill="#000000" font-family="sans-serif" font-size="14" lengthAdjust="spacing" textLength="45" x="12" y="194.1826">charity</text><text fill="#000000" font-family="sans-serif" font-size="14" lengthAdjust="spacing" textLength="20" x="12" y="210.4795">ciu</text><text fill="#000000" font-family="sans-serif" font-size="14" lengthAdjust="spacing" textLength="128" x="12" y="226.7764">community_charity</text><text fill="#000000" font-family="sans-serif" font-size="14" lengthAdjust="spacing" textLength="67" x="12" y="243.0732">corporate</text><text fill="#000000" font-family="sans-serif" font-size="14" lengthAdjust="spacing" textLength="114" x="12" y="259.3701">credit_institution</text><text fill="#000000" font-family="sans-serif" font-size="14" lengthAdjust="spacing" textLength="85" x="12" y="275.667">credit_union</text><text fill="#000000" font-family="sans-serif" font-size="14" lengthAdjust="spacing" textLength="104" x="12" y="291.9639">deposit_broker</text><text fill="#000000" font-family="sans-serif" font-size="14" lengthAdjust="spacing" textLength="147" x="12" y="308.2607">export_credit_agency</text><text fill="#000000" font-family="sans-serif" font-size="14" lengthAdjust="spacing" textLength="55" x="12" y="324.5576">financial</text><text fill="#000000" font-family="sans-serif" font-size="14" lengthAdjust="spacing" textLength="113" x="12" y="340.8545">financial_holding</text><text fill="#000000" font-family="sans-serif" font-size="14" lengthAdjust="spacing" textLength="31" x="12" y="357.1514">fund</text><text fill="#000000" font-family="sans-serif" font-size="14" lengthAdjust="spacing" textLength="83" x="12" y="373.4482">hedge_fund</text><text fill="#000000" font-family="sans-serif" font-size="14" lengthAdjust="spacing" textLength="63" x="12" y="389.7451">individual</text><text fill="#000000" font-family="sans-serif" font-size="14" lengthAdjust="spacing" textLength="48" x="12" y="406.042">insurer</text><text fill="#000000" font-family="sans-serif" font-size="14" lengthAdjust="spacing" textLength="50" x="12" y="422.3389">intl_org</text><text fill="#000000" font-family="sans-serif" font-size="14" lengthAdjust="spacing" textLength="109" x="12" y="438.6357">investment_firm</text><text fill="#000000" font-family="sans-serif" font-size="14" lengthAdjust="spacing" textLength="98" x="12" y="454.9326">local_authority</text><text fill="#000000" font-family="sans-serif" font-size="14" lengthAdjust="spacing" textLength="31" x="12" y="471.2295">mdb</text><text fill="#000000" font-family="sans-serif" font-size="14" lengthAdjust="spacing" textLength="77" x="12" y="487.5264">mmkt_fund</text><text fill="#000000" font-family="sans-serif" font-size="14" lengthAdjust="spacing" textLength="103" x="12" y="503.8232">natural_person</text><text fill="#000000" font-family="sans-serif" font-size="14" lengthAdjust="spacing" textLength="37" x="12" y="520.1201">other</text><text fill="#000000" font-family="sans-serif" font-size="14" lengthAdjust="spacing" textLength="99" x="12" y="536.417">other_financial</text><text fill="#000000" font-family="sans-serif" font-size="14" lengthAdjust="spacing" textLength="70" x="12" y="552.7139">other_pse</text><text fill="#000000" font-family="sans-serif" font-size="14" lengthAdjust="spacing" textLength="79" x="12" y="569.0107">partnership</text><text fill="#000000" font-family="sans-serif" font-size="14" lengthAdjust="spacing" textLength="94" x="12" y="585.3076">pension_fund</text><text fill="#000000" font-family="sans-serif" font-size="14" lengthAdjust="spacing" textLength="20" x="12" y="601.6045">pic</text><text fill="#000000" font-family="sans-serif" font-size="14" lengthAdjust="spacing" textLength="110" x="12" y="617.9014">...20 more fields</text></g><!--class entity--><g id="elem_entity"><rect codeLine="52" fill="#FFFFCC" height="32" id="entity" rx="2.5" ry="2.5" style="stroke:#181818;stroke-width:0.5;" width="70" x="50.5" y="12"/><ellipse cx="65.5" cy="28" fill="#D9B01C" rx="11" ry="11" style="stroke:#181818;stroke-width:1.0;"/><path d="M66.7031,28.1406 Q67.0625,28.2188 67.3281,28.5 Q67.6094,28.7656 68,29.5469 L70.2344,34 L67.5469,34 L66.0469,30.875 Q65.9844,30.7344 65.875,30.5 Q65.2188,29.1094 64.3281,29.1094 L63.5469,29.1094 L63.5469,34 L61.1094,34 L61.1094,21.6094 L64.6406,21.6094 Q67.0313,21.6094 68.0625,22.4531 Q69.1094,23.2969 69.1094,25.2031 Q69.1094,26.4844 68.4844,27.25 Q67.875,28 66.7031,28.1406 Z M63.5469,23.6719 L63.5469,27.0469 L64.7031,27.0469 Q65.7188,27.0469 66.1406,26.6563 Q66.5781,26.25 66.5781,25.3438 Q66.5781,24.4531 66.1406,24.0625 Q65.7188,23.6719 64.7031,23.6719 L63.5469,23.6719 Z " fill="#000000"/><text fill="#000000" font-family="sans-serif" font-size="14" lengthAdjust="spacing" textLength="38" x="79.5" y="32.8467">entity</text></g><polygon fill="#181818" points="85.5,79.894,89.5,70.894,85.5,74.894,81.5,70.894,85.5,79.894" style="stroke:#181818;stroke-width:1.0;"/><path d="M85.5,44.1223 C85.5,52.9639 85.5,59.2642 85.5,73.894 " fill="none" style="stroke:#181818;stroke-width:1.0;"/><!--SRC=[NL8zZzim3DtzArJSqW9tGTgXQ8531gSPkdHeq5bG9COcR562H0KrYlxtKZe7vwi6Ydpae_YXTp6PmHircoKKLja36p9TboUaQ9BnwZYRd7jZfo65GkuOvf3KG__h_Ft7wNpkHdIWm4TUb737uF8MkYBCWhnck_oNY9EXB2uWxZAm8kD1R0jdg0IM40e4NJssLg8a4ddHl4HGpy_g_Udno-T-tvy-gCD1_UawfIu5PuSqw1mi0Yy2MHkh56uoixuOcZRc46vSpT4aV8d6KcNmlb1zQ-C9AGOf2wgUm25hf2m55SP0hw3mckaWXYps9OK9aW3mM_Yirp0p0DcQzufaoAAPjxeUG-kZOZ8mkKPm0-ZLG79uGrSQIQeegRs0nBCEQMZg3J9xQLDVCNb1vc0bhocogBKZxovL-edlUSbmgME9a79h8l3OChTRRqjzGMAkuv1rCGbbn3hg29Hb1FUS4Qt8tMxtQQzyI73_6FNy5KyxRnRSTllpyTlNVl_nUD_js_0ryEdfiFqKgxlx1m00]--></g></svg>