<?xml version="1.0" encoding="us-ascii" standalone="no"?><svg xmlns="http://www.w3.org/2000/svg" xmlns:xlink="http://www.w3.org/1999/xlink" contentStyleType="text/css" height="208px" preserveAspectRatio="none" style="width:241px;height:208px;" version="1.1" viewBox="0 0 241 208" width="241px" zoomAndPan="magnify"><defs/><g><!--class account_encumbrance_type--><g id="elem_account_encumbrance_type"><rect codeLine="13" fill="#FFFFCC" height="121.4844" id="account_encumbrance_type" rx="2.5" ry="2.5" style="stroke:#181818;stroke-width:0.5;" width="228" x="6" y="80"/><ellipse cx="21" cy="96" fill="#86B0BE" rx="11" ry="11" style="stroke:#181818;stroke-width:1.0;"/><path d="M25.1094,102 L17.3906,102 L17.3906,89.6094 L25.1094,89.6094 L25.1094,91.7656 L19.8438,91.7656 L19.8438,94.4375 L24.6094,94.4375 L24.6094,96.5938 L19.8438,96.5938 L19.8438,99.8438 L25.1094,99.8438 L25.1094,102 Z " fill="#000000"/><text fill="#000000" font-family="sans-serif" font-size="14" lengthAdjust="spacing" textLength="196" x="35" y="100.8467">account_encumbrance_type</text><line style="stroke:#181818;stroke-width:0.5;" x1="7" x2="233" y1="112" y2="112"/><text fill="#000000" font-family="sans-serif" font-size="14" lengthAdjust="spacing" textLength="99" x="12" y="128.9951">covered_bond</text><text fill="#000000" font-family="sans-serif" font-size="14" lengthAdjust="spacing" textLength="65" x="12" y="145.292">derivative</text><text fill="#000000" font-family="sans-serif" font-size="14" lengthAdjust="spacing" textLength="36" x="12" y="161.5889">none</text><text fill="#000000" font-family="sans-serif" font-size="14" lengthAdjust="spacing" textLength="37" x="12" y="177.8857">other</text><text fill="#000000" font-family="sans-serif" font-size="14" lengthAdjust="spacing" textLength="32" x="12" y="194.1826">repo</text></g><!--class account--><g id="elem_account"><rect codeLine="25" fill="#FFFFCC" height="32" id="account" rx="2.5" ry="2.5" style="stroke:#181818;stroke-width:0.5;" width="88" x="76" y="12"/><ellipse cx="91" cy="28" fill="#D9B01C" rx="11" ry="11" style="stroke:#181818;stroke-width:1.0;"/><path d="M92.2031,28.1406 Q92.5625,28.2188 92.8281,28.5 Q93.1094,28.7656 93.5,29.5469 L95.7344,34 L93.0469,34 L91.5469,30.875 Q91.4844,30.7344 91.375,30.5 Q90.7188,29.1094 89.8281,29.1094 L89.0469,29.1094 L89.0469,34 L86.6094,34 L86.6094,21.6094 L90.1406,21.6094 Q92.5313,21.6094 93.5625,22.4531 Q94.6094,23.2969 94.6094,25.2031 Q94.6094,26.4844 93.9844,27.25 Q93.375,28 92.2031,28.1406 Z M89.0469,23.6719 L89.0469,27.0469 L90.2031,27.0469 Q91.2188,27.0469 91.6406,26.6563 Q92.0781,26.25 92.0781,25.3438 Q92.0781,24.4531 91.6406,24.0625 Q91.2188,23.6719 90.2031,23.6719 L89.0469,23.6719 Z " fill="#000000"/><text fill="#000000" font-family="sans-serif" font-size="14" lengthAdjust="spacing" textLength="56" x="105" y="32.8467">account</text></g><polygon fill="#181818" points="120,79.8837,124,70.8837,120,74.8837,116,70.8837,120,79.8837" style="stroke:#181818;stroke-width:1.0;"/><path d="M120,44.3646 C120,53.8528 120,60.7015 120,73.8837 " fill="none" style="stroke:#181818;stroke-width:1.0;"/><!--SRC=[TKvDQyCm3BtxLsZiia4BtMLiK79mbaClFIpi71HRQqnZEzXA88pzzobXPUjWkaXFUX-w6HAUF4AFSnmPiYV6W4hbimi39lHGzfYpHdC-fJW6MyO-9hZLR_NXMDMrwfmb83_m3ABjeis_L- -EUjdykBL_Z3XXo7AYm2eJGq1FWWtLj0XOA246KakPvHD0OqJE3GKp-bRaXXgU1uBz7kwgpTEZtkdg7ee2FfG2C76YHBPfOx02BIKt8Rk91ApE094xIj8J3N79-PHvhUl4DU1ry_AiTm_b9U2QVs5kjyM_VtwJrHS0]--></g></svg>