<?xml version="1.0" encoding="us-ascii" standalone="no"?><svg xmlns="http://www.w3.org/2000/svg" xmlns:xlink="http://www.w3.org/1999/xlink" contentStyleType="text/css" height="273px" preserveAspectRatio="none" style="width:400px;height:273px;" version="1.1" viewBox="0 0 400 273" width="400px" zoomAndPan="magnify"><defs/><g><!--class cr_approach--><g id="elem_cr_approach"><rect codeLine="13" fill="#FFFFCC" height="186.6719" id="cr_approach" rx="2.5" ry="2.5" style="stroke:#181818;stroke-width:0.5;" width="117" x="150.5" y="80"/><ellipse cx="165.5" cy="96" fill="#86B0BE" rx="11" ry="11" style="stroke:#181818;stroke-width:1.0;"/><path d="M169.6094,102 L161.8906,102 L161.8906,89.6094 L169.6094,89.6094 L169.6094,91.7656 L164.3438,91.7656 L164.3438,94.4375 L169.1094,94.4375 L169.1094,96.5938 L164.3438,96.5938 L164.3438,99.8438 L169.6094,99.8438 L169.6094,102 Z " fill="#000000"/><text fill="#000000" font-family="sans-serif" font-size="14" lengthAdjust="spacing" textLength="85" x="179.5" y="100.8467">cr_approach</text><line style="stroke:#181818;stroke-width:0.5;" x1="151.5" x2="266.5" y1="112" y2="112"/><text fill="#000000" font-family="sans-serif" font-size="14" lengthAdjust="spacing" textLength="25" x="156.5" y="128.9951">airb</text><text fill="#000000" font-family="sans-serif" font-size="14" lengthAdjust="spacing" textLength="36" x="156.5" y="145.292">eif_fb</text><text fill="#000000" font-family="sans-serif" font-size="14" lengthAdjust="spacing" textLength="31" x="156.5" y="161.5889">eif_lt</text><text fill="#000000" font-family="sans-serif" font-size="14" lengthAdjust="spacing" textLength="53" x="156.5" y="177.8857">eif_mba</text><text fill="#000000" font-family="sans-serif" font-size="14" lengthAdjust="spacing" textLength="21" x="156.5" y="194.1826">firb</text><text fill="#000000" font-family="sans-serif" font-size="14" lengthAdjust="spacing" textLength="63" x="156.5" y="210.4795">sec_erba</text><text fill="#000000" font-family="sans-serif" font-size="14" lengthAdjust="spacing" textLength="48" x="156.5" y="226.7764">sec_sa</text><text fill="#000000" font-family="sans-serif" font-size="14" lengthAdjust="spacing" textLength="63" x="156.5" y="243.0732">sec_sa_lt</text><text fill="#000000" font-family="sans-serif" font-size="14" lengthAdjust="spacing" textLength="22" x="156.5" y="259.3701">std</text></g><!--class account--><g id="elem_account"><rect codeLine="29" fill="#FFFFCC" height="32" id="account" rx="2.5" ry="2.5" style="stroke:#181818;stroke-width:0.5;" width="88" x="6" y="12"/><ellipse cx="21" cy="28" fill="#D9B01C" rx="11" ry="11" style="stroke:#181818;stroke-width:1.0;"/><path d="M22.2031,28.1406 Q22.5625,28.2188 22.8281,28.5 Q23.1094,28.7656 23.5,29.5469 L25.7344,34 L23.0469,34 L21.5469,30.875 Q21.4844,30.7344 21.375,30.5 Q20.7188,29.1094 19.8281,29.1094 L19.0469,29.1094 L19.0469,34 L16.6094,34 L16.6094,21.6094 L20.1406,21.6094 Q22.5313,21.6094 23.5625,22.4531 Q24.6094,23.2969 24.6094,25.2031 Q24.6094,26.4844 23.9844,27.25 Q23.375,28 22.2031,28.1406 Z M19.0469,23.6719 L19.0469,27.0469 L20.2031,27.0469 Q21.2188,27.0469 21.6406,26.6563 Q22.0781,26.25 22.0781,25.3438 Q22.0781,24.4531 21.6406,24.0625 Q21.2188,23.6719 20.2031,23.6719 L19.0469,23.6719 Z " fill="#000000"/><text fill="#000000" font-family="sans-serif" font-size="14" lengthAdjust="spacing" textLength="56" x="35" y="32.8467">account</text></g><!--class derivative--><g id="elem_derivative"><rect codeLine="37" fill="#FFFFCC" height="32" id="derivative" rx="2.5" ry="2.5" style="stroke:#181818;stroke-width:0.5;" width="97" x="112.5" y="12"/><ellipse cx="127.5" cy="28" fill="#D9B01C" rx="11" ry="11" style="stroke:#181818;stroke-width:1.0;"/><path d="M128.7031,28.1406 Q129.0625,28.2188 129.3281,28.5 Q129.6094,28.7656 130,29.5469 L132.2344,34 L129.5469,34 L128.0469,30.875 Q127.9844,30.7344 127.875,30.5 Q127.2188,29.1094 126.3281,29.1094 L125.5469,29.1094 L125.5469,34 L123.1094,34 L123.1094,21.6094 L126.6406,21.6094 Q129.0313,21.6094 130.0625,22.4531 Q131.1094,23.2969 131.1094,25.2031 Q131.1094,26.4844 130.4844,27.25 Q129.875,28 128.7031,28.1406 Z M125.5469,23.6719 L125.5469,27.0469 L126.7031,27.0469 Q127.7188,27.0469 128.1406,26.6563 Q128.5781,26.25 128.5781,25.3438 Q128.5781,24.4531 128.1406,24.0625 Q127.7188,23.6719 126.7031,23.6719 L125.5469,23.6719 Z " fill="#000000"/><text fill="#000000" font-family="sans-serif" font-size="14" lengthAdjust="spacing" textLength="65" x="141.5" y="32.8467">derivative</text></g><!--class loan--><g id="elem_loan"><rect codeLine="45" fill="#FFFFCC" height="32" id="loan" rx="2.5" ry="2.5" style="stroke:#181818;stroke-width:0.5;" width="61" x="227.5" y="12"/><ellipse cx="242.5" cy="28" fill="#D9B01C" rx="11" ry="11" style="stroke:#181818;stroke-width:1.0;"/><path d="M243.7031,28.1406 Q244.0625,28.2188 244.3281,28.5 Q244.6094,28.7656 245,29.5469 L247.2344,34 L244.5469,34 L243.0469,30.875 Q242.9844,30.7344 242.875,30.5 Q242.2188,29.1094 241.3281,29.1094 L240.5469,29.1094 L240.5469,34 L238.1094,34 L238.1094,21.6094 L241.6406,21.6094 Q244.0313,21.6094 245.0625,22.4531 Q246.1094,23.2969 246.1094,25.2031 Q246.1094,26.4844 245.4844,27.25 Q244.875,28 243.7031,28.1406 Z M240.5469,23.6719 L240.5469,27.0469 L241.7031,27.0469 Q242.7188,27.0469 243.1406,26.6563 Q243.5781,26.25 243.5781,25.3438 Q243.5781,24.4531 243.1406,24.0625 Q242.7188,23.6719 241.7031,23.6719 L240.5469,23.6719 Z " fill="#000000"/><text fill="#000000" font-family="sans-serif" font-size="14" lengthAdjust="spacing" textLength="29" x="256.5" y="32.8467">loan</text></g><!--class security--><g id="elem_security"><rect codeLine="53" fill="#FFFFCC" height="32" id="security" rx="2.5" ry="2.5" style="stroke:#181818;stroke-width:0.5;" width="86" x="307" y="12"/><ellipse cx="322" cy="28" fill="#D9B01C" rx="11" ry="11" style="stroke:#181818;stroke-width:1.0;"/><path d="M323.2031,28.1406 Q323.5625,28.2188 323.8281,28.5 Q324.1094,28.7656 324.5,29.5469 L326.7344,34 L324.0469,34 L322.5469,30.875 Q322.4844,30.7344 322.375,30.5 Q321.7188,29.1094 320.8281,29.1094 L320.0469,29.1094 L320.0469,34 L317.6094,34 L317.6094,21.6094 L321.1406,21.6094 Q323.5313,21.6094 324.5625,22.4531 Q325.6094,23.2969 325.6094,25.2031 Q325.6094,26.4844 324.9844,27.25 Q324.375,28 323.2031,28.1406 Z M320.0469,23.6719 L320.0469,27.0469 L321.2031,27.0469 Q322.2188,27.0469 322.6406,26.6563 Q323.0781,26.25 323.0781,25.3438 Q323.0781,24.4531 322.6406,24.0625 Q322.2188,23.6719 321.2031,23.6719 L320.0469,23.6719 Z " fill="#000000"/><text fill="#000000" font-family="sans-serif" font-size="14" lengthAdjust="spacing" textLength="54" x="336" y="32.8467">security</text></g><polygon fill="#181818" points="150.2954,119.5182,146.2941,110.5187,146.5836,116.1682,140.9341,116.4577,150.2954,119.5182" style="stroke:#181818;stroke-width:1.0;"/><path d="M66.7153,44.0858 C86.4887,61.9317 116.0352,88.5978 145.8412,115.4982 " fill="none" style="stroke:#181818;stroke-width:1.0;"/><polygon fill="#181818" points="177.9568,79.6937,178.8952,69.8896,176.3707,74.9519,171.3084,72.4274,177.9568,79.6937" style="stroke:#181818;stroke-width:1.0;"/><path d="M166.0461,44.0858 C169.1271,53.2966 171.4489,60.2377 176.0535,74.0036 " fill="none" style="stroke:#181818;stroke-width:1.0;"/><polygon fill="#181818" points="240.69,79.6937,247.3837,72.4691,242.3057,74.9619,239.8129,69.884,240.69,79.6937" style="stroke:#181818;stroke-width:1.0;"/><path d="M252.8488,44.0858 C249.7036,53.2966 247.3294,60.2497 242.6288,74.0156 " fill="none" style="stroke:#181818;stroke-width:1.0;"/><polygon fill="#181818" points="267.5176,112.9449,276.6786,109.3287,271.0219,109.3784,270.9722,103.7218,267.5176,112.9449" style="stroke:#181818;stroke-width:1.0;"/><path d="M335.177,44.0858 C319.0562,60.4925 296.4768,83.4721 271.7228,108.6651 " fill="none" style="stroke:#181818;stroke-width:1.0;"/><!--SRC=[ZL0zQyCm4DtrAwvqQI61T2aj10zsF7JfKDFPdELpBA8F8yc1KFhVUtRi9fX2eqLFx-xTUxgxpkFU86WykJv2C1JHeX3Xe6o77Wra6aD8KHxstlMspfns7kxJp-BjFIyAqQgQW4mNJy3QrjNXcceKQMOkqwh5eEZH1YwHZI9G18k6-2sfe44GkSKwIs8uSaW2qfVOTTwXR66xXOTyzVASRjBy4P84leG0GEKhlaWrPJC37ITWAcJKd5i2oPByo0mmNC1P468z67yp7CyK0QNa7yJH_cErUqqtJzbi_rT_JLuTCQeZtIpH3ktDpHovzuhN_RzWZhvU9zUR55SHbwKnofByjLmM9fyV]--></g></svg>