<?xml version="1.0" encoding="us-ascii" standalone="no"?><svg xmlns="http://www.w3.org/2000/svg" xmlns:xlink="http://www.w3.org/1999/xlink" contentStyleType="text/css" height="175px" preserveAspectRatio="none" style="width:185px;height:175px;" version="1.1" viewBox="0 0 185 175" width="185px" zoomAndPan="magnify"><defs/><g><!--class derivative_base_rate--><g id="elem_derivative_base_rate"><rect codeLine="13" fill="#FFFFCC" height="88.8906" id="derivative_base_rate" rx="2.5" ry="2.5" style="stroke:#181818;stroke-width:0.5;" width="172" x="6" y="80"/><ellipse cx="21" cy="96" fill="#86B0BE" rx="11" ry="11" style="stroke:#181818;stroke-width:1.0;"/><path d="M25.1094,102 L17.3906,102 L17.3906,89.6094 L25.1094,89.6094 L25.1094,91.7656 L19.8438,91.7656 L19.8438,94.4375 L24.6094,94.4375 L24.6094,96.5938 L19.8438,96.5938 L19.8438,99.8438 L25.1094,99.8438 L25.1094,102 Z " fill="#000000"/><text fill="#000000" font-family="sans-serif" font-size="14" lengthAdjust="spacing" textLength="140" x="35" y="100.8467">derivative_base_rate</text><line style="stroke:#181818;stroke-width:0.5;" x1="7" x2="177" y1="112" y2="112"/><text fill="#000000" font-family="sans-serif" font-size="14" lengthAdjust="spacing" textLength="38" x="12" y="128.9951">FDTR</text><text fill="#000000" font-family="sans-serif" font-size="14" lengthAdjust="spacing" textLength="76" x="12" y="145.292">UKBRBASE</text><text fill="#000000" font-family="sans-serif" font-size="14" lengthAdjust="spacing" textLength="40" x="12" y="161.5889">ZERO</text></g><!--class derivative--><g id="elem_derivative"><rect codeLine="23" fill="#FFFFCC" height="32" id="derivative" rx="2.5" ry="2.5" style="stroke:#181818;stroke-width:0.5;" width="97" x="43.5" y="12"/><ellipse cx="58.5" cy="28" fill="#D9B01C" rx="11" ry="11" style="stroke:#181818;stroke-width:1.0;"/><path d="M59.7031,28.1406 Q60.0625,28.2188 60.3281,28.5 Q60.6094,28.7656 61,29.5469 L63.2344,34 L60.5469,34 L59.0469,30.875 Q58.9844,30.7344 58.875,30.5 Q58.2188,29.1094 57.3281,29.1094 L56.5469,29.1094 L56.5469,34 L54.1094,34 L54.1094,21.6094 L57.6406,21.6094 Q60.0313,21.6094 61.0625,22.4531 Q62.1094,23.2969 62.1094,25.2031 Q62.1094,26.4844 61.4844,27.25 Q60.875,28 59.7031,28.1406 Z M56.5469,23.6719 L56.5469,27.0469 L57.7031,27.0469 Q58.7188,27.0469 59.1406,26.6563 Q59.5781,26.25 59.5781,25.3438 Q59.5781,24.4531 59.1406,24.0625 Q58.7188,23.6719 57.7031,23.6719 L56.5469,23.6719 Z " fill="#000000"/><text fill="#000000" font-family="sans-serif" font-size="14" lengthAdjust="spacing" textLength="65" x="72.5" y="32.8467">derivative</text></g><polygon fill="#181818" points="92,79.7835,96,70.7835,92,74.7835,88,70.7835,92,79.7835" style="stroke:#181818;stroke-width:1.0;"/><path d="M92,44.1831 C92,53.8874 92,61.0086 92,73.7835 " fill="none" style="stroke:#181818;stroke-width:1.0;"/><!--SRC=[ROvFQm8n4CNl-HGZNbfGq4jfGHQQDO882fjwyIBZxgZ1JR8aKP3IxzvPQL5hvpB_tllnEat0dKMeyUoF2QAbX0w5Y0VZ6Wne8QynHedbOHVyqLMvhts0hbpgwLnfBVQc8Y3Rf3EmT- -hU7lQ6ghvSgLj_e1IG1VvHIw9I0aSMkAz94sj8R74UKUYhR9D0XK5Sy9aJhJUOAGrYmX68tXIlTSNEP3g6R8CFeK0c8m_2cxBcIpakrOyhbInQ55VF5_g0Nf15RtncnmCyr_KlUL6tEzd_mRwqOfl]--></g></svg>