<?xml version="1.0" encoding="us-ascii" standalone="no"?><svg xmlns="http://www.w3.org/2000/svg" xmlns:xlink="http://www.w3.org/1999/xlink" contentStyleType="text/css" height="547px" preserveAspectRatio="none" style="width:1353px;height:547px;" version="1.1" viewBox="0 0 1353 547" width="1353px" zoomAndPan="magnify"><defs/><g><!--class example--><g id="elem_example"><rect codeLine="14" fill="#FFFFCC" height="88.8906" id="example" rx="2.5" ry="2.5" style="stroke:#181818;stroke-width:0.5;" width="90" x="24.5" y="20"/><ellipse cx="39.5" cy="36" fill="#D9B01C" rx="11" ry="11" style="stroke:#181818;stroke-width:1.0;"/><path d="M40.7031,36.1406 Q41.0625,36.2188 41.3281,36.5 Q41.6094,36.7656 42,37.5469 L44.2344,42 L41.5469,42 L40.0469,38.875 Q39.9844,38.7344 39.875,38.5 Q39.2188,37.1094 38.3281,37.1094 L37.5469,37.1094 L37.5469,42 L35.1094,42 L35.1094,29.6094 L38.6406,29.6094 Q41.0313,29.6094 42.0625,30.4531 Q43.1094,31.2969 43.1094,33.2031 Q43.1094,34.4844 42.4844,35.25 Q41.875,36 40.7031,36.1406 Z M37.5469,31.6719 L37.5469,35.0469 L38.7031,35.0469 Q39.7188,35.0469 40.1406,34.6563 Q40.5781,34.25 40.5781,33.3438 Q40.5781,32.4531 40.1406,32.0625 Q39.7188,31.6719 38.7031,31.6719 L37.5469,31.6719 Z " fill="#000000"/><text fill="#000000" font-family="sans-serif" font-size="14" lengthAdjust="spacing" textLength="58" x="53.5" y="40.8467">example</text><line style="stroke:#181818;stroke-width:0.5;" x1="25.5" x2="113.5" y1="52" y2="52"/><text fill="#000000" font-family="sans-serif" font-size="14" lengthAdjust="spacing" textLength="30" x="30.5" y="68.9951">data</text><text fill="#000000" font-family="sans-serif" font-size="14" lengthAdjust="spacing" textLength="66" x="30.5" y="85.292">comment</text><text fill="#000000" font-family="sans-serif" font-size="14" lengthAdjust="spacing" textLength="25" x="30.5" y="101.5889">title</text></g><!--class loan_cash_flow--><g id="elem_loan_cash_flow"><rect codeLine="21" fill="#FFFFCC" height="105.1875" id="loan_cash_flow" rx="2.5" ry="2.5" style="stroke:#181818;stroke-width:0.5;" width="135" x="138" y="12"/><ellipse cx="153" cy="28" fill="#D9B01C" rx="11" ry="11" style="stroke:#181818;stroke-width:1.0;"/><path d="M154.2031,28.1406 Q154.5625,28.2188 154.8281,28.5 Q155.1094,28.7656 155.5,29.5469 L157.7344,34 L155.0469,34 L153.5469,30.875 Q153.4844,30.7344 153.375,30.5 Q152.7188,29.1094 151.8281,29.1094 L151.0469,29.1094 L151.0469,34 L148.6094,34 L148.6094,21.6094 L152.1406,21.6094 Q154.5313,21.6094 155.5625,22.4531 Q156.6094,23.2969 156.6094,25.2031 Q156.6094,26.4844 155.9844,27.25 Q155.375,28 154.2031,28.1406 Z M151.0469,23.6719 L151.0469,27.0469 L152.2031,27.0469 Q153.2188,27.0469 153.6406,26.6563 Q154.0781,26.25 154.0781,25.3438 Q154.0781,24.4531 153.6406,24.0625 Q153.2188,23.6719 152.2031,23.6719 L151.0469,23.6719 Z " fill="#000000"/><text fill="#000000" font-family="sans-serif" font-size="14" lengthAdjust="spacing" textLength="103" x="167" y="32.8467">loan_cash_flow</text><line style="stroke:#181818;stroke-width:0.5;" x1="139" x2="272" y1="44" y2="44"/><text fill="#000000" font-family="sans-serif" font-size="14" lengthAdjust="spacing" textLength="31" x="144" y="60.9951">date</text><text fill="#000000" font-family="sans-serif" font-size="14" lengthAdjust="spacing" textLength="53" x="144" y="77.292">amount</text><text fill="#000000" font-family="sans-serif" font-size="14" lengthAdjust="spacing" textLength="12" x="144" y="93.5889">id</text><text fill="#000000" font-family="sans-serif" font-size="14" lengthAdjust="spacing" textLength="101" x="144" y="109.8857">...6 more fields</text></g><!--class entity--><g id="elem_entity"><rect codeLine="29" fill="#FFFFCC" height="105.1875" id="entity" rx="2.5" ry="2.5" style="stroke:#181818;stroke-width:0.5;" width="122" x="291.5" y="12"/><ellipse cx="329.9" cy="28" fill="#D9B01C" rx="11" ry="11" style="stroke:#181818;stroke-width:1.0;"/><path d="M331.1031,28.1406 Q331.4625,28.2188 331.7281,28.5 Q332.0094,28.7656 332.4,29.5469 L334.6344,34 L331.9469,34 L330.4469,30.875 Q330.3844,30.7344 330.275,30.5 Q329.6188,29.1094 328.7281,29.1094 L327.9469,29.1094 L327.9469,34 L325.5094,34 L325.5094,21.6094 L329.0406,21.6094 Q331.4313,21.6094 332.4625,22.4531 Q333.5094,23.2969 333.5094,25.2031 Q333.5094,26.4844 332.8844,27.25 Q332.275,28 331.1031,28.1406 Z M327.9469,23.6719 L327.9469,27.0469 L329.1031,27.0469 Q330.1188,27.0469 330.5406,26.6563 Q330.9781,26.25 330.9781,25.3438 Q330.9781,24.4531 330.5406,24.0625 Q330.1188,23.6719 329.1031,23.6719 L327.9469,23.6719 Z " fill="#000000"/><text fill="#000000" font-family="sans-serif" font-size="14" lengthAdjust="spacing" textLength="38" x="349.1" y="32.8467">entity</text><line style="stroke:#181818;stroke-width:0.5;" x1="292.5" x2="412.5" y1="44" y2="44"/><text fill="#000000" font-family="sans-serif" font-size="14" lengthAdjust="spacing" textLength="31" x="297.5" y="60.9951">date</text><text fill="#000000" font-family="sans-serif" font-size="14" lengthAdjust="spacing" textLength="78" x="297.5" y="77.292">intra_group</text><text fill="#000000" font-family="sans-serif" font-size="14" lengthAdjust="spacing" textLength="78" x="297.5" y="93.5889">naics_code</text><text fill="#000000" font-family="sans-serif" font-size="14" lengthAdjust="spacing" textLength="110" x="297.5" y="109.8857">...48 more fields</text></g><!--class risk_rating--><g id="elem_risk_rating"><rect codeLine="37" fill="#FFFFCC" height="105.1875" id="risk_rating" rx="2.5" ry="2.5" style="stroke:#181818;stroke-width:0.5;" width="113" x="432" y="12"/><ellipse cx="451.95" cy="28" fill="#D9B01C" rx="11" ry="11" style="stroke:#181818;stroke-width:1.0;"/><path d="M453.1531,28.1406 Q453.5125,28.2188 453.7781,28.5 Q454.0594,28.7656 454.45,29.5469 L456.6844,34 L453.9969,34 L452.4969,30.875 Q452.4344,30.7344 452.325,30.5 Q451.6688,29.1094 450.7781,29.1094 L449.9969,29.1094 L449.9969,34 L447.5594,34 L447.5594,21.6094 L451.0906,21.6094 Q453.4813,21.6094 454.5125,22.4531 Q455.5594,23.2969 455.5594,25.2031 Q455.5594,26.4844 454.9344,27.25 Q454.325,28 453.1531,28.1406 Z M449.9969,23.6719 L449.9969,27.0469 L451.1531,27.0469 Q452.1688,27.0469 452.5906,26.6563 Q453.0281,26.25 453.0281,25.3438 Q453.0281,24.4531 452.5906,24.0625 Q452.1688,23.6719 451.1531,23.6719 L449.9969,23.6719 Z " fill="#000000"/><text fill="#000000" font-family="sans-serif" font-size="14" lengthAdjust="spacing" textLength="70" x="467.05" y="32.8467">risk_rating</text><line style="stroke:#181818;stroke-width:0.5;" x1="433" x2="544" y1="44" y2="44"/><text fill="#000000" font-family="sans-serif" font-size="14" lengthAdjust="spacing" textLength="31" x="438" y="60.9951">date</text><text fill="#000000" font-family="sans-serif" font-size="14" lengthAdjust="spacing" textLength="53" x="438" y="77.292">pd_max</text><text fill="#000000" font-family="sans-serif" font-size="14" lengthAdjust="spacing" textLength="39" x="438" y="93.5889">name</text><text fill="#000000" font-family="sans-serif" font-size="14" lengthAdjust="spacing" textLength="101" x="438" y="109.8857">...8 more fields</text></g><!--class batch--><g id="elem_batch"><rect codeLine="45" fill="#FFFFCC" height="105.1875" id="batch" rx="2.5" ry="2.5" style="stroke:#181818;stroke-width:0.5;" width="113" x="563" y="12"/><ellipse cx="596.9" cy="28" fill="#D9B01C" rx="11" ry="11" style="stroke:#181818;stroke-width:1.0;"/><path d="M598.1031,28.1406 Q598.4625,28.2188 598.7281,28.5 Q599.0094,28.7656 599.4,29.5469 L601.6344,34 L598.9469,34 L597.4469,30.875 Q597.3844,30.7344 597.275,30.5 Q596.6188,29.1094 595.7281,29.1094 L594.9469,29.1094 L594.9469,34 L592.5094,34 L592.5094,21.6094 L596.0406,21.6094 Q598.4313,21.6094 599.4625,22.4531 Q600.5094,23.2969 600.5094,25.2031 Q600.5094,26.4844 599.8844,27.25 Q599.275,28 598.1031,28.1406 Z M594.9469,23.6719 L594.9469,27.0469 L596.1031,27.0469 Q597.1188,27.0469 597.5406,26.6563 Q597.9781,26.25 597.9781,25.3438 Q597.9781,24.4531 597.5406,24.0625 Q597.1188,23.6719 596.1031,23.6719 L594.9469,23.6719 Z " fill="#000000"/><text fill="#000000" font-family="sans-serif" font-size="14" lengthAdjust="spacing" textLength="39" x="615.1" y="32.8467">batch</text><line style="stroke:#181818;stroke-width:0.5;" x1="564" x2="675" y1="44" y2="44"/><text fill="#000000" font-family="sans-serif" font-size="14" lengthAdjust="spacing" textLength="30" x="569" y="60.9951">data</text><text fill="#000000" font-family="sans-serif" font-size="14" lengthAdjust="spacing" textLength="40" x="569" y="77.292">count</text><text fill="#000000" font-family="sans-serif" font-size="14" lengthAdjust="spacing" textLength="39" x="569" y="93.5889">name</text><text fill="#000000" font-family="sans-serif" font-size="14" lengthAdjust="spacing" textLength="101" x="569" y="109.8857">...1 more fields</text></g><!--class example_data--><g id="elem_example_data"><rect codeLine="53" fill="#FFFFCC" height="105.1875" id="example_data" rx="2.5" ry="2.5" style="stroke:#181818;stroke-width:0.5;" width="127" x="6" y="153"/><ellipse cx="21" cy="169" fill="#D9B01C" rx="11" ry="11" style="stroke:#181818;stroke-width:1.0;"/><path d="M22.2031,169.1406 Q22.5625,169.2188 22.8281,169.5 Q23.1094,169.7656 23.5,170.5469 L25.7344,175 L23.0469,175 L21.5469,171.875 Q21.4844,171.7344 21.375,171.5 Q20.7188,170.1094 19.8281,170.1094 L19.0469,170.1094 L19.0469,175 L16.6094,175 L16.6094,162.6094 L20.1406,162.6094 Q22.5313,162.6094 23.5625,163.4531 Q24.6094,164.2969 24.6094,166.2031 Q24.6094,167.4844 23.9844,168.25 Q23.375,169 22.2031,169.1406 Z M19.0469,164.6719 L19.0469,168.0469 L20.2031,168.0469 Q21.2188,168.0469 21.6406,167.6563 Q22.0781,167.25 22.0781,166.3438 Q22.0781,165.4531 21.6406,165.0625 Q21.2188,164.6719 20.2031,164.6719 L19.0469,164.6719 Z " fill="#000000"/><text fill="#000000" font-family="sans-serif" font-size="14" lengthAdjust="spacing" textLength="95" x="35" y="173.8467">example_data</text><line style="stroke:#181818;stroke-width:0.5;" x1="7" x2="132" y1="185" y2="185"/><text fill="#000000" font-family="sans-serif" font-size="14" lengthAdjust="spacing" textLength="29" x="12" y="201.9951">loan</text><text fill="#000000" font-family="sans-serif" font-size="14" lengthAdjust="spacing" textLength="76" x="12" y="218.292">agreement</text><text fill="#000000" font-family="sans-serif" font-size="14" lengthAdjust="spacing" textLength="102" x="12" y="234.5889">exchange_rate</text><text fill="#000000" font-family="sans-serif" font-size="14" lengthAdjust="spacing" textLength="110" x="12" y="250.8857">...11 more fields</text></g><!--class batch_links--><g id="elem_batch_links"><rect codeLine="61" fill="#FFFFCC" height="72.5938" id="batch_links" rx="2.5" ry="2.5" style="stroke:#181818;stroke-width:0.5;" width="109" x="151" y="169"/><ellipse cx="166" cy="185" fill="#D9B01C" rx="11" ry="11" style="stroke:#181818;stroke-width:1.0;"/><path d="M167.2031,185.1406 Q167.5625,185.2188 167.8281,185.5 Q168.1094,185.7656 168.5,186.5469 L170.7344,191 L168.0469,191 L166.5469,187.875 Q166.4844,187.7344 166.375,187.5 Q165.7188,186.1094 164.8281,186.1094 L164.0469,186.1094 L164.0469,191 L161.6094,191 L161.6094,178.6094 L165.1406,178.6094 Q167.5313,178.6094 168.5625,179.4531 Q169.6094,180.2969 169.6094,182.2031 Q169.6094,183.4844 168.9844,184.25 Q168.375,185 167.2031,185.1406 Z M164.0469,180.6719 L164.0469,184.0469 L165.2031,184.0469 Q166.2188,184.0469 166.6406,183.6563 Q167.0781,183.25 167.0781,182.3438 Q167.0781,181.4531 166.6406,181.0625 Q166.2188,180.6719 165.2031,180.6719 L164.0469,180.6719 Z " fill="#000000"/><text fill="#000000" font-family="sans-serif" font-size="14" lengthAdjust="spacing" textLength="77" x="180" y="189.8467">batch_links</text><line style="stroke:#181818;stroke-width:0.5;" x1="152" x2="259" y1="201" y2="201"/><text fill="#000000" font-family="sans-serif" font-size="14" lengthAdjust="spacing" textLength="17" x="157" y="217.9951">rel</text><text fill="#000000" font-family="sans-serif" font-size="14" lengthAdjust="spacing" textLength="27" x="157" y="234.292">href</text></g><!--class agreement--><g id="elem_agreement"><rect codeLine="67" fill="#FFFFCC" height="105.1875" id="agreement" rx="2.5" ry="2.5" style="stroke:#181818;stroke-width:0.5;" width="137" x="278" y="153"/><ellipse cx="306.05" cy="169" fill="#D9B01C" rx="11" ry="11" style="stroke:#181818;stroke-width:1.0;"/><path d="M307.2531,169.1406 Q307.6125,169.2188 307.8781,169.5 Q308.1594,169.7656 308.55,170.5469 L310.7844,175 L308.0969,175 L306.5969,171.875 Q306.5344,171.7344 306.425,171.5 Q305.7688,170.1094 304.8781,170.1094 L304.0969,170.1094 L304.0969,175 L301.6594,175 L301.6594,162.6094 L305.1906,162.6094 Q307.5813,162.6094 308.6125,163.4531 Q309.6594,164.2969 309.6594,166.2031 Q309.6594,167.4844 309.0344,168.25 Q308.425,169 307.2531,169.1406 Z M304.0969,164.6719 L304.0969,168.0469 L305.2531,168.0469 Q306.2688,168.0469 306.6906,167.6563 Q307.1281,167.25 307.1281,166.3438 Q307.1281,165.4531 306.6906,165.0625 Q306.2688,164.6719 305.2531,164.6719 L304.0969,164.6719 Z " fill="#000000"/><text fill="#000000" font-family="sans-serif" font-size="14" lengthAdjust="spacing" textLength="76" x="322.95" y="173.8467">agreement</text><line style="stroke:#181818;stroke-width:0.5;" x1="279" x2="414" y1="185" y2="185"/><text fill="#000000" font-family="sans-serif" font-size="14" lengthAdjust="spacing" textLength="31" x="284" y="201.9951">date</text><text fill="#000000" font-family="sans-serif" font-size="14" lengthAdjust="spacing" textLength="86" x="284" y="218.292">guarantor_id</text><text fill="#000000" font-family="sans-serif" font-size="14" lengthAdjust="spacing" textLength="125" x="284" y="234.5889">netting_restriction</text><text fill="#000000" font-family="sans-serif" font-size="14" lengthAdjust="spacing" textLength="110" x="284" y="250.8857">...15 more fields</text></g><!--class curve--><g id="elem_curve"><rect codeLine="75" fill="#FFFFCC" height="105.1875" id="curve" rx="2.5" ry="2.5" style="stroke:#181818;stroke-width:0.5;" width="113" x="822" y="12"/><ellipse cx="856.35" cy="28" fill="#D9B01C" rx="11" ry="11" style="stroke:#181818;stroke-width:1.0;"/><path d="M857.5531,28.1406 Q857.9125,28.2188 858.1781,28.5 Q858.4594,28.7656 858.85,29.5469 L861.0844,34 L858.3969,34 L856.8969,30.875 Q856.8344,30.7344 856.725,30.5 Q856.0688,29.1094 855.1781,29.1094 L854.3969,29.1094 L854.3969,34 L851.9594,34 L851.9594,21.6094 L855.4906,21.6094 Q857.8813,21.6094 858.9125,22.4531 Q859.9594,23.2969 859.9594,25.2031 Q859.9594,26.4844 859.3344,27.25 Q858.725,28 857.5531,28.1406 Z M854.3969,23.6719 L854.3969,27.0469 L855.5531,27.0469 Q856.5688,27.0469 856.9906,26.6563 Q857.4281,26.25 857.4281,25.3438 Q857.4281,24.4531 856.9906,24.0625 Q856.5688,23.6719 855.5531,23.6719 L854.3969,23.6719 Z " fill="#000000"/><text fill="#000000" font-family="sans-serif" font-size="14" lengthAdjust="spacing" textLength="38" x="874.65" y="32.8467">curve</text><line style="stroke:#181818;stroke-width:0.5;" x1="823" x2="934" y1="44" y2="44"/><text fill="#000000" font-family="sans-serif" font-size="14" lengthAdjust="spacing" textLength="31" x="828" y="60.9951">date</text><text fill="#000000" font-family="sans-serif" font-size="14" lengthAdjust="spacing" textLength="44" x="828" y="77.292">values</text><text fill="#000000" font-family="sans-serif" font-size="14" lengthAdjust="spacing" textLength="39" x="828" y="93.5889">name</text><text fill="#000000" font-family="sans-serif" font-size="14" lengthAdjust="spacing" textLength="101" x="828" y="109.8857">...5 more fields</text></g><!--class adjustment--><g id="elem_adjustment"><rect codeLine="83" fill="#FFFFCC" height="105.1875" id="adjustment" rx="2.5" ry="2.5" style="stroke:#181818;stroke-width:0.5;" width="166" x="433.5" y="153"/><ellipse cx="473.7" cy="169" fill="#D9B01C" rx="11" ry="11" style="stroke:#181818;stroke-width:1.0;"/><path d="M474.9031,169.1406 Q475.2625,169.2188 475.5281,169.5 Q475.8094,169.7656 476.2,170.5469 L478.4344,175 L475.7469,175 L474.2469,171.875 Q474.1844,171.7344 474.075,171.5 Q473.4188,170.1094 472.5281,170.1094 L471.7469,170.1094 L471.7469,175 L469.3094,175 L469.3094,162.6094 L472.8406,162.6094 Q475.2313,162.6094 476.2625,163.4531 Q477.3094,164.2969 477.3094,166.2031 Q477.3094,167.4844 476.6844,168.25 Q476.075,169 474.9031,169.1406 Z M471.7469,164.6719 L471.7469,168.0469 L472.9031,168.0469 Q473.9188,168.0469 474.3406,167.6563 Q474.7781,167.25 474.7781,166.3438 Q474.7781,165.4531 474.3406,165.0625 Q473.9188,164.6719 472.9031,164.6719 L471.7469,164.6719 Z " fill="#000000"/><text fill="#000000" font-family="sans-serif" font-size="14" lengthAdjust="spacing" textLength="78" x="493.3" y="173.8467">adjustment</text><line style="stroke:#181818;stroke-width:0.5;" x1="434.5" x2="598.5" y1="185" y2="185"/><text fill="#000000" font-family="sans-serif" font-size="14" lengthAdjust="spacing" textLength="31" x="439.5" y="201.9951">date</text><text fill="#000000" font-family="sans-serif" font-size="14" lengthAdjust="spacing" textLength="20" x="439.5" y="218.292">col</text><text fill="#000000" font-family="sans-serif" font-size="14" lengthAdjust="spacing" textLength="154" x="439.5" y="234.5889">reporting_entity_name</text><text fill="#000000" font-family="sans-serif" font-size="14" lengthAdjust="spacing" textLength="110" x="439.5" y="250.8857">...10 more fields</text></g><!--class account--><g id="elem_account"><rect codeLine="91" fill="#FFFFCC" height="105.1875" id="account" rx="2.5" ry="2.5" style="stroke:#181818;stroke-width:0.5;" width="140" x="617.5" y="153"/><ellipse cx="655.9" cy="169" fill="#D9B01C" rx="11" ry="11" style="stroke:#181818;stroke-width:1.0;"/><path d="M657.1031,169.1406 Q657.4625,169.2188 657.7281,169.5 Q658.0094,169.7656 658.4,170.5469 L660.6344,175 L657.9469,175 L656.4469,171.875 Q656.3844,171.7344 656.275,171.5 Q655.6188,170.1094 654.7281,170.1094 L653.9469,170.1094 L653.9469,175 L651.5094,175 L651.5094,162.6094 L655.0406,162.6094 Q657.4313,162.6094 658.4625,163.4531 Q659.5094,164.2969 659.5094,166.2031 Q659.5094,167.4844 658.8844,168.25 Q658.275,169 657.1031,169.1406 Z M653.9469,164.6719 L653.9469,168.0469 L655.1031,168.0469 Q656.1188,168.0469 656.5406,167.6563 Q656.9781,167.25 656.9781,166.3438 Q656.9781,165.4531 656.5406,165.0625 Q656.1188,164.6719 655.1031,164.6719 L653.9469,164.6719 Z " fill="#000000"/><text fill="#000000" font-family="sans-serif" font-size="14" lengthAdjust="spacing" textLength="56" x="675.1" y="173.8467">account</text><line style="stroke:#181818;stroke-width:0.5;" x1="618.5" x2="756.5" y1="185" y2="185"/><text fill="#000000" font-family="sans-serif" font-size="14" lengthAdjust="spacing" textLength="31" x="623.5" y="201.9951">date</text><text fill="#000000" font-family="sans-serif" font-size="14" lengthAdjust="spacing" textLength="128" x="623.5" y="218.292">last_recovery_date</text><text fill="#000000" font-family="sans-serif" font-size="14" lengthAdjust="spacing" textLength="106" x="623.5" y="234.5889">risk_weight_std</text><text fill="#000000" font-family="sans-serif" font-size="14" lengthAdjust="spacing" textLength="110" x="623.5" y="250.8857">...87 more fields</text></g><!--class collateral--><g id="elem_collateral"><rect codeLine="99" fill="#FFFFCC" height="105.1875" id="collateral" rx="2.5" ry="2.5" style="stroke:#181818;stroke-width:0.5;" width="122" x="144.5" y="294"/><ellipse cx="172.55" cy="310" fill="#D9B01C" rx="11" ry="11" style="stroke:#181818;stroke-width:1.0;"/><path d="M173.7531,310.1406 Q174.1125,310.2188 174.3781,310.5 Q174.6594,310.7656 175.05,311.5469 L177.2844,316 L174.5969,316 L173.0969,312.875 Q173.0344,312.7344 172.925,312.5 Q172.2688,311.1094 171.3781,311.1094 L170.5969,311.1094 L170.5969,316 L168.1594,316 L168.1594,303.6094 L171.6906,303.6094 Q174.0813,303.6094 175.1125,304.4531 Q176.1594,305.2969 176.1594,307.2031 Q176.1594,308.4844 175.5344,309.25 Q174.925,310 173.7531,310.1406 Z M170.5969,305.6719 L170.5969,309.0469 L171.7531,309.0469 Q172.7688,309.0469 173.1906,308.6563 Q173.6281,308.25 173.6281,307.3438 Q173.6281,306.4531 173.1906,306.0625 Q172.7688,305.6719 171.7531,305.6719 L170.5969,305.6719 Z " fill="#000000"/><text fill="#000000" font-family="sans-serif" font-size="14" lengthAdjust="spacing" textLength="61" x="189.45" y="314.8467">collateral</text><line style="stroke:#181818;stroke-width:0.5;" x1="145.5" x2="265.5" y1="326" y2="326"/><text fill="#000000" font-family="sans-serif" font-size="14" lengthAdjust="spacing" textLength="31" x="150.5" y="342.9951">date</text><text fill="#000000" font-family="sans-serif" font-size="14" lengthAdjust="spacing" textLength="65" x="150.5" y="359.292">end_date</text><text fill="#000000" font-family="sans-serif" font-size="14" lengthAdjust="spacing" textLength="104" x="150.5" y="375.5889">street_address</text><text fill="#000000" font-family="sans-serif" font-size="14" lengthAdjust="spacing" textLength="110" x="150.5" y="391.8857">...21 more fields</text></g><!--class customer--><g id="elem_customer"><rect codeLine="107" fill="#FFFFCC" height="105.1875" id="customer" rx="2.5" ry="2.5" style="stroke:#181818;stroke-width:0.5;" width="122" x="284.5" y="294"/><ellipse cx="310.3" cy="310" fill="#D9B01C" rx="11" ry="11" style="stroke:#181818;stroke-width:1.0;"/><path d="M311.5031,310.1406 Q311.8625,310.2188 312.1281,310.5 Q312.4094,310.7656 312.8,311.5469 L315.0344,316 L312.3469,316 L310.8469,312.875 Q310.7844,312.7344 310.675,312.5 Q310.0188,311.1094 309.1281,311.1094 L308.3469,311.1094 L308.3469,316 L305.9094,316 L305.9094,303.6094 L309.4406,303.6094 Q311.8313,303.6094 312.8625,304.4531 Q313.9094,305.2969 313.9094,307.2031 Q313.9094,308.4844 313.2844,309.25 Q312.675,310 311.5031,310.1406 Z M308.3469,305.6719 L308.3469,309.0469 L309.5031,309.0469 Q310.5188,309.0469 310.9406,308.6563 Q311.3781,308.25 311.3781,307.3438 Q311.3781,306.4531 310.9406,306.0625 Q310.5188,305.6719 309.5031,305.6719 L308.3469,305.6719 Z " fill="#000000"/><text fill="#000000" font-family="sans-serif" font-size="14" lengthAdjust="spacing" textLength="66" x="326.7" y="314.8467">customer</text><line style="stroke:#181818;stroke-width:0.5;" x1="285.5" x2="405.5" y1="326" y2="326"/><text fill="#000000" font-family="sans-serif" font-size="14" lengthAdjust="spacing" textLength="31" x="290.5" y="342.9951">date</text><text fill="#000000" font-family="sans-serif" font-size="14" lengthAdjust="spacing" textLength="78" x="290.5" y="359.292">intra_group</text><text fill="#000000" font-family="sans-serif" font-size="14" lengthAdjust="spacing" textLength="78" x="290.5" y="375.5889">naics_code</text><text fill="#000000" font-family="sans-serif" font-size="14" lengthAdjust="spacing" textLength="110" x="290.5" y="391.8857">...59 more fields</text></g><!--class derivative--><g id="elem_derivative"><rect codeLine="115" fill="#FFFFCC" height="105.1875" id="derivative" rx="2.5" ry="2.5" style="stroke:#181818;stroke-width:0.5;" width="164" x="424.5" y="294"/><ellipse cx="469.75" cy="310" fill="#D9B01C" rx="11" ry="11" style="stroke:#181818;stroke-width:1.0;"/><path d="M470.9531,310.1406 Q471.3125,310.2188 471.5781,310.5 Q471.8594,310.7656 472.25,311.5469 L474.4844,316 L471.7969,316 L470.2969,312.875 Q470.2344,312.7344 470.125,312.5 Q469.4688,311.1094 468.5781,311.1094 L467.7969,311.1094 L467.7969,316 L465.3594,316 L465.3594,303.6094 L468.8906,303.6094 Q471.2813,303.6094 472.3125,304.4531 Q473.3594,305.2969 473.3594,307.2031 Q473.3594,308.4844 472.7344,309.25 Q472.125,310 470.9531,310.1406 Z M467.7969,305.6719 L467.7969,309.0469 L468.9531,309.0469 Q469.9688,309.0469 470.3906,308.6563 Q470.8281,308.25 470.8281,307.3438 Q470.8281,306.4531 470.3906,306.0625 Q469.9688,305.6719 468.9531,305.6719 L467.7969,305.6719 Z " fill="#000000"/><text fill="#000000" font-family="sans-serif" font-size="14" lengthAdjust="spacing" textLength="65" x="490.25" y="314.8467">derivative</text><line style="stroke:#181818;stroke-width:0.5;" x1="425.5" x2="587.5" y1="326" y2="326"/><text fill="#000000" font-family="sans-serif" font-size="14" lengthAdjust="spacing" textLength="31" x="430.5" y="342.9951">date</text><text fill="#000000" font-family="sans-serif" font-size="14" lengthAdjust="spacing" textLength="106" x="430.5" y="359.292">risk_weight_std</text><text fill="#000000" font-family="sans-serif" font-size="14" lengthAdjust="spacing" textLength="152" x="430.5" y="375.5889">accounting_treatment</text><text fill="#000000" font-family="sans-serif" font-size="14" lengthAdjust="spacing" textLength="110" x="430.5" y="391.8857">...89 more fields</text></g><!--class derivative_cash_flow--><g id="elem_derivative_cash_flow"><rect codeLine="123" fill="#FFFFCC" height="105.1875" id="derivative_cash_flow" rx="2.5" ry="2.5" style="stroke:#181818;stroke-width:0.5;" width="171" x="607" y="294"/><ellipse cx="622" cy="310" fill="#D9B01C" rx="11" ry="11" style="stroke:#181818;stroke-width:1.0;"/><path d="M623.2031,310.1406 Q623.5625,310.2188 623.8281,310.5 Q624.1094,310.7656 624.5,311.5469 L626.7344,316 L624.0469,316 L622.5469,312.875 Q622.4844,312.7344 622.375,312.5 Q621.7188,311.1094 620.8281,311.1094 L620.0469,311.1094 L620.0469,316 L617.6094,316 L617.6094,303.6094 L621.1406,303.6094 Q623.5313,303.6094 624.5625,304.4531 Q625.6094,305.2969 625.6094,307.2031 Q625.6094,308.4844 624.9844,309.25 Q624.375,310 623.2031,310.1406 Z M620.0469,305.6719 L620.0469,309.0469 L621.2031,309.0469 Q622.2188,309.0469 622.6406,308.6563 Q623.0781,308.25 623.0781,307.3438 Q623.0781,306.4531 622.6406,306.0625 Q622.2188,305.6719 621.2031,305.6719 L620.0469,305.6719 Z " fill="#000000"/><text fill="#000000" font-family="sans-serif" font-size="14" lengthAdjust="spacing" textLength="139" x="636" y="314.8467">derivative_cash_flow</text><line style="stroke:#181818;stroke-width:0.5;" x1="608" x2="777" y1="326" y2="326"/><text fill="#000000" font-family="sans-serif" font-size="14" lengthAdjust="spacing" textLength="31" x="613" y="342.9951">date</text><text fill="#000000" font-family="sans-serif" font-size="14" lengthAdjust="spacing" textLength="75" x="613" y="359.292">mtm_clean</text><text fill="#000000" font-family="sans-serif" font-size="14" lengthAdjust="spacing" textLength="58" x="613" y="375.5889">purpose</text><text fill="#000000" font-family="sans-serif" font-size="14" lengthAdjust="spacing" textLength="110" x="613" y="391.8857">...26 more fields</text></g><!--class exchange_rate--><g id="elem_exchange_rate"><rect codeLine="131" fill="#FFFFCC" height="105.1875" id="exchange_rate" rx="2.5" ry="2.5" style="stroke:#181818;stroke-width:0.5;" width="134" x="138.5" y="435"/><ellipse cx="153.5" cy="451" fill="#D9B01C" rx="11" ry="11" style="stroke:#181818;stroke-width:1.0;"/><path d="M154.7031,451.1406 Q155.0625,451.2188 155.3281,451.5 Q155.6094,451.7656 156,452.5469 L158.2344,457 L155.5469,457 L154.0469,453.875 Q153.9844,453.7344 153.875,453.5 Q153.2188,452.1094 152.3281,452.1094 L151.5469,452.1094 L151.5469,457 L149.1094,457 L149.1094,444.6094 L152.6406,444.6094 Q155.0313,444.6094 156.0625,445.4531 Q157.1094,446.2969 157.1094,448.2031 Q157.1094,449.4844 156.4844,450.25 Q155.875,451 154.7031,451.1406 Z M151.5469,446.6719 L151.5469,450.0469 L152.7031,450.0469 Q153.7188,450.0469 154.1406,449.6563 Q154.5781,449.25 154.5781,448.3438 Q154.5781,447.4531 154.1406,447.0625 Q153.7188,446.6719 152.7031,446.6719 L151.5469,446.6719 Z " fill="#000000"/><text fill="#000000" font-family="sans-serif" font-size="14" lengthAdjust="spacing" textLength="102" x="167.5" y="455.8467">exchange_rate</text><line style="stroke:#181818;stroke-width:0.5;" x1="139.5" x2="271.5" y1="467" y2="467"/><text fill="#000000" font-family="sans-serif" font-size="14" lengthAdjust="spacing" textLength="31" x="144.5" y="483.9951">date</text><text fill="#000000" font-family="sans-serif" font-size="14" lengthAdjust="spacing" textLength="41" x="144.5" y="500.292">quote</text><text fill="#000000" font-family="sans-serif" font-size="14" lengthAdjust="spacing" textLength="12" x="144.5" y="516.5889">id</text><text fill="#000000" font-family="sans-serif" font-size="14" lengthAdjust="spacing" textLength="101" x="144.5" y="532.8857">...4 more fields</text></g><!--class guarantor--><g id="elem_guarantor"><rect codeLine="139" fill="#FFFFCC" height="105.1875" id="guarantor" rx="2.5" ry="2.5" style="stroke:#181818;stroke-width:0.5;" width="122" x="290.5" y="435"/><ellipse cx="315.85" cy="451" fill="#D9B01C" rx="11" ry="11" style="stroke:#181818;stroke-width:1.0;"/><path d="M317.0531,451.1406 Q317.4125,451.2188 317.6781,451.5 Q317.9594,451.7656 318.35,452.5469 L320.5844,457 L317.8969,457 L316.3969,453.875 Q316.3344,453.7344 316.225,453.5 Q315.5688,452.1094 314.6781,452.1094 L313.8969,452.1094 L313.8969,457 L311.4594,457 L311.4594,444.6094 L314.9906,444.6094 Q317.3813,444.6094 318.4125,445.4531 Q319.4594,446.2969 319.4594,448.2031 Q319.4594,449.4844 318.8344,450.25 Q318.225,451 317.0531,451.1406 Z M313.8969,446.6719 L313.8969,450.0469 L315.0531,450.0469 Q316.0688,450.0469 316.4906,449.6563 Q316.9281,449.25 316.9281,448.3438 Q316.9281,447.4531 316.4906,447.0625 Q316.0688,446.6719 315.0531,446.6719 L313.8969,446.6719 Z " fill="#000000"/><text fill="#000000" font-family="sans-serif" font-size="14" lengthAdjust="spacing" textLength="67" x="332.15" y="455.8467">guarantor</text><line style="stroke:#181818;stroke-width:0.5;" x1="291.5" x2="411.5" y1="467" y2="467"/><text fill="#000000" font-family="sans-serif" font-size="14" lengthAdjust="spacing" textLength="31" x="296.5" y="483.9951">date</text><text fill="#000000" font-family="sans-serif" font-size="14" lengthAdjust="spacing" textLength="78" x="296.5" y="500.292">intra_group</text><text fill="#000000" font-family="sans-serif" font-size="14" lengthAdjust="spacing" textLength="78" x="296.5" y="516.5889">naics_code</text><text fill="#000000" font-family="sans-serif" font-size="14" lengthAdjust="spacing" textLength="110" x="296.5" y="532.8857">...48 more fields</text></g><!--class issuer--><g id="elem_issuer"><rect codeLine="147" fill="#FFFFCC" height="105.1875" id="issuer" rx="2.5" ry="2.5" style="stroke:#181818;stroke-width:0.5;" width="122" x="430.5" y="435"/><ellipse cx="467.1" cy="451" fill="#D9B01C" rx="11" ry="11" style="stroke:#181818;stroke-width:1.0;"/><path d="M468.3031,451.1406 Q468.6625,451.2188 468.9281,451.5 Q469.2094,451.7656 469.6,452.5469 L471.8344,457 L469.1469,457 L467.6469,453.875 Q467.5844,453.7344 467.475,453.5 Q466.8188,452.1094 465.9281,452.1094 L465.1469,452.1094 L465.1469,457 L462.7094,457 L462.7094,444.6094 L466.2406,444.6094 Q468.6313,444.6094 469.6625,445.4531 Q470.7094,446.2969 470.7094,448.2031 Q470.7094,449.4844 470.0844,450.25 Q469.475,451 468.3031,451.1406 Z M465.1469,446.6719 L465.1469,450.0469 L466.3031,450.0469 Q467.3188,450.0469 467.7406,449.6563 Q468.1781,449.25 468.1781,448.3438 Q468.1781,447.4531 467.7406,447.0625 Q467.3188,446.6719 466.3031,446.6719 L465.1469,446.6719 Z " fill="#000000"/><text fill="#000000" font-family="sans-serif" font-size="14" lengthAdjust="spacing" textLength="42" x="485.9" y="455.8467">issuer</text><line style="stroke:#181818;stroke-width:0.5;" x1="431.5" x2="551.5" y1="467" y2="467"/><text fill="#000000" font-family="sans-serif" font-size="14" lengthAdjust="spacing" textLength="31" x="436.5" y="483.9951">date</text><text fill="#000000" font-family="sans-serif" font-size="14" lengthAdjust="spacing" textLength="78" x="436.5" y="500.292">intra_group</text><text fill="#000000" font-family="sans-serif" font-size="14" lengthAdjust="spacing" textLength="78" x="436.5" y="516.5889">naics_code</text><text fill="#000000" font-family="sans-serif" font-size="14" lengthAdjust="spacing" textLength="110" x="436.5" y="532.8857">...48 more fields</text></g><!--class loan--><g id="elem_loan"><rect codeLine="155" fill="#FFFFCC" height="105.1875" id="loan" rx="2.5" ry="2.5" style="stroke:#181818;stroke-width:0.5;" width="164" x="953.5" y="12"/><ellipse cx="1016.75" cy="28" fill="#D9B01C" rx="11" ry="11" style="stroke:#181818;stroke-width:1.0;"/><path d="M1017.9531,28.1406 Q1018.3125,28.2188 1018.5781,28.5 Q1018.8594,28.7656 1019.25,29.5469 L1021.4844,34 L1018.7969,34 L1017.2969,30.875 Q1017.2344,30.7344 1017.125,30.5 Q1016.4688,29.1094 1015.5781,29.1094 L1014.7969,29.1094 L1014.7969,34 L1012.3594,34 L1012.3594,21.6094 L1015.8906,21.6094 Q1018.2813,21.6094 1019.3125,22.4531 Q1020.3594,23.2969 1020.3594,25.2031 Q1020.3594,26.4844 1019.7344,27.25 Q1019.125,28 1017.9531,28.1406 Z M1014.7969,23.6719 L1014.7969,27.0469 L1015.9531,27.0469 Q1016.9688,27.0469 1017.3906,26.6563 Q1017.8281,26.25 1017.8281,25.3438 Q1017.8281,24.4531 1017.3906,24.0625 Q1016.9688,23.6719 1015.9531,23.6719 L1014.7969,23.6719 Z " fill="#000000"/><text fill="#000000" font-family="sans-serif" font-size="14" lengthAdjust="spacing" textLength="29" x="1037.25" y="32.8467">loan</text><line style="stroke:#181818;stroke-width:0.5;" x1="954.5" x2="1116.5" y1="44" y2="44"/><text fill="#000000" font-family="sans-serif" font-size="14" lengthAdjust="spacing" textLength="152" x="959.5" y="60.9951">accounting_treatment</text><text fill="#000000" font-family="sans-serif" font-size="14" lengthAdjust="spacing" textLength="66" x="959.5" y="77.292">regulated</text><text fill="#000000" font-family="sans-serif" font-size="14" lengthAdjust="spacing" textLength="20" x="959.5" y="93.5889">ccf</text><text fill="#000000" font-family="sans-serif" font-size="14" lengthAdjust="spacing" textLength="119" x="959.5" y="109.8857">...120 more fields</text></g><!--class loan_transaction--><g id="elem_loan_transaction"><rect codeLine="163" fill="#FFFFCC" height="105.1875" id="loan_transaction" rx="2.5" ry="2.5" style="stroke:#181818;stroke-width:0.5;" width="145" x="571" y="435"/><ellipse cx="586" cy="451" fill="#D9B01C" rx="11" ry="11" style="stroke:#181818;stroke-width:1.0;"/><path d="M587.2031,451.1406 Q587.5625,451.2188 587.8281,451.5 Q588.1094,451.7656 588.5,452.5469 L590.7344,457 L588.0469,457 L586.5469,453.875 Q586.4844,453.7344 586.375,453.5 Q585.7188,452.1094 584.8281,452.1094 L584.0469,452.1094 L584.0469,457 L581.6094,457 L581.6094,444.6094 L585.1406,444.6094 Q587.5313,444.6094 588.5625,445.4531 Q589.6094,446.2969 589.6094,448.2031 Q589.6094,449.4844 588.9844,450.25 Q588.375,451 587.2031,451.1406 Z M584.0469,446.6719 L584.0469,450.0469 L585.2031,450.0469 Q586.2188,450.0469 586.6406,449.6563 Q587.0781,449.25 587.0781,448.3438 Q587.0781,447.4531 586.6406,447.0625 Q586.2188,446.6719 585.2031,446.6719 L584.0469,446.6719 Z " fill="#000000"/><text fill="#000000" font-family="sans-serif" font-size="14" lengthAdjust="spacing" textLength="113" x="600" y="455.8467">loan_transaction</text><line style="stroke:#181818;stroke-width:0.5;" x1="572" x2="715" y1="467" y2="467"/><text fill="#000000" font-family="sans-serif" font-size="14" lengthAdjust="spacing" textLength="31" x="577" y="483.9951">date</text><text fill="#000000" font-family="sans-serif" font-size="14" lengthAdjust="spacing" textLength="53" x="577" y="500.292">amount</text><text fill="#000000" font-family="sans-serif" font-size="14" lengthAdjust="spacing" textLength="12" x="577" y="516.5889">id</text><text fill="#000000" font-family="sans-serif" font-size="14" lengthAdjust="spacing" textLength="101" x="577" y="532.8857">...6 more fields</text></g><!--class security--><g id="elem_security"><rect codeLine="171" fill="#FFFFCC" height="105.1875" id="security" rx="2.5" ry="2.5" style="stroke:#181818;stroke-width:0.5;" width="164" x="1153.5" y="12"/><ellipse cx="1204.25" cy="28" fill="#D9B01C" rx="11" ry="11" style="stroke:#181818;stroke-width:1.0;"/><path d="M1205.4531,28.1406 Q1205.8125,28.2188 1206.0781,28.5 Q1206.3594,28.7656 1206.75,29.5469 L1208.9844,34 L1206.2969,34 L1204.7969,30.875 Q1204.7344,30.7344 1204.625,30.5 Q1203.9688,29.1094 1203.0781,29.1094 L1202.2969,29.1094 L1202.2969,34 L1199.8594,34 L1199.8594,21.6094 L1203.3906,21.6094 Q1205.7813,21.6094 1206.8125,22.4531 Q1207.8594,23.2969 1207.8594,25.2031 Q1207.8594,26.4844 1207.2344,27.25 Q1206.625,28 1205.4531,28.1406 Z M1202.2969,23.6719 L1202.2969,27.0469 L1203.4531,27.0469 Q1204.4688,27.0469 1204.8906,26.6563 Q1205.3281,26.25 1205.3281,25.3438 Q1205.3281,24.4531 1204.8906,24.0625 Q1204.4688,23.6719 1203.4531,23.6719 L1202.2969,23.6719 Z " fill="#000000"/><text fill="#000000" font-family="sans-serif" font-size="14" lengthAdjust="spacing" textLength="54" x="1224.75" y="32.8467">security</text><line style="stroke:#181818;stroke-width:0.5;" x1="1154.5" x2="1316.5" y1="44" y2="44"/><text fill="#000000" font-family="sans-serif" font-size="14" lengthAdjust="spacing" textLength="152" x="1159.5" y="60.9951">accounting_treatment</text><text fill="#000000" font-family="sans-serif" font-size="14" lengthAdjust="spacing" textLength="20" x="1159.5" y="77.292">ccf</text><text fill="#000000" font-family="sans-serif" font-size="14" lengthAdjust="spacing" textLength="137" x="1159.5" y="93.5889">impairment_amount</text><text fill="#000000" font-family="sans-serif" font-size="14" lengthAdjust="spacing" textLength="119" x="1159.5" y="109.8857">...116 more fields</text></g><!--class curve_values--><g id="elem_curve_values"><rect codeLine="179" fill="#FFFFCC" height="72.5938" id="curve_values" rx="2.5" ry="2.5" style="stroke:#181818;stroke-width:0.5;" width="121" x="818" y="169"/><ellipse cx="833" cy="185" fill="#D9B01C" rx="11" ry="11" style="stroke:#181818;stroke-width:1.0;"/><path d="M834.2031,185.1406 Q834.5625,185.2188 834.8281,185.5 Q835.1094,185.7656 835.5,186.5469 L837.7344,191 L835.0469,191 L833.5469,187.875 Q833.4844,187.7344 833.375,187.5 Q832.7188,186.1094 831.8281,186.1094 L831.0469,186.1094 L831.0469,191 L828.6094,191 L828.6094,178.6094 L832.1406,178.6094 Q834.5313,178.6094 835.5625,179.4531 Q836.6094,180.2969 836.6094,182.2031 Q836.6094,183.4844 835.9844,184.25 Q835.375,185 834.2031,185.1406 Z M831.0469,180.6719 L831.0469,184.0469 L832.2031,184.0469 Q833.2188,184.0469 833.6406,183.6563 Q834.0781,183.25 834.0781,182.3438 Q834.0781,181.4531 833.6406,181.0625 Q833.2188,180.6719 832.2031,180.6719 L831.0469,180.6719 Z " fill="#000000"/><text fill="#000000" font-family="sans-serif" font-size="14" lengthAdjust="spacing" textLength="89" x="847" y="189.8467">curve_values</text><line style="stroke:#181818;stroke-width:0.5;" x1="819" x2="938" y1="201" y2="201"/><text fill="#000000" font-family="sans-serif" font-size="14" lengthAdjust="spacing" textLength="67" x="824" y="217.9951">reference</text><text fill="#000000" font-family="sans-serif" font-size="14" lengthAdjust="spacing" textLength="36" x="824" y="234.292">value</text></g><!--class loan_customers--><g id="elem_loan_customers"><rect codeLine="185" fill="#FFFFCC" height="72.5938" id="loan_customers" rx="2.5" ry="2.5" style="stroke:#181818;stroke-width:0.5;" width="142" x="964.5" y="169"/><ellipse cx="979.5" cy="185" fill="#D9B01C" rx="11" ry="11" style="stroke:#181818;stroke-width:1.0;"/><path d="M980.7031,185.1406 Q981.0625,185.2188 981.3281,185.5 Q981.6094,185.7656 982,186.5469 L984.2344,191 L981.5469,191 L980.0469,187.875 Q979.9844,187.7344 979.875,187.5 Q979.2188,186.1094 978.3281,186.1094 L977.5469,186.1094 L977.5469,191 L975.1094,191 L975.1094,178.6094 L978.6406,178.6094 Q981.0313,178.6094 982.0625,179.4531 Q983.1094,180.2969 983.1094,182.2031 Q983.1094,183.4844 982.4844,184.25 Q981.875,185 980.7031,185.1406 Z M977.5469,180.6719 L977.5469,184.0469 L978.7031,184.0469 Q979.7188,184.0469 980.1406,183.6563 Q980.5781,183.25 980.5781,182.3438 Q980.5781,181.4531 980.1406,181.0625 Q979.7188,180.6719 978.7031,180.6719 L977.5469,180.6719 Z " fill="#000000"/><text fill="#000000" font-family="sans-serif" font-size="14" lengthAdjust="spacing" textLength="110" x="993.5" y="189.8467">loan_customers</text><line style="stroke:#181818;stroke-width:0.5;" x1="965.5" x2="1105.5" y1="201" y2="201"/><text fill="#000000" font-family="sans-serif" font-size="14" lengthAdjust="spacing" textLength="12" x="970.5" y="217.9951">id</text><text fill="#000000" font-family="sans-serif" font-size="14" lengthAdjust="spacing" textLength="111" x="970.5" y="234.292">income_amount</text></g><!--class security_index_composition--><g id="elem_security_index_composition"><rect codeLine="191" fill="#FFFFCC" height="72.5938" id="security_index_composition" rx="2.5" ry="2.5" style="stroke:#181818;stroke-width:0.5;" width="222" x="1124.5" y="169"/><ellipse cx="1139.5" cy="185" fill="#D9B01C" rx="11" ry="11" style="stroke:#181818;stroke-width:1.0;"/><path d="M1140.7031,185.1406 Q1141.0625,185.2188 1141.3281,185.5 Q1141.6094,185.7656 1142,186.5469 L1144.2344,191 L1141.5469,191 L1140.0469,187.875 Q1139.9844,187.7344 1139.875,187.5 Q1139.2188,186.1094 1138.3281,186.1094 L1137.5469,186.1094 L1137.5469,191 L1135.1094,191 L1135.1094,178.6094 L1138.6406,178.6094 Q1141.0313,178.6094 1142.0625,179.4531 Q1143.1094,180.2969 1143.1094,182.2031 Q1143.1094,183.4844 1142.4844,184.25 Q1141.875,185 1140.7031,185.1406 Z M1137.5469,180.6719 L1137.5469,184.0469 L1138.7031,184.0469 Q1139.7188,184.0469 1140.1406,183.6563 Q1140.5781,183.25 1140.5781,182.3438 Q1140.5781,181.4531 1140.1406,181.0625 Q1139.7188,180.6719 1138.7031,180.6719 L1137.5469,180.6719 Z " fill="#000000"/><text fill="#000000" font-family="sans-serif" font-size="14" lengthAdjust="spacing" textLength="190" x="1153.5" y="189.8467">security_index_composition</text><line style="stroke:#181818;stroke-width:0.5;" x1="1125.5" x2="1345.5" y1="201" y2="201"/><text fill="#000000" font-family="sans-serif" font-size="14" lengthAdjust="spacing" textLength="86" x="1130.5" y="217.9951">reference_id</text><text fill="#000000" font-family="sans-serif" font-size="14" lengthAdjust="spacing" textLength="46" x="1130.5" y="234.292">weight</text></g><!--class curve_values_value--><g id="elem_curve_values_value"><rect codeLine="197" fill="#FFFFCC" height="32" id="curve_values_value" rx="2.5" ry="2.5" style="stroke:#181818;stroke-width:0.5;" width="164" x="796.5" y="330.5"/><ellipse cx="811.5" cy="346.5" fill="#D9B01C" rx="11" ry="11" style="stroke:#181818;stroke-width:1.0;"/><path d="M812.7031,346.6406 Q813.0625,346.7188 813.3281,347 Q813.6094,347.2656 814,348.0469 L816.2344,352.5 L813.5469,352.5 L812.0469,349.375 Q811.9844,349.2344 811.875,349 Q811.2188,347.6094 810.3281,347.6094 L809.5469,347.6094 L809.5469,352.5 L807.1094,352.5 L807.1094,340.1094 L810.6406,340.1094 Q813.0313,340.1094 814.0625,340.9531 Q815.1094,341.7969 815.1094,343.7031 Q815.1094,344.9844 814.4844,345.75 Q813.875,346.5 812.7031,346.6406 Z M809.5469,342.1719 L809.5469,345.5469 L810.7031,345.5469 Q811.7188,345.5469 812.1406,345.1563 Q812.5781,344.75 812.5781,343.8438 Q812.5781,342.9531 812.1406,342.5625 Q811.7188,342.1719 810.7031,342.1719 L809.5469,342.1719 Z " fill="#000000"/><text fill="#000000" font-family="sans-serif" font-size="14" lengthAdjust="spacing" textLength="132" x="825.5" y="351.3467">curve_values_value</text></g><path d="M69.5,109.0991 C69.5,122.9525 69.5,138.4082 69.5,152.777 " fill="none" style="stroke:#181818;stroke-width:1.0;"/><path d="M878.5,117.2585 C878.5,134.394 878.5,153.0715 878.5,168.7323 " fill="none" style="stroke:#181818;stroke-width:1.0;"/><path d="M1035.5,117.2585 C1035.5,134.394 1035.5,153.0715 1035.5,168.7323 " fill="none" style="stroke:#181818;stroke-width:1.0;"/><path d="M1235.5,117.2585 C1235.5,134.394 1235.5,153.0715 1235.5,168.7323 " fill="none" style="stroke:#181818;stroke-width:1.0;"/><path d="M878.5,242.296 C878.5,270.7713 878.5,309.2065 878.5,330.2165 " fill="none" style="stroke:#181818;stroke-width:1.0;"/><!--SRC=[lLPBRzGm4BxdLnXn0ObMtQfFgUgXXGCN3gmuMrDdDZ7hHx2TxLQ8_yuuhtsmSHQ9ueiTEvvlvfkNtrGE2WrCmOkj0_CQ0nZ8Ch-KfW87cZqgyFu1nB9mjZRverNMiRSFt-QVltoQpxDIviXGL-65qTtIvdvxQo5HqSv6sjEUeE30U3f24pAFWHdGIDy2vnWl1Fh5M8DP729gmd0DkbB8xkxOkwyVFju-dCqUtxFxU_OponYD708q2s6rZcBZEiYWCFlLh1dh92aBXWlm9Lye-vmIYCq2DEdTofDvCvsUdbunRHtsXkuX4Bma5YObIqCyyCXBrNmRaC9pONFiOIvkKZXE-YKdjgGffi6gd6jOTpXwG4W2F44GvJ6KzmHjIvubAMhToQECKO3egTO5XKCSl8fhKO8fC9g-GPjD6iALD4i_YkPGDNFfSB5_Vr1WckUYfW0s5C6yYnQ38Ng8E_J1IH6aDOFIbocbHUrME0su0bMZ_uF-f6Z8lzS-76UGiAhZfxAkiQIDRxxZxBCad6X2P1gB_Wv4bB0hT2zys6u2_HbbKGRkmv24DzT9-gnI9C21ciP5as_Go4s8WKEUayjy3tO-I_lA1wlH_OkalxnD8UNev8fo_fZGECHRvuleHx8Jmf1MaT0ZaV-cVEgWkL3OPN9LkyhwmTJpT1tTJlHff1-rxJaUGkGY9Nz8rTSlrTBx6ly3JYoPeoYZhdTOr35NMjg4M0nfVNusXSQRNWvDNNkDPkgHwc2gdOvQrTiXTGNInMs-1T_qZAl9-ilRyfhe6WkaPupOgiM77nnTWHYNrF4X3RrWiDTqX0mkJOvhYWjDsIIJr0yAzlsehGSfOzlfeCJDjVv1TdAoqyopRhJDYmwt1MV3QEAKJdUveGTexsqw6pSsst7D7aWxHP1Eqzy0]--></g></svg>