<?xml version="1.0" encoding="us-ascii" standalone="no"?><svg xmlns="http://www.w3.org/2000/svg" xmlns:xlink="http://www.w3.org/1999/xlink" contentStyleType="text/css" height="632px" preserveAspectRatio="none" style="width:194px;height:632px;" version="1.1" viewBox="0 0 194 632" width="194px" zoomAndPan="magnify"><defs/><g><!--class account_purpose--><g id="elem_account_purpose"><rect codeLine="13" fill="#FFFFCC" height="545.2031" id="account_purpose" rx="2.5" ry="2.5" style="stroke:#181818;stroke-width:0.5;" width="181" x="6" y="80"/><ellipse cx="33.6" cy="96" fill="#86B0BE" rx="11" ry="11" style="stroke:#181818;stroke-width:1.0;"/><path d="M37.7094,102 L29.9906,102 L29.9906,89.6094 L37.7094,89.6094 L37.7094,91.7656 L32.4438,91.7656 L32.4438,94.4375 L37.2094,94.4375 L37.2094,96.5938 L32.4438,96.5938 L32.4438,99.8438 L37.7094,99.8438 L37.7094,102 Z " fill="#000000"/><text fill="#000000" font-family="sans-serif" font-size="14" lengthAdjust="spacing" textLength="121" x="50.4" y="100.8467">account_purpose</text><line style="stroke:#181818;stroke-width:0.5;" x1="7" x2="186" y1="112" y2="112"/><text fill="#000000" font-family="sans-serif" font-size="14" lengthAdjust="spacing" textLength="169" x="12" y="128.9951">adj_syn_inv_decon_subs</text><text fill="#000000" font-family="sans-serif" font-size="14" lengthAdjust="spacing" textLength="167" x="12" y="145.292">adj_syn_inv_own_shares</text><text fill="#000000" font-family="sans-serif" font-size="14" lengthAdjust="spacing" textLength="141" x="12" y="161.5889">adj_syn_mtg_def_ins</text><text fill="#000000" font-family="sans-serif" font-size="14" lengthAdjust="spacing" textLength="154" x="12" y="177.8857">adj_syn_nonsig_inv_fin</text><text fill="#000000" font-family="sans-serif" font-size="14" lengthAdjust="spacing" textLength="144" x="12" y="194.1826">adj_syn_other_inv_fin</text><text fill="#000000" font-family="sans-serif" font-size="14" lengthAdjust="spacing" textLength="42" x="12" y="210.4795">admin</text><text fill="#000000" font-family="sans-serif" font-size="14" lengthAdjust="spacing" textLength="161" x="12" y="226.7764">annual_bonus_accruals</text><text fill="#000000" font-family="sans-serif" font-size="14" lengthAdjust="spacing" textLength="103" x="12" y="243.0732">benefit_in_kind</text><text fill="#000000" font-family="sans-serif" font-size="14" lengthAdjust="spacing" textLength="107" x="12" y="259.3701">capital_gain_tax</text><text fill="#000000" font-family="sans-serif" font-size="14" lengthAdjust="spacing" textLength="103" x="12" y="275.667">capital_reserve</text><text fill="#000000" font-family="sans-serif" font-size="14" lengthAdjust="spacing" textLength="132" x="12" y="291.9639">cash_management</text><text fill="#000000" font-family="sans-serif" font-size="14" lengthAdjust="spacing" textLength="64" x="12" y="308.2607">cf_hedge</text><text fill="#000000" font-family="sans-serif" font-size="14" lengthAdjust="spacing" textLength="120" x="12" y="324.5576">cf_hedge_reclass</text><text fill="#000000" font-family="sans-serif" font-size="14" lengthAdjust="spacing" textLength="67" x="12" y="340.8545">ci_service</text><text fill="#000000" font-family="sans-serif" font-size="14" lengthAdjust="spacing" textLength="54" x="12" y="357.1514">clearing</text><text fill="#000000" font-family="sans-serif" font-size="14" lengthAdjust="spacing" textLength="61" x="12" y="373.4482">collateral</text><text fill="#000000" font-family="sans-serif" font-size="14" lengthAdjust="spacing" textLength="95" x="12" y="389.7451">commitments</text><text fill="#000000" font-family="sans-serif" font-size="14" lengthAdjust="spacing" textLength="152" x="12" y="406.042">computer_and_it_cost</text><text fill="#000000" font-family="sans-serif" font-size="14" lengthAdjust="spacing" textLength="143" x="12" y="422.3389">computer_peripheral</text><text fill="#000000" font-family="sans-serif" font-size="14" lengthAdjust="spacing" textLength="133" x="12" y="438.6357">computer_software</text><text fill="#000000" font-family="sans-serif" font-size="14" lengthAdjust="spacing" textLength="106" x="12" y="454.9326">corporation_tax</text><text fill="#000000" font-family="sans-serif" font-size="14" lengthAdjust="spacing" textLength="105" x="12" y="471.2295">credit_card_fee</text><text fill="#000000" font-family="sans-serif" font-size="14" lengthAdjust="spacing" textLength="99" x="12" y="487.5264">critical_service</text><text fill="#000000" font-family="sans-serif" font-size="14" lengthAdjust="spacing" textLength="142" x="12" y="503.8232">current_account_fee</text><text fill="#000000" font-family="sans-serif" font-size="14" lengthAdjust="spacing" textLength="55" x="12" y="520.1201">custody</text><text fill="#000000" font-family="sans-serif" font-size="14" lengthAdjust="spacing" textLength="118" x="12" y="536.417">dealing_rev_deriv</text><text fill="#000000" font-family="sans-serif" font-size="14" lengthAdjust="spacing" textLength="151" x="12" y="552.7139">dealing_rev_deriv_nse</text><text fill="#000000" font-family="sans-serif" font-size="14" lengthAdjust="spacing" textLength="96" x="12" y="569.0107">dealing_rev_fx</text><text fill="#000000" font-family="sans-serif" font-size="14" lengthAdjust="spacing" textLength="129" x="12" y="585.3076">dealing_rev_fx_nse</text><text fill="#000000" font-family="sans-serif" font-size="14" lengthAdjust="spacing" textLength="93" x="12" y="601.6045">dealing_rev_ir</text><text fill="#000000" font-family="sans-serif" font-size="14" lengthAdjust="spacing" textLength="119" x="12" y="617.9014">...102 more fields</text></g><!--class account--><g id="elem_account"><rect codeLine="52" fill="#FFFFCC" height="32" id="account" rx="2.5" ry="2.5" style="stroke:#181818;stroke-width:0.5;" width="88" x="52.5" y="12"/><ellipse cx="67.5" cy="28" fill="#D9B01C" rx="11" ry="11" style="stroke:#181818;stroke-width:1.0;"/><path d="M68.7031,28.1406 Q69.0625,28.2188 69.3281,28.5 Q69.6094,28.7656 70,29.5469 L72.2344,34 L69.5469,34 L68.0469,30.875 Q67.9844,30.7344 67.875,30.5 Q67.2188,29.1094 66.3281,29.1094 L65.5469,29.1094 L65.5469,34 L63.1094,34 L63.1094,21.6094 L66.6406,21.6094 Q69.0313,21.6094 70.0625,22.4531 Q71.1094,23.2969 71.1094,25.2031 Q71.1094,26.4844 70.4844,27.25 Q69.875,28 68.7031,28.1406 Z M65.5469,23.6719 L65.5469,27.0469 L66.7031,27.0469 Q67.7188,27.0469 68.1406,26.6563 Q68.5781,26.25 68.5781,25.3438 Q68.5781,24.4531 68.1406,24.0625 Q67.7188,23.6719 66.7031,23.6719 L65.5469,23.6719 Z " fill="#000000"/><text fill="#000000" font-family="sans-serif" font-size="14" lengthAdjust="spacing" textLength="56" x="81.5" y="32.8467">account</text></g><polygon fill="#181818" points="96.5,79.894,100.5,70.894,96.5,74.894,92.5,70.894,96.5,79.894" style="stroke:#181818;stroke-width:1.0;"/><path d="M96.5,44.1223 C96.5,52.9639 96.5,59.2642 96.5,73.894 " fill="none" style="stroke:#181818;stroke-width:1.0;"/><!--SRC=[RPB1Rjim38RlVWeDksn06wGx31jGv90iXrrsMB2pm4YqhLMY359E6mnxzr5EipffTR7uyITDaNmtC7G9J8HZ7ekHX0K8caOU0Wt0aCmcWiWQt4F7UII_oJ6pUR_-jVl-OxlRDNtmQ30DvMWqjizUvgWD69MyPDjV9IeC9Ef2AerWCGG9rNQumnfGL4APiAd7rKeCEAVXnGuZ3rdGtD-R3zkRBv_No_Nsercjp9-cCGRyRoj7ie4ErgFBP6NSovKZFohkzUTpHogTHhGgc5CjGa8tHRM1PevSUkGBdavVeX6YtMSQnMhDh5PDk4V2DXIDiDeKhyJ148fAEr1Mu6c6j3Ba0qv4UfjqD1scsYibhUtHTpYxgdxgKKN1rj3W9dz4u41TlUOOeI13d8oKGgdvv6GDexeiaBTQeSjIvdX03aF_4dgYajlog2sSc4v4PnRo_tSm-fe9sDiM9ms74fm-RLRTo7NyzZpOP-4e9VkZtZn2rEBrSNMK70vlCKk2LxnzUWNUK0LMi5WixfQVJCgCvvMjvw-wfdEvUjFA_RpvzdMzlDkSL-vIVrRUtgwk5_PPq_m3]--></g></svg>