<?xml version="1.0" encoding="us-ascii" standalone="no"?><svg xmlns="http://www.w3.org/2000/svg" xmlns:xlink="http://www.w3.org/1999/xlink" contentStyleType="text/css" height="192px" preserveAspectRatio="none" style="width:589px;height:192px;" version="1.1" viewBox="0 0 589 192" width="589px" zoomAndPan="magnify"><defs/><g><!--class asset_liability--><g id="elem_asset_liability"><rect codeLine="13" fill="#FFFFCC" height="105.1875" id="asset_liability" rx="2.5" ry="2.5" style="stroke:#181818;stroke-width:0.5;" width="121" x="252.5" y="80"/><ellipse cx="267.5" cy="96" fill="#86B0BE" rx="11" ry="11" style="stroke:#181818;stroke-width:1.0;"/><path d="M271.6094,102 L263.8906,102 L263.8906,89.6094 L271.6094,89.6094 L271.6094,91.7656 L266.3438,91.7656 L266.3438,94.4375 L271.1094,94.4375 L271.1094,96.5938 L266.3438,96.5938 L266.3438,99.8438 L271.6094,99.8438 L271.6094,102 Z " fill="#000000"/><text fill="#000000" font-family="sans-serif" font-size="14" lengthAdjust="spacing" textLength="89" x="281.5" y="100.8467">asset_liability</text><line style="stroke:#181818;stroke-width:0.5;" x1="253.5" x2="372.5" y1="112" y2="112"/><text fill="#000000" font-family="sans-serif" font-size="14" lengthAdjust="spacing" textLength="38" x="258.5" y="128.9951">asset</text><text fill="#000000" font-family="sans-serif" font-size="14" lengthAdjust="spacing" textLength="42" x="258.5" y="145.292">equity</text><text fill="#000000" font-family="sans-serif" font-size="14" lengthAdjust="spacing" textLength="44" x="258.5" y="161.5889">liability</text><text fill="#000000" font-family="sans-serif" font-size="14" lengthAdjust="spacing" textLength="21" x="258.5" y="177.8857">pnl</text></g><!--class account--><g id="elem_account"><rect codeLine="24" fill="#FFFFCC" height="32" id="account" rx="2.5" ry="2.5" style="stroke:#181818;stroke-width:0.5;" width="88" x="6" y="12"/><ellipse cx="21" cy="28" fill="#D9B01C" rx="11" ry="11" style="stroke:#181818;stroke-width:1.0;"/><path d="M22.2031,28.1406 Q22.5625,28.2188 22.8281,28.5 Q23.1094,28.7656 23.5,29.5469 L25.7344,34 L23.0469,34 L21.5469,30.875 Q21.4844,30.7344 21.375,30.5 Q20.7188,29.1094 19.8281,29.1094 L19.0469,29.1094 L19.0469,34 L16.6094,34 L16.6094,21.6094 L20.1406,21.6094 Q22.5313,21.6094 23.5625,22.4531 Q24.6094,23.2969 24.6094,25.2031 Q24.6094,26.4844 23.9844,27.25 Q23.375,28 22.2031,28.1406 Z M19.0469,23.6719 L19.0469,27.0469 L20.2031,27.0469 Q21.2188,27.0469 21.6406,26.6563 Q22.0781,26.25 22.0781,25.3438 Q22.0781,24.4531 21.6406,24.0625 Q21.2188,23.6719 20.2031,23.6719 L19.0469,23.6719 Z " fill="#000000"/><text fill="#000000" font-family="sans-serif" font-size="14" lengthAdjust="spacing" textLength="56" x="35" y="32.8467">account</text></g><!--class derivative--><g id="elem_derivative"><rect codeLine="32" fill="#FFFFCC" height="32" id="derivative" rx="2.5" ry="2.5" style="stroke:#181818;stroke-width:0.5;" width="97" x="112.5" y="12"/><ellipse cx="127.5" cy="28" fill="#D9B01C" rx="11" ry="11" style="stroke:#181818;stroke-width:1.0;"/><path d="M128.7031,28.1406 Q129.0625,28.2188 129.3281,28.5 Q129.6094,28.7656 130,29.5469 L132.2344,34 L129.5469,34 L128.0469,30.875 Q127.9844,30.7344 127.875,30.5 Q127.2188,29.1094 126.3281,29.1094 L125.5469,29.1094 L125.5469,34 L123.1094,34 L123.1094,21.6094 L126.6406,21.6094 Q129.0313,21.6094 130.0625,22.4531 Q131.1094,23.2969 131.1094,25.2031 Q131.1094,26.4844 130.4844,27.25 Q129.875,28 128.7031,28.1406 Z M125.5469,23.6719 L125.5469,27.0469 L126.7031,27.0469 Q127.7188,27.0469 128.1406,26.6563 Q128.5781,26.25 128.5781,25.3438 Q128.5781,24.4531 128.1406,24.0625 Q127.7188,23.6719 126.7031,23.6719 L125.5469,23.6719 Z " fill="#000000"/><text fill="#000000" font-family="sans-serif" font-size="14" lengthAdjust="spacing" textLength="65" x="141.5" y="32.8467">derivative</text></g><!--class derivative_cash_flow--><g id="elem_derivative_cash_flow"><rect codeLine="40" fill="#FFFFCC" height="32" id="derivative_cash_flow" rx="2.5" ry="2.5" style="stroke:#181818;stroke-width:0.5;" width="171" x="227.5" y="12"/><ellipse cx="242.5" cy="28" fill="#D9B01C" rx="11" ry="11" style="stroke:#181818;stroke-width:1.0;"/><path d="M243.7031,28.1406 Q244.0625,28.2188 244.3281,28.5 Q244.6094,28.7656 245,29.5469 L247.2344,34 L244.5469,34 L243.0469,30.875 Q242.9844,30.7344 242.875,30.5 Q242.2188,29.1094 241.3281,29.1094 L240.5469,29.1094 L240.5469,34 L238.1094,34 L238.1094,21.6094 L241.6406,21.6094 Q244.0313,21.6094 245.0625,22.4531 Q246.1094,23.2969 246.1094,25.2031 Q246.1094,26.4844 245.4844,27.25 Q244.875,28 243.7031,28.1406 Z M240.5469,23.6719 L240.5469,27.0469 L241.7031,27.0469 Q242.7188,27.0469 243.1406,26.6563 Q243.5781,26.25 243.5781,25.3438 Q243.5781,24.4531 243.1406,24.0625 Q242.7188,23.6719 241.7031,23.6719 L240.5469,23.6719 Z " fill="#000000"/><text fill="#000000" font-family="sans-serif" font-size="14" lengthAdjust="spacing" textLength="139" x="256.5" y="32.8467">derivative_cash_flow</text></g><!--class loan--><g id="elem_loan"><rect codeLine="48" fill="#FFFFCC" height="32" id="loan" rx="2.5" ry="2.5" style="stroke:#181818;stroke-width:0.5;" width="61" x="416.5" y="12"/><ellipse cx="431.5" cy="28" fill="#D9B01C" rx="11" ry="11" style="stroke:#181818;stroke-width:1.0;"/><path d="M432.7031,28.1406 Q433.0625,28.2188 433.3281,28.5 Q433.6094,28.7656 434,29.5469 L436.2344,34 L433.5469,34 L432.0469,30.875 Q431.9844,30.7344 431.875,30.5 Q431.2188,29.1094 430.3281,29.1094 L429.5469,29.1094 L429.5469,34 L427.1094,34 L427.1094,21.6094 L430.6406,21.6094 Q433.0313,21.6094 434.0625,22.4531 Q435.1094,23.2969 435.1094,25.2031 Q435.1094,26.4844 434.4844,27.25 Q433.875,28 432.7031,28.1406 Z M429.5469,23.6719 L429.5469,27.0469 L430.7031,27.0469 Q431.7188,27.0469 432.1406,26.6563 Q432.5781,26.25 432.5781,25.3438 Q432.5781,24.4531 432.1406,24.0625 Q431.7188,23.6719 430.7031,23.6719 L429.5469,23.6719 Z " fill="#000000"/><text fill="#000000" font-family="sans-serif" font-size="14" lengthAdjust="spacing" textLength="29" x="445.5" y="32.8467">loan</text></g><!--class security--><g id="elem_security"><rect codeLine="56" fill="#FFFFCC" height="32" id="security" rx="2.5" ry="2.5" style="stroke:#181818;stroke-width:0.5;" width="86" x="496" y="12"/><ellipse cx="511" cy="28" fill="#D9B01C" rx="11" ry="11" style="stroke:#181818;stroke-width:1.0;"/><path d="M512.2031,28.1406 Q512.5625,28.2188 512.8281,28.5 Q513.1094,28.7656 513.5,29.5469 L515.7344,34 L513.0469,34 L511.5469,30.875 Q511.4844,30.7344 511.375,30.5 Q510.7188,29.1094 509.8281,29.1094 L509.0469,29.1094 L509.0469,34 L506.6094,34 L506.6094,21.6094 L510.1406,21.6094 Q512.5313,21.6094 513.5625,22.4531 Q514.6094,23.2969 514.6094,25.2031 Q514.6094,26.4844 513.9844,27.25 Q513.375,28 512.2031,28.1406 Z M509.0469,23.6719 L509.0469,27.0469 L510.2031,27.0469 Q511.2188,27.0469 511.6406,26.6563 Q512.0781,26.25 512.0781,25.3438 Q512.0781,24.4531 511.6406,24.0625 Q511.2188,23.6719 510.2031,23.6719 L509.0469,23.6719 Z " fill="#000000"/><text fill="#000000" font-family="sans-serif" font-size="14" lengthAdjust="spacing" textLength="54" x="525" y="32.8467">security</text></g><polygon fill="#181818" points="252.4342,107.8955,245.5011,100.9003,247.7755,106.0798,242.5961,108.3543,252.4342,107.8955" style="stroke:#181818;stroke-width:1.0;"/><path d="M88.5241,44.0142 C131.6127,60.8072 196.3784,86.0486 246.8438,105.7167 " fill="none" style="stroke:#181818;stroke-width:1.0;"/><polygon fill="#181818" points="252.3659,90.6119,247.1404,82.2636,248.2204,87.8164,242.6676,88.8964,252.3659,90.6119" style="stroke:#181818;stroke-width:1.0;"/><path d="M183.4281,44.1242 C201.5959,56.3755 223.0992,70.8761 247.3913,87.2573 " fill="none" style="stroke:#181818;stroke-width:1.0;"/><polygon fill="#181818" points="313,79.7526,317,70.7526,313,74.7526,309,70.7526,313,79.7526" style="stroke:#181818;stroke-width:1.0;"/><path d="M313,44.1242 C313,53.7025 313,60.7061 313,73.7526 " fill="none" style="stroke:#181818;stroke-width:1.0;"/><polygon fill="#181818" points="373.5192,85.2073,383.0979,82.9164,377.4906,82.1695,378.2374,76.5622,373.5192,85.2073" style="stroke:#181818;stroke-width:1.0;"/><path d="M427.2278,44.1242 C412.9588,55.039 397.6405,66.7563 378.2849,81.562 " fill="none" style="stroke:#181818;stroke-width:1.0;"/><polygon fill="#181818" points="373.7403,103.9518,383.5889,103.8773,378.2939,101.8866,380.2845,96.5916,373.7403,103.9518" style="stroke:#181818;stroke-width:1.0;"/><path d="M505.6529,44.1242 C471.0277,59.8282 421.5654,82.2613 379.2046,101.4736 " fill="none" style="stroke:#181818;stroke-width:1.0;"/><!--SRC=[dL31QiCm3BtxApHssQ25xZ9MA3auos6N7HPs3ggZDgQEdTbEHndxzodfqeKIIfd0M9RUUtxIJUDnMoCOFBWsGgWfeaKXmaxR1ZtMa1eCGQBQRRrhRPawuppSolVyvJNBSr7fae3g9Xw0kPKhmxYqqMIuygUsFXEA7ctW5jae0aMmM1E_5UNK4I93hBCakb2T4-13iJ0Qrzfe_cArWhjizlGe5pAxXoI1Bo7WYEARFbe6SN8YSDvOq-bzSzh7eAmK6ukzujliUIaN3-cWE8KloUizHhsdVr0AXQ4gDiPzNaqs3ktLu42gzSD-BXE6kUVpv7oxOZJZvVPedYbWxtsgSV8vrVmr-0C0]--></g></svg>