<?xml version="1.0" encoding="us-ascii" standalone="no"?><svg xmlns="http://www.w3.org/2000/svg" xmlns:xlink="http://www.w3.org/1999/xlink" contentStyleType="text/css" height="678px" preserveAspectRatio="none" style="width:1450px;height:678px;" version="1.1" viewBox="0 0 1450 678" width="1450px" zoomAndPan="magnify"><defs/><g><!--class batch--><g id="elem_batch"><rect codeLine="14" fill="#FFFFCC" height="105.1875" id="batch" rx="2.5" ry="2.5" style="stroke:#181818;stroke-width:0.5;" width="71" x="68" y="28.5"/><ellipse cx="83" cy="44.5" fill="#D9B01C" rx="11" ry="11" style="stroke:#181818;stroke-width:1.0;"/><path d="M84.2031,44.6406 Q84.5625,44.7188 84.8281,45 Q85.1094,45.2656 85.5,46.0469 L87.7344,50.5 L85.0469,50.5 L83.5469,47.375 Q83.4844,47.2344 83.375,47 Q82.7188,45.6094 81.8281,45.6094 L81.0469,45.6094 L81.0469,50.5 L78.6094,50.5 L78.6094,38.1094 L82.1406,38.1094 Q84.5313,38.1094 85.5625,38.9531 Q86.6094,39.7969 86.6094,41.7031 Q86.6094,42.9844 85.9844,43.75 Q85.375,44.5 84.2031,44.6406 Z M81.0469,40.1719 L81.0469,43.5469 L82.2031,43.5469 Q83.2188,43.5469 83.6406,43.1563 Q84.0781,42.75 84.0781,41.8438 Q84.0781,40.9531 83.6406,40.5625 Q83.2188,40.1719 82.2031,40.1719 L81.0469,40.1719 Z " fill="#000000"/><text fill="#000000" font-family="sans-serif" font-size="14" lengthAdjust="spacing" textLength="39" x="97" y="49.3467">batch</text><line style="stroke:#181818;stroke-width:0.5;" x1="69" x2="138" y1="60.5" y2="60.5"/><text fill="#000000" font-family="sans-serif" font-size="14" lengthAdjust="spacing" textLength="30" x="74" y="77.4951">data</text><text fill="#000000" font-family="sans-serif" font-size="14" lengthAdjust="spacing" textLength="40" x="74" y="93.792">count</text><text fill="#000000" font-family="sans-serif" font-size="14" lengthAdjust="spacing" textLength="39" x="74" y="110.0889">name</text><text fill="#000000" font-family="sans-serif" font-size="14" lengthAdjust="spacing" textLength="31" x="74" y="126.3857">links</text></g><!--class loan_cash_flow--><g id="elem_loan_cash_flow"><rect codeLine="22" fill="#FFFFCC" height="137.7813" id="loan_cash_flow" rx="2.5" ry="2.5" style="stroke:#181818;stroke-width:0.5;" width="135" x="157" y="12"/><ellipse cx="172" cy="28" fill="#D9B01C" rx="11" ry="11" style="stroke:#181818;stroke-width:1.0;"/><path d="M173.2031,28.1406 Q173.5625,28.2188 173.8281,28.5 Q174.1094,28.7656 174.5,29.5469 L176.7344,34 L174.0469,34 L172.5469,30.875 Q172.4844,30.7344 172.375,30.5 Q171.7188,29.1094 170.8281,29.1094 L170.0469,29.1094 L170.0469,34 L167.6094,34 L167.6094,21.6094 L171.1406,21.6094 Q173.5313,21.6094 174.5625,22.4531 Q175.6094,23.2969 175.6094,25.2031 Q175.6094,26.4844 174.9844,27.25 Q174.375,28 173.2031,28.1406 Z M170.0469,23.6719 L170.0469,27.0469 L171.2031,27.0469 Q172.2188,27.0469 172.6406,26.6563 Q173.0781,26.25 173.0781,25.3438 Q173.0781,24.4531 172.6406,24.0625 Q172.2188,23.6719 171.2031,23.6719 L170.0469,23.6719 Z " fill="#000000"/><text fill="#000000" font-family="sans-serif" font-size="14" lengthAdjust="spacing" textLength="103" x="186" y="32.8467">loan_cash_flow</text><line style="stroke:#181818;stroke-width:0.5;" x1="158" x2="291" y1="44" y2="44"/><text fill="#000000" font-family="sans-serif" font-size="14" lengthAdjust="spacing" textLength="31" x="163" y="60.9951">date</text><text fill="#000000" font-family="sans-serif" font-size="14" lengthAdjust="spacing" textLength="53" x="163" y="77.292">amount</text><text fill="#000000" font-family="sans-serif" font-size="14" lengthAdjust="spacing" textLength="12" x="163" y="93.5889">id</text><text fill="#000000" font-family="sans-serif" font-size="14" lengthAdjust="spacing" textLength="48" x="163" y="109.8857">source</text><text fill="#000000" font-family="sans-serif" font-size="14" lengthAdjust="spacing" textLength="69" x="163" y="126.1826">version_id</text><text fill="#000000" font-family="sans-serif" font-size="14" lengthAdjust="spacing" textLength="101" x="163" y="142.4795">...4 more fields</text></g><!--class example--><g id="elem_example"><rect codeLine="32" fill="#FFFFCC" height="88.8906" id="example" rx="2.5" ry="2.5" style="stroke:#181818;stroke-width:0.5;" width="90" x="774.5" y="36.5"/><ellipse cx="789.5" cy="52.5" fill="#D9B01C" rx="11" ry="11" style="stroke:#181818;stroke-width:1.0;"/><path d="M790.7031,52.6406 Q791.0625,52.7188 791.3281,53 Q791.6094,53.2656 792,54.0469 L794.2344,58.5 L791.5469,58.5 L790.0469,55.375 Q789.9844,55.2344 789.875,55 Q789.2188,53.6094 788.3281,53.6094 L787.5469,53.6094 L787.5469,58.5 L785.1094,58.5 L785.1094,46.1094 L788.6406,46.1094 Q791.0313,46.1094 792.0625,46.9531 Q793.1094,47.7969 793.1094,49.7031 Q793.1094,50.9844 792.4844,51.75 Q791.875,52.5 790.7031,52.6406 Z M787.5469,48.1719 L787.5469,51.5469 L788.7031,51.5469 Q789.7188,51.5469 790.1406,51.1563 Q790.5781,50.75 790.5781,49.8438 Q790.5781,48.9531 790.1406,48.5625 Q789.7188,48.1719 788.7031,48.1719 L787.5469,48.1719 Z " fill="#000000"/><text fill="#000000" font-family="sans-serif" font-size="14" lengthAdjust="spacing" textLength="58" x="803.5" y="57.3467">example</text><line style="stroke:#181818;stroke-width:0.5;" x1="775.5" x2="863.5" y1="68.5" y2="68.5"/><text fill="#000000" font-family="sans-serif" font-size="14" lengthAdjust="spacing" textLength="30" x="780.5" y="85.4951">data</text><text fill="#000000" font-family="sans-serif" font-size="14" lengthAdjust="spacing" textLength="66" x="780.5" y="101.792">comment</text><text fill="#000000" font-family="sans-serif" font-size="14" lengthAdjust="spacing" textLength="25" x="780.5" y="118.0889">title</text></g><!--class entity--><g id="elem_entity"><rect codeLine="39" fill="#FFFFCC" height="137.7813" id="entity" rx="2.5" ry="2.5" style="stroke:#181818;stroke-width:0.5;" width="122" x="310.5" y="12"/><ellipse cx="348.9" cy="28" fill="#D9B01C" rx="11" ry="11" style="stroke:#181818;stroke-width:1.0;"/><path d="M350.1031,28.1406 Q350.4625,28.2188 350.7281,28.5 Q351.0094,28.7656 351.4,29.5469 L353.6344,34 L350.9469,34 L349.4469,30.875 Q349.3844,30.7344 349.275,30.5 Q348.6188,29.1094 347.7281,29.1094 L346.9469,29.1094 L346.9469,34 L344.5094,34 L344.5094,21.6094 L348.0406,21.6094 Q350.4313,21.6094 351.4625,22.4531 Q352.5094,23.2969 352.5094,25.2031 Q352.5094,26.4844 351.8844,27.25 Q351.275,28 350.1031,28.1406 Z M346.9469,23.6719 L346.9469,27.0469 L348.1031,27.0469 Q349.1188,27.0469 349.5406,26.6563 Q349.9781,26.25 349.9781,25.3438 Q349.9781,24.4531 349.5406,24.0625 Q349.1188,23.6719 348.1031,23.6719 L346.9469,23.6719 Z " fill="#000000"/><text fill="#000000" font-family="sans-serif" font-size="14" lengthAdjust="spacing" textLength="38" x="368.1" y="32.8467">entity</text><line style="stroke:#181818;stroke-width:0.5;" x1="311.5" x2="431.5" y1="44" y2="44"/><text fill="#000000" font-family="sans-serif" font-size="14" lengthAdjust="spacing" textLength="31" x="316.5" y="60.9951">date</text><text fill="#000000" font-family="sans-serif" font-size="14" lengthAdjust="spacing" textLength="78" x="316.5" y="77.292">intra_group</text><text fill="#000000" font-family="sans-serif" font-size="14" lengthAdjust="spacing" textLength="78" x="316.5" y="93.5889">naics_code</text><text fill="#000000" font-family="sans-serif" font-size="14" lengthAdjust="spacing" textLength="49" x="316.5" y="109.8857">cqs_irb</text><text fill="#000000" font-family="sans-serif" font-size="14" lengthAdjust="spacing" textLength="42" x="316.5" y="126.1826">pd_irb</text><text fill="#000000" font-family="sans-serif" font-size="14" lengthAdjust="spacing" textLength="110" x="316.5" y="142.4795">...41 more fields</text></g><!--class batch_links--><g id="elem_batch_links"><rect codeLine="49" fill="#FFFFCC" height="72.5938" id="batch_links" rx="2.5" ry="2.5" style="stroke:#181818;stroke-width:0.5;" width="109" x="451" y="44.5"/><ellipse cx="466" cy="60.5" fill="#D9B01C" rx="11" ry="11" style="stroke:#181818;stroke-width:1.0;"/><path d="M467.2031,60.6406 Q467.5625,60.7188 467.8281,61 Q468.1094,61.2656 468.5,62.0469 L470.7344,66.5 L468.0469,66.5 L466.5469,63.375 Q466.4844,63.2344 466.375,63 Q465.7188,61.6094 464.8281,61.6094 L464.0469,61.6094 L464.0469,66.5 L461.6094,66.5 L461.6094,54.1094 L465.1406,54.1094 Q467.5313,54.1094 468.5625,54.9531 Q469.6094,55.7969 469.6094,57.7031 Q469.6094,58.9844 468.9844,59.75 Q468.375,60.5 467.2031,60.6406 Z M464.0469,56.1719 L464.0469,59.5469 L465.2031,59.5469 Q466.2188,59.5469 466.6406,59.1563 Q467.0781,58.75 467.0781,57.8438 Q467.0781,56.9531 466.6406,56.5625 Q466.2188,56.1719 465.2031,56.1719 L464.0469,56.1719 Z " fill="#000000"/><text fill="#000000" font-family="sans-serif" font-size="14" lengthAdjust="spacing" textLength="77" x="480" y="65.3467">batch_links</text><line style="stroke:#181818;stroke-width:0.5;" x1="452" x2="559" y1="76.5" y2="76.5"/><text fill="#000000" font-family="sans-serif" font-size="14" lengthAdjust="spacing" textLength="17" x="457" y="93.4951">rel</text><text fill="#000000" font-family="sans-serif" font-size="14" lengthAdjust="spacing" textLength="27" x="457" y="109.792">href</text></g><!--class example_data--><g id="elem_example_data"><rect codeLine="55" fill="#FFFFCC" height="137.7813" id="example_data" rx="2.5" ry="2.5" style="stroke:#181818;stroke-width:0.5;" width="151" x="744" y="186"/><ellipse cx="769.8" cy="202" fill="#D9B01C" rx="11" ry="11" style="stroke:#181818;stroke-width:1.0;"/><path d="M771.0031,202.1406 Q771.3625,202.2188 771.6281,202.5 Q771.9094,202.7656 772.3,203.5469 L774.5344,208 L771.8469,208 L770.3469,204.875 Q770.2844,204.7344 770.175,204.5 Q769.5188,203.1094 768.6281,203.1094 L767.8469,203.1094 L767.8469,208 L765.4094,208 L765.4094,195.6094 L768.9406,195.6094 Q771.3313,195.6094 772.3625,196.4531 Q773.4094,197.2969 773.4094,199.2031 Q773.4094,200.4844 772.7844,201.25 Q772.175,202 771.0031,202.1406 Z M767.8469,197.6719 L767.8469,201.0469 L769.0031,201.0469 Q770.0188,201.0469 770.4406,200.6563 Q770.8781,200.25 770.8781,199.3438 Q770.8781,198.4531 770.4406,198.0625 Q770.0188,197.6719 769.0031,197.6719 L767.8469,197.6719 Z " fill="#000000"/><text fill="#000000" font-family="sans-serif" font-size="14" lengthAdjust="spacing" textLength="95" x="786.2" y="206.8467">example_data</text><line style="stroke:#181818;stroke-width:0.5;" x1="745" x2="894" y1="218" y2="218"/><text fill="#000000" font-family="sans-serif" font-size="14" lengthAdjust="spacing" textLength="29" x="750" y="234.9951">loan</text><text fill="#000000" font-family="sans-serif" font-size="14" lengthAdjust="spacing" textLength="76" x="750" y="251.292">agreement</text><text fill="#000000" font-family="sans-serif" font-size="14" lengthAdjust="spacing" textLength="102" x="750" y="267.5889">exchange_rate</text><text fill="#000000" font-family="sans-serif" font-size="14" lengthAdjust="spacing" textLength="38" x="750" y="283.8857">curve</text><text fill="#000000" font-family="sans-serif" font-size="14" lengthAdjust="spacing" textLength="139" x="750" y="300.1826">derivative_cash_flow</text><text fill="#000000" font-family="sans-serif" font-size="14" lengthAdjust="spacing" textLength="101" x="750" y="316.4795">...9 more fields</text></g><!--class loan--><g id="elem_loan"><rect codeLine="65" fill="#FFFFCC" height="137.7813" id="loan" rx="2.5" ry="2.5" style="stroke:#181818;stroke-width:0.5;" width="166" x="901.5" y="12"/><ellipse cx="965.75" cy="28" fill="#D9B01C" rx="11" ry="11" style="stroke:#181818;stroke-width:1.0;"/><path d="M966.9531,28.1406 Q967.3125,28.2188 967.5781,28.5 Q967.8594,28.7656 968.25,29.5469 L970.4844,34 L967.7969,34 L966.2969,30.875 Q966.2344,30.7344 966.125,30.5 Q965.4688,29.1094 964.5781,29.1094 L963.7969,29.1094 L963.7969,34 L961.3594,34 L961.3594,21.6094 L964.8906,21.6094 Q967.2813,21.6094 968.3125,22.4531 Q969.3594,23.2969 969.3594,25.2031 Q969.3594,26.4844 968.7344,27.25 Q968.125,28 966.9531,28.1406 Z M963.7969,23.6719 L963.7969,27.0469 L964.9531,27.0469 Q965.9688,27.0469 966.3906,26.6563 Q966.8281,26.25 966.8281,25.3438 Q966.8281,24.4531 966.3906,24.0625 Q965.9688,23.6719 964.9531,23.6719 L963.7969,23.6719 Z " fill="#000000"/><text fill="#000000" font-family="sans-serif" font-size="14" lengthAdjust="spacing" textLength="29" x="986.25" y="32.8467">loan</text><line style="stroke:#181818;stroke-width:0.5;" x1="902.5" x2="1066.5" y1="44" y2="44"/><text fill="#000000" font-family="sans-serif" font-size="14" lengthAdjust="spacing" textLength="152" x="907.5" y="60.9951">accounting_treatment</text><text fill="#000000" font-family="sans-serif" font-size="14" lengthAdjust="spacing" textLength="66" x="907.5" y="77.292">regulated</text><text fill="#000000" font-family="sans-serif" font-size="14" lengthAdjust="spacing" textLength="20" x="907.5" y="93.5889">ccf</text><text fill="#000000" font-family="sans-serif" font-size="14" lengthAdjust="spacing" textLength="137" x="907.5" y="109.8857">impairment_amount</text><text fill="#000000" font-family="sans-serif" font-size="14" lengthAdjust="spacing" textLength="154" x="907.5" y="126.1826">reporting_entity_name</text><text fill="#000000" font-family="sans-serif" font-size="14" lengthAdjust="spacing" textLength="110" x="907.5" y="142.4795">...99 more fields</text></g><!--class agreement--><g id="elem_agreement"><rect codeLine="75" fill="#FFFFCC" height="137.7813" id="agreement" rx="2.5" ry="2.5" style="stroke:#181818;stroke-width:0.5;" width="195" x="6" y="186"/><ellipse cx="61.25" cy="202" fill="#D9B01C" rx="11" ry="11" style="stroke:#181818;stroke-width:1.0;"/><path d="M62.4531,202.1406 Q62.8125,202.2188 63.0781,202.5 Q63.3594,202.7656 63.75,203.5469 L65.9844,208 L63.2969,208 L61.7969,204.875 Q61.7344,204.7344 61.625,204.5 Q60.9688,203.1094 60.0781,203.1094 L59.2969,203.1094 L59.2969,208 L56.8594,208 L56.8594,195.6094 L60.3906,195.6094 Q62.7813,195.6094 63.8125,196.4531 Q64.8594,197.2969 64.8594,199.2031 Q64.8594,200.4844 64.2344,201.25 Q63.625,202 62.4531,202.1406 Z M59.2969,197.6719 L59.2969,201.0469 L60.4531,201.0469 Q61.4688,201.0469 61.8906,200.6563 Q62.3281,200.25 62.3281,199.3438 Q62.3281,198.4531 61.8906,198.0625 Q61.4688,197.6719 60.4531,197.6719 L59.2969,197.6719 Z " fill="#000000"/><text fill="#000000" font-family="sans-serif" font-size="14" lengthAdjust="spacing" textLength="76" x="81.75" y="206.8467">agreement</text><line style="stroke:#181818;stroke-width:0.5;" x1="7" x2="200" y1="218" y2="218"/><text fill="#000000" font-family="sans-serif" font-size="14" lengthAdjust="spacing" textLength="31" x="12" y="234.9951">date</text><text fill="#000000" font-family="sans-serif" font-size="14" lengthAdjust="spacing" textLength="86" x="12" y="251.292">guarantor_id</text><text fill="#000000" font-family="sans-serif" font-size="14" lengthAdjust="spacing" textLength="125" x="12" y="267.5889">netting_restriction</text><text fill="#000000" font-family="sans-serif" font-size="14" lengthAdjust="spacing" textLength="183" x="12" y="283.8857">minimum_transfer_amount</text><text fill="#000000" font-family="sans-serif" font-size="14" lengthAdjust="spacing" textLength="141" x="12" y="300.1826">number_of_disputes</text><text fill="#000000" font-family="sans-serif" font-size="14" lengthAdjust="spacing" textLength="110" x="12" y="316.4795">...13 more fields</text></g><!--class exchange_rate--><g id="elem_exchange_rate"><rect codeLine="85" fill="#FFFFCC" height="137.7813" id="exchange_rate" rx="2.5" ry="2.5" style="stroke:#181818;stroke-width:0.5;" width="134" x="219.5" y="186"/><ellipse cx="234.5" cy="202" fill="#D9B01C" rx="11" ry="11" style="stroke:#181818;stroke-width:1.0;"/><path d="M235.7031,202.1406 Q236.0625,202.2188 236.3281,202.5 Q236.6094,202.7656 237,203.5469 L239.2344,208 L236.5469,208 L235.0469,204.875 Q234.9844,204.7344 234.875,204.5 Q234.2188,203.1094 233.3281,203.1094 L232.5469,203.1094 L232.5469,208 L230.1094,208 L230.1094,195.6094 L233.6406,195.6094 Q236.0313,195.6094 237.0625,196.4531 Q238.1094,197.2969 238.1094,199.2031 Q238.1094,200.4844 237.4844,201.25 Q236.875,202 235.7031,202.1406 Z M232.5469,197.6719 L232.5469,201.0469 L233.7031,201.0469 Q234.7188,201.0469 235.1406,200.6563 Q235.5781,200.25 235.5781,199.3438 Q235.5781,198.4531 235.1406,198.0625 Q234.7188,197.6719 233.7031,197.6719 L232.5469,197.6719 Z " fill="#000000"/><text fill="#000000" font-family="sans-serif" font-size="14" lengthAdjust="spacing" textLength="102" x="248.5" y="206.8467">exchange_rate</text><line style="stroke:#181818;stroke-width:0.5;" x1="220.5" x2="352.5" y1="218" y2="218"/><text fill="#000000" font-family="sans-serif" font-size="14" lengthAdjust="spacing" textLength="31" x="225.5" y="234.9951">date</text><text fill="#000000" font-family="sans-serif" font-size="14" lengthAdjust="spacing" textLength="41" x="225.5" y="251.292">quote</text><text fill="#000000" font-family="sans-serif" font-size="14" lengthAdjust="spacing" textLength="12" x="225.5" y="267.5889">id</text><text fill="#000000" font-family="sans-serif" font-size="14" lengthAdjust="spacing" textLength="48" x="225.5" y="283.8857">source</text><text fill="#000000" font-family="sans-serif" font-size="14" lengthAdjust="spacing" textLength="69" x="225.5" y="300.1826">version_id</text><text fill="#000000" font-family="sans-serif" font-size="14" lengthAdjust="spacing" textLength="101" x="225.5" y="316.4795">...2 more fields</text></g><!--class curve--><g id="elem_curve"><rect codeLine="95" fill="#FFFFCC" height="137.7813" id="curve" rx="2.5" ry="2.5" style="stroke:#181818;stroke-width:0.5;" width="113" x="1086" y="12"/><ellipse cx="1120.35" cy="28" fill="#D9B01C" rx="11" ry="11" style="stroke:#181818;stroke-width:1.0;"/><path d="M1121.5531,28.1406 Q1121.9125,28.2188 1122.1781,28.5 Q1122.4594,28.7656 1122.85,29.5469 L1125.0844,34 L1122.3969,34 L1120.8969,30.875 Q1120.8344,30.7344 1120.725,30.5 Q1120.0688,29.1094 1119.1781,29.1094 L1118.3969,29.1094 L1118.3969,34 L1115.9594,34 L1115.9594,21.6094 L1119.4906,21.6094 Q1121.8813,21.6094 1122.9125,22.4531 Q1123.9594,23.2969 1123.9594,25.2031 Q1123.9594,26.4844 1123.3344,27.25 Q1122.725,28 1121.5531,28.1406 Z M1118.3969,23.6719 L1118.3969,27.0469 L1119.5531,27.0469 Q1120.5688,27.0469 1120.9906,26.6563 Q1121.4281,26.25 1121.4281,25.3438 Q1121.4281,24.4531 1120.9906,24.0625 Q1120.5688,23.6719 1119.5531,23.6719 L1118.3969,23.6719 Z " fill="#000000"/><text fill="#000000" font-family="sans-serif" font-size="14" lengthAdjust="spacing" textLength="38" x="1138.65" y="32.8467">curve</text><line style="stroke:#181818;stroke-width:0.5;" x1="1087" x2="1198" y1="44" y2="44"/><text fill="#000000" font-family="sans-serif" font-size="14" lengthAdjust="spacing" textLength="31" x="1092" y="60.9951">date</text><text fill="#000000" font-family="sans-serif" font-size="14" lengthAdjust="spacing" textLength="44" x="1092" y="77.292">values</text><text fill="#000000" font-family="sans-serif" font-size="14" lengthAdjust="spacing" textLength="39" x="1092" y="93.5889">name</text><text fill="#000000" font-family="sans-serif" font-size="14" lengthAdjust="spacing" textLength="12" x="1092" y="109.8857">id</text><text fill="#000000" font-family="sans-serif" font-size="14" lengthAdjust="spacing" textLength="48" x="1092" y="126.1826">source</text><text fill="#000000" font-family="sans-serif" font-size="14" lengthAdjust="spacing" textLength="101" x="1092" y="142.4795">...3 more fields</text></g><!--class derivative_cash_flow--><g id="elem_derivative_cash_flow"><rect codeLine="105" fill="#FFFFCC" height="137.7813" id="derivative_cash_flow" rx="2.5" ry="2.5" style="stroke:#181818;stroke-width:0.5;" width="171" x="372" y="186"/><ellipse cx="387" cy="202" fill="#D9B01C" rx="11" ry="11" style="stroke:#181818;stroke-width:1.0;"/><path d="M388.2031,202.1406 Q388.5625,202.2188 388.8281,202.5 Q389.1094,202.7656 389.5,203.5469 L391.7344,208 L389.0469,208 L387.5469,204.875 Q387.4844,204.7344 387.375,204.5 Q386.7188,203.1094 385.8281,203.1094 L385.0469,203.1094 L385.0469,208 L382.6094,208 L382.6094,195.6094 L386.1406,195.6094 Q388.5313,195.6094 389.5625,196.4531 Q390.6094,197.2969 390.6094,199.2031 Q390.6094,200.4844 389.9844,201.25 Q389.375,202 388.2031,202.1406 Z M385.0469,197.6719 L385.0469,201.0469 L386.2031,201.0469 Q387.2188,201.0469 387.6406,200.6563 Q388.0781,200.25 388.0781,199.3438 Q388.0781,198.4531 387.6406,198.0625 Q387.2188,197.6719 386.2031,197.6719 L385.0469,197.6719 Z " fill="#000000"/><text fill="#000000" font-family="sans-serif" font-size="14" lengthAdjust="spacing" textLength="139" x="401" y="206.8467">derivative_cash_flow</text><line style="stroke:#181818;stroke-width:0.5;" x1="373" x2="542" y1="218" y2="218"/><text fill="#000000" font-family="sans-serif" font-size="14" lengthAdjust="spacing" textLength="31" x="378" y="234.9951">date</text><text fill="#000000" font-family="sans-serif" font-size="14" lengthAdjust="spacing" textLength="75" x="378" y="251.292">mtm_clean</text><text fill="#000000" font-family="sans-serif" font-size="14" lengthAdjust="spacing" textLength="58" x="378" y="267.5889">purpose</text><text fill="#000000" font-family="sans-serif" font-size="14" lengthAdjust="spacing" textLength="154" x="378" y="283.8857">reporting_entity_name</text><text fill="#000000" font-family="sans-serif" font-size="14" lengthAdjust="spacing" textLength="115" x="378" y="300.1826">notional_amount</text><text fill="#000000" font-family="sans-serif" font-size="14" lengthAdjust="spacing" textLength="110" x="378" y="316.4795">...24 more fields</text></g><!--class derivative--><g id="elem_derivative"><rect codeLine="115" fill="#FFFFCC" height="137.7813" id="derivative" rx="2.5" ry="2.5" style="stroke:#181818;stroke-width:0.5;" width="164" x="561.5" y="186"/><ellipse cx="606.75" cy="202" fill="#D9B01C" rx="11" ry="11" style="stroke:#181818;stroke-width:1.0;"/><path d="M607.9531,202.1406 Q608.3125,202.2188 608.5781,202.5 Q608.8594,202.7656 609.25,203.5469 L611.4844,208 L608.7969,208 L607.2969,204.875 Q607.2344,204.7344 607.125,204.5 Q606.4688,203.1094 605.5781,203.1094 L604.7969,203.1094 L604.7969,208 L602.3594,208 L602.3594,195.6094 L605.8906,195.6094 Q608.2813,195.6094 609.3125,196.4531 Q610.3594,197.2969 610.3594,199.2031 Q610.3594,200.4844 609.7344,201.25 Q609.125,202 607.9531,202.1406 Z M604.7969,197.6719 L604.7969,201.0469 L605.9531,201.0469 Q606.9688,201.0469 607.3906,200.6563 Q607.8281,200.25 607.8281,199.3438 Q607.8281,198.4531 607.3906,198.0625 Q606.9688,197.6719 605.9531,197.6719 L604.7969,197.6719 Z " fill="#000000"/><text fill="#000000" font-family="sans-serif" font-size="14" lengthAdjust="spacing" textLength="65" x="627.25" y="206.8467">derivative</text><line style="stroke:#181818;stroke-width:0.5;" x1="562.5" x2="724.5" y1="218" y2="218"/><text fill="#000000" font-family="sans-serif" font-size="14" lengthAdjust="spacing" textLength="31" x="567.5" y="234.9951">date</text><text fill="#000000" font-family="sans-serif" font-size="14" lengthAdjust="spacing" textLength="106" x="567.5" y="251.292">risk_weight_std</text><text fill="#000000" font-family="sans-serif" font-size="14" lengthAdjust="spacing" textLength="152" x="567.5" y="267.5889">accounting_treatment</text><text fill="#000000" font-family="sans-serif" font-size="14" lengthAdjust="spacing" textLength="75" x="567.5" y="283.8857">mtm_clean</text><text fill="#000000" font-family="sans-serif" font-size="14" lengthAdjust="spacing" textLength="127" x="567.5" y="300.1826">impairment_status</text><text fill="#000000" font-family="sans-serif" font-size="14" lengthAdjust="spacing" textLength="110" x="567.5" y="316.4795">...75 more fields</text></g><!--class guarantor--><g id="elem_guarantor"><rect codeLine="125" fill="#FFFFCC" height="137.7813" id="guarantor" rx="2.5" ry="2.5" style="stroke:#181818;stroke-width:0.5;" width="122" x="42.5" y="360"/><ellipse cx="67.85" cy="376" fill="#D9B01C" rx="11" ry="11" style="stroke:#181818;stroke-width:1.0;"/><path d="M69.0531,376.1406 Q69.4125,376.2188 69.6781,376.5 Q69.9594,376.7656 70.35,377.5469 L72.5844,382 L69.8969,382 L68.3969,378.875 Q68.3344,378.7344 68.225,378.5 Q67.5688,377.1094 66.6781,377.1094 L65.8969,377.1094 L65.8969,382 L63.4594,382 L63.4594,369.6094 L66.9906,369.6094 Q69.3813,369.6094 70.4125,370.4531 Q71.4594,371.2969 71.4594,373.2031 Q71.4594,374.4844 70.8344,375.25 Q70.225,376 69.0531,376.1406 Z M65.8969,371.6719 L65.8969,375.0469 L67.0531,375.0469 Q68.0688,375.0469 68.4906,374.6563 Q68.9281,374.25 68.9281,373.3438 Q68.9281,372.4531 68.4906,372.0625 Q68.0688,371.6719 67.0531,371.6719 L65.8969,371.6719 Z " fill="#000000"/><text fill="#000000" font-family="sans-serif" font-size="14" lengthAdjust="spacing" textLength="67" x="84.15" y="380.8467">guarantor</text><line style="stroke:#181818;stroke-width:0.5;" x1="43.5" x2="163.5" y1="392" y2="392"/><text fill="#000000" font-family="sans-serif" font-size="14" lengthAdjust="spacing" textLength="31" x="48.5" y="408.9951">date</text><text fill="#000000" font-family="sans-serif" font-size="14" lengthAdjust="spacing" textLength="78" x="48.5" y="425.292">intra_group</text><text fill="#000000" font-family="sans-serif" font-size="14" lengthAdjust="spacing" textLength="78" x="48.5" y="441.5889">naics_code</text><text fill="#000000" font-family="sans-serif" font-size="14" lengthAdjust="spacing" textLength="49" x="48.5" y="457.8857">cqs_irb</text><text fill="#000000" font-family="sans-serif" font-size="14" lengthAdjust="spacing" textLength="42" x="48.5" y="474.1826">pd_irb</text><text fill="#000000" font-family="sans-serif" font-size="14" lengthAdjust="spacing" textLength="110" x="48.5" y="490.4795">...41 more fields</text></g><!--class issuer--><g id="elem_issuer"><rect codeLine="135" fill="#FFFFCC" height="137.7813" id="issuer" rx="2.5" ry="2.5" style="stroke:#181818;stroke-width:0.5;" width="122" x="182.5" y="360"/><ellipse cx="219.1" cy="376" fill="#D9B01C" rx="11" ry="11" style="stroke:#181818;stroke-width:1.0;"/><path d="M220.3031,376.1406 Q220.6625,376.2188 220.9281,376.5 Q221.2094,376.7656 221.6,377.5469 L223.8344,382 L221.1469,382 L219.6469,378.875 Q219.5844,378.7344 219.475,378.5 Q218.8188,377.1094 217.9281,377.1094 L217.1469,377.1094 L217.1469,382 L214.7094,382 L214.7094,369.6094 L218.2406,369.6094 Q220.6313,369.6094 221.6625,370.4531 Q222.7094,371.2969 222.7094,373.2031 Q222.7094,374.4844 222.0844,375.25 Q221.475,376 220.3031,376.1406 Z M217.1469,371.6719 L217.1469,375.0469 L218.3031,375.0469 Q219.3188,375.0469 219.7406,374.6563 Q220.1781,374.25 220.1781,373.3438 Q220.1781,372.4531 219.7406,372.0625 Q219.3188,371.6719 218.3031,371.6719 L217.1469,371.6719 Z " fill="#000000"/><text fill="#000000" font-family="sans-serif" font-size="14" lengthAdjust="spacing" textLength="42" x="237.9" y="380.8467">issuer</text><line style="stroke:#181818;stroke-width:0.5;" x1="183.5" x2="303.5" y1="392" y2="392"/><text fill="#000000" font-family="sans-serif" font-size="14" lengthAdjust="spacing" textLength="31" x="188.5" y="408.9951">date</text><text fill="#000000" font-family="sans-serif" font-size="14" lengthAdjust="spacing" textLength="78" x="188.5" y="425.292">intra_group</text><text fill="#000000" font-family="sans-serif" font-size="14" lengthAdjust="spacing" textLength="78" x="188.5" y="441.5889">naics_code</text><text fill="#000000" font-family="sans-serif" font-size="14" lengthAdjust="spacing" textLength="49" x="188.5" y="457.8857">cqs_irb</text><text fill="#000000" font-family="sans-serif" font-size="14" lengthAdjust="spacing" textLength="42" x="188.5" y="474.1826">pd_irb</text><text fill="#000000" font-family="sans-serif" font-size="14" lengthAdjust="spacing" textLength="110" x="188.5" y="490.4795">...41 more fields</text></g><!--class security--><g id="elem_security"><rect codeLine="145" fill="#FFFFCC" height="137.7813" id="security" rx="2.5" ry="2.5" style="stroke:#181818;stroke-width:0.5;" width="167" x="1249" y="12"/><ellipse cx="1301.25" cy="28" fill="#D9B01C" rx="11" ry="11" style="stroke:#181818;stroke-width:1.0;"/><path d="M1302.4531,28.1406 Q1302.8125,28.2188 1303.0781,28.5 Q1303.3594,28.7656 1303.75,29.5469 L1305.9844,34 L1303.2969,34 L1301.7969,30.875 Q1301.7344,30.7344 1301.625,30.5 Q1300.9688,29.1094 1300.0781,29.1094 L1299.2969,29.1094 L1299.2969,34 L1296.8594,34 L1296.8594,21.6094 L1300.3906,21.6094 Q1302.7813,21.6094 1303.8125,22.4531 Q1304.8594,23.2969 1304.8594,25.2031 Q1304.8594,26.4844 1304.2344,27.25 Q1303.625,28 1302.4531,28.1406 Z M1299.2969,23.6719 L1299.2969,27.0469 L1300.4531,27.0469 Q1301.4688,27.0469 1301.8906,26.6563 Q1302.3281,26.25 1302.3281,25.3438 Q1302.3281,24.4531 1301.8906,24.0625 Q1301.4688,23.6719 1300.4531,23.6719 L1299.2969,23.6719 Z " fill="#000000"/><text fill="#000000" font-family="sans-serif" font-size="14" lengthAdjust="spacing" textLength="54" x="1321.75" y="32.8467">security</text><line style="stroke:#181818;stroke-width:0.5;" x1="1250" x2="1415" y1="44" y2="44"/><text fill="#000000" font-family="sans-serif" font-size="14" lengthAdjust="spacing" textLength="152" x="1255" y="60.9951">accounting_treatment</text><text fill="#000000" font-family="sans-serif" font-size="14" lengthAdjust="spacing" textLength="20" x="1255" y="77.292">ccf</text><text fill="#000000" font-family="sans-serif" font-size="14" lengthAdjust="spacing" textLength="137" x="1255" y="93.5889">impairment_amount</text><text fill="#000000" font-family="sans-serif" font-size="14" lengthAdjust="spacing" textLength="154" x="1255" y="109.8857">reporting_entity_name</text><text fill="#000000" font-family="sans-serif" font-size="14" lengthAdjust="spacing" textLength="155" x="1255" y="126.1826">day_count_convention</text><text fill="#000000" font-family="sans-serif" font-size="14" lengthAdjust="spacing" textLength="110" x="1255" y="142.4795">...99 more fields</text></g><!--class adjustment--><g id="elem_adjustment"><rect codeLine="155" fill="#FFFFCC" height="137.7813" id="adjustment" rx="2.5" ry="2.5" style="stroke:#181818;stroke-width:0.5;" width="166" x="322.5" y="360"/><ellipse cx="362.7" cy="376" fill="#D9B01C" rx="11" ry="11" style="stroke:#181818;stroke-width:1.0;"/><path d="M363.9031,376.1406 Q364.2625,376.2188 364.5281,376.5 Q364.8094,376.7656 365.2,377.5469 L367.4344,382 L364.7469,382 L363.2469,378.875 Q363.1844,378.7344 363.075,378.5 Q362.4188,377.1094 361.5281,377.1094 L360.7469,377.1094 L360.7469,382 L358.3094,382 L358.3094,369.6094 L361.8406,369.6094 Q364.2313,369.6094 365.2625,370.4531 Q366.3094,371.2969 366.3094,373.2031 Q366.3094,374.4844 365.6844,375.25 Q365.075,376 363.9031,376.1406 Z M360.7469,371.6719 L360.7469,375.0469 L361.9031,375.0469 Q362.9188,375.0469 363.3406,374.6563 Q363.7781,374.25 363.7781,373.3438 Q363.7781,372.4531 363.3406,372.0625 Q362.9188,371.6719 361.9031,371.6719 L360.7469,371.6719 Z " fill="#000000"/><text fill="#000000" font-family="sans-serif" font-size="14" lengthAdjust="spacing" textLength="78" x="382.3" y="380.8467">adjustment</text><line style="stroke:#181818;stroke-width:0.5;" x1="323.5" x2="487.5" y1="392" y2="392"/><text fill="#000000" font-family="sans-serif" font-size="14" lengthAdjust="spacing" textLength="31" x="328.5" y="408.9951">date</text><text fill="#000000" font-family="sans-serif" font-size="14" lengthAdjust="spacing" textLength="20" x="328.5" y="425.292">col</text><text fill="#000000" font-family="sans-serif" font-size="14" lengthAdjust="spacing" textLength="154" x="328.5" y="441.5889">reporting_entity_name</text><text fill="#000000" font-family="sans-serif" font-size="14" lengthAdjust="spacing" textLength="79" x="328.5" y="457.8857">report_type</text><text fill="#000000" font-family="sans-serif" font-size="14" lengthAdjust="spacing" textLength="48" x="328.5" y="474.1826">source</text><text fill="#000000" font-family="sans-serif" font-size="14" lengthAdjust="spacing" textLength="101" x="328.5" y="490.4795">...8 more fields</text></g><!--class collateral--><g id="elem_collateral"><rect codeLine="165" fill="#FFFFCC" height="137.7813" id="collateral" rx="2.5" ry="2.5" style="stroke:#181818;stroke-width:0.5;" width="122" x="506.5" y="360"/><ellipse cx="534.55" cy="376" fill="#D9B01C" rx="11" ry="11" style="stroke:#181818;stroke-width:1.0;"/><path d="M535.7531,376.1406 Q536.1125,376.2188 536.3781,376.5 Q536.6594,376.7656 537.05,377.5469 L539.2844,382 L536.5969,382 L535.0969,378.875 Q535.0344,378.7344 534.925,378.5 Q534.2688,377.1094 533.3781,377.1094 L532.5969,377.1094 L532.5969,382 L530.1594,382 L530.1594,369.6094 L533.6906,369.6094 Q536.0813,369.6094 537.1125,370.4531 Q538.1594,371.2969 538.1594,373.2031 Q538.1594,374.4844 537.5344,375.25 Q536.925,376 535.7531,376.1406 Z M532.5969,371.6719 L532.5969,375.0469 L533.7531,375.0469 Q534.7688,375.0469 535.1906,374.6563 Q535.6281,374.25 535.6281,373.3438 Q535.6281,372.4531 535.1906,372.0625 Q534.7688,371.6719 533.7531,371.6719 L532.5969,371.6719 Z " fill="#000000"/><text fill="#000000" font-family="sans-serif" font-size="14" lengthAdjust="spacing" textLength="61" x="551.45" y="380.8467">collateral</text><line style="stroke:#181818;stroke-width:0.5;" x1="507.5" x2="627.5" y1="392" y2="392"/><text fill="#000000" font-family="sans-serif" font-size="14" lengthAdjust="spacing" textLength="31" x="512.5" y="408.9951">date</text><text fill="#000000" font-family="sans-serif" font-size="14" lengthAdjust="spacing" textLength="65" x="512.5" y="425.292">end_date</text><text fill="#000000" font-family="sans-serif" font-size="14" lengthAdjust="spacing" textLength="83" x="512.5" y="441.5889">account_ids</text><text fill="#000000" font-family="sans-serif" font-size="14" lengthAdjust="spacing" textLength="48" x="512.5" y="457.8857">charge</text><text fill="#000000" font-family="sans-serif" font-size="14" lengthAdjust="spacing" textLength="69" x="512.5" y="474.1826">orig_value</text><text fill="#000000" font-family="sans-serif" font-size="14" lengthAdjust="spacing" textLength="110" x="512.5" y="490.4795">...15 more fields</text></g><!--class account--><g id="elem_account"><rect codeLine="175" fill="#FFFFCC" height="137.7813" id="account" rx="2.5" ry="2.5" style="stroke:#181818;stroke-width:0.5;" width="164" x="21.5" y="534"/><ellipse cx="71.25" cy="550" fill="#D9B01C" rx="11" ry="11" style="stroke:#181818;stroke-width:1.0;"/><path d="M72.4531,550.1406 Q72.8125,550.2188 73.0781,550.5 Q73.3594,550.7656 73.75,551.5469 L75.9844,556 L73.2969,556 L71.7969,552.875 Q71.7344,552.7344 71.625,552.5 Q70.9688,551.1094 70.0781,551.1094 L69.2969,551.1094 L69.2969,556 L66.8594,556 L66.8594,543.6094 L70.3906,543.6094 Q72.7813,543.6094 73.8125,544.4531 Q74.8594,545.2969 74.8594,547.2031 Q74.8594,548.4844 74.2344,549.25 Q73.625,550 72.4531,550.1406 Z M69.2969,545.6719 L69.2969,549.0469 L70.4531,549.0469 Q71.4688,549.0469 71.8906,548.6563 Q72.3281,548.25 72.3281,547.3438 Q72.3281,546.4531 71.8906,546.0625 Q71.4688,545.6719 70.4531,545.6719 L69.2969,545.6719 Z " fill="#000000"/><text fill="#000000" font-family="sans-serif" font-size="14" lengthAdjust="spacing" textLength="56" x="91.75" y="554.8467">account</text><line style="stroke:#181818;stroke-width:0.5;" x1="22.5" x2="184.5" y1="566" y2="566"/><text fill="#000000" font-family="sans-serif" font-size="14" lengthAdjust="spacing" textLength="31" x="27.5" y="582.9951">date</text><text fill="#000000" font-family="sans-serif" font-size="14" lengthAdjust="spacing" textLength="106" x="27.5" y="599.292">risk_weight_std</text><text fill="#000000" font-family="sans-serif" font-size="14" lengthAdjust="spacing" textLength="152" x="27.5" y="615.5889">accounting_treatment</text><text fill="#000000" font-family="sans-serif" font-size="14" lengthAdjust="spacing" textLength="127" x="27.5" y="631.8857">impairment_status</text><text fill="#000000" font-family="sans-serif" font-size="14" lengthAdjust="spacing" textLength="20" x="27.5" y="648.1826">ccf</text><text fill="#000000" font-family="sans-serif" font-size="14" lengthAdjust="spacing" textLength="110" x="27.5" y="664.4795">...69 more fields</text></g><!--class customer--><g id="elem_customer"><rect codeLine="185" fill="#FFFFCC" height="137.7813" id="customer" rx="2.5" ry="2.5" style="stroke:#181818;stroke-width:0.5;" width="122" x="203.5" y="534"/><ellipse cx="229.3" cy="550" fill="#D9B01C" rx="11" ry="11" style="stroke:#181818;stroke-width:1.0;"/><path d="M230.5031,550.1406 Q230.8625,550.2188 231.1281,550.5 Q231.4094,550.7656 231.8,551.5469 L234.0344,556 L231.3469,556 L229.8469,552.875 Q229.7844,552.7344 229.675,552.5 Q229.0188,551.1094 228.1281,551.1094 L227.3469,551.1094 L227.3469,556 L224.9094,556 L224.9094,543.6094 L228.4406,543.6094 Q230.8313,543.6094 231.8625,544.4531 Q232.9094,545.2969 232.9094,547.2031 Q232.9094,548.4844 232.2844,549.25 Q231.675,550 230.5031,550.1406 Z M227.3469,545.6719 L227.3469,549.0469 L228.5031,549.0469 Q229.5188,549.0469 229.9406,548.6563 Q230.3781,548.25 230.3781,547.3438 Q230.3781,546.4531 229.9406,546.0625 Q229.5188,545.6719 228.5031,545.6719 L227.3469,545.6719 Z " fill="#000000"/><text fill="#000000" font-family="sans-serif" font-size="14" lengthAdjust="spacing" textLength="66" x="245.7" y="554.8467">customer</text><line style="stroke:#181818;stroke-width:0.5;" x1="204.5" x2="324.5" y1="566" y2="566"/><text fill="#000000" font-family="sans-serif" font-size="14" lengthAdjust="spacing" textLength="31" x="209.5" y="582.9951">date</text><text fill="#000000" font-family="sans-serif" font-size="14" lengthAdjust="spacing" textLength="78" x="209.5" y="599.292">intra_group</text><text fill="#000000" font-family="sans-serif" font-size="14" lengthAdjust="spacing" textLength="78" x="209.5" y="615.5889">naics_code</text><text fill="#000000" font-family="sans-serif" font-size="14" lengthAdjust="spacing" textLength="49" x="209.5" y="631.8857">cqs_irb</text><text fill="#000000" font-family="sans-serif" font-size="14" lengthAdjust="spacing" textLength="75" x="209.5" y="648.1826">headcount</text><text fill="#000000" font-family="sans-serif" font-size="14" lengthAdjust="spacing" textLength="110" x="209.5" y="664.4795">...51 more fields</text></g><!--class loan_transaction--><g id="elem_loan_transaction"><rect codeLine="195" fill="#FFFFCC" height="137.7813" id="loan_transaction" rx="2.5" ry="2.5" style="stroke:#181818;stroke-width:0.5;" width="145" x="344" y="534"/><ellipse cx="359" cy="550" fill="#D9B01C" rx="11" ry="11" style="stroke:#181818;stroke-width:1.0;"/><path d="M360.2031,550.1406 Q360.5625,550.2188 360.8281,550.5 Q361.1094,550.7656 361.5,551.5469 L363.7344,556 L361.0469,556 L359.5469,552.875 Q359.4844,552.7344 359.375,552.5 Q358.7188,551.1094 357.8281,551.1094 L357.0469,551.1094 L357.0469,556 L354.6094,556 L354.6094,543.6094 L358.1406,543.6094 Q360.5313,543.6094 361.5625,544.4531 Q362.6094,545.2969 362.6094,547.2031 Q362.6094,548.4844 361.9844,549.25 Q361.375,550 360.2031,550.1406 Z M357.0469,545.6719 L357.0469,549.0469 L358.2031,549.0469 Q359.2188,549.0469 359.6406,548.6563 Q360.0781,548.25 360.0781,547.3438 Q360.0781,546.4531 359.6406,546.0625 Q359.2188,545.6719 358.2031,545.6719 L357.0469,545.6719 Z " fill="#000000"/><text fill="#000000" font-family="sans-serif" font-size="14" lengthAdjust="spacing" textLength="113" x="373" y="554.8467">loan_transaction</text><line style="stroke:#181818;stroke-width:0.5;" x1="345" x2="488" y1="566" y2="566"/><text fill="#000000" font-family="sans-serif" font-size="14" lengthAdjust="spacing" textLength="31" x="350" y="582.9951">date</text><text fill="#000000" font-family="sans-serif" font-size="14" lengthAdjust="spacing" textLength="53" x="350" y="599.292">amount</text><text fill="#000000" font-family="sans-serif" font-size="14" lengthAdjust="spacing" textLength="12" x="350" y="615.5889">id</text><text fill="#000000" font-family="sans-serif" font-size="14" lengthAdjust="spacing" textLength="48" x="350" y="631.8857">source</text><text fill="#000000" font-family="sans-serif" font-size="14" lengthAdjust="spacing" textLength="69" x="350" y="648.1826">version_id</text><text fill="#000000" font-family="sans-serif" font-size="14" lengthAdjust="spacing" textLength="101" x="350" y="664.4795">...4 more fields</text></g><!--class loan_customers--><g id="elem_loan_customers"><rect codeLine="205" fill="#FFFFCC" height="72.5938" id="loan_customers" rx="2.5" ry="2.5" style="stroke:#181818;stroke-width:0.5;" width="142" x="913.5" y="218.5"/><ellipse cx="928.5" cy="234.5" fill="#D9B01C" rx="11" ry="11" style="stroke:#181818;stroke-width:1.0;"/><path d="M929.7031,234.6406 Q930.0625,234.7188 930.3281,235 Q930.6094,235.2656 931,236.0469 L933.2344,240.5 L930.5469,240.5 L929.0469,237.375 Q928.9844,237.2344 928.875,237 Q928.2188,235.6094 927.3281,235.6094 L926.5469,235.6094 L926.5469,240.5 L924.1094,240.5 L924.1094,228.1094 L927.6406,228.1094 Q930.0313,228.1094 931.0625,228.9531 Q932.1094,229.7969 932.1094,231.7031 Q932.1094,232.9844 931.4844,233.75 Q930.875,234.5 929.7031,234.6406 Z M926.5469,230.1719 L926.5469,233.5469 L927.7031,233.5469 Q928.7188,233.5469 929.1406,233.1563 Q929.5781,232.75 929.5781,231.8438 Q929.5781,230.9531 929.1406,230.5625 Q928.7188,230.1719 927.7031,230.1719 L926.5469,230.1719 Z " fill="#000000"/><text fill="#000000" font-family="sans-serif" font-size="14" lengthAdjust="spacing" textLength="110" x="942.5" y="239.3467">loan_customers</text><line style="stroke:#181818;stroke-width:0.5;" x1="914.5" x2="1054.5" y1="250.5" y2="250.5"/><text fill="#000000" font-family="sans-serif" font-size="14" lengthAdjust="spacing" textLength="12" x="919.5" y="267.4951">id</text><text fill="#000000" font-family="sans-serif" font-size="14" lengthAdjust="spacing" textLength="111" x="919.5" y="283.792">income_amount</text></g><!--class curve_values--><g id="elem_curve_values"><rect codeLine="211" fill="#FFFFCC" height="72.5938" id="curve_values" rx="2.5" ry="2.5" style="stroke:#181818;stroke-width:0.5;" width="121" x="1082" y="218.5"/><ellipse cx="1097" cy="234.5" fill="#D9B01C" rx="11" ry="11" style="stroke:#181818;stroke-width:1.0;"/><path d="M1098.2031,234.6406 Q1098.5625,234.7188 1098.8281,235 Q1099.1094,235.2656 1099.5,236.0469 L1101.7344,240.5 L1099.0469,240.5 L1097.5469,237.375 Q1097.4844,237.2344 1097.375,237 Q1096.7188,235.6094 1095.8281,235.6094 L1095.0469,235.6094 L1095.0469,240.5 L1092.6094,240.5 L1092.6094,228.1094 L1096.1406,228.1094 Q1098.5313,228.1094 1099.5625,228.9531 Q1100.6094,229.7969 1100.6094,231.7031 Q1100.6094,232.9844 1099.9844,233.75 Q1099.375,234.5 1098.2031,234.6406 Z M1095.0469,230.1719 L1095.0469,233.5469 L1096.2031,233.5469 Q1097.2188,233.5469 1097.6406,233.1563 Q1098.0781,232.75 1098.0781,231.8438 Q1098.0781,230.9531 1097.6406,230.5625 Q1097.2188,230.1719 1096.2031,230.1719 L1095.0469,230.1719 Z " fill="#000000"/><text fill="#000000" font-family="sans-serif" font-size="14" lengthAdjust="spacing" textLength="89" x="1111" y="239.3467">curve_values</text><line style="stroke:#181818;stroke-width:0.5;" x1="1083" x2="1202" y1="250.5" y2="250.5"/><text fill="#000000" font-family="sans-serif" font-size="14" lengthAdjust="spacing" textLength="67" x="1088" y="267.4951">reference</text><text fill="#000000" font-family="sans-serif" font-size="14" lengthAdjust="spacing" textLength="36" x="1088" y="283.792">value</text></g><!--class security_index_composition--><g id="elem_security_index_composition"><rect codeLine="217" fill="#FFFFCC" height="72.5938" id="security_index_composition" rx="2.5" ry="2.5" style="stroke:#181818;stroke-width:0.5;" width="222" x="1221.5" y="218.5"/><ellipse cx="1236.5" cy="234.5" fill="#D9B01C" rx="11" ry="11" style="stroke:#181818;stroke-width:1.0;"/><path d="M1237.7031,234.6406 Q1238.0625,234.7188 1238.3281,235 Q1238.6094,235.2656 1239,236.0469 L1241.2344,240.5 L1238.5469,240.5 L1237.0469,237.375 Q1236.9844,237.2344 1236.875,237 Q1236.2188,235.6094 1235.3281,235.6094 L1234.5469,235.6094 L1234.5469,240.5 L1232.1094,240.5 L1232.1094,228.1094 L1235.6406,228.1094 Q1238.0313,228.1094 1239.0625,228.9531 Q1240.1094,229.7969 1240.1094,231.7031 Q1240.1094,232.9844 1239.4844,233.75 Q1238.875,234.5 1237.7031,234.6406 Z M1234.5469,230.1719 L1234.5469,233.5469 L1235.7031,233.5469 Q1236.7188,233.5469 1237.1406,233.1563 Q1237.5781,232.75 1237.5781,231.8438 Q1237.5781,230.9531 1237.1406,230.5625 Q1236.7188,230.1719 1235.7031,230.1719 L1234.5469,230.1719 Z " fill="#000000"/><text fill="#000000" font-family="sans-serif" font-size="14" lengthAdjust="spacing" textLength="190" x="1250.5" y="239.3467">security_index_composition</text><line style="stroke:#181818;stroke-width:0.5;" x1="1222.5" x2="1442.5" y1="250.5" y2="250.5"/><text fill="#000000" font-family="sans-serif" font-size="14" lengthAdjust="spacing" textLength="86" x="1227.5" y="267.4951">reference_id</text><text fill="#000000" font-family="sans-serif" font-size="14" lengthAdjust="spacing" textLength="46" x="1227.5" y="283.792">weight</text></g><path d="M819.5,125.8479 C819.5,144.0619 819.5,165.6272 819.5,185.8213 " fill="none" style="stroke:#181818;stroke-width:1.0;"/><path d="M984.5,150.4732 C984.5,173.7063 984.5,198.7218 984.5,218.3419 " fill="none" style="stroke:#181818;stroke-width:1.0;"/><path d="M1142.5,150.4732 C1142.5,173.7063 1142.5,198.7218 1142.5,218.3419 " fill="none" style="stroke:#181818;stroke-width:1.0;"/><path d="M1332.5,150.4732 C1332.5,173.7063 1332.5,198.7218 1332.5,218.3419 " fill="none" style="stroke:#181818;stroke-width:1.0;"/><!--SRC=[nLPBRzD04BxxLopY0XAj2BI5IbKFBHouS23YlDhkJkmb-t3taJP2_7VsOJjk6wyZL54VaisEC_FDp3UFLwqXjIH8aAts3ba9ZYXILNRDLKiCaUXQ46kl25tNHdl5hhNG1hs- -hdyzlthSbard042sRej2lzjDBFZgnK74MvsscuUANA6A1j4e5nbmI5598JV59OG_-32AqehgE938vAWmT46NLoWDp_UVJc_Uh-uVeikBz7lgaBXOSIHTA31Xakdg38T15ThM_r9PuGwTK8JXIcn3Lu9VLVIcvKGEIZcB7rPxGtDmWqOoxN2dUJu-FW4IMsWZyCZst1FP2lW46UaXCwguqx04qqgN6_dqNCL0evZ0jekDfnQJ3NBOdfhCJStwToouHZzM9GSIJd1ARwJ60o8zDqOM4q40aU79nN4JEKKr0PWY0VSquQe6h3fdQJURFA9WU4RulW6TYdkFJelEHHjJG8XD96Bgnex0yGDK0pKNWGKEVkKhdBCPKkuYI_X4NaCjDea7JbtUA1fn5O4D_W_d-_QXo9IeOfwIYfmoQW1wmodBh0rtKkkkFGIftfSWHb3LLxUX1kzmepRrZkmFSx5npAzHvcPnthhTS_I0mhhGyboOi2ynGqHldDcYFvJsy5OqSrz99ktBPt4L417wTQRLbkOOORICLz4Z9CJGt5o6BnvK8RRDRu3NZSEMyVAR7_emOZbrX7d1uvyEYsX6mZwOhsBM-lXvSnR26GjzUx9-FzhVs5aYvFAyAasKThrWFd6mtvvwmxhF5IB6HnPWjssXJqbzxbOtrh4Fck8c0S2Yk7TzCx137qaypCqA5DdaJQyngaZ3DsjoDnErJCNrVuowbCTG9sTbnkVTLe-CvqR88oE6yxfOcvsvZb2qdpvlpjLtkUwC4nl8vqshi9g1NtTx9iYcHAbjIPCIr1qD56cIXnpnU0-n5Y6Ni-BeHcqzcvd_kmqLrM_F1uTFLYVugASjfTm_p0MSODESp58ngwbtNfeGq4uZRVgdmx5Nm00]--></g></svg>