<?xml version="1.0" encoding="us-ascii" standalone="no"?><svg xmlns="http://www.w3.org/2000/svg" xmlns:xlink="http://www.w3.org/1999/xlink" contentStyleType="text/css" height="632px" preserveAspectRatio="none" style="width:941px;height:632px;" version="1.1" viewBox="0 0 941 632" width="941px" zoomAndPan="magnify"><defs/><g><!--class country_code--><g id="elem_country_code"><rect codeLine="13" fill="#FFFFCC" height="545.2031" id="country_code" rx="2.5" ry="2.5" style="stroke:#181818;stroke-width:0.5;" width="131" x="439.5" y="80"/><ellipse cx="456.75" cy="96" fill="#86B0BE" rx="11" ry="11" style="stroke:#181818;stroke-width:1.0;"/><path d="M460.8594,102 L453.1406,102 L453.1406,89.6094 L460.8594,89.6094 L460.8594,91.7656 L455.5938,91.7656 L455.5938,94.4375 L460.3594,94.4375 L460.3594,96.5938 L455.5938,96.5938 L455.5938,99.8438 L460.8594,99.8438 L460.8594,102 Z " fill="#000000"/><text fill="#000000" font-family="sans-serif" font-size="14" lengthAdjust="spacing" textLength="94" x="471.25" y="100.8467">country_code</text><line style="stroke:#181818;stroke-width:0.5;" x1="440.5" x2="569.5" y1="112" y2="112"/><text fill="#000000" font-family="sans-serif" font-size="14" lengthAdjust="spacing" textLength="18" x="445.5" y="128.9951">AA</text><text fill="#000000" font-family="sans-serif" font-size="14" lengthAdjust="spacing" textLength="20" x="445.5" y="145.292">AD</text><text fill="#000000" font-family="sans-serif" font-size="14" lengthAdjust="spacing" textLength="18" x="445.5" y="161.5889">AE</text><text fill="#000000" font-family="sans-serif" font-size="14" lengthAdjust="spacing" textLength="35" x="445.5" y="177.8857">AE-AJ</text><text fill="#000000" font-family="sans-serif" font-size="14" lengthAdjust="spacing" textLength="42" x="445.5" y="194.1826">AE-AZ</text><text fill="#000000" font-family="sans-serif" font-size="14" lengthAdjust="spacing" textLength="44" x="445.5" y="210.4795">AE-DU</text><text fill="#000000" font-family="sans-serif" font-size="14" lengthAdjust="spacing" textLength="41" x="445.5" y="226.7764">AE-FU</text><text fill="#000000" font-family="sans-serif" font-size="14" lengthAdjust="spacing" textLength="42" x="445.5" y="243.0732">AE-RK</text><text fill="#000000" font-family="sans-serif" font-size="14" lengthAdjust="spacing" textLength="42" x="445.5" y="259.3701">AE-SH</text><text fill="#000000" font-family="sans-serif" font-size="14" lengthAdjust="spacing" textLength="44" x="445.5" y="275.667">AE-UQ</text><text fill="#000000" font-family="sans-serif" font-size="14" lengthAdjust="spacing" textLength="17" x="445.5" y="291.9639">AF</text><text fill="#000000" font-family="sans-serif" font-size="14" lengthAdjust="spacing" textLength="20" x="445.5" y="308.2607">AG</text><text fill="#000000" font-family="sans-serif" font-size="14" lengthAdjust="spacing" textLength="12" x="445.5" y="324.5576">AI</text><text fill="#000000" font-family="sans-serif" font-size="14" lengthAdjust="spacing" textLength="16" x="445.5" y="340.8545">AL</text><text fill="#000000" font-family="sans-serif" font-size="14" lengthAdjust="spacing" textLength="21" x="445.5" y="357.1514">AM</text><text fill="#000000" font-family="sans-serif" font-size="14" lengthAdjust="spacing" textLength="20" x="445.5" y="373.4482">AO</text><text fill="#000000" font-family="sans-serif" font-size="14" lengthAdjust="spacing" textLength="20" x="445.5" y="389.7451">AQ</text><text fill="#000000" font-family="sans-serif" font-size="14" lengthAdjust="spacing" textLength="19" x="445.5" y="406.042">AR</text><text fill="#000000" font-family="sans-serif" font-size="14" lengthAdjust="spacing" textLength="18" x="445.5" y="422.3389">AS</text><text fill="#000000" font-family="sans-serif" font-size="14" lengthAdjust="spacing" textLength="18" x="445.5" y="438.6357">AT</text><text fill="#000000" font-family="sans-serif" font-size="14" lengthAdjust="spacing" textLength="19" x="445.5" y="454.9326">AU</text><text fill="#000000" font-family="sans-serif" font-size="14" lengthAdjust="spacing" textLength="22" x="445.5" y="471.2295">AW</text><text fill="#000000" font-family="sans-serif" font-size="14" lengthAdjust="spacing" textLength="18" x="445.5" y="487.5264">AX</text><text fill="#000000" font-family="sans-serif" font-size="14" lengthAdjust="spacing" textLength="19" x="445.5" y="503.8232">AZ</text><text fill="#000000" font-family="sans-serif" font-size="14" lengthAdjust="spacing" textLength="19" x="445.5" y="520.1201">BA</text><text fill="#000000" font-family="sans-serif" font-size="14" lengthAdjust="spacing" textLength="20" x="445.5" y="536.417">BB</text><text fill="#000000" font-family="sans-serif" font-size="14" lengthAdjust="spacing" textLength="21" x="445.5" y="552.7139">BD</text><text fill="#000000" font-family="sans-serif" font-size="14" lengthAdjust="spacing" textLength="19" x="445.5" y="569.0107">BE</text><text fill="#000000" font-family="sans-serif" font-size="14" lengthAdjust="spacing" textLength="18" x="445.5" y="585.3076">BF</text><text fill="#000000" font-family="sans-serif" font-size="14" lengthAdjust="spacing" textLength="21" x="445.5" y="601.6045">BG</text><text fill="#000000" font-family="sans-serif" font-size="14" lengthAdjust="spacing" textLength="119" x="445.5" y="617.9014">...332 more fields</text></g><!--class account--><g id="elem_account"><rect codeLine="52" fill="#FFFFCC" height="32" id="account" rx="2.5" ry="2.5" style="stroke:#181818;stroke-width:0.5;" width="88" x="6" y="12"/><ellipse cx="21" cy="28" fill="#D9B01C" rx="11" ry="11" style="stroke:#181818;stroke-width:1.0;"/><path d="M22.2031,28.1406 Q22.5625,28.2188 22.8281,28.5 Q23.1094,28.7656 23.5,29.5469 L25.7344,34 L23.0469,34 L21.5469,30.875 Q21.4844,30.7344 21.375,30.5 Q20.7188,29.1094 19.8281,29.1094 L19.0469,29.1094 L19.0469,34 L16.6094,34 L16.6094,21.6094 L20.1406,21.6094 Q22.5313,21.6094 23.5625,22.4531 Q24.6094,23.2969 24.6094,25.2031 Q24.6094,26.4844 23.9844,27.25 Q23.375,28 22.2031,28.1406 Z M19.0469,23.6719 L19.0469,27.0469 L20.2031,27.0469 Q21.2188,27.0469 21.6406,26.6563 Q22.0781,26.25 22.0781,25.3438 Q22.0781,24.4531 21.6406,24.0625 Q21.2188,23.6719 20.2031,23.6719 L19.0469,23.6719 Z " fill="#000000"/><text fill="#000000" font-family="sans-serif" font-size="14" lengthAdjust="spacing" textLength="56" x="35" y="32.8467">account</text></g><!--class agreement--><g id="elem_agreement"><rect codeLine="60" fill="#FFFFCC" height="32" id="agreement" rx="2.5" ry="2.5" style="stroke:#181818;stroke-width:0.5;" width="108" x="112" y="12"/><ellipse cx="127" cy="28" fill="#D9B01C" rx="11" ry="11" style="stroke:#181818;stroke-width:1.0;"/><path d="M128.2031,28.1406 Q128.5625,28.2188 128.8281,28.5 Q129.1094,28.7656 129.5,29.5469 L131.7344,34 L129.0469,34 L127.5469,30.875 Q127.4844,30.7344 127.375,30.5 Q126.7188,29.1094 125.8281,29.1094 L125.0469,29.1094 L125.0469,34 L122.6094,34 L122.6094,21.6094 L126.1406,21.6094 Q128.5313,21.6094 129.5625,22.4531 Q130.6094,23.2969 130.6094,25.2031 Q130.6094,26.4844 129.9844,27.25 Q129.375,28 128.2031,28.1406 Z M125.0469,23.6719 L125.0469,27.0469 L126.2031,27.0469 Q127.2188,27.0469 127.6406,26.6563 Q128.0781,26.25 128.0781,25.3438 Q128.0781,24.4531 127.6406,24.0625 Q127.2188,23.6719 126.2031,23.6719 L125.0469,23.6719 Z " fill="#000000"/><text fill="#000000" font-family="sans-serif" font-size="14" lengthAdjust="spacing" textLength="76" x="141" y="32.8467">agreement</text></g><!--class customer--><g id="elem_customer"><rect codeLine="68" fill="#FFFFCC" height="32" id="customer" rx="2.5" ry="2.5" style="stroke:#181818;stroke-width:0.5;" width="98" x="238" y="12"/><ellipse cx="253" cy="28" fill="#D9B01C" rx="11" ry="11" style="stroke:#181818;stroke-width:1.0;"/><path d="M254.2031,28.1406 Q254.5625,28.2188 254.8281,28.5 Q255.1094,28.7656 255.5,29.5469 L257.7344,34 L255.0469,34 L253.5469,30.875 Q253.4844,30.7344 253.375,30.5 Q252.7188,29.1094 251.8281,29.1094 L251.0469,29.1094 L251.0469,34 L248.6094,34 L248.6094,21.6094 L252.1406,21.6094 Q254.5313,21.6094 255.5625,22.4531 Q256.6094,23.2969 256.6094,25.2031 Q256.6094,26.4844 255.9844,27.25 Q255.375,28 254.2031,28.1406 Z M251.0469,23.6719 L251.0469,27.0469 L252.2031,27.0469 Q253.2188,27.0469 253.6406,26.6563 Q254.0781,26.25 254.0781,25.3438 Q254.0781,24.4531 253.6406,24.0625 Q253.2188,23.6719 252.2031,23.6719 L251.0469,23.6719 Z " fill="#000000"/><text fill="#000000" font-family="sans-serif" font-size="14" lengthAdjust="spacing" textLength="66" x="267" y="32.8467">customer</text></g><!--class derivative--><g id="elem_derivative"><rect codeLine="76" fill="#FFFFCC" height="32" id="derivative" rx="2.5" ry="2.5" style="stroke:#181818;stroke-width:0.5;" width="97" x="354.5" y="12"/><ellipse cx="369.5" cy="28" fill="#D9B01C" rx="11" ry="11" style="stroke:#181818;stroke-width:1.0;"/><path d="M370.7031,28.1406 Q371.0625,28.2188 371.3281,28.5 Q371.6094,28.7656 372,29.5469 L374.2344,34 L371.5469,34 L370.0469,30.875 Q369.9844,30.7344 369.875,30.5 Q369.2188,29.1094 368.3281,29.1094 L367.5469,29.1094 L367.5469,34 L365.1094,34 L365.1094,21.6094 L368.6406,21.6094 Q371.0313,21.6094 372.0625,22.4531 Q373.1094,23.2969 373.1094,25.2031 Q373.1094,26.4844 372.4844,27.25 Q371.875,28 370.7031,28.1406 Z M367.5469,23.6719 L367.5469,27.0469 L368.7031,27.0469 Q369.7188,27.0469 370.1406,26.6563 Q370.5781,26.25 370.5781,25.3438 Q370.5781,24.4531 370.1406,24.0625 Q369.7188,23.6719 368.7031,23.6719 L367.5469,23.6719 Z " fill="#000000"/><text fill="#000000" font-family="sans-serif" font-size="14" lengthAdjust="spacing" textLength="65" x="383.5" y="32.8467">derivative</text></g><!--class entity--><g id="elem_entity"><rect codeLine="84" fill="#FFFFCC" height="32" id="entity" rx="2.5" ry="2.5" style="stroke:#181818;stroke-width:0.5;" width="70" x="470" y="12"/><ellipse cx="485" cy="28" fill="#D9B01C" rx="11" ry="11" style="stroke:#181818;stroke-width:1.0;"/><path d="M486.2031,28.1406 Q486.5625,28.2188 486.8281,28.5 Q487.1094,28.7656 487.5,29.5469 L489.7344,34 L487.0469,34 L485.5469,30.875 Q485.4844,30.7344 485.375,30.5 Q484.7188,29.1094 483.8281,29.1094 L483.0469,29.1094 L483.0469,34 L480.6094,34 L480.6094,21.6094 L484.1406,21.6094 Q486.5313,21.6094 487.5625,22.4531 Q488.6094,23.2969 488.6094,25.2031 Q488.6094,26.4844 487.9844,27.25 Q487.375,28 486.2031,28.1406 Z M483.0469,23.6719 L483.0469,27.0469 L484.2031,27.0469 Q485.2188,27.0469 485.6406,26.6563 Q486.0781,26.25 486.0781,25.3438 Q486.0781,24.4531 485.6406,24.0625 Q485.2188,23.6719 484.2031,23.6719 L483.0469,23.6719 Z " fill="#000000"/><text fill="#000000" font-family="sans-serif" font-size="14" lengthAdjust="spacing" textLength="38" x="499" y="32.8467">entity</text></g><!--class guarantor--><g id="elem_guarantor"><rect codeLine="92" fill="#FFFFCC" height="32" id="guarantor" rx="2.5" ry="2.5" style="stroke:#181818;stroke-width:0.5;" width="99" x="558.5" y="12"/><ellipse cx="573.5" cy="28" fill="#D9B01C" rx="11" ry="11" style="stroke:#181818;stroke-width:1.0;"/><path d="M574.7031,28.1406 Q575.0625,28.2188 575.3281,28.5 Q575.6094,28.7656 576,29.5469 L578.2344,34 L575.5469,34 L574.0469,30.875 Q573.9844,30.7344 573.875,30.5 Q573.2188,29.1094 572.3281,29.1094 L571.5469,29.1094 L571.5469,34 L569.1094,34 L569.1094,21.6094 L572.6406,21.6094 Q575.0313,21.6094 576.0625,22.4531 Q577.1094,23.2969 577.1094,25.2031 Q577.1094,26.4844 576.4844,27.25 Q575.875,28 574.7031,28.1406 Z M571.5469,23.6719 L571.5469,27.0469 L572.7031,27.0469 Q573.7188,27.0469 574.1406,26.6563 Q574.5781,26.25 574.5781,25.3438 Q574.5781,24.4531 574.1406,24.0625 Q573.7188,23.6719 572.7031,23.6719 L571.5469,23.6719 Z " fill="#000000"/><text fill="#000000" font-family="sans-serif" font-size="14" lengthAdjust="spacing" textLength="67" x="587.5" y="32.8467">guarantor</text></g><!--class issuer--><g id="elem_issuer"><rect codeLine="100" fill="#FFFFCC" height="32" id="issuer" rx="2.5" ry="2.5" style="stroke:#181818;stroke-width:0.5;" width="74" x="676" y="12"/><ellipse cx="691" cy="28" fill="#D9B01C" rx="11" ry="11" style="stroke:#181818;stroke-width:1.0;"/><path d="M692.2031,28.1406 Q692.5625,28.2188 692.8281,28.5 Q693.1094,28.7656 693.5,29.5469 L695.7344,34 L693.0469,34 L691.5469,30.875 Q691.4844,30.7344 691.375,30.5 Q690.7188,29.1094 689.8281,29.1094 L689.0469,29.1094 L689.0469,34 L686.6094,34 L686.6094,21.6094 L690.1406,21.6094 Q692.5313,21.6094 693.5625,22.4531 Q694.6094,23.2969 694.6094,25.2031 Q694.6094,26.4844 693.9844,27.25 Q693.375,28 692.2031,28.1406 Z M689.0469,23.6719 L689.0469,27.0469 L690.2031,27.0469 Q691.2188,27.0469 691.6406,26.6563 Q692.0781,26.25 692.0781,25.3438 Q692.0781,24.4531 691.6406,24.0625 Q691.2188,23.6719 690.2031,23.6719 L689.0469,23.6719 Z " fill="#000000"/><text fill="#000000" font-family="sans-serif" font-size="14" lengthAdjust="spacing" textLength="42" x="705" y="32.8467">issuer</text></g><!--class loan--><g id="elem_loan"><rect codeLine="108" fill="#FFFFCC" height="32" id="loan" rx="2.5" ry="2.5" style="stroke:#181818;stroke-width:0.5;" width="61" x="768.5" y="12"/><ellipse cx="783.5" cy="28" fill="#D9B01C" rx="11" ry="11" style="stroke:#181818;stroke-width:1.0;"/><path d="M784.7031,28.1406 Q785.0625,28.2188 785.3281,28.5 Q785.6094,28.7656 786,29.5469 L788.2344,34 L785.5469,34 L784.0469,30.875 Q783.9844,30.7344 783.875,30.5 Q783.2188,29.1094 782.3281,29.1094 L781.5469,29.1094 L781.5469,34 L779.1094,34 L779.1094,21.6094 L782.6406,21.6094 Q785.0313,21.6094 786.0625,22.4531 Q787.1094,23.2969 787.1094,25.2031 Q787.1094,26.4844 786.4844,27.25 Q785.875,28 784.7031,28.1406 Z M781.5469,23.6719 L781.5469,27.0469 L782.7031,27.0469 Q783.7188,27.0469 784.1406,26.6563 Q784.5781,26.25 784.5781,25.3438 Q784.5781,24.4531 784.1406,24.0625 Q783.7188,23.6719 782.7031,23.6719 L781.5469,23.6719 Z " fill="#000000"/><text fill="#000000" font-family="sans-serif" font-size="14" lengthAdjust="spacing" textLength="29" x="797.5" y="32.8467">loan</text></g><!--class security--><g id="elem_security"><rect codeLine="116" fill="#FFFFCC" height="32" id="security" rx="2.5" ry="2.5" style="stroke:#181818;stroke-width:0.5;" width="86" x="848" y="12"/><ellipse cx="863" cy="28" fill="#D9B01C" rx="11" ry="11" style="stroke:#181818;stroke-width:1.0;"/><path d="M864.2031,28.1406 Q864.5625,28.2188 864.8281,28.5 Q865.1094,28.7656 865.5,29.5469 L867.7344,34 L865.0469,34 L863.5469,30.875 Q863.4844,30.7344 863.375,30.5 Q862.7188,29.1094 861.8281,29.1094 L861.0469,29.1094 L861.0469,34 L858.6094,34 L858.6094,21.6094 L862.1406,21.6094 Q864.5313,21.6094 865.5625,22.4531 Q866.6094,23.2969 866.6094,25.2031 Q866.6094,26.4844 865.9844,27.25 Q865.375,28 864.2031,28.1406 Z M861.0469,23.6719 L861.0469,27.0469 L862.2031,27.0469 Q863.2188,27.0469 863.6406,26.6563 Q864.0781,26.25 864.0781,25.3438 Q864.0781,24.4531 863.6406,24.0625 Q863.2188,23.6719 862.2031,23.6719 L861.0469,23.6719 Z " fill="#000000"/><text fill="#000000" font-family="sans-serif" font-size="14" lengthAdjust="spacing" textLength="54" x="877" y="32.8467">security</text></g><polygon fill="#181818" points="439.2776,304.9166,434.2481,296.4488,435.1984,302.0252,429.6219,302.9756,439.2776,304.9166" style="stroke:#181818;stroke-width:1.0;"/><path d="M71.3353,44.1223 C136.5177,90.323 330.0409,227.4905 434.3825,301.447 " fill="none" style="stroke:#181818;stroke-width:1.0;"/><polygon fill="#181818" points="439.4145,289.1067,435.6509,280.0054,435.7919,285.6605,430.1368,285.8015,439.4145,289.1067" style="stroke:#181818;stroke-width:1.0;"/><path d="M181.896,44.1223 C227.1879,87.2097 354.4731,208.2996 435.0674,284.9712 " fill="none" style="stroke:#181818;stroke-width:1.0;"/><polygon fill="#181818" points="439.3382,254.3627,437.6119,244.6663,436.5381,250.2203,430.9841,249.1465,439.3382,254.3627" style="stroke:#181818;stroke-width:1.0;"/><path d="M297.2222,44.1223 C322.2653,81.17 384.9963,173.9716 435.9781,249.3918 " fill="none" style="stroke:#181818;stroke-width:1.0;"/><polygon fill="#181818" points="439.3915,144.0614,440.4913,134.2741,437.8837,139.2942,432.8637,136.6866,439.3915,144.0614" style="stroke:#181818;stroke-width:1.0;"/><path d="M407.7829,44.1223 C414.1044,64.1094 424.2065,96.0501 437.5822,138.3407 " fill="none" style="stroke:#181818;stroke-width:1.0;"/><polygon fill="#181818" points="505,79.894,509,70.894,505,74.894,501,70.894,505,79.894" style="stroke:#181818;stroke-width:1.0;"/><path d="M505,44.1223 C505,52.9639 505,59.2642 505,73.894 " fill="none" style="stroke:#181818;stroke-width:1.0;"/><polygon fill="#181818" points="570.6195,146.0409,577.168,138.6845,572.1407,141.2779,569.5473,136.2506,570.6195,146.0409" style="stroke:#181818;stroke-width:1.0;"/><path d="M603.1702,44.1223 C596.6873,64.4207 586.2078,97.2327 572.4449,140.3253 " fill="none" style="stroke:#181818;stroke-width:1.0;"/><polygon fill="#181818" points="570.6101,249.7729,578.8496,244.3775,573.3201,245.571,572.1266,240.0415,570.6101,249.7729" style="stroke:#181818;stroke-width:1.0;"/><path d="M703.2467,44.1223 C679.8343,80.4228 622.0726,169.9812 573.8621,244.7306 " fill="none" style="stroke:#181818;stroke-width:1.0;"/><polygon fill="#181818" points="570.5734,279.57,579.5927,275.6137,573.9419,275.8749,573.6807,270.2241,570.5734,279.57" style="stroke:#181818;stroke-width:1.0;"/><path d="M785.2141,44.1223 C747.5237,85.4663 644.9333,198.0017 574.6156,275.1359 " fill="none" style="stroke:#181818;stroke-width:1.0;"/><polygon fill="#181818" points="570.7265,296.586,580.1978,293.8852,574.5635,293.3802,575.0685,287.746,570.7265,296.586" style="stroke:#181818;stroke-width:1.0;"/><path d="M872.9001,44.1223 C819.6147,88.6418 665.9792,217.0032 575.3309,292.7391 " fill="none" style="stroke:#181818;stroke-width:1.0;"/><!--SRC=[bP9BImCn483l-HKHBmfjgHP4eHIQTglrYLsBuaLYTcoNRfAIP0j5_EzcThSFZOSrXs_8l38pcOEbuJF9QSRNEdVKId1SSKBi8bLBRhYaWunRoxXOp8pELJBGcJRqa4tZyNqKnsIU9a11BjsQ-jYvJko-wYE5p6jssTv_9NA6A-jDe1onuAZY4lnTG0mOuBoBqWe87e6LKE63dLc_2UrVwNRfKTGuFsDj5XtJNez-4a9fluyO8g82pVvr9LzBEPoMSbJ9oKqfuwjIJXzHZX2NY37Y5d67U40KBXD4Z7X25EcU4Iy8V8rXCOmXi2A65J7Cp31pgzNgT4wfr0OsmyBpvKt5gPhcecYxw7VI65wmzibWq- -V_ZC38E4V4IAtJaimjGCICEcAktG5jKDyFQbVYhhkiznlWC8Lg1kHMfl_euLCSrNRsOB8JRtoDx_LRFP-h2lPVKjWsiu_iEmDEh1L4mtqkz45fcf6WRuOHg3TTXrOgbw_0G00]--></g></svg>