<?xml version="1.0" encoding="us-ascii" standalone="no"?><svg xmlns="http://www.w3.org/2000/svg" xmlns:xlink="http://www.w3.org/1999/xlink" contentStyleType="text/css" height="632px" preserveAspectRatio="none" style="width:190px;height:632px;" version="1.1" viewBox="0 0 190 632" width="190px" zoomAndPan="magnify"><defs/><g><!--class collateral_type--><g id="elem_collateral_type"><rect codeLine="13" fill="#FFFFCC" height="545.2031" id="collateral_type" rx="2.5" ry="2.5" style="stroke:#181818;stroke-width:0.5;" width="177" x="6" y="80"/><ellipse cx="42.15" cy="96" fill="#86B0BE" rx="11" ry="11" style="stroke:#181818;stroke-width:1.0;"/><path d="M46.2594,102 L38.5406,102 L38.5406,89.6094 L46.2594,89.6094 L46.2594,91.7656 L40.9938,91.7656 L40.9938,94.4375 L45.7594,94.4375 L45.7594,96.5938 L40.9938,96.5938 L40.9938,99.8438 L46.2594,99.8438 L46.2594,102 Z " fill="#000000"/><text fill="#000000" font-family="sans-serif" font-size="14" lengthAdjust="spacing" textLength="98" x="60.85" y="100.8467">collateral_type</text><line style="stroke:#181818;stroke-width:0.5;" x1="7" x2="182" y1="112" y2="112"/><text fill="#000000" font-family="sans-serif" font-size="14" lengthAdjust="spacing" textLength="31" x="12" y="128.9951">auto</text><text fill="#000000" font-family="sans-serif" font-size="14" lengthAdjust="spacing" textLength="75" x="12" y="145.292">auto_other</text><text fill="#000000" font-family="sans-serif" font-size="14" lengthAdjust="spacing" textLength="21" x="12" y="161.5889">car</text><text fill="#000000" font-family="sans-serif" font-size="14" lengthAdjust="spacing" textLength="33" x="12" y="177.8857">cash</text><text fill="#000000" font-family="sans-serif" font-size="14" lengthAdjust="spacing" textLength="42" x="12" y="194.1826">co_op</text><text fill="#000000" font-family="sans-serif" font-size="14" lengthAdjust="spacing" textLength="144" x="12" y="210.4795">commercial_property</text><text fill="#000000" font-family="sans-serif" font-size="14" lengthAdjust="spacing" textLength="165" x="12" y="226.7764">commercial_property_hr</text><text fill="#000000" font-family="sans-serif" font-size="14" lengthAdjust="spacing" textLength="44" x="12" y="243.0732">condo</text><text fill="#000000" font-family="sans-serif" font-size="14" lengthAdjust="spacing" textLength="76" x="12" y="259.3701">convertible</text><text fill="#000000" font-family="sans-serif" font-size="14" lengthAdjust="spacing" textLength="73" x="12" y="275.667">debenture</text><text fill="#000000" font-family="sans-serif" font-size="14" lengthAdjust="spacing" textLength="30" x="12" y="291.9639">farm</text><text fill="#000000" font-family="sans-serif" font-size="14" lengthAdjust="spacing" textLength="68" x="12" y="308.2607">four_units</text><text fill="#000000" font-family="sans-serif" font-size="14" lengthAdjust="spacing" textLength="71" x="12" y="324.5576">guarantee</text><text fill="#000000" font-family="sans-serif" font-size="14" lengthAdjust="spacing" textLength="139" x="12" y="340.8545">immovable_property</text><text fill="#000000" font-family="sans-serif" font-size="14" lengthAdjust="spacing" textLength="65" x="12" y="357.1514">life_policy</text><text fill="#000000" font-family="sans-serif" font-size="14" lengthAdjust="spacing" textLength="40" x="12" y="373.4482">luxury</text><text fill="#000000" font-family="sans-serif" font-size="14" lengthAdjust="spacing" textLength="147" x="12" y="389.7451">manufactured_house</text><text fill="#000000" font-family="sans-serif" font-size="14" lengthAdjust="spacing" textLength="71" x="12" y="406.042">multifamily</text><text fill="#000000" font-family="sans-serif" font-size="14" lengthAdjust="spacing" textLength="60" x="12" y="422.3389">one_unit</text><text fill="#000000" font-family="sans-serif" font-size="14" lengthAdjust="spacing" textLength="37" x="12" y="438.6357">other</text><text fill="#000000" font-family="sans-serif" font-size="14" lengthAdjust="spacing" textLength="121" x="12" y="454.9326">planned_unit_dev</text><text fill="#000000" font-family="sans-serif" font-size="14" lengthAdjust="spacing" textLength="108" x="12" y="471.2295">res_property_hr</text><text fill="#000000" font-family="sans-serif" font-size="14" lengthAdjust="spacing" textLength="106" x="12" y="487.5264">resi_mixed_use</text><text fill="#000000" font-family="sans-serif" font-size="14" lengthAdjust="spacing" textLength="136" x="12" y="503.8232">residential_property</text><text fill="#000000" font-family="sans-serif" font-size="14" lengthAdjust="spacing" textLength="54" x="12" y="520.1201">security</text><text fill="#000000" font-family="sans-serif" font-size="14" lengthAdjust="spacing" textLength="86" x="12" y="536.417">single_family</text><text fill="#000000" font-family="sans-serif" font-size="14" lengthAdjust="spacing" textLength="36" x="12" y="552.7139">sport</text><text fill="#000000" font-family="sans-serif" font-size="14" lengthAdjust="spacing" textLength="24" x="12" y="569.0107">suv</text><text fill="#000000" font-family="sans-serif" font-size="14" lengthAdjust="spacing" textLength="78" x="12" y="585.3076">three_units</text><text fill="#000000" font-family="sans-serif" font-size="14" lengthAdjust="spacing" textLength="78" x="12" y="601.6045">townhouse</text><text fill="#000000" font-family="sans-serif" font-size="14" lengthAdjust="spacing" textLength="101" x="12" y="617.9014">...3 more fields</text></g><!--class collateral--><g id="elem_collateral"><rect codeLine="52" fill="#FFFFCC" height="32" id="collateral" rx="2.5" ry="2.5" style="stroke:#181818;stroke-width:0.5;" width="93" x="48" y="12"/><ellipse cx="63" cy="28" fill="#D9B01C" rx="11" ry="11" style="stroke:#181818;stroke-width:1.0;"/><path d="M64.2031,28.1406 Q64.5625,28.2188 64.8281,28.5 Q65.1094,28.7656 65.5,29.5469 L67.7344,34 L65.0469,34 L63.5469,30.875 Q63.4844,30.7344 63.375,30.5 Q62.7188,29.1094 61.8281,29.1094 L61.0469,29.1094 L61.0469,34 L58.6094,34 L58.6094,21.6094 L62.1406,21.6094 Q64.5313,21.6094 65.5625,22.4531 Q66.6094,23.2969 66.6094,25.2031 Q66.6094,26.4844 65.9844,27.25 Q65.375,28 64.2031,28.1406 Z M61.0469,23.6719 L61.0469,27.0469 L62.2031,27.0469 Q63.2188,27.0469 63.6406,26.6563 Q64.0781,26.25 64.0781,25.3438 Q64.0781,24.4531 63.6406,24.0625 Q63.2188,23.6719 62.2031,23.6719 L61.0469,23.6719 Z " fill="#000000"/><text fill="#000000" font-family="sans-serif" font-size="14" lengthAdjust="spacing" textLength="61" x="77" y="32.8467">collateral</text></g><polygon fill="#181818" points="94.5,79.894,98.5,70.894,94.5,74.894,90.5,70.894,94.5,79.894" style="stroke:#181818;stroke-width:1.0;"/><path d="M94.5,44.1223 C94.5,52.9639 94.5,59.2642 94.5,73.894 " fill="none" style="stroke:#181818;stroke-width:1.0;"/><!--SRC=[RL9DRzim3BtxLwZOPGEQe4E1OGMA79pbq4iF2tOs69cEXKgYG4bPWsB_VQIJj8LR7aJoaOyVaguImpw0yN2aMamEM212q-Gd5nCm1BFsa7CBzcdFL6E_9azilhH_jW-Fc-ss6LsF1aCgHoFSaVhy7XeSUa7UgkrcXGf3p1B2M9gCnKG8ABx5BIgXI4gaY8sArKcC9U-X88FloZ6XkRytNpVNFt-qD-tccrcjp4lJ60Erq5brL4PaSIoSpZog4ZnDEWHawwHSOah8vVWvseqJcs9F9tqGrEqyYjVZJXQehFO075HHvQv6Lx8u-ogxn88QTo7G0OJtlfztW_ZadPsy-bnPZG2n3c2rSj-DLBCM2DKNDq1mNbFaSgOsQfxtJ1vY58B2NOy7WHZpR151N1VSi-PDPHNePOlPJMIqbTt9T74lOx-spebO- -QgBSh8YAyR5_eRBmClbyjR4uZnyXrK_abWaW_FEhtex-jVT-tDz_NbHMUKj-J5OZN_4kUqvZy0]--></g></svg>