<?xml version="1.0" encoding="us-ascii" standalone="no"?><svg xmlns="http://www.w3.org/2000/svg" xmlns:xlink="http://www.w3.org/1999/xlink" contentStyleType="text/css" height="387px" preserveAspectRatio="none" style="width:400px;height:387px;" version="1.1" viewBox="0 0 400 387" width="400px" zoomAndPan="magnify"><defs/><g><!--class accounting_treatment--><g id="elem_accounting_treatment"><rect codeLine="13" fill="#FFFFCC" height="300.75" id="accounting_treatment" rx="2.5" ry="2.5" style="stroke:#181818;stroke-width:0.5;" width="184" x="117" y="80"/><ellipse cx="132" cy="96" fill="#86B0BE" rx="11" ry="11" style="stroke:#181818;stroke-width:1.0;"/><path d="M136.1094,102 L128.3906,102 L128.3906,89.6094 L136.1094,89.6094 L136.1094,91.7656 L130.8438,91.7656 L130.8438,94.4375 L135.6094,94.4375 L135.6094,96.5938 L130.8438,96.5938 L130.8438,99.8438 L136.1094,99.8438 L136.1094,102 Z " fill="#000000"/><text fill="#000000" font-family="sans-serif" font-size="14" lengthAdjust="spacing" textLength="152" x="146" y="100.8467">accounting_treatment</text><line style="stroke:#181818;stroke-width:0.5;" x1="118" x2="300" y1="112" y2="112"/><text fill="#000000" font-family="sans-serif" font-size="14" lengthAdjust="spacing" textLength="106" x="123" y="128.9951">amortised_cost</text><text fill="#000000" font-family="sans-serif" font-size="14" lengthAdjust="spacing" textLength="118" x="123" y="145.292">available_for_sale</text><text fill="#000000" font-family="sans-serif" font-size="14" lengthAdjust="spacing" textLength="102" x="123" y="161.5889">cb_or_demand</text><text fill="#000000" font-family="sans-serif" font-size="14" lengthAdjust="spacing" textLength="97" x="123" y="177.8857">fv_mandatorily</text><text fill="#000000" font-family="sans-serif" font-size="14" lengthAdjust="spacing" textLength="38" x="123" y="194.1826">fv_oci</text><text fill="#000000" font-family="sans-serif" font-size="14" lengthAdjust="spacing" textLength="74" x="123" y="210.4795">fv_thru_pnl</text><text fill="#000000" font-family="sans-serif" font-size="14" lengthAdjust="spacing" textLength="107" x="123" y="226.7764">held_for_hedge</text><text fill="#000000" font-family="sans-serif" font-size="14" lengthAdjust="spacing" textLength="90" x="123" y="243.0732">held_for_sale</text><text fill="#000000" font-family="sans-serif" font-size="14" lengthAdjust="spacing" textLength="110" x="123" y="259.3701">held_for_trading</text><text fill="#000000" font-family="sans-serif" font-size="14" lengthAdjust="spacing" textLength="113" x="123" y="275.667">held_to_maturity</text><text fill="#000000" font-family="sans-serif" font-size="14" lengthAdjust="spacing" textLength="107" x="123" y="291.9639">loans_and_recs</text><text fill="#000000" font-family="sans-serif" font-size="14" lengthAdjust="spacing" textLength="119" x="123" y="308.2607">ntnd_cost_based</text><text fill="#000000" font-family="sans-serif" font-size="14" lengthAdjust="spacing" textLength="99" x="123" y="324.5576">ntnd_fv_equity</text><text fill="#000000" font-family="sans-serif" font-size="14" lengthAdjust="spacing" textLength="69" x="123" y="340.8545">ntnd_fv_pl</text><text fill="#000000" font-family="sans-serif" font-size="14" lengthAdjust="spacing" textLength="78" x="123" y="357.1514">other_gaap</text><text fill="#000000" font-family="sans-serif" font-size="14" lengthAdjust="spacing" textLength="89" x="123" y="373.4482">trading_gaap</text></g><!--class account--><g id="elem_account"><rect codeLine="36" fill="#FFFFCC" height="32" id="account" rx="2.5" ry="2.5" style="stroke:#181818;stroke-width:0.5;" width="88" x="6" y="12"/><ellipse cx="21" cy="28" fill="#D9B01C" rx="11" ry="11" style="stroke:#181818;stroke-width:1.0;"/><path d="M22.2031,28.1406 Q22.5625,28.2188 22.8281,28.5 Q23.1094,28.7656 23.5,29.5469 L25.7344,34 L23.0469,34 L21.5469,30.875 Q21.4844,30.7344 21.375,30.5 Q20.7188,29.1094 19.8281,29.1094 L19.0469,29.1094 L19.0469,34 L16.6094,34 L16.6094,21.6094 L20.1406,21.6094 Q22.5313,21.6094 23.5625,22.4531 Q24.6094,23.2969 24.6094,25.2031 Q24.6094,26.4844 23.9844,27.25 Q23.375,28 22.2031,28.1406 Z M19.0469,23.6719 L19.0469,27.0469 L20.2031,27.0469 Q21.2188,27.0469 21.6406,26.6563 Q22.0781,26.25 22.0781,25.3438 Q22.0781,24.4531 21.6406,24.0625 Q21.2188,23.6719 20.2031,23.6719 L19.0469,23.6719 Z " fill="#000000"/><text fill="#000000" font-family="sans-serif" font-size="14" lengthAdjust="spacing" textLength="56" x="35" y="32.8467">account</text></g><!--class derivative--><g id="elem_derivative"><rect codeLine="44" fill="#FFFFCC" height="32" id="derivative" rx="2.5" ry="2.5" style="stroke:#181818;stroke-width:0.5;" width="97" x="112.5" y="12"/><ellipse cx="127.5" cy="28" fill="#D9B01C" rx="11" ry="11" style="stroke:#181818;stroke-width:1.0;"/><path d="M128.7031,28.1406 Q129.0625,28.2188 129.3281,28.5 Q129.6094,28.7656 130,29.5469 L132.2344,34 L129.5469,34 L128.0469,30.875 Q127.9844,30.7344 127.875,30.5 Q127.2188,29.1094 126.3281,29.1094 L125.5469,29.1094 L125.5469,34 L123.1094,34 L123.1094,21.6094 L126.6406,21.6094 Q129.0313,21.6094 130.0625,22.4531 Q131.1094,23.2969 131.1094,25.2031 Q131.1094,26.4844 130.4844,27.25 Q129.875,28 128.7031,28.1406 Z M125.5469,23.6719 L125.5469,27.0469 L126.7031,27.0469 Q127.7188,27.0469 128.1406,26.6563 Q128.5781,26.25 128.5781,25.3438 Q128.5781,24.4531 128.1406,24.0625 Q127.7188,23.6719 126.7031,23.6719 L125.5469,23.6719 Z " fill="#000000"/><text fill="#000000" font-family="sans-serif" font-size="14" lengthAdjust="spacing" textLength="65" x="141.5" y="32.8467">derivative</text></g><!--class loan--><g id="elem_loan"><rect codeLine="52" fill="#FFFFCC" height="32" id="loan" rx="2.5" ry="2.5" style="stroke:#181818;stroke-width:0.5;" width="61" x="227.5" y="12"/><ellipse cx="242.5" cy="28" fill="#D9B01C" rx="11" ry="11" style="stroke:#181818;stroke-width:1.0;"/><path d="M243.7031,28.1406 Q244.0625,28.2188 244.3281,28.5 Q244.6094,28.7656 245,29.5469 L247.2344,34 L244.5469,34 L243.0469,30.875 Q242.9844,30.7344 242.875,30.5 Q242.2188,29.1094 241.3281,29.1094 L240.5469,29.1094 L240.5469,34 L238.1094,34 L238.1094,21.6094 L241.6406,21.6094 Q244.0313,21.6094 245.0625,22.4531 Q246.1094,23.2969 246.1094,25.2031 Q246.1094,26.4844 245.4844,27.25 Q244.875,28 243.7031,28.1406 Z M240.5469,23.6719 L240.5469,27.0469 L241.7031,27.0469 Q242.7188,27.0469 243.1406,26.6563 Q243.5781,26.25 243.5781,25.3438 Q243.5781,24.4531 243.1406,24.0625 Q242.7188,23.6719 241.7031,23.6719 L240.5469,23.6719 Z " fill="#000000"/><text fill="#000000" font-family="sans-serif" font-size="14" lengthAdjust="spacing" textLength="29" x="256.5" y="32.8467">loan</text></g><!--class security--><g id="elem_security"><rect codeLine="60" fill="#FFFFCC" height="32" id="security" rx="2.5" ry="2.5" style="stroke:#181818;stroke-width:0.5;" width="86" x="307" y="12"/><ellipse cx="322" cy="28" fill="#D9B01C" rx="11" ry="11" style="stroke:#181818;stroke-width:1.0;"/><path d="M323.2031,28.1406 Q323.5625,28.2188 323.8281,28.5 Q324.1094,28.7656 324.5,29.5469 L326.7344,34 L324.0469,34 L322.5469,30.875 Q322.4844,30.7344 322.375,30.5 Q321.7188,29.1094 320.8281,29.1094 L320.0469,29.1094 L320.0469,34 L317.6094,34 L317.6094,21.6094 L321.1406,21.6094 Q323.5313,21.6094 324.5625,22.4531 Q325.6094,23.2969 325.6094,25.2031 Q325.6094,26.4844 324.9844,27.25 Q324.375,28 323.2031,28.1406 Z M320.0469,23.6719 L320.0469,27.0469 L321.2031,27.0469 Q322.2188,27.0469 322.6406,26.6563 Q323.0781,26.25 323.0781,25.3438 Q323.0781,24.4531 322.6406,24.0625 Q322.2188,23.6719 321.2031,23.6719 L320.0469,23.6719 Z " fill="#000000"/><text fill="#000000" font-family="sans-serif" font-size="14" lengthAdjust="spacing" textLength="54" x="336" y="32.8467">security</text></g><polygon fill="#181818" points="116.6367,113.0293,114.1786,103.4921,113.5299,109.1117,107.9104,108.4629,116.6367,113.0293" style="stroke:#181818;stroke-width:1.0;"/><path d="M61.9508,44.0701 C74.3007,59.6433 91.0758,80.7968 112.9086,108.3281 " fill="none" style="stroke:#181818;stroke-width:1.0;"/><polygon fill="#181818" points="173.1585,79.7869,174.9531,70.103,171.9944,74.9244,167.173,71.9656,173.1585,79.7869" style="stroke:#181818;stroke-width:1.0;"/><path d="M164.6078,44.0701 C166.7663,53.0862 168.3528,59.7133 171.7615,73.9518 " fill="none" style="stroke:#181818;stroke-width:1.0;"/><polygon fill="#181818" points="245.5882,79.7869,251.6105,71.9939,246.7752,74.9299,243.8392,70.0946,245.5882,79.7869" style="stroke:#181818;stroke-width:1.0;"/><path d="M254.317,44.0701 C252.1136,53.0862 250.4924,59.7199 247.0126,73.9585 " fill="none" style="stroke:#181818;stroke-width:1.0;"/><polygon fill="#181818" points="301.2845,98.2727,309.7336,93.2118,304.1607,94.1828,303.1898,88.6099,301.2845,98.2727" style="stroke:#181818;stroke-width:1.0;"/><path d="M339.4021,44.0701 C330.4357,56.8201 320.0744,71.5538 304.736,93.3648 " fill="none" style="stroke:#181818;stroke-width:1.0;"/><!--SRC=[ZLB1JiCm3BttAuAuWBH9uu90cdRes84B1ohEaPjuRRGqAObRQKByEqwxZe4sQJxbFVlPprPksW1L0yB2tdSaOeC43h8ixenh8K0ZrXPYp47jgk0xfzVU-Y1kyu_YzMrJ55bjD0fiMjeBrjPUnrDgQz0oyzkj_DU80hZ8ANIKHIJXe4762WjC0k8IvnrcALHo8a0fbfDnbQI0G0rBnN8fxZQpfyTyaM_knMeblh9C26Xy81DHI-KZ9Q87Ow6qABS-o0WMcLIbPA2n0QSPRdkPNccqiVkHyCgC3wf39rjd6TMysT2cHbtXAN7eUyIyesQx4qMU1r0N3ANkrlC190-K0LLamf4R_SeIsFh4y73yx4RDHBJ9XwSQWwm0MWQ7KIFa-6PkYB_76-xrFdjvpXSFw-bUv-er1jC3cHwlbgI5hYwEg8P3N26OhC_dgxD_83lnUh5cC7SnUtHpiUBWvGS0]--></g></svg>