<?xml version="1.0" encoding="us-ascii" standalone="no"?><svg xmlns="http://www.w3.org/2000/svg" xmlns:xlink="http://www.w3.org/1999/xlink" contentStyleType="text/css" height="192px" preserveAspectRatio="none" style="width:194px;height:192px;" version="1.1" viewBox="0 0 194 192" width="194px" zoomAndPan="magnify"><defs/><g><!--class guarantor_moodys_st--><g id="elem_guarantor_moodys_st"><rect codeLine="13" fill="#FFFFCC" height="105.1875" id="guarantor_moodys_st" rx="2.5" ry="2.5" style="stroke:#181818;stroke-width:0.5;" width="181" x="6" y="80"/><ellipse cx="21" cy="96" fill="#86B0BE" rx="11" ry="11" style="stroke:#181818;stroke-width:1.0;"/><path d="M25.1094,102 L17.3906,102 L17.3906,89.6094 L25.1094,89.6094 L25.1094,91.7656 L19.8438,91.7656 L19.8438,94.4375 L24.6094,94.4375 L24.6094,96.5938 L19.8438,96.5938 L19.8438,99.8438 L25.1094,99.8438 L25.1094,102 Z " fill="#000000"/><text fill="#000000" font-family="sans-serif" font-size="14" lengthAdjust="spacing" textLength="149" x="35" y="100.8467">guarantor_moodys_st</text><line style="stroke:#181818;stroke-width:0.5;" x1="7" x2="186" y1="112" y2="112"/><text fill="#000000" font-family="sans-serif" font-size="14" lengthAdjust="spacing" textLength="18" x="12" y="128.9951">p1</text><text fill="#000000" font-family="sans-serif" font-size="14" lengthAdjust="spacing" textLength="18" x="12" y="145.292">p2</text><text fill="#000000" font-family="sans-serif" font-size="14" lengthAdjust="spacing" textLength="18" x="12" y="161.5889">p3</text><text fill="#000000" font-family="sans-serif" font-size="14" lengthAdjust="spacing" textLength="18" x="12" y="177.8857">np</text></g><!--class guarantor--><g id="elem_guarantor"><rect codeLine="24" fill="#FFFFCC" height="32" id="guarantor" rx="2.5" ry="2.5" style="stroke:#181818;stroke-width:0.5;" width="99" x="47" y="12"/><ellipse cx="62" cy="28" fill="#D9B01C" rx="11" ry="11" style="stroke:#181818;stroke-width:1.0;"/><path d="M63.2031,28.1406 Q63.5625,28.2188 63.8281,28.5 Q64.1094,28.7656 64.5,29.5469 L66.7344,34 L64.0469,34 L62.5469,30.875 Q62.4844,30.7344 62.375,30.5 Q61.7188,29.1094 60.8281,29.1094 L60.0469,29.1094 L60.0469,34 L57.6094,34 L57.6094,21.6094 L61.1406,21.6094 Q63.5313,21.6094 64.5625,22.4531 Q65.6094,23.2969 65.6094,25.2031 Q65.6094,26.4844 64.9844,27.25 Q64.375,28 63.2031,28.1406 Z M60.0469,23.6719 L60.0469,27.0469 L61.2031,27.0469 Q62.2188,27.0469 62.6406,26.6563 Q63.0781,26.25 63.0781,25.3438 Q63.0781,24.4531 62.6406,24.0625 Q62.2188,23.6719 61.2031,23.6719 L60.0469,23.6719 Z " fill="#000000"/><text fill="#000000" font-family="sans-serif" font-size="14" lengthAdjust="spacing" textLength="67" x="76" y="32.8467">guarantor</text></g><polygon fill="#181818" points="96.5,79.7526,100.5,70.7526,96.5,74.7526,92.5,70.7526,96.5,79.7526" style="stroke:#181818;stroke-width:1.0;"/><path d="M96.5,44.1242 C96.5,53.7025 96.5,60.7061 96.5,73.7526 " fill="none" style="stroke:#181818;stroke-width:1.0;"/><!--SRC=[ROunQyCm48Lt_OehNLf886aXj10yoF6GfKDDvt2nhuw9TH8wUJ2b_xsdq90cz8Q7zEwzZxiB4Jk7CE3anmJYA26ZCNBiEM141-M08XQROnVzo6tf1n_XtdxKsxUghisXRmd8XJI1TW- -bR_MPq-3EXVQ_WQK8hBeYZWPeGICZlJVK4sva3J2didaQV8bq8tgiovspljsafqaMA_XePgzhEp2LezG5F1b341OPddAygp28KE-zNMQMzm9yZxRlDh5iZn3hXkNx7nU_7V8RzBy0000]--></g></svg>