<?xml version="1.0" encoding="us-ascii" standalone="no"?><svg xmlns="http://www.w3.org/2000/svg" xmlns:xlink="http://www.w3.org/1999/xlink" contentStyleType="text/css" height="632px" preserveAspectRatio="none" style="width:218px;height:632px;" version="1.1" viewBox="0 0 218 632" width="218px" zoomAndPan="magnify"><defs/><g><!--class loan_purpose--><g id="elem_loan_purpose"><rect codeLine="13" fill="#FFFFCC" height="545.2031" id="loan_purpose" rx="2.5" ry="2.5" style="stroke:#181818;stroke-width:0.5;" width="205" x="6" y="80"/><ellipse cx="57.25" cy="96" fill="#86B0BE" rx="11" ry="11" style="stroke:#181818;stroke-width:1.0;"/><path d="M61.3594,102 L53.6406,102 L53.6406,89.6094 L61.3594,89.6094 L61.3594,91.7656 L56.0938,91.7656 L56.0938,94.4375 L60.8594,94.4375 L60.8594,96.5938 L56.0938,96.5938 L56.0938,99.8438 L61.3594,99.8438 L61.3594,102 Z " fill="#000000"/><text fill="#000000" font-family="sans-serif" font-size="14" lengthAdjust="spacing" textLength="94" x="77.75" y="100.8467">loan_purpose</text><line style="stroke:#181818;stroke-width:0.5;" x1="7" x2="210" y1="112" y2="112"/><text fill="#000000" font-family="sans-serif" font-size="14" lengthAdjust="spacing" textLength="73" x="12" y="128.9951">agriculture</text><text fill="#000000" font-family="sans-serif" font-size="14" lengthAdjust="spacing" textLength="92" x="12" y="145.292">bridging_loan</text><text fill="#000000" font-family="sans-serif" font-size="14" lengthAdjust="spacing" textLength="70" x="12" y="161.5889">buy_to_let</text><text fill="#000000" font-family="sans-serif" font-size="14" lengthAdjust="spacing" textLength="143" x="12" y="177.8857">buy_to_let_construct</text><text fill="#000000" font-family="sans-serif" font-size="14" lengthAdjust="spacing" textLength="188" x="12" y="194.1826">buy_to_let_further_advance</text><text fill="#000000" font-family="sans-serif" font-size="14" lengthAdjust="spacing" textLength="193" x="12" y="210.4795">buy_to_let_house_purchase</text><text fill="#000000" font-family="sans-serif" font-size="14" lengthAdjust="spacing" textLength="114" x="12" y="226.7764">buy_to_let_other</text><text fill="#000000" font-family="sans-serif" font-size="14" lengthAdjust="spacing" textLength="158" x="12" y="243.0732">buy_to_let_remortgage</text><text fill="#000000" font-family="sans-serif" font-size="14" lengthAdjust="spacing" textLength="146" x="12" y="259.3701">commodities_finance</text><text fill="#000000" font-family="sans-serif" font-size="14" lengthAdjust="spacing" textLength="87" x="12" y="275.667">construction</text><text fill="#000000" font-family="sans-serif" font-size="14" lengthAdjust="spacing" textLength="147" x="12" y="291.9639">consumer_buy_to_let</text><text fill="#000000" font-family="sans-serif" font-size="14" lengthAdjust="spacing" textLength="110" x="12" y="308.2607">econ_loss_retail</text><text fill="#000000" font-family="sans-serif" font-size="14" lengthAdjust="spacing" textLength="146" x="12" y="324.5576">econ_loss_wholesale</text><text fill="#000000" font-family="sans-serif" font-size="14" lengthAdjust="spacing" textLength="108" x="12" y="340.8545">first_time_buyer</text><text fill="#000000" font-family="sans-serif" font-size="14" lengthAdjust="spacing" textLength="141" x="12" y="357.1514">first_time_buyer_cstr</text><text fill="#000000" font-family="sans-serif" font-size="14" lengthAdjust="spacing" textLength="110" x="12" y="373.4482">fraud_loss_retail</text><text fill="#000000" font-family="sans-serif" font-size="14" lengthAdjust="spacing" textLength="111" x="12" y="389.7451">further_advance</text><text fill="#000000" font-family="sans-serif" font-size="14" lengthAdjust="spacing" textLength="144" x="12" y="406.042">further_advance_cstr</text><text fill="#000000" font-family="sans-serif" font-size="14" lengthAdjust="spacing" textLength="116" x="12" y="422.3389">house_purchase</text><text fill="#000000" font-family="sans-serif" font-size="14" lengthAdjust="spacing" textLength="149" x="12" y="438.6357">house_purchase_cstr</text><text fill="#000000" font-family="sans-serif" font-size="14" lengthAdjust="spacing" textLength="20" x="12" y="454.9326">ips</text><text fill="#000000" font-family="sans-serif" font-size="14" lengthAdjust="spacing" textLength="123" x="12" y="471.2295">lifetime_mortgage</text><text fill="#000000" font-family="sans-serif" font-size="14" lengthAdjust="spacing" textLength="61" x="12" y="487.5264">non_b20</text><text fill="#000000" font-family="sans-serif" font-size="14" lengthAdjust="spacing" textLength="100" x="12" y="503.8232">object_finance</text><text fill="#000000" font-family="sans-serif" font-size="14" lengthAdjust="spacing" textLength="125" x="12" y="520.1201">object_finance_hq</text><text fill="#000000" font-family="sans-serif" font-size="14" lengthAdjust="spacing" textLength="77" x="12" y="536.417">operational</text><text fill="#000000" font-family="sans-serif" font-size="14" lengthAdjust="spacing" textLength="37" x="12" y="552.7139">other</text><text fill="#000000" font-family="sans-serif" font-size="14" lengthAdjust="spacing" textLength="105" x="12" y="569.0107">project_finance</text><text fill="#000000" font-family="sans-serif" font-size="14" lengthAdjust="spacing" textLength="123" x="12" y="585.3076">project_hq_phase</text><text fill="#000000" font-family="sans-serif" font-size="14" lengthAdjust="spacing" textLength="103" x="12" y="601.6045">project_pre_op</text><text fill="#000000" font-family="sans-serif" font-size="14" lengthAdjust="spacing" textLength="101" x="12" y="617.9014">...7 more fields</text></g><!--class loan--><g id="elem_loan"><rect codeLine="52" fill="#FFFFCC" height="32" id="loan" rx="2.5" ry="2.5" style="stroke:#181818;stroke-width:0.5;" width="61" x="78" y="12"/><ellipse cx="93" cy="28" fill="#D9B01C" rx="11" ry="11" style="stroke:#181818;stroke-width:1.0;"/><path d="M94.2031,28.1406 Q94.5625,28.2188 94.8281,28.5 Q95.1094,28.7656 95.5,29.5469 L97.7344,34 L95.0469,34 L93.5469,30.875 Q93.4844,30.7344 93.375,30.5 Q92.7188,29.1094 91.8281,29.1094 L91.0469,29.1094 L91.0469,34 L88.6094,34 L88.6094,21.6094 L92.1406,21.6094 Q94.5313,21.6094 95.5625,22.4531 Q96.6094,23.2969 96.6094,25.2031 Q96.6094,26.4844 95.9844,27.25 Q95.375,28 94.2031,28.1406 Z M91.0469,23.6719 L91.0469,27.0469 L92.2031,27.0469 Q93.2188,27.0469 93.6406,26.6563 Q94.0781,26.25 94.0781,25.3438 Q94.0781,24.4531 93.6406,24.0625 Q93.2188,23.6719 92.2031,23.6719 L91.0469,23.6719 Z " fill="#000000"/><text fill="#000000" font-family="sans-serif" font-size="14" lengthAdjust="spacing" textLength="29" x="107" y="32.8467">loan</text></g><polygon fill="#181818" points="108.5,79.894,112.5,70.894,108.5,74.894,104.5,70.894,108.5,79.894" style="stroke:#181818;stroke-width:1.0;"/><path d="M108.5,44.1223 C108.5,52.9639 108.5,59.2642 108.5,73.894 " fill="none" style="stroke:#181818;stroke-width:1.0;"/><!--SRC=[PPB1Rjim38RlVWeDlNH06wGxR2jGvE0iXrrsMB2pmCYqhLOILKhQ40nxzr56lCMk3eRvaVprc-Qxo31uK0xELB9A7ZC4Q9hqOaC41g_s3b9gmRmCJ2LqUtB4wgRzSVpwxN0yDgFjKA6F-QoaTwGkNQFUeXFoN-sq4ieC8KaAGsuIPXN0eyG6ZrWRifG42jZKOweJvGY2ZeKZ9LHFJ-hsSFVvOxjj3-_LRgT-DurICB0rnUN2AD69RJVOCEZQMUDorfcqmxm8jA6GCXUpmdtXF29hw7v2CBXCZbGILZTcXBJAKMrR8aPFd0SOQgaXxwcpsMBIlGqNyNykB8LBMBnSlt2DWkLpKXB53DOjqA-H72PmLQstdBBErcCLcEoiaJPoN-KCfLk9llts5PcRtynX2UOo6vCydUrnklzg6FAJzUd3Ljxez8mcNqra2VJuMbb4MGuP4LIRywGZqwft9kEhZXTdCugCcgA0pMRpIOaLdBUrdZ-IcCxLratRzltkosExVTZFsxOidihkxtUBBRracxy0]--></g></svg>